<?xml version="1.0" encoding="utf-8"?>
<!-- Generator: Adobe Illustrator 24.1.0, SVG Export Plug-In . SVG Version: 6.00 Build 0)  -->
<svg version="1.1" id="Layer_1" xmlns="http://www.w3.org/2000/svg" xmlns:xlink="http://www.w3.org/1999/xlink" x="0px" y="0px"
	 viewBox="0 0 140 140" style="enable-background:new 0 0 140 140;" xml:space="preserve">
<style type="text/css">
	.st0{fill:none;}
	.st1{fill:#FFFFFF;}
	.st2{fill:#005ABE;}
	.st3{fill:#FFDC00;}
</style>
<g>
	<path class="st0" d="M0,0L0,0 M140,0L140,0 M140,140L140,140 M0,140L0,140"/>
	<path class="st1" d="M92.9,27.98H47.1c-10.54,0-19.12,8.58-19.12,19.12V92.9c0,10.54,8.58,19.12,19.12,19.12h45.8
		c10.54,0,19.12-8.58,19.12-19.12V47.1C112.02,36.56,103.44,27.98,92.9,27.98"/>
	<path class="st2" d="M93.04,31.24H46.96c-8.66,0-15.72,7.05-15.72,15.72v46.08c0,8.67,7.05,15.72,15.72,15.72h46.08
		c8.66,0,15.72-7.05,15.72-15.72V46.96C108.76,38.3,101.7,31.24,93.04,31.24"/>
	<path class="st1" d="M61.39,62.89h-3.91c-1.15,0-2.63,0.81-3.06,1.89l0.39-2.07h-4.77L47.93,74.6h4.78l1.32-7.53h5.14
		c0,0-0.66,3.73-0.95,5.4c-0.29,1.67,0.84,2.07,1.4,2.07h2.5l1.63-9.25C63.61,63.97,62.72,62.89,61.39,62.89"/>
	<polygon class="st1" points="46.61,62.71 45.71,67.81 49.34,62.71 	"/>
	<polygon class="st1" points="52.27,44.09 36.29,44.09 35.6,48.03 41.18,48.03 38.94,60.72 43.75,60.72 46,48.03 51.58,48.03 	"/>
	<path class="st1" d="M48.83,60.72c-1.32,0-2.22-1.08-1.98-2.41l1.23-6.95c0.23-1.32,1.51-2.41,2.83-2.41h7.84
		c1.32,0,2.22,1.08,1.98,2.41l-1.22,6.95c-0.24,1.33-1.51,2.41-2.83,2.41H48.83z M55.58,56.83l0.7-3.97H52l-0.7,3.97H55.58z"/>
	<path class="st1" d="M80.36,56.83l0.7-3.97h6.2l0.69-3.9h-7.98c-1.32,0-2.6,1.08-2.84,2.41l-1.23,6.95
		c-0.23,1.33,0.66,2.41,1.99,2.41h7.76l0.69-3.9H80.36z"/>
	<path class="st1" d="M70.61,56.83h-5.25l1.39-7.87h-4.18l-1.65,9.36c-0.23,1.33,0.66,2.41,1.98,2.41h4.08
		c1.32,0,2.41-0.79,3.26-1.81c0,0,0.47,1.36,1.14,1.67c0.68,0.31,2.72,0.24,2.72,0.24l2.09-11.86H72L70.61,56.83z"/>
	<path class="st1" d="M100.77,49.01h-3.9c-1.15,0-2.26,0.81-2.69,1.89l1.12-6.39h-4.4l-2.86,16.21h4.4l1.32-7.52h4.77
		c0,0-0.66,3.72-0.95,5.4c-0.3,1.66,0.84,2.07,1.39,2.07h2.13l1.63-9.25C102.99,50.09,102.1,49.01,100.77,49.01"/>
	<path class="st1" d="M94.37,74.19l1.26-7.09h-7.07l-1.25,7.09H94.37z M85.09,78.55c-1.78,0-2.98-1.47-2.67-3.24l1.65-9.34
		c0.31-1.79,2.03-3.24,3.82-3.24h9.97c1.78,0,2.98,1.46,2.67,3.24l-1.65,9.34c-0.31,1.78-2.03,3.24-3.81,3.24H85.09z"/>
	<path class="st1" d="M75.42,74.19h-7.07l1.25-7.09h11.46l0.76-4.37h-12.9c-1.79,0-3.5,1.46-3.81,3.24l-1.65,9.34
		c-0.31,1.78,0.88,3.24,2.67,3.24h9.97c1.78,0,3.5-1.46,3.81-3.24l1.01-5.74h-4.69L75.42,74.19z"/>
	<polygon class="st3" points="67.23,84.3 61,97.14 57.05,97.14 56.58,89.37 52.81,97.14 48.83,97.14 48.07,84.3 50.89,84.3 
		51.38,94.37 56.22,84.3 59.08,84.3 59.57,94.37 64.42,84.3 	"/>
	<polygon class="st3" points="78.99,97.14 76.25,97.14 78.97,84.3 81.72,84.3 	"/>
	<polygon class="st3" points="83.5,97.14 80.76,97.14 83.48,84.3 86.23,84.3 	"/>
	<path class="st3" d="M102.48,97.14h-2.21c-1.03,0-1.74-0.1-2.14-0.3c-0.4-0.2-0.6-0.61-0.6-1.22c0-0.34,0.05-0.74,0.16-1.21
		l2.14-10.11h2.75l-0.69,3.19h2.66l-0.51,2.32h-2.61l-0.78,3.66c-0.07,0.37-0.11,0.62-0.11,0.74c0,0.25,0.09,0.42,0.26,0.49
		c0.17,0.07,0.52,0.11,1.04,0.11h1.16L102.48,97.14z"/>
	<path class="st3" d="M43.95,91.15h-3.07v0h-1.82c0.06-0.3,0.13-0.53,0.21-0.71c0.08-0.18,0.19-0.32,0.31-0.41
		c0.13-0.1,0.29-0.16,0.49-0.19c0.2-0.03,0.45-0.04,0.75-0.04h2.19c0.71,0,1.07,0.22,1.07,0.67C44.08,90.5,44.04,90.74,43.95,91.15
		 M46.36,87.78c-0.4-0.21-1.12-0.31-2.14-0.31h-3.93c-1.13,0-1.99,0.21-2.58,0.64c-0.59,0.42-0.99,1.13-1.19,2.11l-0.87,4.18
		c-0.06,0.25-0.1,0.48-0.13,0.68c-0.03,0.2-0.04,0.38-0.04,0.55c0,0.3,0.04,0.54,0.13,0.73c0.09,0.19,0.24,0.34,0.45,0.46
		c0.21,0.12,0.49,0.2,0.85,0.25c0.36,0.04,0.8,0.07,1.34,0.07h6.68l0.49-2.3h-5.63c-0.52,0-0.87-0.04-1.04-0.12
		c-0.17-0.08-0.26-0.25-0.26-0.5c0-0.18,0.03-0.42,0.09-0.71l0-0.01h1.16l0,0.01h6.38l0.69-3.26c0.1-0.48,0.16-0.89,0.16-1.23
		C46.96,88.39,46.76,87.99,46.36,87.78"/>
	<path class="st3" d="M67.99,94.81c-0.4,0-0.6-0.17-0.6-0.51c0-0.21,0.08-0.4,0.25-0.57c0.16-0.17,0.38-0.26,0.65-0.26h2.97l0-0.01
		h1.16l-0.29,1.35H67.99z M75.86,88.25c-0.1-0.19-0.25-0.35-0.47-0.46c-0.22-0.11-0.5-0.19-0.85-0.23
		c-0.35-0.04-0.79-0.07-1.31-0.07h-6.65l-0.49,2.32h5.63c0.52,0,0.87,0.04,1.04,0.11c0.17,0.07,0.26,0.24,0.26,0.49
		c0,0.12-0.04,0.36-0.11,0.73h-2.2v0h-2.15c-0.64,0-1.17,0.03-1.6,0.1c-0.42,0.07-0.78,0.2-1.06,0.39
		c-0.28,0.19-0.51,0.47-0.67,0.83c-0.16,0.36-0.31,0.83-0.45,1.41l-0.11,0.54c-0.1,0.46-0.16,0.86-0.16,1.21
		c0,0.31,0.05,0.57,0.15,0.76c0.1,0.19,0.25,0.35,0.47,0.46c0.22,0.11,0.5,0.19,0.85,0.23c0.35,0.04,0.78,0.07,1.31,0.07h7.1
		l1.47-6.92c0.1-0.46,0.16-0.86,0.16-1.21C76,88.7,75.95,88.44,75.86,88.25"/>
	<path class="st3" d="M94.11,91.15h-2.89v0h-2c0.06-0.3,0.13-0.53,0.21-0.71c0.08-0.18,0.19-0.32,0.31-0.41
		c0.13-0.1,0.29-0.16,0.49-0.19c0.2-0.03,0.45-0.04,0.75-0.04h2.19c0.71,0,1.07,0.22,1.07,0.67C94.24,90.5,94.2,90.74,94.11,91.15
		 M96.52,87.78c-0.4-0.21-1.12-0.31-2.14-0.31h-3.93c-1.13,0-1.99,0.21-2.58,0.64c-0.59,0.42-0.99,1.13-1.19,2.11l-0.87,4.18
		c-0.06,0.25-0.1,0.48-0.13,0.68c-0.03,0.2-0.05,0.38-0.05,0.55c0,0.3,0.05,0.54,0.13,0.73c0.09,0.19,0.24,0.34,0.45,0.46
		c0.21,0.12,0.49,0.2,0.85,0.25c0.36,0.04,0.8,0.07,1.34,0.07h6.68l0.49-2.3h-5.63c-0.52,0-0.87-0.04-1.04-0.12
		c-0.17-0.08-0.26-0.25-0.26-0.5c0-0.18,0.03-0.42,0.09-0.71l0-0.01h1.16l0,0.01h6.39l0.69-3.26c0.1-0.48,0.16-0.89,0.16-1.23
		C97.12,88.39,96.92,87.99,96.52,87.78"/>
	<polygon class="st2" points="114.58,31.5 113.44,31.5 113.44,34.87 113.16,34.87 113.16,31.5 112.02,31.5 112.02,31.25 
		114.58,31.25 	"/>
	<polygon class="st2" points="118.43,34.87 118.15,34.87 118.15,31.65 116.81,33.88 116.76,33.88 115.42,31.65 115.42,34.87 
		115.15,34.87 115.15,31.25 115.49,31.25 116.78,33.39 118.08,31.25 118.43,31.25 	"/>
</g>
</svg>
