<?xml version="1.0" encoding="utf-8"?>
<!-- Generator: Adobe Illustrator 27.1.1, SVG Export Plug-In . SVG Version: 6.00 Build 0)  -->
<svg version="1.1" id="Layer_1" xmlns="http://www.w3.org/2000/svg" xmlns:xlink="http://www.w3.org/1999/xlink" x="0px" y="0px"
	 viewBox="0 0 448 248" style="enable-background:new 0 0 448 248;" xml:space="preserve">
<style type="text/css">
	.st0{fill:#386890;}
	.st1{fill:#D0294B;}
	.st2{fill:#B5D8DF;}
	.st3{fill:#EE3153;}
	.st4{fill:#F05773;}
	.st5{fill:#EF4464;}
	.st6{fill:#A9D6DA;}
	.st7{fill:#092129;}
	.st8{fill:#72628E;}
	.st9{fill:#161F30;}
	.st10{fill:#ECA391;}
	.st11{clip-path:url(#SVGID_00000003795676535411772020000004769154639175531702_);fill:#DD8879;}
	.st12{fill:#221E20;}
	.st13{fill:#182125;}
	.st14{fill:#10868F;}
	.st15{fill:#0B2F4E;}
	.st16{fill:#62C0C1;}
	.st17{fill:#3BA3A5;}
	.st18{fill:#1B313A;}
	.st19{fill:#E3F0F5;}
	.st20{fill:#766492;}
	.st21{fill:#BD8F56;}
	.st22{fill:#BFDAE1;}
	.st23{fill:#E6284B;}
	.st24{fill:#A2CDD2;}
	.st25{fill:#23646E;}
	.st26{fill:#C0D9E0;}
	.st27{fill:#2A7884;}
	.st28{fill:#182941;}
	.st29{fill:#C1925C;}
	.st30{fill:#003B4E;}
	.st31{fill:#F8A492;}
	.st32{fill:#E88C7F;}
	.st33{fill:#561E10;}
</style>
<g>
	<g>
		<path class="st0" d="M214.9,37.7c-21.8,2.9-40.3,10.9-51.1,20.6c-13.5-0.6-30,4.9-46.8,14.1c-16.7,9.2-30.2,20.2-36.9,32
			c-14,3.8-30.6,15.3-44.8,32.1c-11,13-18.5,27-21.9,39.4C1.1,117.1,30.2,53.1,88.7,20.9S216.8-1.6,259.9,40.3
			C247.6,36.6,231.8,35.4,214.9,37.7"/>
		<path class="st1" d="M187.4,87.5c-17.4-0.9-76.1,27.7-95.3,52.5c-16.6,0.3-62.4,19.5-78.7,35.7C1.2,117,30.3,53.1,88.7,20.9
			c58.5-32.2,128-22.5,171,19.2C234.3,47.2,194.7,76,187.4,87.5"/>
	</g>
	<path class="st2" d="M179.4,190.1c0.3,0.6,1,0.8,1.6,0.5l1.5-0.9c0.6-0.3,0.8-1,0.5-1.6L86.8,13.2c-0.3-0.6-1-0.8-1.6-0.5l-1.5,0.9
		c-0.6,0.3-0.8,1-0.5,1.6L179.4,190.1"/>
	<g>
		<path class="st3" d="M214.9,37.7c-21.8,2.9-40.3,10.9-51.1,20.6c-13.5-0.6-30,4.9-46.8,14.1c-16.7,9.2-30.2,20.2-36.9,32
			c-14,3.8-30.6,15.3-44.8,32.1c-11,13-18.5,27-21.9,39.4C1.1,117.1,30.2,53.1,88.7,20.9S216.8-1.6,259.9,40.3
			C247.6,36.6,231.8,35.4,214.9,37.7"/>
	</g>
	<path class="st4" d="M13.4,175.9c3.5-12.4,11-26.3,21.9-39.4c14.1-16.8,30.8-28.3,44.8-32.1c-3.9-6.6-6.5-22.2-6.3-38.3
		c0.2-19.4,4.4-39.4,14.9-45.2C39.6,48,11.2,97.4,10.7,147.4C10.6,156.9,11.5,166.5,13.4,175.9"/>
	<path class="st5" d="M80.1,104.4c6.5-11.3,19.2-21.9,35.2-31c0.6-0.3,1.2-0.7,1.8-1c0.6-0.3,1.2-0.7,1.8-1
		c15.5-8.3,30.7-13.3,43.5-13.2c0.5,0,1,0,1.5,0l0,0c-6.7-13.1-43.3-39.2-65.6-39.5c-3.6,0-6.8,0.6-9.5,2.1
		C78.2,26.7,74,46.8,73.8,66.1C73.6,82.2,76.2,97.7,80.1,104.4"/>
	<path class="st6" d="M180.5,190.7c0.2,0,0.4,0,0.6-0.1l1.5-0.9c0.6-0.3,0.8-1,0.5-1.6l-8.7-15.7c-1.6,0.1-3,0.3-4.3,0.6l9.4,17.1
		C179.7,190.4,180,190.7,180.5,190.7"/>
	<path class="st7" d="M155.8,114.5c0-0.3-0.2-0.5-0.4-0.5c-0.2,0-0.4,0.2-0.4,0.5c0,0.3,0.2,0.5,0.4,0.5
		C155.7,115.1,155.8,114.8,155.8,114.5"/>
	<path class="st8" d="M158.7,159.2"/>
	<path class="st7" d="M191.2,70.4"/>
</g>
<g>
	<path class="st9" d="M329,173.7c6.3-7.5,14.7-14,24.7-14.2c10.3-0.2,16.7,6.5,24.5,14.2L329,173.7z"/>
	<g>
		<g>
			<path id="XMLID_00000133511464508633175220000014062700142494872715_" class="st10" d="M364.3,148.4l-21-2.2l0.3,15.8
				c0,0,2.8,7.9,9.9,7.9c8.3,0,11.1-7.6,11.1-7.6L364.3,148.4z"/>
		</g>
		<g>
			<defs>
				<path id="SVGID_1_" d="M364.3,148.4l-21-2.2l0.3,15.8c0,0,2.8,7.9,9.9,7.9c8.3,0,11.1-7.6,11.1-7.6L364.3,148.4z"/>
			</defs>
			<clipPath id="SVGID_00000043424008029967591130000012690291006348315323_">
				<use xlink:href="#SVGID_1_"  style="overflow:visible;"/>
			</clipPath>
			<polygon style="clip-path:url(#SVGID_00000043424008029967591130000012690291006348315323_);fill:#DD8879;" points="343.3,146.9 
				341.1,168.8 360.2,157.1 			"/>
		</g>
	</g>
	<path class="st10" d="M364.6,151.1c0.7-1.6,1.2-3.5,1.6-5.6c0.9,0.3,2,0,2.3-0.8c0.3-0.8,1.1-4.5,0.8-5.9c-0.3-1.4-1.2-2.5-2.9-0.8
		c-0.1-3.1-0.6-8.8-2-12.7c0-0.4,0-0.7-0.1-1c-0.1-0.4-0.4-0.8-0.9-1.1c-0.1-0.2-0.3-0.4-0.4-0.6c-1.1-1.4-5-2-9-1.8
		c-4-0.2-7.9,0.4-9,1.8c-0.1,0.2-0.3,0.4-0.4,0.6c-0.4,0.3-0.7,0.7-0.9,1.1c-0.1,0.2-0.1,0.6-0.1,1c-1.4,3.8-1.9,9.5-2,12.7
		c-1.7-1.7-2.6-0.6-2.9,0.8c-0.3,1.4,0.5,5.1,0.8,5.9c0.3,0.8,1.4,1.1,2.3,0.8c1.8,10.8,8.2,14.1,12,14.4c0,0,0.4,0,0.5,0
		c0,0,0,0,0,0C357.1,159.6,361.9,157.4,364.6,151.1"/>
	<path class="st12" d="M345,170.2"/>
	<path class="st12" d="M345,170.2"/>
	<path class="st13" d="M369,128.6c-1-7.7-7.5-13.6-15.3-13.6s-14.3,5.9-15.3,13.6c-0.8,0.1-1.4,0.8-1.4,1.5v3c0,0.9,0.7,1.6,1.6,1.6
		h1.4c0.1,0.4,0.2,0.8,0.3,1.3c0.2,0.8,1.2,3,1.9,3.4c0.6,0.4,0.5-0.4,0.5-1c-0.1-0.9-0.2-2.3-0.2-3.6H365c-0.1,2.1-0.2,4-0.2,5
		c0,0.6,0.4,0,0.4,0s0.9-2.3,2.6-2.6c0.2,0,0.3-1.1,0.5-2.4h0.4c0.9,0,1.6-0.7,1.6-1.6v-3C370.3,129.4,369.7,128.7,369,128.6z"/>
	<path class="st13" d="M365.1,137.3c-0.2-0.6,1-0.6,0.3-0.6l-11.7,0.9c-0.1,0-0.1,0-0.2,0l-11.4-0.9c-0.7-0.1,0.3-0.1,0.1,0.5
		l-0.6,1.7v4.7c0,0,0.1,0.1,0.1,0.1l6.6,3.3c0.4,0.2,0.9,0.2,1.4,0l3.3-1.9c0.5-0.3,1-0.3,1.5,0l3.3,1.9c0.4,0.2,0.9,0.3,1.4,0
		l6.6-3.3c0,0,0,0,0.1-0.1v-4.8L365.1,137.3z"/>
	<g>
		
			<ellipse transform="matrix(0.1958 -0.9806 0.9806 0.1958 140.918 454.5927)" class="st10" cx="347.6" cy="141.4" rx="1.4" ry="2.6"/>
		
			<ellipse transform="matrix(0.9806 -0.1958 0.1958 0.9806 -20.7257 73.1131)" class="st10" cx="359.4" cy="141.4" rx="2.6" ry="1.4"/>
	</g>
</g>
<g>
	<path class="st2" d="M413.3,173.2h-64.2v0l0,0c-1.3,0-2.4-1.1-2.4-2.4c0-1.3,1.1-2.4,2.4-2.4l0,0v0h64.2"/>
	<path class="st2" d="M371.4,170.3l8.4-33.6c0.3-1.3,1.7-2.4,3-2.4h44.6c0.7,0,1.4,0.3,1.8,0.9c0.4,0.6,0.6,1.3,0.4,2l-8.4,33.6
		c-0.3,1.3-1.7,2.4-3,2.4h-44.6c-0.7,0-1.4-0.3-1.8-0.9C371.3,171.8,371.2,171,371.4,170.3"/>
	<path class="st14" d="M402.3,156.2c-1.7,1.4-4,1.4-5,0c-1-1.4-0.5-3.6,1.2-5"/>
	<path class="st15" d="M398.6,151.3c1.7-1.4,3.9-1.4,5,0c1,1.4,0.5,3.6-1.2,5"/>
	<rect x="325.3" y="179.3" class="st16" width="105.1" height="67.4"/>
	<rect x="325.3" y="176.2" class="st17" width="105.1" height="6.1"/>
	<rect x="325.3" y="201" class="st17" width="105.1" height="1.2"/>
	<rect x="326.7" y="178.1" class="st17" width="105.1" height="1.2"/>
	<rect x="325.3" y="223.9" class="st17" width="105.1" height="1.2"/>
	<path class="st16" d="M436.6,176.3c0,1.7-1.4,3.1-3.1,3.1H324.9c-1.7,0-3.1-1.4-3.1-3.1s1.4-3.1,3.1-3.1h108.7
		C435.2,173.2,436.6,174.6,436.6,176.3"/>
	<path class="st18" d="M408.8,235.9c0-1.4-1.1-2.5-2.5-2.5c-1.4,0-2.5,1.1-2.5,2.5c0,1.4,1.1,2.5,2.5,2.5
		C407.7,238.4,408.8,237.3,408.8,235.9"/>
	<path class="st18" d="M408.8,213c0-1.4-1.1-2.5-2.5-2.5c-1.4,0-2.5,1.1-2.5,2.5c0,1.4,1.1,2.5,2.5,2.5
		C407.7,215.6,408.8,214.4,408.8,213"/>
	<path class="st18" d="M408.8,190.1c0-1.4-1.1-2.5-2.5-2.5c-1.4,0-2.5,1.1-2.5,2.5c0,1.4,1.1,2.5,2.5,2.5
		C407.7,192.6,408.8,191.5,408.8,190.1"/>
	<path class="st18" d="M355.3,235.9c0-1.7-1.4-3.2-3.2-3.2c-1.7,0-3.2,1.4-3.2,3.2c0,1.7,1.4,3.2,3.2,3.2
		C353.9,239,355.3,237.6,355.3,235.9"/>
	<path class="st18" d="M355.3,213c0-1.7-1.4-3.2-3.2-3.2c-1.7,0-3.2,1.4-3.2,3.2c0,1.7,1.4,3.2,3.2,3.2
		C353.9,216.2,355.3,214.8,355.3,213"/>
	<path class="st18" d="M354.7,190.1c0-1.4-1.1-2.5-2.5-2.5c-1.4,0-2.5,1.1-2.5,2.5c0,1.4,1.1,2.5,2.5,2.5
		C353.5,192.6,354.7,191.5,354.7,190.1"/>
</g>
<g>
	<g>
		<g>
			<g>
				<polygon class="st19" points="311.7,115.6 311.7,115.6 311.6,115.6 				"/>
				<path class="st20" d="M290.6,27.7c0,0.4,0,0.8-0.1,1.2c0.2-0.4,0.4-0.8,0.6-1.2H290.6z"/>
				<path class="st21" d="M311.7,115.6c0.8-0.3,36.1-14.9,36.1-41.9c0-1.4,0-2.7,0-4h-36.1V115.6z"/>
				<path class="st22" d="M347.7,69.7c0-10.7,0-19.9,0-27c-8.3,0-15-6.7-15-15h-10.8h-10.2v42H347.7z"/>
				<path class="st22" d="M275.6,69.7c0,1.3,0,2.7,0,4c0,27.2,36,41.8,36.1,41.9c0,0,0,0,0,0V69.7H275.6z"/>
				<path class="st21" d="M275.6,42.7c0,7.1,0,16.3,0,27h36.1v-42h-10.3h-10.3c-0.2,0.4-0.4,0.8-0.6,1.2
					C289.8,36.6,283.4,42.7,275.6,42.7z"/>
			</g>
		</g>
	</g>
</g>
<g>
	<g>
		<g>
			<ellipse class="st23" cx="397.1" cy="96.4" rx="22.8" ry="22.8"/>
			<ellipse class="st19" cx="397.1" cy="96.4" rx="16.3" ry="16.3"/>
		</g>
		<g>
			
				<rect x="375.8" y="93.4" transform="matrix(0.7073 -0.7069 0.7069 0.7073 47.8706 308.8577)" class="st23" width="42.3" height="6.5"/>
		</g>
	</g>
</g>
<g>
	<g>
		<g>
			
				<rect id="XMLID_00000101092082422254943900000006512655042746223020_" x="198.5" y="176.5" class="st24" width="69.3" height="61.1"/>
		</g>
	</g>
	<g>
		<g>
			
				<rect id="XMLID_00000106113185957753570390000014510045279591020166_" x="81.6" y="155.5" class="st24" width="77" height="82.1"/>
		</g>
	</g>
	<path class="st25" d="M163.2,162.1H82.7c-3.7,0-6.6-3-6.6-6.6l0,0c0-3.7,3-6.6,6.6-6.6h80.4c3.7,0,6.6,3,6.6,6.6l0,0
		C169.8,159.1,166.8,162.1,163.2,162.1z"/>
	<path class="st25" d="M266.7,183.1h-80.4c-3.7,0-6.6-3-6.6-6.6l0,0c0-3.7,3-6.6,6.6-6.6h80.4c3.7,0,6.6,3,6.6,6.6l0,0
		C273.4,180.1,270.4,183.1,266.7,183.1z"/>
	<g>
		<g>
			
				<rect id="XMLID_00000070111785831538640750000016957705317220226182_" x="134.6" y="112.1" class="st26" width="80.2" height="134.8"/>
		</g>
	</g>
	<path class="st27" d="M214.9,119.2h-80.4c-3.7,0-6.6-3-6.6-6.6l0,0c0-3.7,3-6.6,6.6-6.6h80.4c3.7,0,6.6,3,6.6,6.6l0,0
		C221.6,116.2,218.6,119.2,214.9,119.2z"/>
	<g>
		<g>
			<g>
				
					<rect id="XMLID_00000049181895012921365420000017583209126315028899_" x="165" y="217.7" class="st28" width="19.4" height="29.1"/>
			</g>
		</g>
		<circle class="st28" cx="174.7" cy="217.7" r="9.7"/>
	</g>
	<g>
		<g>
			
				<rect id="XMLID_00000168119302845642436860000009298801954249013889_" x="103.5" y="216.8" class="st28" width="13.9" height="20.8"/>
		</g>
	</g>
	<circle class="st28" cx="110.5" cy="216.8" r="6.9"/>
	<g>
		<g>
			<g>
				
					<rect id="XMLID_00000053514309083832733190000002330907495243391650_" x="232" y="216.8" class="st28" width="13.9" height="20.8"/>
			</g>
		</g>
		<circle class="st28" cx="238.9" cy="216.8" r="6.9"/>
	</g>
	<g>
		<rect x="145.3" y="135.9" class="st19" width="58.7" height="11.2"/>
		<rect x="145.3" y="157.5" class="st19" width="58.7" height="11.2"/>
		<rect x="145.3" y="179.1" class="st19" width="58.7" height="11.2"/>
	</g>
	<g>
		<rect x="89.3" y="174.1" class="st19" width="37.8" height="8.3"/>
		<rect x="89.3" y="190.1" class="st19" width="37.8" height="8.3"/>
	</g>
	<g>
		<rect x="221.9" y="192.9" class="st19" width="37.8" height="8.3"/>
	</g>
</g>
<g>
	<path class="st29" d="M270.5,175.6c-4.5,0.1-8.6,0.9-12.2,2.2l19.2,43.2l-10.2,4.5l-18.7-42.2c-20.5,16.6-20.2,54.3-20.2,54.3
		s4.4,4.3,42.9,4.3c5.3,0,10-0.1,14.1-0.2l25.4-28C305.9,196,295.2,175.1,270.5,175.6"/>
	<path class="st30" d="M277.4,221l-19.2-43.2c-3.7,1.3-7,3.2-9.8,5.5l15.8,42.2L277.4,221"/>
	<path class="st31" d="M281.6,164.4l-22.1-2.3l0.3,15.4c0,0,0.8,1.8,2.3,4c2.3,3.2,5.6,5.5,10.8,5.5c8.7,0,9-9.9,9-9.9L281.6,164.4"
		/>
	<polyline class="st32" points="259.5,162.1 259.8,177.5 276.2,163.9 259.5,162.1 	"/>
	<path class="st31" d="M281.6,164.4c0.7-1.7,1.3-3.6,1.7-5.9c1,0.3,2.1,0,2.4-0.8c0.3-0.8,1.1-4.8,0.8-6.2c-0.3-1.5-1.3-2.6-3.1-0.8
		c-0.1-3.3-0.7-9.3-2.1-13.3c0-0.4,0-0.8-0.1-1c-0.2-0.4-0.5-0.8-0.9-1.2c-0.1-0.2-0.3-0.4-0.4-0.6c-1.2-1.5-5.3-2.1-9.5-1.9
		c-4.2-0.2-8.3,0.4-9.5,1.9c-0.2,0.2-0.3,0.4-0.4,0.6c-0.4,0.4-0.8,0.7-0.9,1.2c-0.1,0.2-0.1,0.6-0.1,1c-1.5,4-2,10-2.1,13.3
		c-1.8-1.8-2.8-0.7-3.1,0.8c-0.3,1.5,0.5,5.4,0.8,6.2c0.3,0.8,1.5,1.1,2.4,0.8c1.9,11.4,8.7,14.9,12.7,15.1l0.5,0l0,0
		C273.8,173.3,278.8,171.1,281.6,164.4"/>
	<path class="st33" d="M282,132.4c-0.1-0.1-0.2-0.3-0.3-0.5c-0.5-0.9-0.5-1.9-1.2-2.8c-1.3-1.4-2.9-0.9-4.5-1
		c-1.3-0.1-2.1-0.7-3.2-1.1c-2-0.7-4.7-0.8-6.7-0.4c-3.8,0.8-5.7,4.3-8.6,6.5c-2.6,2.1-3.4,4.7-3,8.1c0.1,1.1,0.4,2.2,0.7,3.3
		c0.3,1.3,0.6,2.6,1,3.9c0.4,1.5,1.6,2.5,2.2,4c0,0,0.7,0.9,0.8,0c0.1-2.5-1.3-8.9-1-10c0.3-1.5,1.3-2.9,3.8-2.7
		c2.6,0.2,12.8-1,17.5-4c1.4,2.1,3,3.9,3.2,4.9c0.3,1.2-0.5,9.4-0.5,11.8c0,0.6,0.4,0,0.4,0s0.9-2.5,2.7-2.8
		c0.4-0.1,0.9-6.1,0.9-6.8c0.2-1.8,0.2-3.7-0.2-5.6c-0.4-1.5-1.2-2.9-2.4-3.9C282.8,133,282.4,132.8,282,132.4"/>
	<path class="st33" d="M264.6,150.8c-0.4-0.5-0.4-1.1,0-1.4c0.4-0.3,0.9-0.2,1.3,0.3c0.4,0.5,0.4,1.1,0,1.4
		C265.5,151.4,265,151.3,264.6,150.8"/>
	<path class="st33" d="M275,150.8c-0.4-0.5-0.4-1.1,0-1.4c0.4-0.3,0.9-0.2,1.3,0.3c0.4,0.5,0.4,1.1,0,1.4
		C276,151.4,275.4,151.3,275,150.8"/>
	<path class="st32" d="M270.2,159.3L270.2,159.3c-0.3,0-0.5-0.2-0.5-0.5l0.4-9c0-0.3,0.2-0.5,0.5-0.4c0.3,0,0.5,0.2,0.5,0.5l-0.4,9
		C270.7,159.1,270.5,159.3,270.2,159.3"/>
	<path class="st31" d="M255.3,238.2c-0.4,0.1-0.7,0.2-1,0.2c-1.3,0.3-2.7,0.4-4.1,0.2c-1.2-0.1-2.5-0.2-3.6-0.5
		c-0.7-0.2-0.8-0.8-1-1.3c-0.5-1.9-0.6-4-0.7-5.9c-0.1-1.5-0.4-3.6,0.4-5c0.5-1,3.9-3.3,7.7-3.1c3.8,0.2,4.5,4.2,4.7,5.6l0,0.2
		c0.1,1.2,0.1,2.5,0.1,3.8c0,0.8,0,1.6,0,2.5c0,0.6,0.1,1.4-0.2,1.9C257.3,237.6,256.3,237.9,255.3,238.2"/>
	<path class="st30" d="M254.3,219.2l56.4-5.5c0,0,3,14.6-1.6,22.4c-4.6,7.8-17.5,9.2-26.2,9.9c-8.7,0.6-27.4,0.8-27.4,0.8
		L254.3,219.2"/>
	<path class="st32" d="M270.3,165.1c-1.1,0.2-2.3,0-3.6-0.9c-0.2-0.1-0.2-0.4-0.1-0.6c0.1-0.2,0.4-0.2,0.6-0.1
		c2.7,2,5.2-0.2,5.3-0.3c0.2-0.2,0.4-0.1,0.6,0c0.2,0.2,0.1,0.4,0,0.6C272.9,163.8,271.8,164.8,270.3,165.1"/>
</g>
</svg>
