<svg version="1.1" id="Layer_1" xmlns="http://www.w3.org/2000/svg" xmlns:xlink="http://www.w3.org/1999/xlink" x="0px" y="0px"
	 width="100%" viewBox="0 0 643 677" enable-background="new 0 0 643 677" xml:space="preserve">
<path fill="#FCFCFD" opacity="1.000000" stroke="none" 
	d="
M1.000000,188.000000 
	C1.000000,125.333336 1.000000,63.166668 1.000000,1.000000 
	C215.333328,1.000000 429.666656,1.000000 644.000000,1.000000 
	C644.000000,226.666672 644.000000,452.333344 644.000000,678.000000 
	C429.666656,678.000000 215.333328,678.000000 1.000000,678.000000 
	C1.000000,514.833313 1.000000,351.666656 1.000000,188.000000 
M10.254521,56.909748 
	C10.130910,58.394676 10.048947,59.884483 9.875824,61.363617 
	C9.370876,65.677803 10.701907,67.993042 15.596066,67.372169 
	C18.027351,67.063736 20.556826,67.529320 22.113920,67.680489 
	C20.617929,67.678337 19.121801,67.688652 17.625973,67.671944 
	C10.169740,67.588669 10.119385,67.586075 10.105464,75.200424 
	C10.011257,126.731972 9.934088,178.263565 9.886401,229.795166 
	C9.884740,231.589951 10.251230,233.385056 10.113061,236.037949 
	C10.023832,243.005890 9.852795,249.973938 9.862247,256.941742 
	C9.882505,271.877625 9.995965,286.813385 9.587187,302.461548 
	C9.215652,321.933624 8.559142,341.405151 8.521477,360.877869 
	C8.350347,449.351257 8.305037,537.825012 8.416693,626.298401 
	C8.423268,631.508606 9.875531,636.808350 11.311163,641.880737 
	C11.893526,643.938293 14.234020,645.498169 15.949298,647.957397 
	C21.431559,656.961426 30.179733,660.002930 40.646709,661.610291 
	C45.468246,661.746277 50.289768,662.000671 55.111324,662.001221 
	C231.265335,662.021484 407.419342,662.018799 583.573364,662.015930 
	C590.405945,662.015869 597.254639,662.273132 604.066956,661.892517 
	C612.576355,661.417114 620.371948,659.072083 625.802612,650.810608 
	C633.081787,641.545105 634.809937,630.489441 634.817566,619.330872 
	C634.945374,431.337677 634.907288,243.344360 634.854858,55.351082 
	C634.854065,52.561954 634.205383,49.773010 634.305176,46.402454 
	C632.923279,41.827389 631.541382,37.252323 630.014038,32.011448 
	C624.164124,20.994122 614.793274,15.975526 602.533936,15.960936 
	C581.874939,15.936349 561.215881,15.948507 540.556885,15.948272 
	C374.451691,15.946379 208.346146,16.104471 42.241920,15.703918 
	C25.136528,15.662667 8.520087,28.785366 10.261905,45.609119 
	C10.397882,49.100174 10.533858,52.591225 10.254521,56.909748 
z"/>
<path fill="#4D60AA" opacity="1.000000" stroke="none" 
	d="
M10.762247,44.957222 
	C8.520087,28.785366 25.136528,15.662667 42.241920,15.703918 
	C208.346146,16.104471 374.451691,15.946379 540.556885,15.948272 
	C561.215881,15.948507 581.874939,15.936349 602.533936,15.960936 
	C614.793274,15.975526 624.164124,20.994122 630.023315,32.790245 
	C629.684570,36.291927 629.199341,39.005997 629.023438,41.739964 
	C628.810730,45.046192 630.298706,47.033390 633.859131,46.983986 
	C634.205383,49.773010 634.854065,52.561954 634.854858,55.351082 
	C634.907288,243.344360 634.945374,431.337677 634.817566,619.330872 
	C634.809937,630.489441 633.081787,641.545105 625.176636,650.906372 
	C623.610779,651.023621 622.309875,650.649170 621.785889,651.126892 
	C615.316956,657.024719 607.614929,659.055908 599.061462,659.052979 
	C491.233032,659.016357 383.404633,659.030579 275.576202,659.027649 
	C199.079697,659.025574 122.583183,659.001038 46.086803,659.100159 
	C44.050838,659.102783 42.016575,660.417786 39.981529,661.120728 
	C30.179733,660.002930 21.431559,656.961426 15.902367,647.221069 
	C13.430060,639.157410 10.895214,632.032166 10.910184,623.976624 
	C11.092797,525.701538 10.999631,427.425964 11.053411,329.150543 
	C11.055664,325.034088 11.846821,320.922028 12.170774,316.800110 
	C12.334183,314.720917 12.618392,312.559448 12.240940,310.549194 
	C11.520191,306.710510 12.551420,305.017578 16.721197,304.921814 
	C49.780228,304.162598 82.826103,305.943909 115.931702,303.340393 
	C142.072037,301.284668 168.455872,302.377106 194.729507,301.945404 
	C210.866333,301.680328 226.889725,300.735931 242.952667,298.319000 
	C257.466614,296.135071 272.397369,296.814941 287.117371,295.829437 
	C290.138245,295.627228 293.039673,293.641113 296.324219,292.394348 
	C297.100586,292.336304 297.548981,292.361145 298.263245,292.595490 
	C300.031128,292.626556 301.533112,292.448090 303.397400,292.197449 
	C304.496368,292.134216 305.232971,292.143158 306.288879,292.419434 
	C315.998627,292.185455 325.431763,292.082886 334.769135,291.084656 
	C347.238953,289.751556 359.647339,287.809937 372.058197,285.968781 
	C384.291199,284.154022 396.548309,282.423553 408.694183,280.124207 
	C419.048096,278.164001 429.222107,275.271790 439.543549,273.116730 
	C449.808563,270.973419 460.261749,269.664215 470.443390,267.206238 
	C482.155365,264.378815 493.734100,260.928314 505.233856,257.313080 
	C516.966980,253.624512 528.630249,249.660599 540.123657,245.290176 
	C544.379700,243.671783 548.065857,240.554825 552.032898,238.074249 
	C552.053833,238.027191 552.154663,238.048264 552.431824,238.066818 
	C553.160034,237.798950 553.611023,237.512543 554.276306,237.118469 
	C554.490540,237.010803 554.962830,236.927826 555.262085,236.960632 
	C556.014893,236.671570 556.468506,236.349701 556.933899,235.983398 
	C556.945679,235.938980 557.037598,235.938187 557.406982,235.967468 
	C561.742676,234.063370 565.773804,232.251404 569.662292,230.172531 
	C579.162476,225.093445 587.996521,219.181534 593.903687,209.556458 
	C593.966248,209.358978 594.190857,209.010818 594.393677,208.881210 
	C594.836853,208.499710 594.928284,208.202026 594.968140,207.643219 
	C595.065613,207.427917 595.410889,207.105087 595.747803,207.089371 
	C598.225769,204.681839 601.204712,202.635574 602.359009,199.836792 
	C606.724243,189.252502 606.625061,178.161926 601.768005,167.991882 
	C594.776611,153.352646 581.917847,144.144623 568.288025,136.284836 
	C559.800537,131.390442 550.773743,127.431274 541.667175,122.892876 
	C529.558655,118.112480 517.812622,113.383888 505.967377,108.918427 
	C500.451447,106.839012 494.790436,105.101242 489.111450,103.506905 
	C479.226746,100.731796 469.698181,96.203896 458.644531,97.042877 
	C456.501160,96.589691 454.741974,96.176170 452.733337,95.522293 
	C451.337463,95.198036 450.191101,95.114151 448.703674,95.008667 
	C447.938171,94.829254 447.513702,94.671440 447.008728,94.213257 
	C446.009308,93.616043 445.090454,93.319199 444.092896,93.027771 
	C444.014221,93.033180 443.905029,92.919357 443.716980,92.631393 
	C438.097382,90.557922 432.775879,88.237282 427.212463,87.092781 
	C413.548859,84.281914 399.574463,82.780006 386.107300,79.280548 
	C375.513885,76.527847 365.011902,75.866936 354.178040,75.981155 
	C354.076630,75.986511 353.901062,75.884354 353.711975,75.606865 
	C350.476379,74.218185 347.511017,72.657074 344.366394,72.089844 
	C337.898895,70.923233 331.244019,70.715385 324.831451,69.341766 
	C312.988098,66.804840 301.099670,65.473755 288.540649,66.072144 
	C282.519592,65.851295 276.834198,66.730919 271.813324,63.015068 
	C270.576172,62.099483 268.339508,62.402996 266.559143,62.378487 
	C261.956024,62.315117 257.300415,62.825310 252.757294,62.305916 
	C242.520935,61.135643 232.382095,58.850555 222.126968,58.164989 
	C204.758606,57.003899 187.320816,55.990391 169.930374,56.230644 
	C130.436111,56.776268 91.042854,54.676418 51.623035,53.038345 
	C39.854622,52.549316 28.074707,52.311436 16.297754,52.071968 
	C13.451599,52.014095 11.931060,51.092941 11.921785,48.028973 
	C11.918683,47.003895 11.170078,45.981075 10.762247,44.957222 
M389.990234,568.997559 
	C389.990234,568.997559 389.971375,568.971680 389.234344,569.037903 
	C387.423340,568.865845 385.523285,568.986877 383.817413,568.468811 
	C377.811676,566.644470 371.876160,565.697632 365.086609,568.683838 
	C364.104156,570.020813 362.321442,571.328186 362.270752,572.699585 
	C361.971069,580.811279 362.070740,588.937866 362.042114,597.059448 
	C362.032562,599.776001 362.040619,602.492554 362.040619,605.204224 
	C370.938202,603.979736 378.922485,602.880981 387.207123,602.452698 
	C390.630219,603.800537 394.050354,605.156128 397.477234,606.494263 
	C401.029114,607.881287 402.381500,606.499756 401.956909,601.993896 
	C401.956909,598.408264 401.956909,594.822693 401.956909,591.314697 
	C409.460022,590.699768 410.188568,591.438538 412.354492,599.507812 
	C412.794861,601.148438 413.963165,603.407776 415.284515,603.821472 
	C417.730957,604.587524 420.685913,604.533752 422.352173,600.881348 
	C423.898193,601.417175 426.182770,601.493774 426.854156,602.573425 
	C429.019348,606.055542 431.473969,607.003052 435.783630,605.108582 
	C439.682861,605.733337 443.571930,606.433716 447.484436,606.959961 
	C450.904175,607.419922 452.283508,605.610535 452.718781,601.974426 
	C453.478455,600.532166 454.203766,599.070618 455.003510,597.650940 
	C459.898499,588.961060 459.113556,579.650940 452.859192,570.637146 
	C451.225494,566.901917 448.585419,566.072754 444.120941,567.962036 
	C441.726257,567.906311 439.331573,567.850586 436.409393,567.294556 
	C428.211426,568.466370 426.189941,567.443542 427.131226,573.735657 
	C427.131226,573.735657 426.883942,573.967651 426.134033,573.972351 
	C423.871490,573.289307 421.608978,572.606262 418.995453,571.692932 
	C418.995453,571.692932 418.758575,571.346436 418.856628,570.584595 
	C417.753235,567.698303 416.346832,565.540344 412.190155,568.114380 
	C410.220306,567.972839 408.250458,567.831299 405.865387,566.910156 
	C401.027832,564.369751 396.353210,564.039368 391.394714,568.008545 
	C390.923889,568.330017 390.453094,568.651428 389.990234,568.997559 
M113.076973,602.800781 
	C115.117409,603.721802 115.073509,608.710022 119.920357,605.684998 
	C124.111488,604.983887 128.394501,604.617065 132.470352,603.496582 
	C137.486389,602.117615 140.307770,598.045166 140.338181,593.356934 
	C140.374115,587.813660 136.388306,585.769165 132.148544,584.077087 
	C129.707047,583.102661 126.937424,582.821960 124.675537,581.575562 
	C123.386848,580.865417 122.822601,578.840637 121.932144,577.407776 
	C123.477341,576.846313 125.200378,575.543579 126.534065,575.863586 
	C130.391800,576.789185 134.092880,578.367615 137.973145,579.731079 
	C138.271835,575.127258 137.609589,570.962097 132.854416,568.908081 
	C126.553062,566.186157 119.144936,568.048767 113.940681,573.784302 
	C110.332458,577.760864 111.598228,582.023987 113.887093,586.845337 
	C112.421341,588.174744 110.955589,589.504150 109.489838,590.833557 
	C108.988869,589.076050 108.123322,587.332397 108.055855,585.558411 
	C107.860054,580.409729 108.003792,575.248718 107.973358,570.092834 
	C107.961662,568.110718 107.858635,566.102600 104.230736,568.022156 
	C99.616241,568.460266 100.151283,572.192505 100.009758,575.118896 
	C99.758476,580.314758 99.939217,585.531494 99.939217,590.739563 
	C99.435402,590.864685 98.931595,590.989807 98.427780,591.114990 
	C95.664543,585.789551 92.812241,580.508118 90.159248,575.128357 
	C86.317474,567.338013 84.133636,566.455017 76.420654,569.842468 
	C76.420654,581.119507 76.420654,592.344849 76.420654,603.533752 
	C78.763771,603.533752 80.675117,603.533752 83.322502,603.533752 
	C83.322502,595.881775 83.322502,588.564087 83.322502,581.246338 
	C83.816048,581.137329 84.309593,581.028320 84.803131,580.919312 
	C87.063713,585.610535 89.247330,590.341125 91.616005,594.977112 
	C92.879433,597.449951 94.064476,600.163818 95.986649,602.056091 
	C99.678688,605.690674 104.834251,605.450073 108.265839,602.034180 
	C109.795448,602.047363 111.325058,602.060547 112.941429,602.060242 
	C112.941429,602.060242 112.929604,602.147217 113.076973,602.800781 
M568.169800,365.796448 
	C566.577148,365.980103 564.984497,366.163788 562.974365,366.395599 
	C562.974365,368.440735 562.974365,370.219879 562.397827,372.601349 
	C562.268494,374.407166 562.027466,376.212921 562.026245,378.018799 
	C562.003662,411.224670 562.105469,444.431213 561.868713,477.635406 
	C561.843689,481.141083 559.863831,484.632812 558.212280,487.789032 
	C550.493591,476.911133 542.702759,466.083466 535.079285,455.139221 
	C529.145752,446.621002 523.475830,437.919525 517.586121,429.370209 
	C512.358704,421.782196 506.968109,414.306854 501.688904,406.754211 
	C493.959564,395.696320 486.007294,384.782074 478.642975,373.485229 
	C473.360718,365.382233 466.062500,361.450287 458.349670,363.522491 
	C455.109467,364.393005 453.879150,365.929138 453.899689,369.473846 
	C454.170105,416.116547 454.273254,462.760254 454.412964,509.403687 
	C454.426453,513.901306 454.162476,518.419556 454.539795,522.884949 
	C454.660461,524.313416 456.337433,526.664978 457.470947,526.769714 
	C462.219330,527.208496 467.031677,526.954773 472.521973,526.954773 
	C472.521973,484.094940 472.521973,441.784119 472.521973,399.473328 
	C472.959137,399.331696 473.396301,399.190063 473.833466,399.048431 
	C483.581787,412.822235 493.385254,426.557465 503.060364,440.382477 
	C510.334473,450.776581 517.368225,461.338898 524.645142,471.730988 
	C534.555115,485.883240 544.580994,499.954437 554.589417,514.037476 
	C556.770142,517.106018 558.770142,520.394653 561.404968,523.030518 
	C567.596191,529.224060 575.111572,527.352722 582.921997,525.836853 
	C583.058228,525.782166 583.194458,525.727478 583.330688,525.672729 
	C583.198730,525.443420 583.066711,525.214050 582.835022,524.510681 
	C582.835022,524.510681 582.933411,524.036377 583.546509,523.454956 
	C583.694458,522.648071 583.971619,521.841309 583.971985,521.034363 
	C583.994507,471.744263 584.007751,422.454102 583.930420,373.164124 
	C583.928101,371.713196 582.950073,370.263794 582.318298,368.117218 
	C582.294800,361.691650 577.071106,365.622711 573.700073,364.078247 
	C572.128540,364.552124 570.557007,365.025970 568.169800,365.796448 
M207.508667,434.734833 
	C209.695435,432.610992 211.882202,430.487152 214.961212,428.121826 
	C229.706360,427.332306 244.453690,426.579987 259.194275,425.712952 
	C261.383759,425.584229 263.541443,424.914978 265.713806,424.495819 
	C265.616425,423.761444 265.519043,423.027069 265.421661,422.292694 
	C246.015961,420.945801 226.615341,423.578094 207.181244,423.944000 
	C207.181244,409.686890 207.181244,395.988953 207.181244,381.794098 
	C232.841385,381.794098 258.075073,381.794098 282.908875,381.794098 
	C282.908875,375.684875 282.908875,370.086304 282.908875,364.273590 
	C281.326324,364.121948 280.199310,363.925537 279.071167,363.918793 
	C246.919373,363.726044 214.766953,363.611847 182.615952,363.332184 
	C174.908188,363.265137 170.772507,368.068726 167.038528,373.688843 
	C162.757050,380.133057 158.628418,386.681549 154.236893,393.049255 
	C148.364426,401.564331 142.279968,409.932861 136.329514,418.394531 
	C130.631836,426.496735 125.031425,434.667542 119.307800,442.751221 
	C115.257721,448.471313 110.898979,453.979065 106.989853,459.791351 
	C101.032913,468.648407 95.540154,477.820587 89.493698,486.613770 
	C82.242722,497.158691 74.549042,507.398315 67.202950,517.879395 
	C65.418213,520.425842 64.243820,523.400085 62.368805,526.979370 
	C68.316704,526.979370 73.331749,527.420410 78.215347,526.809875 
	C81.033752,526.457581 84.492531,525.094788 86.185257,522.995239 
	C91.768631,516.070068 96.741066,508.645447 101.830406,501.330719 
	C107.282501,493.494537 112.536766,485.520660 117.995270,477.689056 
	C124.301926,468.640533 130.776627,459.709290 137.104675,450.675507 
	C142.485291,442.994263 147.711075,435.204498 153.095490,427.525970 
	C160.837463,416.485443 168.635529,405.483978 176.461975,394.503143 
	C179.854660,389.743073 183.377670,385.075897 187.717957,379.174866 
	C188.557617,382.155182 189.289307,383.518799 189.268173,384.870636 
	C189.084259,396.639954 188.481262,408.410339 188.613129,420.173584 
	C188.674118,425.614441 186.390671,428.288269 181.630081,429.991333 
	C174.382019,432.584229 167.052216,435.084503 160.129410,438.401184 
	C155.773148,440.488251 151.316254,443.574341 151.263123,449.326508 
	C151.214706,454.567963 154.987854,457.225952 159.320084,459.042450 
	C166.281525,461.961365 173.182938,465.094757 180.328369,467.483490 
	C187.476730,469.873260 188.526337,470.702454 188.502930,478.319946 
	C188.458908,492.649231 188.534042,506.981781 188.220016,521.305542 
	C188.122787,525.740906 189.540894,526.995789 193.904129,526.970581 
	C222.729019,526.803833 251.555374,526.895752 280.381195,526.854797 
	C282.062653,526.852417 283.743530,526.425781 285.292297,526.214661 
	C283.960388,519.953735 282.775330,514.383179 281.653381,509.109192 
	C280.727539,508.846191 280.409668,508.675446 280.092834,508.677368 
	C257.604736,508.813751 235.116180,508.913971 212.629166,509.157928 
	C208.472336,509.203064 206.684723,507.912933 206.807205,503.417725 
	C207.029373,495.263733 206.924164,487.079163 206.453522,478.936340 
	C206.181870,474.236023 207.997864,473.298981 212.221909,473.637451 
	C223.651230,474.553314 235.100449,475.269928 246.553314,475.828979 
	C257.527649,476.364685 268.529297,476.406921 279.489166,477.122162 
	C281.968018,477.283905 284.968292,478.773834 286.585175,480.642029 
	C289.014191,483.448425 290.291992,487.217712 292.308777,490.420502 
	C299.296204,501.516815 308.398865,510.624664 319.571259,517.397888 
	C329.522766,523.430908 340.297577,527.281799 352.073181,528.523743 
	C368.689301,530.276367 384.687408,528.200256 399.447601,520.568970 
	C411.698669,514.234924 422.018433,505.452881 429.916809,493.614075 
	C439.177246,479.733673 444.475922,464.928253 445.021698,448.321625 
	C445.660919,428.871887 440.565308,411.304626 429.417511,395.142517 
	C417.445831,377.785980 401.131042,367.355591 381.121674,362.227081 
	C376.343933,361.002502 371.196228,360.181030 366.328033,360.564117 
	C355.802887,361.392334 344.933228,361.762817 334.966400,364.811493 
	C321.319000,368.985962 309.488770,377.178223 300.169434,388.296722 
	C293.383179,396.393158 286.973297,404.902557 283.803833,415.139374 
	C282.107727,420.617493 282.179047,426.641449 280.495575,432.125214 
	C277.770752,441.001312 277.462128,449.647644 280.408569,458.445587 
	C280.738434,459.430420 280.568146,460.582733 280.710968,463.071472 
	C257.801941,461.678314 235.423248,460.437561 213.068451,458.858551 
	C208.489624,458.535126 205.563797,455.859192 206.105927,450.481018 
	C206.622726,445.353760 206.650269,440.177216 207.508667,434.734833 
M280.118744,569.317810 
	C277.872223,569.317810 275.625702,569.317810 272.781189,569.317810 
	C272.781189,576.681152 272.781189,583.694397 272.781189,590.707642 
	C270.435425,588.572998 269.113281,586.214844 267.905334,583.799561 
	C265.912720,579.815308 264.001678,575.790344 262.041748,571.789612 
	C260.136047,567.899597 256.984314,567.784790 253.167694,568.393677 
	C249.004074,569.057800 248.971497,571.613831 249.031021,574.835938 
	C249.172485,582.494934 249.072449,590.158325 249.077789,597.819946 
	C249.082352,604.359253 250.098434,605.017456 257.183929,602.705444 
	C257.183929,596.092407 257.183929,589.342285 257.183929,580.989563 
	C259.121918,583.505554 260.371490,584.726318 261.138672,586.198547 
	C263.500824,590.731567 265.952209,595.250793 267.852264,599.982788 
	C269.823029,604.890930 273.635498,604.146667 277.426666,603.829163 
	C281.222137,603.511353 280.987946,600.742371 280.947693,597.975769 
	C280.812134,588.656189 280.775269,579.335205 280.118744,569.317810 
M200.537308,595.182373 
	C201.846741,604.305969 202.812775,605.143005 210.382935,603.036194 
	C209.925247,601.105286 209.706070,598.974854 208.917709,597.081482 
	C206.578812,591.463989 206.302109,585.897217 208.512680,580.191528 
	C210.206161,575.820435 208.340729,570.208313 204.016037,569.470581 
	C196.795013,568.238647 189.372192,568.189636 181.993698,567.639587 
	C181.993698,579.128723 182.113678,589.396790 181.920059,599.658997 
	C181.862503,602.709900 182.812332,603.809570 185.806427,603.901245 
	C188.673935,603.989075 190.811340,603.703186 190.714249,600.120239 
	C190.673828,598.628052 190.557846,597.050537 190.967667,595.656250 
	C191.447952,594.022156 192.240051,591.428284 193.290421,591.218079 
	C196.009918,590.674133 199.548141,589.936401 200.537308,595.182373 
M556.205872,599.251465 
	C564.322388,609.172729 573.045776,606.626892 580.663147,600.218140 
	C581.991028,599.100891 582.770508,596.806641 582.966858,594.966797 
	C583.594238,589.088501 580.509583,585.641663 573.592651,583.633545 
	C571.079346,582.903992 568.550903,582.057129 566.250854,580.843933 
	C565.311829,580.348633 564.183838,578.190857 564.497498,577.746521 
	C565.232239,576.705872 566.912415,575.512390 567.981934,575.697449 
	C570.289246,576.096802 572.387939,577.625610 574.694824,578.124451 
	C576.820435,578.584045 579.106628,578.301147 581.322144,578.345215 
	C580.935181,576.710022 580.755615,574.989502 580.124390,573.454712 
	C577.718018,567.603455 571.797241,566.780029 563.533875,568.682312 
	C556.181580,570.375000 553.268127,580.346680 558.315979,585.764954 
	C559.777832,587.334045 562.319031,587.887695 564.348083,588.940308 
	C567.690308,590.674194 571.018372,592.435303 574.798157,594.418823 
	C569.327942,598.948547 565.614624,599.251587 563.431335,596.147522 
	C560.017944,591.294617 558.464355,590.984314 552.655457,594.359802 
	C553.658936,595.852844 554.645508,597.320740 556.205872,599.251465 
M550.047791,596.159729 
	C548.672852,590.980469 548.323547,585.955139 549.845947,580.566101 
	C551.497131,574.721375 548.471191,569.696716 543.270081,569.242371 
	C537.056274,568.699585 530.758789,569.114441 524.476562,569.114441 
	C524.476562,581.066406 524.476562,592.407166 524.476562,603.699707 
	C531.848511,604.326538 531.848083,604.326538 531.954956,597.575806 
	C531.965515,596.910522 531.761902,596.124634 532.043274,595.602478 
	C532.914062,593.986694 533.711731,591.455811 535.009033,591.124268 
	C537.884460,590.389282 541.138062,590.624634 542.078125,594.598999 
	C542.421326,596.050049 542.502686,597.589966 543.030762,598.963440 
	C543.682861,600.659424 544.388916,603.268799 545.589600,603.598633 
	C547.353210,604.083313 549.575623,602.898804 551.602600,602.425476 
	C551.133545,600.608276 550.664551,598.791138 550.047791,596.159729 
M462.987701,583.505676 
	C462.987701,590.105469 462.987701,596.705261 462.987701,603.173950 
	C470.517731,604.663513 470.796082,604.429993 470.862000,597.853577 
	C470.885254,595.532776 471.113190,593.213989 471.320282,589.641113 
	C474.030029,592.940125 475.812042,595.064026 477.534729,597.235107 
	C478.044739,597.877930 478.399292,598.646912 478.805054,599.369324 
	C481.466034,604.106812 485.636108,605.293335 491.158691,602.562439 
	C487.692169,597.671143 484.451721,592.690308 480.766846,588.063232 
	C478.775024,585.562134 478.928619,584.057495 481.011658,581.724365 
	C484.331635,578.005859 487.169312,573.856750 490.316010,569.752747 
	C484.822083,567.293335 481.841339,568.383484 477.897125,573.461975 
	C475.840881,576.109497 473.592010,578.607544 471.430176,581.173157 
	C470.984619,581.047791 470.539062,580.922485 470.093506,580.797119 
	C470.093506,576.988342 470.093506,573.179565 470.093506,569.367004 
	C467.332428,569.367004 465.419342,569.367004 462.987701,569.367004 
	C462.987701,573.947449 462.987701,578.228516 462.987701,583.505676 
M324.670776,568.131104 
	C322.914612,568.218750 321.158447,568.306335 319.437439,568.392212 
	C319.437439,580.543091 319.437439,592.098022 319.437439,604.053345 
	C326.292572,604.053345 332.769958,604.242310 339.218658,603.896423 
	C340.533264,603.825928 341.740051,601.744629 342.996521,600.590210 
	C341.726624,599.507874 340.547607,597.654480 339.169281,597.492004 
	C335.469666,597.055969 331.684723,597.343201 327.830170,597.343201 
	C327.830170,594.195129 327.830170,591.932495 327.830170,589.038452 
	C331.385010,589.038452 334.721283,589.369080 337.937103,588.890259 
	C339.406830,588.671387 341.445831,587.076721 341.813599,585.722290 
	C342.616058,582.767090 340.103546,582.810913 338.035187,582.819580 
	C334.775360,582.833313 331.515472,582.823181 328.167023,582.823181 
	C328.167023,580.079468 328.167023,578.175415 328.167023,575.683838 
	C331.628967,575.683838 334.869049,576.181335 337.836670,575.497070 
	C339.614899,575.087158 340.967133,572.829773 342.510834,571.402710 
	C340.877502,570.331360 339.331207,568.545044 337.593231,568.333496 
	C333.654358,567.854004 329.621033,568.150391 324.670776,568.131104 
M159.540619,604.746948 
	C161.518738,604.502380 163.496277,604.253113 165.475067,604.014038 
	C170.655716,603.388062 174.912598,600.248169 175.418045,595.611877 
	C176.360107,586.970581 175.688507,578.153320 175.688507,569.477417 
	C172.891937,569.477417 170.652969,569.477417 167.984924,569.477417 
	C167.984924,572.314392 168.066635,574.791260 167.968231,577.260925 
	C167.750290,582.731262 167.487640,588.200745 167.152313,593.665039 
	C166.966888,596.686829 165.181519,597.915039 162.201584,598.097351 
	C155.697342,598.495300 153.125214,596.188904 153.072327,589.434631 
	C153.020538,582.820679 153.061050,576.205994 153.061050,569.335876 
	C150.358017,569.335876 148.274261,569.335876 145.115875,569.335876 
	C145.541946,578.863647 145.399536,588.177979 146.557312,597.327881 
	C147.376587,603.802490 153.777771,603.622192 159.540619,604.746948 
M285.956635,593.517456 
	C288.199310,600.926453 295.717316,606.667603 301.916199,605.705078 
	C310.160187,604.424866 313.773682,600.216125 313.243622,591.337158 
	C309.766754,593.177063 306.777863,595.070862 303.545776,596.350342 
	C301.651123,597.100342 298.404388,597.823242 297.471100,596.876831 
	C295.761261,595.142883 294.641907,592.196777 294.518036,589.694702 
	C294.376282,586.832214 295.284454,583.790527 296.304504,581.037109 
	C297.150146,578.754517 298.460785,576.286194 300.317230,574.927002 
	C300.981659,574.440552 304.371124,576.566345 305.596466,578.193054 
	C307.945953,581.312073 310.403503,581.629639 313.525024,580.219482 
	C314.363556,572.087341 306.047516,567.264099 299.283142,568.046814 
	C288.557129,569.287964 280.980499,585.204895 285.956635,593.517456 
M215.866699,592.187073 
	C214.479462,595.766296 213.092224,599.345459 211.694595,602.951477 
	C216.607178,605.110840 218.880280,602.774841 221.046646,599.709778 
	C223.952408,595.598511 233.975235,596.253967 236.072922,600.684875 
	C237.964478,604.680481 240.924149,604.507568 245.085602,603.146545 
	C241.778351,593.210632 238.795700,583.327576 235.069305,573.733337 
	C234.188538,571.465576 230.979752,569.199890 228.516464,568.761414 
	C226.831894,568.461487 223.635193,570.908813 222.763168,572.863464 
	C220.090866,578.853516 218.213913,585.198364 215.866699,592.187073 
M518.940063,599.540161 
	C516.053467,598.995667 513.182312,598.102295 510.277344,597.974365 
	C502.624695,597.637329 501.935852,596.747009 504.759064,588.993591 
	C507.908722,588.993591 511.238129,589.213989 514.510620,588.878479 
	C515.715637,588.754944 516.786255,587.319458 517.918152,586.482361 
	C516.855591,585.323547 515.979675,583.526367 514.688599,583.148926 
	C512.513611,582.513123 509.971710,583.151428 507.781067,582.543945 
	C506.089905,582.074951 503.535950,580.643494 503.404572,579.420898 
	C503.069458,576.301697 505.417908,575.444275 508.381531,575.774841 
	C512.371155,576.219666 515.885071,575.289307 519.023071,570.157593 
	C510.670593,569.269836 503.170746,568.472717 495.499573,567.657410 
	C495.499573,580.369263 495.499573,592.066711 495.499573,604.032837 
	C502.430206,604.032837 508.927979,604.221741 515.396240,603.869629 
	C516.652405,603.801147 517.793823,601.624634 518.940063,599.540161 
M69.711426,569.973938 
	C67.324707,569.543152 64.937988,569.112305 62.396141,568.653503 
	C62.396141,581.040894 62.396141,592.383911 62.396141,604.045776 
	C65.045006,603.911316 67.277481,603.797974 69.896080,603.664978 
	C69.896080,592.391663 69.896080,581.637878 69.711426,569.973938 
z"/>
<path fill="#4D5EA9" opacity="1.000000" stroke="none" 
	d="
M10.446129,235.180023 
	C10.251230,233.385056 9.884740,231.589951 9.886401,229.795166 
	C9.934088,178.263565 10.011257,126.731972 10.105464,75.200424 
	C10.119385,67.586075 10.169740,67.588669 17.625973,67.671944 
	C19.121801,67.688652 20.617929,67.678337 23.033995,67.709045 
	C60.243690,68.762909 96.539635,69.606834 132.820938,70.870819 
	C161.916641,71.884483 191.012711,73.100937 220.073898,74.815697 
	C238.630356,75.910629 257.143768,77.885750 275.638153,79.830498 
	C288.170044,81.148270 300.663086,82.916298 313.124329,84.806999 
	C334.259064,88.013687 355.386841,91.289764 376.457642,94.887306 
	C395.046600,98.061111 413.609131,101.445831 432.075195,105.260918 
	C442.268433,107.366844 452.541809,109.752487 462.239227,113.433983 
	C476.696289,118.922409 490.798828,125.405678 504.817108,131.967896 
	C514.453064,136.478699 522.072205,143.714249 526.779358,153.285324 
	C529.033142,157.867981 529.375244,163.098541 525.683777,167.877716 
	C516.478699,179.795151 503.227417,185.405045 489.986206,190.862473 
	C482.665131,193.879913 475.008179,196.292770 467.298645,198.115219 
	C449.290436,202.372162 431.189972,206.258789 413.061310,209.975693 
	C406.402100,211.341019 399.551208,211.754684 392.799988,212.690887 
	C375.377716,215.106842 358.012177,218.039856 340.532043,219.904297 
	C316.400330,222.478195 292.193085,224.369034 268.001617,226.349915 
	C247.285233,228.046219 226.568680,230.058289 205.810883,230.857727 
	C172.523773,232.139679 139.201721,232.502579 105.896049,233.320175 
	C90.925934,233.687653 75.959763,234.215195 60.865334,234.305145 
	C60.023060,233.629364 59.308224,233.049911 58.591293,233.047318 
	C43.722488,232.993439 28.853182,232.969803 13.985053,233.082397 
	C12.988432,233.089951 12.000358,234.226181 10.881088,234.944946 
	C10.753869,235.052460 10.446130,235.180023 10.446129,235.180023 
z"/>
<path fill="#F5A521" opacity="1.000000" stroke="none" 
	d="
M60.991802,234.670105 
	C75.959763,234.215195 90.925934,233.687653 105.896049,233.320175 
	C139.201721,232.502579 172.523773,232.139679 205.810883,230.857727 
	C226.568680,230.058289 247.285233,228.046219 268.001617,226.349915 
	C292.193085,224.369034 316.400330,222.478195 340.532043,219.904297 
	C358.012177,218.039856 375.377716,215.106842 392.799988,212.690887 
	C399.551208,211.754684 406.402100,211.341019 413.061310,209.975693 
	C431.189972,206.258789 449.290436,202.372162 467.298645,198.115219 
	C475.008179,196.292770 482.665131,193.879913 489.986206,190.862473 
	C503.227417,185.405045 516.478699,179.795151 525.683777,167.877716 
	C529.375244,163.098541 529.033142,157.867981 526.779358,153.285324 
	C522.072205,143.714249 514.453064,136.478699 504.817108,131.967896 
	C490.798828,125.405678 476.696289,118.922409 462.239227,113.433983 
	C452.541809,109.752487 442.268433,107.366844 432.075195,105.260918 
	C413.609131,101.445831 395.046600,98.061111 376.457642,94.887306 
	C355.386841,91.289764 334.259064,88.013687 313.124329,84.806999 
	C300.663086,82.916298 288.170044,81.148270 275.638153,79.830498 
	C257.143768,77.885750 238.630356,75.910629 220.073898,74.815697 
	C191.012711,73.100937 161.916641,71.884483 132.820938,70.870819 
	C96.539635,69.606834 60.243690,68.762909 23.497974,67.691177 
	C20.556826,67.529320 18.027351,67.063736 15.596066,67.372169 
	C10.701907,67.993042 9.370876,65.677803 9.875824,61.363617 
	C10.048947,59.884483 10.130910,58.394676 10.861092,56.505814 
	C17.787821,56.311348 24.106594,56.633507 30.428371,56.711147 
	C60.894714,57.085320 91.373909,56.970840 121.825500,57.838593 
	C155.400024,58.795334 188.950317,60.613049 222.509201,62.100098 
	C230.315536,62.446011 238.133072,62.758797 245.911819,63.460045 
	C260.611603,64.785233 275.287018,66.381233 290.363037,67.947464 
	C293.994812,68.673950 297.211548,69.514435 300.482239,69.922707 
	C308.728394,70.952057 316.999146,71.783997 325.259491,72.699974 
	C334.806976,73.758698 344.353882,74.822670 353.901062,75.884354 
	C353.901062,75.884354 354.076630,75.986511 354.454437,76.206421 
	C360.468658,77.622505 366.083282,78.935219 371.745728,79.991974 
	C386.039459,82.659538 400.350372,85.235825 414.662781,87.802094 
	C424.402893,89.548553 434.157104,91.216377 443.905029,92.919357 
	C443.905029,92.919357 444.014221,93.033180 444.227783,93.292862 
	C445.324005,93.872902 446.206635,94.193268 447.089264,94.513634 
	C447.513702,94.671440 447.938171,94.829254 448.955139,95.244476 
	C450.692749,95.588799 451.837769,95.675728 452.982819,95.762650 
	C454.741974,96.176170 456.501160,96.589691 458.902161,97.282471 
	C473.058502,102.148163 486.587524,106.692299 500.083282,111.333122 
	C513.131775,115.820183 526.146118,120.406815 539.407532,125.208481 
	C541.509644,126.127670 543.441528,126.652153 545.240051,127.469887 
	C560.623718,134.464371 574.783508,143.370117 587.235413,154.847977 
	C594.134827,161.207626 599.803162,168.462204 602.176086,177.777359 
	C604.955017,188.686783 598.633484,197.550308 595.410889,207.105087 
	C595.410889,207.105087 595.065613,207.427917 594.750061,207.760178 
	C594.170898,208.350174 594.089722,208.656296 594.190857,209.010818 
	C594.190857,209.010818 593.966248,209.358978 593.566162,209.657211 
	C583.517517,216.488037 573.818726,222.948349 564.253479,229.600693 
	C561.642090,231.416824 559.431946,233.809906 557.037598,235.938202 
	C557.037598,235.938187 556.945679,235.938980 556.647827,235.976227 
	C555.887634,236.318268 555.425232,236.623047 554.962830,236.927826 
	C554.962830,236.927826 554.490540,237.010803 553.990845,237.084564 
	C553.045654,237.454971 552.600159,237.751617 552.154663,238.048248 
	C552.154663,238.048264 552.053833,238.027191 551.656250,238.029144 
	C546.593750,239.678482 541.909485,241.273529 537.269287,242.987946 
	C532.618103,244.706436 528.025452,246.582962 523.381104,248.320572 
	C515.805359,251.154938 508.356415,254.470657 500.585754,256.607971 
	C488.991577,259.796906 477.181366,262.214996 465.432068,264.821564 
	C449.943054,268.257782 434.499390,271.972168 418.899292,274.815765 
	C398.357941,278.559998 377.703644,281.706421 357.059387,284.857300 
	C342.466980,287.084473 327.808868,288.880066 313.184448,290.899963 
	C310.767944,291.233704 308.373993,291.730621 305.969604,292.152100 
	C305.232971,292.143158 304.496368,292.134216 302.983398,292.097900 
	C300.803802,292.175690 299.400574,292.280823 297.997345,292.385986 
	C297.548981,292.361145 297.100586,292.336304 295.895996,292.265930 
	C286.908844,293.113434 278.697815,294.322479 270.443420,294.842438 
	C241.582153,296.660461 212.714737,298.418854 183.832260,299.848389 
	C164.558334,300.802307 145.257706,301.561401 125.964005,301.698395 
	C87.334915,301.972748 48.702377,301.760498 10.071260,301.749146 
	C9.995965,286.813385 9.882505,271.877625 9.862247,256.941742 
	C9.852795,249.973938 10.023832,243.005890 10.279595,235.608978 
	C10.446130,235.180023 10.753869,235.052460 11.337181,235.056793 
	C28.277596,234.930786 44.634701,234.800446 60.991802,234.670105 
z"/>
<path fill="#7A7998" opacity="1.000000" stroke="none" 
	d="
M9.829224,302.105347 
	C48.702377,301.760498 87.334915,301.972748 125.964005,301.698395 
	C145.257706,301.561401 164.558334,300.802307 183.832260,299.848389 
	C212.714737,298.418854 241.582153,296.660461 270.443420,294.842438 
	C278.697815,294.322479 286.908844,293.113434 295.567963,292.348785 
	C293.039673,293.641113 290.138245,295.627228 287.117371,295.829437 
	C272.397369,296.814941 257.466614,296.135071 242.952667,298.319000 
	C226.889725,300.735931 210.866333,301.680328 194.729507,301.945404 
	C168.455872,302.377106 142.072037,301.284668 115.931702,303.340393 
	C82.826103,305.943909 49.780228,304.162598 16.721197,304.921814 
	C12.551420,305.017578 11.520191,306.710510 12.240940,310.549194 
	C12.618392,312.559448 12.334183,314.720917 12.170774,316.800110 
	C11.846821,320.922028 11.055664,325.034088 11.053411,329.150543 
	C10.999631,427.425964 11.092797,525.701538 10.910184,623.976624 
	C10.895214,632.032166 13.430060,639.157410 15.814978,646.884583 
	C14.234020,645.498169 11.893526,643.938293 11.311163,641.880737 
	C9.875531,636.808350 8.423268,631.508606 8.416693,626.298401 
	C8.305037,537.825012 8.350347,449.351257 8.521477,360.877869 
	C8.559142,341.405151 9.215652,321.933624 9.829224,302.105347 
z"/>
<path fill="#7B84B9" opacity="1.000000" stroke="none" 
	d="
M40.314114,661.365479 
	C42.016575,660.417786 44.050838,659.102783 46.086803,659.100159 
	C122.583183,659.001038 199.079697,659.025574 275.576202,659.027649 
	C383.404633,659.030579 491.233032,659.016357 599.061462,659.052979 
	C607.614929,659.055908 615.316956,657.024719 621.785889,651.126892 
	C622.309875,650.649170 623.610779,651.023621 624.868774,651.064575 
	C620.371948,659.072083 612.576355,661.417114 604.066956,661.892517 
	C597.254639,662.273132 590.405945,662.015869 583.573364,662.015930 
	C407.419342,662.018799 231.265335,662.021484 55.111324,662.001221 
	C50.289768,662.000671 45.468246,661.746277 40.314114,661.365479 
z"/>
<path fill="#847F97" opacity="1.000000" stroke="none" 
	d="
M289.972565,67.864685 
	C275.287018,66.381233 260.611603,64.785233 245.911819,63.460045 
	C238.133072,62.758797 230.315536,62.446011 222.509201,62.100098 
	C188.950317,60.613049 155.400024,58.795334 121.825500,57.838593 
	C91.373909,56.970840 60.894714,57.085320 30.428371,56.711147 
	C24.106594,56.633507 17.787821,56.311348 11.068748,56.092079 
	C10.533858,52.591225 10.397882,49.100174 10.512076,45.283173 
	C11.170078,45.981075 11.918683,47.003895 11.921785,48.028973 
	C11.931060,51.092941 13.451599,52.014095 16.297754,52.071968 
	C28.074707,52.311436 39.854622,52.549316 51.623035,53.038345 
	C91.042854,54.676418 130.436111,56.776268 169.930374,56.230644 
	C187.320816,55.990391 204.758606,57.003899 222.126968,58.164989 
	C232.382095,58.850555 242.520935,61.135643 252.757294,62.305916 
	C257.300415,62.825310 261.956024,62.315117 266.559143,62.378487 
	C268.339508,62.402996 270.576172,62.099483 271.813324,63.015068 
	C276.834198,66.730919 282.519592,65.851295 288.646606,66.300095 
	C289.466095,66.990982 289.719330,67.427834 289.972565,67.864685 
z"/>
<path fill="#6772AD" opacity="1.000000" stroke="none" 
	d="
M634.082153,46.693222 
	C630.298706,47.033390 628.810730,45.046192 629.023438,41.739964 
	C629.199341,39.005997 629.684570,36.291927 630.096069,33.123150 
	C631.541382,37.252323 632.923279,41.827389 634.082153,46.693222 
z"/>
<path fill="#F2F5FA" opacity="1.000000" stroke="none" 
	d="
M206.892899,435.022339 
	C206.650269,440.177216 206.622726,445.353760 206.105927,450.481018 
	C205.563797,455.859192 208.489624,458.535126 213.068451,458.858551 
	C235.423248,460.437561 257.801941,461.678314 280.710968,463.071472 
	C280.568146,460.582733 280.738434,459.430420 280.408569,458.445587 
	C277.462128,449.647644 277.770752,441.001312 280.495575,432.125214 
	C282.179047,426.641449 282.107727,420.617493 283.803833,415.139374 
	C286.973297,404.902557 293.383179,396.393158 300.169434,388.296722 
	C309.488770,377.178223 321.319000,368.985962 334.966400,364.811493 
	C344.933228,361.762817 355.802887,361.392334 366.328033,360.564117 
	C371.196228,360.181030 376.343933,361.002502 381.121674,362.227081 
	C401.131042,367.355591 417.445831,377.785980 429.417511,395.142517 
	C440.565308,411.304626 445.660919,428.871887 445.021698,448.321625 
	C444.475922,464.928253 439.177246,479.733673 429.916809,493.614075 
	C422.018433,505.452881 411.698669,514.234924 399.447601,520.568970 
	C384.687408,528.200256 368.689301,530.276367 352.073181,528.523743 
	C340.297577,527.281799 329.522766,523.430908 319.571259,517.397888 
	C308.398865,510.624664 299.296204,501.516815 292.308777,490.420502 
	C290.291992,487.217712 289.014191,483.448425 286.585175,480.642029 
	C284.968292,478.773834 281.968018,477.283905 279.489166,477.122162 
	C268.529297,476.406921 257.527649,476.364685 246.553314,475.828979 
	C235.100449,475.269928 223.651230,474.553314 212.221909,473.637451 
	C207.997864,473.298981 206.181870,474.236023 206.453522,478.936340 
	C206.924164,487.079163 207.029373,495.263733 206.807205,503.417725 
	C206.684723,507.912933 208.472336,509.203064 212.629166,509.157928 
	C235.116180,508.913971 257.604736,508.813751 280.092834,508.677368 
	C280.409668,508.675446 280.727539,508.846191 281.653381,509.109192 
	C282.775330,514.383179 283.960388,519.953735 285.292297,526.214661 
	C283.743530,526.425781 282.062653,526.852417 280.381195,526.854797 
	C251.555374,526.895752 222.729019,526.803833 193.904129,526.970581 
	C189.540894,526.995789 188.122787,525.740906 188.220016,521.305542 
	C188.534042,506.981781 188.458908,492.649231 188.502930,478.319946 
	C188.526337,470.702454 187.476730,469.873260 180.328369,467.483490 
	C173.182938,465.094757 166.281525,461.961365 159.320084,459.042450 
	C154.987854,457.225952 151.214706,454.567963 151.263123,449.326508 
	C151.316254,443.574341 155.773148,440.488251 160.129410,438.401184 
	C167.052216,435.084503 174.382019,432.584229 181.630081,429.991333 
	C186.390671,428.288269 188.674118,425.614441 188.613129,420.173584 
	C188.481262,408.410339 189.084259,396.639954 189.268173,384.870636 
	C189.289307,383.518799 188.557617,382.155182 187.717957,379.174866 
	C183.377670,385.075897 179.854660,389.743073 176.461975,394.503143 
	C168.635529,405.483978 160.837463,416.485443 153.095490,427.525970 
	C147.711075,435.204498 142.485291,442.994263 137.104675,450.675507 
	C130.776627,459.709290 124.301926,468.640533 117.995270,477.689056 
	C112.536766,485.520660 107.282501,493.494537 101.830406,501.330719 
	C96.741066,508.645447 91.768631,516.070068 86.185257,522.995239 
	C84.492531,525.094788 81.033752,526.457581 78.215347,526.809875 
	C73.331749,527.420410 68.316704,526.979370 62.368805,526.979370 
	C64.243820,523.400085 65.418213,520.425842 67.202950,517.879395 
	C74.549042,507.398315 82.242722,497.158691 89.493698,486.613770 
	C95.540154,477.820587 101.032913,468.648407 106.989853,459.791351 
	C110.898979,453.979065 115.257721,448.471313 119.307800,442.751221 
	C125.031425,434.667542 130.631836,426.496735 136.329514,418.394531 
	C142.279968,409.932861 148.364426,401.564331 154.236893,393.049255 
	C158.628418,386.681549 162.757050,380.133057 167.038528,373.688843 
	C170.772507,368.068726 174.908188,363.265137 182.615952,363.332184 
	C214.766953,363.611847 246.919373,363.726044 279.071167,363.918793 
	C280.199310,363.925537 281.326324,364.121948 282.908875,364.273590 
	C282.908875,370.086304 282.908875,375.684875 282.908875,381.794098 
	C258.075073,381.794098 232.841385,381.794098 207.181244,381.794098 
	C207.181244,395.988953 207.181244,409.686890 207.181244,423.944000 
	C226.615341,423.578094 246.015961,420.945801 265.421661,422.292694 
	C265.519043,423.027069 265.616425,423.761444 265.713806,424.495819 
	C263.541443,424.914978 261.383759,425.584229 259.194275,425.712952 
	C244.453690,426.579987 229.706360,427.332306 214.102203,428.079773 
	C206.079330,427.811493 204.942169,429.062256 206.892899,435.022339 
M353.419495,437.923340 
	C351.900208,436.690460 350.380920,435.457581 348.939117,433.500671 
	C348.984039,432.775635 349.028931,432.050568 349.713013,431.329987 
	C357.836487,435.092133 366.030151,438.712189 374.055328,442.673431 
	C378.390015,444.813080 379.695068,450.176300 376.286133,453.451080 
	C372.671783,456.923279 368.459839,460.708466 363.843414,462.027130 
	C350.002258,465.980743 335.850250,468.859314 321.790344,472.027679 
	C315.933319,473.347565 310.002441,474.339539 303.662445,475.566284 
	C305.145905,477.840820 305.966461,479.054901 306.743164,480.296417 
	C316.974609,496.651062 331.275421,507.437988 350.343903,511.051086 
	C361.381317,513.142456 372.283020,512.391846 383.262482,508.860718 
	C400.663055,503.264496 413.100067,492.049286 421.506805,476.507202 
	C429.092865,462.482330 430.259949,447.064880 427.468292,431.434174 
	C424.784912,416.409424 417.165649,404.017639 405.870972,394.068542 
	C402.152924,390.793396 397.058380,389.080963 392.291656,385.990387 
	C386.429901,383.638184 380.760468,380.208130 374.672821,379.121857 
	C349.351105,374.603455 328.333801,382.923035 311.909363,402.479309 
	C298.370941,418.599182 294.345703,437.335938 298.014832,457.901337 
	C298.550110,460.901459 299.691650,462.349915 303.064026,461.257904 
	C306.660858,460.093170 310.399872,459.367493 314.892151,458.614136 
	C321.921021,457.711456 328.949921,456.808807 336.773224,456.010681 
	C341.172852,454.709045 345.524658,453.203033 349.984589,452.158997 
	C355.225281,450.932190 358.355530,447.410492 361.327515,443.100586 
	C359.963654,442.060760 358.870850,441.108032 357.661102,440.339264 
	C356.476990,439.586731 355.173767,439.021637 353.419495,437.923340 
M173.751831,437.148102 
	C167.641983,442.097351 167.517166,445.737976 174.206940,449.688477 
	C178.887482,452.452454 184.280060,454.010681 189.980148,456.365906 
	C189.980148,448.857452 190.160538,442.226135 189.800323,435.624359 
	C189.741180,434.540436 187.045029,432.512634 186.013458,432.762451 
	C182.056305,433.720551 178.280762,435.428741 173.751831,437.148102 
z"/>
<path fill="#F5F7FB" opacity="1.000000" stroke="none" 
	d="
M582.468323,525.801697 
	C575.111572,527.352722 567.596191,529.224060 561.404968,523.030518 
	C558.770142,520.394653 556.770142,517.106018 554.589417,514.037476 
	C544.580994,499.954437 534.555115,485.883240 524.645142,471.730988 
	C517.368225,461.338898 510.334473,450.776581 503.060364,440.382477 
	C493.385254,426.557465 483.581787,412.822235 473.833466,399.048431 
	C473.396301,399.190063 472.959137,399.331696 472.521973,399.473328 
	C472.521973,441.784119 472.521973,484.094940 472.521973,526.954773 
	C467.031677,526.954773 462.219330,527.208496 457.470947,526.769714 
	C456.337433,526.664978 454.660461,524.313416 454.539795,522.884949 
	C454.162476,518.419556 454.426453,513.901306 454.412964,509.403687 
	C454.273254,462.760254 454.170105,416.116547 453.899689,369.473846 
	C453.879150,365.929138 455.109467,364.393005 458.349670,363.522491 
	C466.062500,361.450287 473.360718,365.382233 478.642975,373.485229 
	C486.007294,384.782074 493.959564,395.696320 501.688904,406.754211 
	C506.968109,414.306854 512.358704,421.782196 517.586121,429.370209 
	C523.475830,437.919525 529.145752,446.621002 535.079285,455.139221 
	C542.702759,466.083466 550.493591,476.911133 558.633057,488.287354 
	C560.178223,490.409668 561.302612,492.033600 562.427002,493.657562 
	C563.529419,492.106232 563.660583,491.282379 563.661438,490.458405 
	C563.695923,457.251373 563.758667,424.044250 563.707581,390.837341 
	C563.697937,384.557526 563.230530,378.278412 562.974365,371.998993 
	C562.974365,370.219879 562.974365,368.440735 562.974365,366.395599 
	C564.984497,366.163788 566.577148,365.980103 568.951416,365.737854 
	C571.332642,365.188721 572.932251,364.698120 574.531799,364.207550 
	C577.071106,365.622711 582.294800,361.691650 582.223511,368.855194 
	C582.175171,419.959167 582.217407,470.325165 582.295837,520.691101 
	C582.297607,521.806519 582.711670,522.921326 582.933411,524.036377 
	C582.933411,524.036377 582.835022,524.510681 582.726929,524.928345 
	C582.618835,525.346069 582.468323,525.801697 582.468323,525.801697 
z"/>
<path fill="#7A7998" opacity="1.000000" stroke="none" 
	d="
M306.288879,292.419434 
	C308.373993,291.730621 310.767944,291.233704 313.184448,290.899963 
	C327.808868,288.880066 342.466980,287.084473 357.059387,284.857300 
	C377.703644,281.706421 398.357941,278.559998 418.899292,274.815765 
	C434.499390,271.972168 449.943054,268.257782 465.432068,264.821564 
	C477.181366,262.214996 488.991577,259.796906 500.585754,256.607971 
	C508.356415,254.470657 515.805359,251.154938 523.381104,248.320572 
	C528.025452,246.582962 532.618103,244.706436 537.269287,242.987946 
	C541.909485,241.273529 546.593750,239.678482 551.635376,238.076202 
	C548.065857,240.554825 544.379700,243.671783 540.123657,245.290176 
	C528.630249,249.660599 516.966980,253.624512 505.233856,257.313080 
	C493.734100,260.928314 482.155365,264.378815 470.443390,267.206238 
	C460.261749,269.664215 449.808563,270.973419 439.543549,273.116730 
	C429.222107,275.271790 419.048096,278.164001 408.694183,280.124207 
	C396.548309,282.423553 384.291199,284.154022 372.058197,285.968781 
	C359.647339,287.809937 347.238953,289.751556 334.769135,291.084656 
	C325.431763,292.082886 315.998627,292.185455 306.288879,292.419434 
z"/>
<path fill="#E7EBF7" opacity="1.000000" stroke="none" 
	d="
M280.409729,569.666260 
	C280.775269,579.335205 280.812134,588.656189 280.947693,597.975769 
	C280.987946,600.742371 281.222137,603.511353 277.426666,603.829163 
	C273.635498,604.146667 269.823029,604.890930 267.852264,599.982788 
	C265.952209,595.250793 263.500824,590.731567 261.138672,586.198547 
	C260.371490,584.726318 259.121918,583.505554 257.183929,580.989563 
	C257.183929,589.342285 257.183929,596.092407 257.183929,602.705444 
	C250.098434,605.017456 249.082352,604.359253 249.077789,597.819946 
	C249.072449,590.158325 249.172485,582.494934 249.031021,574.835938 
	C248.971497,571.613831 249.004074,569.057800 253.167694,568.393677 
	C256.984314,567.784790 260.136047,567.899597 262.041748,571.789612 
	C264.001678,575.790344 265.912720,579.815308 267.905334,583.799561 
	C269.113281,586.214844 270.435425,588.572998 272.781189,590.707642 
	C272.781189,583.694397 272.781189,576.681152 272.781189,569.317810 
	C275.625702,569.317810 277.872223,569.317810 280.409729,569.666260 
z"/>
<path fill="#E7EBF6" opacity="1.000000" stroke="none" 
	d="
M107.510841,602.072144 
	C104.834251,605.450073 99.678688,605.690674 95.986649,602.056091 
	C94.064476,600.163818 92.879433,597.449951 91.616005,594.977112 
	C89.247330,590.341125 87.063713,585.610535 84.803131,580.919312 
	C84.309593,581.028320 83.816048,581.137329 83.322502,581.246338 
	C83.322502,588.564087 83.322502,595.881775 83.322502,603.533752 
	C80.675117,603.533752 78.763771,603.533752 76.420654,603.533752 
	C76.420654,592.344849 76.420654,581.119507 76.420654,569.842468 
	C84.133636,566.455017 86.317474,567.338013 90.159248,575.128357 
	C92.812241,580.508118 95.664543,585.789551 98.427780,591.114990 
	C98.931595,590.989807 99.435402,590.864685 99.939217,590.739563 
	C99.939217,585.531494 99.758476,580.314758 100.009758,575.118896 
	C100.151283,572.192505 99.616241,568.460266 104.704102,568.373291 
	C105.747688,572.434875 106.613815,576.128479 106.825500,579.859192 
	C107.245003,587.252686 107.303261,594.666626 107.510841,602.072144 
z"/>
<path fill="#E6EBF6" opacity="1.000000" stroke="none" 
	d="
M200.446106,594.771851 
	C199.548141,589.936401 196.009918,590.674133 193.290421,591.218079 
	C192.240051,591.428284 191.447952,594.022156 190.967667,595.656250 
	C190.557846,597.050537 190.673828,598.628052 190.714249,600.120239 
	C190.811340,603.703186 188.673935,603.989075 185.806427,603.901245 
	C182.812332,603.809570 181.862503,602.709900 181.920059,599.658997 
	C182.113678,589.396790 181.993698,579.128723 181.993698,567.639587 
	C189.372192,568.189636 196.795013,568.238647 204.016037,569.470581 
	C208.340729,570.208313 210.206161,575.820435 208.512680,580.191528 
	C206.302109,585.897217 206.578812,591.463989 208.917709,597.081482 
	C209.706070,598.974854 209.925247,601.105286 210.382935,603.036194 
	C202.812775,605.143005 201.846741,604.305969 200.446106,594.771851 
M197.736847,583.613647 
	C200.650391,582.648254 202.202148,580.231140 200.497711,577.926392 
	C199.085724,576.017151 196.094727,574.834778 193.616592,574.403625 
	C192.792999,574.260376 190.719986,577.321289 190.376038,579.136780 
	C189.295868,584.838196 193.383957,584.158691 197.736847,583.613647 
z"/>
<path fill="#E4E8F4" opacity="1.000000" stroke="none" 
	d="
M555.918945,599.020020 
	C554.645508,597.320740 553.658936,595.852844 552.655457,594.359802 
	C558.464355,590.984314 560.017944,591.294617 563.431335,596.147522 
	C565.614624,599.251587 569.327942,598.948547 574.798157,594.418823 
	C571.018372,592.435303 567.690308,590.674194 564.348083,588.940308 
	C562.319031,587.887695 559.777832,587.334045 558.315979,585.764954 
	C553.268127,580.346680 556.181580,570.375000 563.533875,568.682312 
	C571.797241,566.780029 577.718018,567.603455 580.124390,573.454712 
	C580.755615,574.989502 580.935181,576.710022 581.322144,578.345215 
	C579.106628,578.301147 576.820435,578.584045 574.694824,578.124451 
	C572.387939,577.625610 570.289246,576.096802 567.981934,575.697449 
	C566.912415,575.512390 565.232239,576.705872 564.497498,577.746521 
	C564.183838,578.190857 565.311829,580.348633 566.250854,580.843933 
	C568.550903,582.057129 571.079346,582.903992 573.592651,583.633545 
	C580.509583,585.641663 583.594238,589.088501 582.966858,594.966797 
	C582.770508,596.806641 581.991028,599.100891 580.663147,600.218140 
	C573.045776,606.626892 564.322388,609.172729 555.918945,599.020020 
z"/>
<path fill="#E4E8F4" opacity="1.000000" stroke="none" 
	d="
M113.976471,586.139832 
	C111.598228,582.023987 110.332458,577.760864 113.940681,573.784302 
	C119.144936,568.048767 126.553062,566.186157 132.854416,568.908081 
	C137.609589,570.962097 138.271835,575.127258 137.973145,579.731079 
	C134.092880,578.367615 130.391800,576.789185 126.534065,575.863586 
	C125.200378,575.543579 123.477341,576.846313 121.932137,577.407776 
	C122.822601,578.840637 123.386848,580.865417 124.675537,581.575562 
	C126.937424,582.821960 129.707047,583.102661 132.148544,584.077087 
	C136.388306,585.769165 140.374115,587.813660 140.338181,593.356934 
	C140.307770,598.045166 137.486389,602.117615 132.470352,603.496582 
	C128.394501,604.617065 124.111488,604.983887 119.311493,605.482788 
	C116.778290,604.236084 114.853951,603.191650 112.929611,602.147217 
	C112.929604,602.147217 112.941429,602.060242 112.887764,601.685059 
	C110.690186,593.178040 110.690186,593.178040 117.998703,592.420044 
	C119.665276,597.074097 123.032730,598.776062 127.320038,598.348206 
	C128.649948,598.215515 130.236557,596.828552 130.908539,595.585083 
	C131.232101,594.986328 129.970047,592.818481 128.964706,592.348938 
	C126.089630,591.006165 122.978416,590.168945 119.824379,588.815552 
	C117.784615,587.712097 115.880547,586.925964 113.976471,586.139832 
z"/>
<path fill="#E7ECF6" opacity="1.000000" stroke="none" 
	d="
M550.121704,596.566833 
	C550.664551,598.791138 551.133545,600.608276 551.602600,602.425415 
	C549.575623,602.898804 547.353210,604.083313 545.589600,603.598633 
	C544.388916,603.268799 543.682861,600.659424 543.030762,598.963440 
	C542.502686,597.589966 542.421326,596.050049 542.078125,594.598999 
	C541.138062,590.624634 537.884460,590.389282 535.009033,591.124268 
	C533.711731,591.455811 532.914062,593.986694 532.043274,595.602478 
	C531.761902,596.124634 531.965515,596.910522 531.954956,597.575806 
	C531.848083,604.326538 531.848511,604.326538 524.476562,603.699707 
	C524.476562,592.407166 524.476562,581.066406 524.476562,569.114441 
	C530.758789,569.114441 537.056274,568.699585 543.270081,569.242371 
	C548.471191,569.696716 551.497131,574.721375 549.845947,580.566101 
	C548.323547,585.955139 548.672852,590.980469 550.121704,596.566833 
M532.019775,577.701294 
	C532.019775,579.629395 532.019775,581.557495 532.019775,583.375854 
	C539.621460,584.384766 541.279419,583.241333 541.650574,577.304810 
	C539.569641,576.341797 537.494568,575.302063 535.356567,574.413513 
	C533.048096,573.454102 531.843872,574.236755 532.019775,577.701294 
z"/>
<path fill="#E4E8F4" opacity="1.000000" stroke="none" 
	d="
M421.781921,601.106445 
	C420.685913,604.533752 417.730957,604.587524 415.284515,603.821472 
	C413.963165,603.407776 412.794861,601.148438 412.354492,599.507812 
	C410.188568,591.438538 409.460022,590.699768 401.956909,591.314697 
	C401.956909,594.822693 401.956909,598.408264 401.586487,602.546021 
	C397.809326,603.691528 393.511749,605.189392 393.237061,599.743652 
	C392.802338,591.125305 393.072662,582.465698 393.217499,573.826477 
	C393.274506,570.423706 395.260315,568.942139 398.753082,568.900635 
	C401.266693,568.870911 403.771729,568.119324 406.280609,567.689758 
	C408.250458,567.831299 410.220306,567.972839 412.691467,568.450562 
	C415.048035,569.639954 416.903290,570.493225 418.758575,571.346436 
	C418.758575,571.346436 418.995453,571.692932 419.079224,572.268921 
	C418.286133,582.427551 416.463043,592.097900 421.781921,601.106445 
M401.119446,582.241028 
	C403.645416,582.768799 406.196259,583.759460 408.686707,583.625549 
	C409.899567,583.560364 411.838715,581.456909 411.933136,580.165222 
	C412.045258,578.631958 410.913910,576.220764 409.621124,575.559998 
	C407.774597,574.616089 404.539673,573.950134 403.276276,574.934570 
	C401.771881,576.106873 401.726318,579.151184 401.119446,582.241028 
z"/>
<path fill="#E6EBF6" opacity="1.000000" stroke="none" 
	d="
M436.936890,567.794861 
	C439.331573,567.850586 441.726257,567.906311 444.784485,568.220886 
	C447.889221,569.459595 450.330383,570.439453 452.771576,571.419312 
	C459.113556,579.650940 459.898499,588.961060 455.003510,597.650940 
	C454.203766,599.070618 453.478455,600.532166 452.020874,602.105347 
	C445.888367,602.809448 440.453827,603.382507 434.753540,603.737671 
	C425.083069,599.477356 421.832855,591.399536 425.444519,581.730103 
	C426.351440,579.302124 426.426575,576.563538 426.883942,573.967651 
	C426.883942,573.967651 427.131226,573.735657 427.526306,573.471558 
	C430.926544,571.403198 433.931732,569.599060 436.936890,567.794861 
M436.305328,575.625366 
	C431.058716,580.498413 432.078400,586.569946 433.011780,592.648865 
	C433.689972,597.065613 436.646057,598.905701 440.656494,598.863220 
	C444.602112,598.821411 447.898193,597.020752 448.474640,592.720581 
	C448.976288,588.978638 449.181915,585.112976 448.847229,581.361755 
	C448.282593,575.032471 443.082977,572.471008 436.305328,575.625366 
z"/>
<path fill="#E4E8F4" opacity="1.000000" stroke="none" 
	d="
M386.906738,601.782227 
	C378.922485,602.880981 370.938202,603.979736 362.040619,605.204224 
	C362.040619,602.492554 362.032562,599.776001 362.042114,597.059448 
	C362.070740,588.937866 361.971069,580.811279 362.270752,572.699585 
	C362.321442,571.328186 364.104156,570.020813 365.892670,568.799072 
	C373.299408,570.027222 379.900055,571.140076 386.553650,572.685303 
	C387.541748,577.642578 387.712158,582.001587 383.314117,585.439392 
	C389.633057,590.062683 388.678619,595.847412 386.906738,601.782227 
M371.907104,597.811096 
	C373.722839,597.848572 375.593506,598.183105 377.342499,597.859680 
	C380.630035,597.251709 382.045654,594.650635 380.435455,592.032349 
	C379.418121,590.378052 376.561615,589.415710 374.380981,589.061951 
	C372.783997,588.802856 369.469116,590.041809 369.470551,590.606506 
	C369.476593,592.954529 370.449707,595.300049 371.907104,597.811096 
M368.859711,579.380554 
	C369.493561,584.266663 373.353180,583.076843 376.129730,582.710999 
	C377.293915,582.557617 379.294220,579.479736 378.920319,578.741638 
	C377.974365,576.874634 376.124054,574.776428 374.222870,574.242798 
	C371.305023,573.423828 368.532959,574.431641 368.859711,579.380554 
z"/>
<path fill="#E5EAF6" opacity="1.000000" stroke="none" 
	d="
M462.987701,583.007690 
	C462.987701,578.228516 462.987701,573.947449 462.987701,569.367004 
	C465.419342,569.367004 467.332428,569.367004 470.093506,569.367004 
	C470.093506,573.179565 470.093506,576.988342 470.093506,580.797119 
	C470.539062,580.922485 470.984619,581.047791 471.430176,581.173157 
	C473.592010,578.607544 475.840881,576.109497 477.897125,573.461975 
	C481.841339,568.383484 484.822083,567.293335 490.316010,569.752747 
	C487.169312,573.856750 484.331635,578.005859 481.011658,581.724365 
	C478.928619,584.057495 478.775024,585.562134 480.766846,588.063232 
	C484.451721,592.690308 487.692169,597.671143 491.158691,602.562439 
	C485.636108,605.293335 481.466034,604.106812 478.805054,599.369324 
	C478.399292,598.646912 478.044739,597.877930 477.534729,597.235107 
	C475.812042,595.064026 474.030029,592.940125 471.320282,589.641113 
	C471.113190,593.213989 470.885254,595.532776 470.862000,597.853577 
	C470.796082,604.429993 470.517731,604.663513 462.987701,603.173950 
	C462.987701,596.705261 462.987701,590.105469 462.987701,583.007690 
z"/>
<path fill="#E3E9F5" opacity="1.000000" stroke="none" 
	d="
M325.148438,568.131226 
	C329.621033,568.150391 333.654358,567.854004 337.593231,568.333496 
	C339.331207,568.545044 340.877502,570.331360 342.510834,571.402710 
	C340.967133,572.829773 339.614899,575.087158 337.836670,575.497070 
	C334.869049,576.181335 331.628967,575.683838 328.167023,575.683838 
	C328.167023,578.175415 328.167023,580.079468 328.167023,582.823181 
	C331.515472,582.823181 334.775360,582.833313 338.035187,582.819580 
	C340.103546,582.810913 342.616058,582.767090 341.813599,585.722290 
	C341.445831,587.076721 339.406830,588.671387 337.937103,588.890259 
	C334.721283,589.369080 331.385010,589.038452 327.830170,589.038452 
	C327.830170,591.932495 327.830170,594.195129 327.830170,597.343201 
	C331.684723,597.343201 335.469666,597.055969 339.169281,597.492004 
	C340.547607,597.654480 341.726624,599.507874 342.996521,600.590210 
	C341.740051,601.744629 340.533264,603.825928 339.218658,603.896423 
	C332.769958,604.242310 326.292572,604.053345 319.437439,604.053345 
	C319.437439,592.098022 319.437439,580.543091 319.437439,568.392212 
	C321.158447,568.306335 322.914612,568.218750 325.148438,568.131226 
z"/>
<path fill="#E9EDF7" opacity="1.000000" stroke="none" 
	d="
M159.126602,604.717041 
	C153.777771,603.622192 147.376587,603.802490 146.557312,597.327881 
	C145.399536,588.177979 145.541946,578.863647 145.115875,569.335876 
	C148.274261,569.335876 150.358017,569.335876 153.061050,569.335876 
	C153.061050,576.205994 153.020538,582.820679 153.072327,589.434631 
	C153.125214,596.188904 155.697342,598.495300 162.201584,598.097351 
	C165.181519,597.915039 166.966888,596.686829 167.152313,593.665039 
	C167.487640,588.200745 167.750290,582.731262 167.968231,577.260925 
	C168.066635,574.791260 167.984924,572.314392 167.984924,569.477417 
	C170.652969,569.477417 172.891937,569.477417 175.688507,569.477417 
	C175.688507,578.153320 176.360107,586.970581 175.418045,595.611877 
	C174.912598,600.248169 170.655716,603.388062 165.475067,604.014038 
	C163.496277,604.253113 161.518738,604.502380 159.126602,604.717041 
z"/>
<path fill="#E4E9F5" opacity="1.000000" stroke="none" 
	d="
M285.887939,593.126953 
	C280.980499,585.204895 288.557129,569.287964 299.283142,568.046814 
	C306.047516,567.264099 314.363556,572.087341 313.525024,580.219482 
	C310.403503,581.629639 307.945953,581.312073 305.596466,578.193054 
	C304.371124,576.566345 300.981659,574.440552 300.317230,574.927002 
	C298.460785,576.286194 297.150146,578.754517 296.304504,581.037109 
	C295.284454,583.790527 294.376282,586.832214 294.518036,589.694702 
	C294.641907,592.196777 295.761261,595.142883 297.471100,596.876831 
	C298.404388,597.823242 301.651123,597.100342 303.545776,596.350342 
	C306.777863,595.070862 309.766754,593.177063 313.243622,591.337158 
	C313.773682,600.216125 310.160187,604.424866 301.916199,605.705078 
	C295.717316,606.667603 288.199310,600.926453 285.887939,593.126953 
z"/>
<path fill="#E6EBF6" opacity="1.000000" stroke="none" 
	d="
M215.947189,591.796143 
	C218.213913,585.198364 220.090866,578.853516 222.763168,572.863464 
	C223.635193,570.908813 226.831894,568.461487 228.516464,568.761414 
	C230.979752,569.199890 234.188538,571.465576 235.069305,573.733337 
	C238.795700,583.327576 241.778351,593.210632 245.085602,603.146545 
	C240.924149,604.507568 237.964478,604.680481 236.072922,600.684875 
	C233.975235,596.253967 223.952408,595.598511 221.046646,599.709778 
	C218.880280,602.774841 216.607178,605.110840 211.694595,602.951477 
	C213.092224,599.345459 214.479462,595.766296 215.947189,591.796143 
M232.339584,587.839050 
	C231.202362,584.411133 230.065140,580.983215 228.927933,577.555298 
	C227.040894,580.233643 225.862701,582.645081 225.518768,585.170044 
	C225.284424,586.890442 225.674713,589.773071 226.748856,590.353455 
	C228.565460,591.334961 231.624603,592.320984 232.339584,587.839050 
z"/>
<path fill="#E7EBF6" opacity="1.000000" stroke="none" 
	d="
M518.964111,599.980347 
	C517.793823,601.624634 516.652405,603.801147 515.396240,603.869629 
	C508.927979,604.221741 502.430206,604.032837 495.499573,604.032837 
	C495.499573,592.066711 495.499573,580.369263 495.499573,567.657410 
	C503.170746,568.472717 510.670593,569.269836 519.023071,570.157593 
	C515.885071,575.289307 512.371155,576.219666 508.381531,575.774841 
	C505.417908,575.444275 503.069458,576.301697 503.404572,579.420898 
	C503.535950,580.643494 506.089905,582.074951 507.781067,582.543945 
	C509.971710,583.151428 512.513611,582.513123 514.688599,583.148926 
	C515.979675,583.526367 516.855591,585.323547 517.918152,586.482361 
	C516.786255,587.319458 515.715637,588.754944 514.510620,588.878479 
	C511.238129,589.213989 507.908722,588.993591 504.759064,588.993591 
	C501.935852,596.747009 502.624695,597.637329 510.277344,597.974365 
	C513.182312,598.102295 516.053467,598.995667 518.964111,599.980347 
z"/>
<path fill="#75718E" opacity="1.000000" stroke="none" 
	d="
M595.747803,207.089371 
	C598.633484,197.550308 604.955017,188.686783 602.176086,177.777359 
	C599.803162,168.462204 594.134827,161.207626 587.235413,154.847977 
	C574.783508,143.370117 560.623718,134.464371 545.240051,127.469887 
	C543.441528,126.652153 541.509644,126.127670 539.740723,125.216476 
	C540.557556,124.327942 541.273254,123.690170 541.989014,123.052399 
	C550.773743,127.431274 559.800537,131.390442 568.288025,136.284836 
	C581.917847,144.144623 594.776611,153.352646 601.768005,167.991882 
	C606.625061,178.161926 606.724243,189.252502 602.359009,199.836792 
	C601.204712,202.635574 598.225769,204.681839 595.747803,207.089371 
z"/>
<path fill="#706C8A" opacity="1.000000" stroke="none" 
	d="
M541.667175,122.892883 
	C541.273254,123.690170 540.557556,124.327942 539.508667,124.957718 
	C526.146118,120.406815 513.131775,115.820183 500.083282,111.333122 
	C486.587524,106.692299 473.058502,102.148163 459.286407,97.322144 
	C469.698181,96.203896 479.226746,100.731796 489.111450,103.506905 
	C494.790436,105.101242 500.451447,106.839012 505.967377,108.918427 
	C517.812622,113.383888 529.558655,118.112480 541.667175,122.892883 
z"/>
<path fill="#5D6BA3" opacity="1.000000" stroke="none" 
	d="
M583.239990,523.745667 
	C582.711670,522.921326 582.297607,521.806519 582.295837,520.691101 
	C582.217407,470.325165 582.175171,419.959167 582.277832,369.203430 
	C582.950073,370.263794 583.928101,371.713196 583.930420,373.164124 
	C584.007751,422.454102 583.994507,471.744263 583.971985,521.034363 
	C583.971619,521.841309 583.694458,522.648071 583.239990,523.745667 
z"/>
<path fill="#6772AD" opacity="1.000000" stroke="none" 
	d="
M387.056946,602.117432 
	C388.678619,595.847412 389.633057,590.062683 383.314117,585.439392 
	C387.712158,582.001587 387.541748,577.642578 386.908569,572.534912 
	C388.130890,570.958679 389.051147,569.965210 389.971375,568.971680 
	C389.971375,568.971680 389.990234,568.997559 390.291107,568.972900 
	C391.057983,568.609802 391.523987,568.271423 391.990021,567.933105 
	C396.353210,564.039368 401.027832,564.369751 406.072998,567.299927 
	C403.771729,568.119324 401.266693,568.870911 398.753082,568.900635 
	C395.260315,568.942139 393.274506,570.423706 393.217499,573.826477 
	C393.072662,582.465698 392.802338,591.125305 393.237061,599.743652 
	C393.511749,605.189392 397.809326,603.691528 401.584534,603.002930 
	C402.381500,606.499756 401.029114,607.881287 397.477234,606.494263 
	C394.050354,605.156128 390.630219,603.800537 387.056946,602.117432 
z"/>
<path fill="#E9EDF7" opacity="1.000000" stroke="none" 
	d="
M69.803757,570.429016 
	C69.896080,581.637878 69.896080,592.391663 69.896080,603.664978 
	C67.277481,603.797974 65.045006,603.911316 62.396141,604.045776 
	C62.396141,592.383911 62.396141,581.040894 62.396141,568.653503 
	C64.937988,569.112305 67.324707,569.543152 69.803757,570.429016 
z"/>
<path fill="#75718E" opacity="1.000000" stroke="none" 
	d="
M443.716980,92.631393 
	C434.157104,91.216377 424.402893,89.548553 414.662781,87.802094 
	C400.350372,85.235825 386.039459,82.659538 371.745728,79.991974 
	C366.083282,78.935219 360.468658,77.622505 354.555847,76.201065 
	C365.011902,75.866936 375.513885,76.527847 386.107300,79.280548 
	C399.574463,82.780006 413.548859,84.281914 427.212463,87.092781 
	C432.775879,88.237282 438.097382,90.557922 443.716980,92.631393 
z"/>
<path fill="#5D6BA3" opacity="1.000000" stroke="none" 
	d="
M562.686096,372.300171 
	C563.230530,378.278412 563.697937,384.557526 563.707581,390.837341 
	C563.758667,424.044250 563.695923,457.251373 563.661438,490.458405 
	C563.660583,491.282379 563.529419,492.106232 562.427002,493.657562 
	C561.302612,492.033600 560.178223,490.409668 558.922363,488.458344 
	C559.863831,484.632812 561.843689,481.141083 561.868713,477.635406 
	C562.105469,444.431213 562.003662,411.224670 562.026245,378.018799 
	C562.027466,376.212921 562.268494,374.407166 562.686096,372.300171 
z"/>
<path fill="#75718E" opacity="1.000000" stroke="none" 
	d="
M290.363037,67.947464 
	C289.719330,67.427834 289.466095,66.990982 289.106964,66.326172 
	C301.099670,65.473755 312.988098,66.804840 324.831451,69.341766 
	C331.244019,70.715385 337.898895,70.923233 344.366394,72.089844 
	C347.511017,72.657074 350.476379,74.218185 353.711975,75.606865 
	C344.353882,74.822670 334.806976,73.758698 325.259491,72.699974 
	C316.999146,71.783997 308.728394,70.952057 300.482239,69.922707 
	C297.211548,69.514435 293.994812,68.673950 290.363037,67.947464 
z"/>
<path fill="#6D79B1" opacity="1.000000" stroke="none" 
	d="
M426.508972,573.969971 
	C426.426575,576.563538 426.351440,579.302124 425.444519,581.730103 
	C421.832855,591.399536 425.083069,599.477356 434.752655,603.982666 
	C435.017456,604.445557 435.031586,604.935242 435.031586,604.935242 
	C431.473969,607.003052 429.019348,606.055542 426.854156,602.573425 
	C426.182770,601.493774 423.898193,601.417175 422.067047,600.993896 
	C416.463043,592.097900 418.286133,582.427551 419.254761,572.384033 
	C421.608978,572.606262 423.871490,573.289307 426.508972,573.969971 
z"/>
<path fill="#75718E" opacity="1.000000" stroke="none" 
	d="
M557.406982,235.967468 
	C559.431946,233.809906 561.642090,231.416824 564.253479,229.600693 
	C573.818726,222.948349 583.517517,216.488037 593.503601,209.854706 
	C587.996521,219.181534 579.162476,225.093445 569.662292,230.172531 
	C565.773804,232.251404 561.742676,234.063370 557.406982,235.967468 
z"/>
<path fill="#6670A6" opacity="1.000000" stroke="none" 
	d="
M117.955048,592.068054 
	C110.690186,593.178040 110.690186,593.178040 112.844383,601.691772 
	C111.325058,602.060547 109.795448,602.047363 107.888336,602.053162 
	C107.303261,594.666626 107.245003,587.252686 106.825500,579.859192 
	C106.613815,576.128479 105.747688,572.434875 105.098938,568.339905 
	C107.858635,566.102600 107.961662,568.110718 107.973358,570.092834 
	C108.003792,575.248718 107.860054,580.409729 108.055855,585.558411 
	C108.123322,587.332397 108.988869,589.076050 109.489838,590.833557 
	C110.955589,589.504150 112.421341,588.174744 113.931786,586.492554 
	C115.880547,586.925964 117.784615,587.712097 119.796249,589.121948 
	C119.254219,590.519836 118.604630,591.293945 117.955048,592.068054 
z"/>
<path fill="#6D79B1" opacity="1.000000" stroke="none" 
	d="
M389.602844,569.004761 
	C389.051147,569.965210 388.130890,570.958679 386.855682,572.102539 
	C379.900055,571.140076 373.299408,570.027222 366.313141,568.747070 
	C371.876160,565.697632 377.811676,566.644470 383.817413,568.468811 
	C385.523285,568.986877 387.423340,568.865845 389.602844,569.004761 
z"/>
<path fill="#7B84B9" opacity="1.000000" stroke="none" 
	d="
M435.407593,605.021912 
	C435.031586,604.935242 435.017456,604.445557 435.018372,604.200562 
	C440.453827,603.382507 445.888367,602.809448 451.723328,602.295776 
	C452.283508,605.610535 450.904175,607.419922 447.484436,606.959961 
	C443.571930,606.433716 439.682861,605.733337 435.407593,605.021912 
z"/>
<path fill="#6D79B1" opacity="1.000000" stroke="none" 
	d="
M207.200775,434.878601 
	C204.942169,429.062256 206.079330,427.811493 213.656067,428.200531 
	C211.882202,430.487152 209.695435,432.610992 207.200775,434.878601 
z"/>
<path fill="#6D79B1" opacity="1.000000" stroke="none" 
	d="
M436.673157,567.544678 
	C433.931732,569.599060 430.926544,571.403198 427.576385,573.309570 
	C426.189941,567.443542 428.211426,568.466370 436.673157,567.544678 
z"/>
<path fill="#6D79B1" opacity="1.000000" stroke="none" 
	d="
M452.815369,571.028198 
	C450.330383,570.439453 447.889221,569.459595 445.232971,568.200806 
	C448.585419,566.072754 451.225494,566.901917 452.815369,571.028198 
z"/>
<path fill="#7B84B9" opacity="1.000000" stroke="none" 
	d="
M418.807617,570.965515 
	C416.903290,570.493225 415.048035,569.639954 413.078369,568.459839 
	C416.346832,565.540344 417.753235,567.698303 418.807617,570.965515 
z"/>
<path fill="#6670A6" opacity="1.000000" stroke="none" 
	d="
M113.003296,602.473999 
	C114.853951,603.191650 116.778290,604.236084 118.874565,605.570312 
	C115.073509,608.710022 115.117409,603.721802 113.003296,602.473999 
z"/>
<path fill="#5D6BA3" opacity="1.000000" stroke="none" 
	d="
M574.115967,364.142883 
	C572.932251,364.698120 571.332642,365.188721 569.359253,365.589569 
	C570.557007,365.025970 572.128540,364.552124 574.115967,364.142883 
z"/>
<path fill="#75718E" opacity="1.000000" stroke="none" 
	d="
M447.008728,94.213257 
	C446.206635,94.193268 445.324005,93.872902 444.306458,93.287445 
	C445.090454,93.319199 446.009308,93.616043 447.008728,94.213257 
z"/>
<path fill="#7A7998" opacity="1.000000" stroke="none" 
	d="
M298.263245,292.595459 
	C299.400574,292.280823 300.803802,292.175690 302.621063,292.170105 
	C301.533112,292.448090 300.031128,292.626556 298.263245,292.595459 
z"/>
<path fill="#75718E" opacity="1.000000" stroke="none" 
	d="
M452.733337,95.522293 
	C451.837769,95.675728 450.692749,95.588799 449.296204,95.266068 
	C450.191101,95.114151 451.337463,95.198036 452.733337,95.522293 
z"/>
<path fill="#6D79B1" opacity="1.000000" stroke="none" 
	d="
M391.692383,567.970825 
	C391.523987,568.271423 391.057983,568.609802 390.287109,568.960571 
	C390.453094,568.651428 390.923889,568.330017 391.692383,567.970825 
z"/>
<path fill="#7A7998" opacity="1.000000" stroke="none" 
	d="
M552.431824,238.066803 
	C552.600159,237.751617 553.045654,237.454971 553.776611,237.192230 
	C553.611023,237.512543 553.160034,237.798950 552.431824,238.066803 
z"/>
<path fill="#75718E" opacity="1.000000" stroke="none" 
	d="
M555.262085,236.960632 
	C555.425232,236.623047 555.887634,236.318268 556.636108,236.020660 
	C556.468506,236.349701 556.014893,236.671570 555.262085,236.960632 
z"/>
<path fill="#75718E" opacity="1.000000" stroke="none" 
	d="
M594.393677,208.881210 
	C594.089722,208.656296 594.170898,208.350174 594.652588,207.975494 
	C594.928284,208.202026 594.836853,208.499710 594.393677,208.881210 
z"/>
<path fill="#5D6BA3" opacity="1.000000" stroke="none" 
	d="
M582.695190,525.819275 
	C582.468323,525.801697 582.618835,525.346069 582.776794,525.165405 
	C583.066711,525.214050 583.198730,525.443420 583.330688,525.672729 
	C583.194458,525.727478 583.058228,525.782166 582.695190,525.819275 
z"/>
<path fill="#4C5FAB" opacity="1.000000" stroke="none" 
	d="
M60.865334,234.305161 
	C44.634701,234.800446 28.277596,234.930786 11.464401,234.949280 
	C12.000358,234.226181 12.988432,233.089951 13.985053,233.082397 
	C28.853182,232.969803 43.722488,232.993439 58.591293,233.047318 
	C59.308224,233.049911 60.023060,233.629364 60.865334,234.305161 
z"/>
<path fill="#4E60AB" opacity="1.000000" stroke="none" 
	d="
M392.593262,386.653961 
	C397.058380,389.080963 402.152924,390.793396 405.870972,394.068542 
	C417.165649,404.017639 424.784912,416.409424 427.468292,431.434174 
	C430.259949,447.064880 429.092865,462.482330 421.506805,476.507202 
	C413.100067,492.049286 400.663055,503.264496 383.262482,508.860718 
	C372.283020,512.391846 361.381317,513.142456 350.343903,511.051086 
	C331.275421,507.437988 316.974609,496.651062 306.743164,480.296417 
	C305.966461,479.054901 305.145905,477.840820 303.662445,475.566284 
	C310.002441,474.339539 315.933319,473.347565 321.790344,472.027679 
	C335.850250,468.859314 350.002258,465.980743 363.843414,462.027130 
	C368.459839,460.708466 372.671783,456.923279 376.286133,453.451080 
	C379.695068,450.176300 378.390015,444.813080 374.055328,442.673431 
	C366.030151,438.712189 357.836487,435.092133 349.079346,431.107605 
	C346.988190,430.228973 345.588196,429.349518 344.062897,428.956818 
	C338.719269,427.581055 333.332458,426.373047 327.852173,424.787781 
	C326.505585,424.274933 325.268860,424.075684 323.699585,423.932617 
	C322.919495,423.969818 322.471985,423.950775 321.924316,423.546417 
	C319.312103,422.773438 316.812317,422.212036 314.285522,422.034729 
	C309.218353,421.679199 306.250458,417.340515 308.707184,413.061157 
	C310.918518,409.209259 313.468719,405.431915 316.472809,402.178802 
	C323.982666,394.046204 333.251007,388.020355 343.532654,384.397766 
	C350.230103,382.037994 357.880066,380.966095 364.957306,381.450409 
	C374.244507,382.085968 383.387970,384.821564 392.593262,386.653961 
z"/>
<path fill="#4C5FAB" opacity="1.000000" stroke="none" 
	d="
M348.861664,434.224670 
	C350.380920,435.457581 351.900208,436.690460 353.677551,438.509766 
	C354.128052,439.884399 354.176453,440.746857 354.537811,441.448090 
	C356.146637,444.570251 354.839966,448.000031 351.540283,448.902222 
	C347.478912,450.012695 343.309570,450.798737 339.359924,452.209412 
	C337.970062,452.705872 337.091064,454.632507 335.978821,455.906128 
	C328.949921,456.808807 321.921021,457.711456 314.381287,458.175903 
	C313.576630,454.503235 313.282776,451.268829 312.984070,447.618378 
	C310.759491,444.319183 314.175720,438.916779 308.000000,436.624146 
	C308.000000,443.664429 308.000000,449.832214 307.691711,456.161072 
	C303.647949,459.958862 302.475220,456.497833 300.962585,453.673309 
	C300.958557,452.909760 300.946381,452.473724 300.953522,451.630249 
	C300.960449,450.135559 300.948090,449.048309 300.952423,447.511475 
	C300.965393,444.050354 300.961639,441.038757 300.970032,437.620911 
	C301.989532,433.816528 302.996887,430.418396 304.405212,427.048157 
	C310.601776,427.874176 316.418304,428.545593 322.188049,429.499847 
	C331.096069,430.973175 339.972076,432.639954 348.861664,434.224670 
z"/>
<path fill="#6A78B1" opacity="1.000000" stroke="none" 
	d="
M312.988953,448.034424 
	C313.282776,451.268829 313.576630,454.503235 313.973633,458.093872 
	C310.399872,459.367493 306.660858,460.093170 303.064026,461.257904 
	C299.691650,462.349915 298.550110,460.901459 298.014832,457.901337 
	C294.345703,437.335938 298.370941,418.599182 311.909363,402.479309 
	C328.333801,382.923035 349.351105,374.603455 374.672821,379.121857 
	C380.760468,380.208130 386.429901,383.638184 392.442444,386.322174 
	C383.387970,384.821564 374.244507,382.085968 364.957306,381.450409 
	C357.880066,380.966095 350.230103,382.037994 343.532654,384.397766 
	C333.251007,388.020355 323.982666,394.046204 316.472809,402.178802 
	C313.468719,405.431915 310.918518,409.209259 308.707184,413.061157 
	C306.250458,417.340515 309.218353,421.679199 314.285522,422.034729 
	C316.812317,422.212036 319.312103,422.773438 321.466400,423.618164 
	C315.264130,423.737854 309.419586,423.400482 302.844116,423.020935 
	C303.336731,424.719208 303.670502,425.869751 304.004242,427.020294 
	C302.996887,430.418396 301.989532,433.816528 300.587006,437.701965 
	C298.686035,441.580017 297.385651,444.955170 300.935730,447.961029 
	C300.948090,449.048309 300.960449,450.135559 300.665527,451.661011 
	C300.053314,452.417755 299.748413,452.736359 299.443542,453.054962 
	C299.947174,453.370239 300.450806,453.685516 300.954437,454.000793 
	C302.475220,456.497833 303.647949,459.958862 308.061035,456.202362 
	C310.787445,456.933716 312.060699,456.861694 312.052887,454.035797 
	C312.047363,452.036224 312.655029,450.034943 312.988953,448.034424 
z"/>
<path fill="#5C6AAA" opacity="1.000000" stroke="none" 
	d="
M174.094635,437.002563 
	C178.280762,435.428741 182.056305,433.720551 186.013458,432.762451 
	C187.045029,432.512634 189.741180,434.540436 189.800323,435.624359 
	C190.160538,442.226135 189.980148,448.857452 189.980148,456.365906 
	C184.280060,454.010681 178.887482,452.452454 174.206940,449.688477 
	C167.517166,445.737976 167.641983,442.097351 174.094635,437.002563 
z"/>
<path fill="#C8D6ED" opacity="1.000000" stroke="none" 
	d="
M304.405212,427.048157 
	C303.670502,425.869751 303.336731,424.719208 302.844116,423.020935 
	C309.419586,423.400482 315.264130,423.737854 321.566589,424.003479 
	C322.471985,423.950775 322.919495,423.969818 323.880219,424.249176 
	C325.582977,424.706787 326.772491,424.904083 327.962036,425.101379 
	C333.332458,426.373047 338.719269,427.581055 344.062897,428.956818 
	C345.588196,429.349518 346.988190,430.228973 348.759766,431.105408 
	C349.028931,432.050568 348.984039,432.775635 348.900391,433.862671 
	C339.972076,432.639954 331.096069,430.973175 322.188049,429.499847 
	C316.418304,428.545593 310.601776,427.874176 304.405212,427.048157 
z"/>
<path fill="#6A78B1" opacity="1.000000" stroke="none" 
	d="
M336.376038,455.958435 
	C337.091064,454.632507 337.970062,452.705872 339.359924,452.209412 
	C343.309570,450.798737 347.478912,450.012695 351.540283,448.902222 
	C354.839966,448.000031 356.146637,444.570251 354.537811,441.448090 
	C354.176453,440.746857 354.128052,439.884399 353.929199,438.735229 
	C355.173767,439.021637 356.476990,439.586731 357.661102,440.339264 
	C358.870850,441.108032 359.963654,442.060760 361.327515,443.100586 
	C358.355530,447.410492 355.225281,450.932190 349.984589,452.158997 
	C345.524658,453.203033 341.172852,454.709045 336.376038,455.958435 
z"/>
<path fill="#6D79B1" opacity="1.000000" stroke="none" 
	d="
M197.341125,583.746277 
	C193.383957,584.158691 189.295868,584.838196 190.376038,579.136780 
	C190.719986,577.321289 192.792999,574.260376 193.616592,574.403625 
	C196.094727,574.834778 199.085724,576.017151 200.497711,577.926392 
	C202.202148,580.231140 200.650391,582.648254 197.341125,583.746277 
z"/>
<path fill="#5C6AAA" opacity="1.000000" stroke="none" 
	d="
M117.998703,592.420044 
	C118.604630,591.293945 119.254219,590.519836 119.931946,589.439331 
	C122.978416,590.168945 126.089630,591.006165 128.964706,592.348938 
	C129.970047,592.818481 131.232101,594.986328 130.908539,595.585083 
	C130.236557,596.828552 128.649948,598.215515 127.320038,598.348206 
	C123.032730,598.776062 119.665276,597.074097 117.998703,592.420044 
z"/>
<path fill="#6772AD" opacity="1.000000" stroke="none" 
	d="
M532.020386,577.262695 
	C531.843872,574.236755 533.048096,573.454102 535.356567,574.413513 
	C537.494568,575.302063 539.569641,576.341797 541.650574,577.304810 
	C541.279419,583.241333 539.621460,584.384766 532.019775,583.375854 
	C532.019775,581.557495 532.019775,579.629395 532.020386,577.262695 
z"/>
<path fill="#6A78B1" opacity="1.000000" stroke="none" 
	d="
M401.084076,581.812744 
	C401.726318,579.151184 401.771881,576.106873 403.276276,574.934570 
	C404.539673,573.950134 407.774597,574.616089 409.621124,575.559998 
	C410.913910,576.220764 412.045258,578.631958 411.933136,580.165222 
	C411.838715,581.456909 409.899567,583.560364 408.686707,583.625549 
	C406.196259,583.759460 403.645416,582.768799 401.084076,581.812744 
z"/>
<path fill="#5868AB" opacity="1.000000" stroke="none" 
	d="
M436.603149,575.369629 
	C443.082977,572.471008 448.282593,575.032471 448.847229,581.361755 
	C449.181915,585.112976 448.976288,588.978638 448.474640,592.720581 
	C447.898193,597.020752 444.602112,598.821411 440.656494,598.863220 
	C436.646057,598.905701 433.689972,597.065613 433.011780,592.648865 
	C432.078400,586.569946 431.058716,580.498413 436.603149,575.369629 
z"/>
<path fill="#5C6AAA" opacity="1.000000" stroke="none" 
	d="
M371.487549,597.728760 
	C370.449707,595.300049 369.476593,592.954529 369.470551,590.606506 
	C369.469116,590.041809 372.783997,588.802856 374.380981,589.061951 
	C376.561615,589.415710 379.418121,590.378052 380.435455,592.032349 
	C382.045654,594.650635 380.630035,597.251709 377.342499,597.859680 
	C375.593506,598.183105 373.722839,597.848572 371.487549,597.728760 
z"/>
<path fill="#6670A6" opacity="1.000000" stroke="none" 
	d="
M368.878723,578.949646 
	C368.532959,574.431641 371.305023,573.423828 374.222870,574.242798 
	C376.124054,574.776428 377.974365,576.874634 378.920319,578.741638 
	C379.294220,579.479736 377.293915,582.557617 376.129730,582.710999 
	C373.353180,583.076843 369.493561,584.266663 368.878723,578.949646 
z"/>
<path fill="#7B84B9" opacity="1.000000" stroke="none" 
	d="
M232.446884,588.203247 
	C231.624603,592.320984 228.565460,591.334961 226.748856,590.353455 
	C225.674713,589.773071 225.284424,586.890442 225.518768,585.170044 
	C225.862701,582.645081 227.040894,580.233643 228.927933,577.555298 
	C230.065140,580.983215 231.202362,584.411133 232.446884,588.203247 
z"/>
<path fill="#6A78B1" opacity="1.000000" stroke="none" 
	d="
M327.852173,424.787811 
	C326.772491,424.904083 325.582977,424.706787 324.212769,424.192932 
	C325.268860,424.075684 326.505585,424.274933 327.852173,424.787811 
z"/>
<path fill="#4E60AB" opacity="1.000000" stroke="none" 
	d="
M312.984070,447.618378 
	C312.655029,450.034943 312.047363,452.036224 312.052887,454.035797 
	C312.060699,456.861694 310.787445,456.933716 308.369293,456.041321 
	C308.000000,449.832214 308.000000,443.664429 308.000000,436.624146 
	C314.175720,438.916779 310.759491,444.319183 312.984070,447.618378 
z"/>
<path fill="#7B84B9" opacity="1.000000" stroke="none" 
	d="
M300.952454,447.511475 
	C297.385651,444.955170 298.686035,441.580017 300.574890,438.108215 
	C300.961639,441.038757 300.965393,444.050354 300.952454,447.511475 
z"/>
<path fill="#7B84B9" opacity="1.000000" stroke="none" 
	d="
M300.962585,453.673309 
	C300.450806,453.685516 299.947174,453.370239 299.443542,453.054962 
	C299.748413,452.736359 300.053314,452.417755 300.646240,452.068420 
	C300.946381,452.473724 300.958557,452.909760 300.962585,453.673309 
z"/>
</svg>