<svg xmlns="http://www.w3.org/2000/svg" xmlns:xlink="http://www.w3.org/1999/xlink" width="130" height="32" viewBox="0 0 130 32">
  <defs>
    <clipPath id="clip-logo">
      <rect width="130" height="32"/>
    </clipPath>
  </defs>
  <g id="logo" clip-path="url(#clip-logo)">
    <g id="carlist-copy-2_1_" transform="translate(729 369.743)">
      <g id="Group_15_" transform="translate(-698.981 -356.191)">
        <path id="Combined-Shape_1_" d="M-692.894,162.713a1.758,1.758,0,0,0-1.557.821,4.034,4.034,0,0,0-.569,2.261c0,1.994.754,3,2.277,3a5.147,5.147,0,0,0,1.34-.185c.435-.134.87-.285,1.307-.468v2.378a7.167,7.167,0,0,1-2.948.569,4.573,4.573,0,0,1-3.6-1.374,5.631,5.631,0,0,1-1.256-3.952,6.29,6.29,0,0,1,.6-2.83,4.292,4.292,0,0,1,1.742-1.876,5.3,5.3,0,0,1,2.679-.653,7.429,7.429,0,0,1,3.216.736l-.854,2.21a8.248,8.248,0,0,0-1.155-.453A3.647,3.647,0,0,0-692.894,162.713Zm9.328,8.391-.52-1.055h-.051a3.214,3.214,0,0,1-1.106.937,3.559,3.559,0,0,1-1.457.252,2.224,2.224,0,0,1-1.724-.669,2.67,2.67,0,0,1-.636-1.893,2.174,2.174,0,0,1,.87-1.892,4.7,4.7,0,0,1,2.5-.7l1.289-.033v-.118a.849.849,0,0,0-.955-.97,5.664,5.664,0,0,0-2.161.587l-.754-1.791a7.4,7.4,0,0,1,3.433-.72,3.254,3.254,0,0,1,2.311.754,2.7,2.7,0,0,1,.821,2.11v5.192h-1.856Zm-1.994-1.791a1.185,1.185,0,0,0,.837-.319,1.067,1.067,0,0,0,.352-.821v-.62l-.62.033c-.888.033-1.323.368-1.323.988A.662.662,0,0,0-685.56,169.312Zm9.713-6.4a4.332,4.332,0,0,1,.669.051l.151.033-.234,2.612a4.082,4.082,0,0,0-.9-.085,1.665,1.665,0,0,0-1.273.419,1.649,1.649,0,0,0-.4,1.189v3.952h-2.681v-8.038h1.994l.419,1.289h.134a2.806,2.806,0,0,1,.937-1.039A2.185,2.185,0,0,1-675.847,162.913Zm4.238,8.19h-2.679V160.435h2.679Zm1.457-9.5a1.177,1.177,0,0,1,.335-.9,1.6,1.6,0,0,1,1.089-.3,1.627,1.627,0,0,1,1.088.3,1.1,1.1,0,0,1,.335.888c0,.787-.486,1.173-1.441,1.173C-669.682,162.8-670.153,162.4-670.153,161.608Zm2.748,9.5h-2.681v-8.056h2.679V171.1Zm7.519-2.529a2.224,2.224,0,0,1-.854,1.892,4.049,4.049,0,0,1-2.445.636,10.029,10.029,0,0,1-1.508-.1,6.83,6.83,0,0,1-1.307-.335v-2.159a7.758,7.758,0,0,0,1.374.453,5.887,5.887,0,0,0,1.323.185c.586,0,.87-.134.87-.4a.447.447,0,0,0-.252-.368,13.261,13.261,0,0,0-1.423-.636,3.427,3.427,0,0,1-1.49-1.006,2.275,2.275,0,0,1-.419-1.423,1.985,1.985,0,0,1,.837-1.691,3.973,3.973,0,0,1,2.362-.6,5.71,5.71,0,0,1,1.441.167,8.8,8.8,0,0,1,1.407.486l-.72,1.742a6.088,6.088,0,0,0-1.14-.4,3.528,3.528,0,0,0-.97-.167c-.435,0-.653.1-.653.319a.393.393,0,0,0,.234.335,11.072,11.072,0,0,0,1.323.569,5.706,5.706,0,0,1,1.222.653,1.938,1.938,0,0,1,.587.754A2.82,2.82,0,0,1-659.886,168.574Zm4.94.469a3.826,3.826,0,0,0,1.289-.285v2.027a5.883,5.883,0,0,1-1.039.352,5.814,5.814,0,0,1-1.155.1,2.441,2.441,0,0,1-1.943-.687,3.115,3.115,0,0,1-.6-2.11v-3.316h-.937V164l1.189-.87.687-1.691h1.758v1.608h1.925v2.077h-1.909v3.149C-655.666,168.793-655.432,169.043-654.946,169.043Z" transform="translate(697.9 -160.4)" fill="#02aaee"/>
        <path id="Shape_286_" d="M1852.2,620.205a1.251,1.251,0,0,1,.368-.97,1.546,1.546,0,0,1,1.089-.335,1.5,1.5,0,0,1,1.039.335,1.313,1.313,0,0,1,.368.97,1.251,1.251,0,0,1-.368.971,1.447,1.447,0,0,1-1.039.352,1.652,1.652,0,0,1-1.073-.335A1.328,1.328,0,0,1,1852.2,620.205Z" transform="translate(-1807.286 -610.825)" fill="#ffc500"/>
        <path id="Shape_285_" d="M2090.846,314.139v-4.371a2.606,2.606,0,0,0-.218-1.222.728.728,0,0,0-.687-.4.937.937,0,0,0-.9.553,3.964,3.964,0,0,0-.285,1.708v3.752h-2.7v-4.372a2.888,2.888,0,0,0-.2-1.222.688.688,0,0,0-.669-.4.981.981,0,0,0-.921.586,4.725,4.725,0,0,0-.285,1.909v3.516H2081.3v-8.039h2.043l.335.988h.151a1.948,1.948,0,0,1,.888-.837,2.87,2.87,0,0,1,1.34-.285,2.592,2.592,0,0,1,2.362,1.055h.218a2.1,2.1,0,0,1,.921-.77,2.964,2.964,0,0,1,1.289-.285,2.652,2.652,0,0,1,2.043.736,3.25,3.25,0,0,1,.654,2.228v5.226h-2.7v-.051Z" transform="translate(-2032.351 -303.436)" fill="#ffc500"/>
        <path id="Shape_284_" d="M2805.9,311.7h2.831l1.323,4.606a5.374,5.374,0,0,1,.134.87h.051a3.9,3.9,0,0,1,.167-.854l1.356-4.622h2.73l-3.065,8.558a4.918,4.918,0,0,1-1.457,2.311,3.505,3.505,0,0,1-2.244.669,5.133,5.133,0,0,1-1.106-.118v-2.175a3.978,3.978,0,0,0,.837.085,1.421,1.421,0,0,0,.62-.134,1.524,1.524,0,0,0,.469-.4,3.376,3.376,0,0,0,.419-.854Z" transform="translate(-2744.188 -309.035)" fill="#ffc500"/>
      </g>
      <path id="Shape_283_" d="M-699-356.172s7.318-6.649,22.61-5.442c0,0,8.843-5.259,13.683-5.125,0,0,27.316.754,34.014,10.568,0,0-18.707-5.159-27.583-2.63,0,0,5.777-3.484,17.116-1.825,0,0-8.29-4.22-25.021-4.706a22.751,22.751,0,0,0-11.288,5.226A41.216,41.216,0,0,0-699-356.172Z" fill="#02aaee"/>
      <g id="Group_14_" transform="translate(-686.843 -342.908)">
        <path id="Shape_282_" d="M-90.91,828.961l-.62-2.01h-.018c.018.4.033.687.033.821v1.189H-92V826.4h.736l.6,1.96h.018l.636-1.96h.736v2.563h-.5v-1.407c0-.067.018-.268.018-.6h-.018l-.653,2.008Z" transform="translate(92 -826.367)" fill="#465668"/>
        <path id="Shape_281_" d="M83.992,828.863l-.185-.6H82.87l-.185.6H82.1L83,826.3h.669l.9,2.563Zm-.317-1.055c-.167-.553-.268-.87-.285-.937a1.025,1.025,0,0,0-.051-.167c-.033.151-.151.52-.335,1.106h.671Z" transform="translate(-79.034 -826.268)" fill="#465668"/>
        <path id="Shape_280_" d="M240.9,828.961V826.4h.535v2.11h1.039v.451Z" transform="translate(-235.037 -826.367)" fill="#465668"/>
        <path id="Shape_279_" d="M339.693,828.863l-.185-.6h-.937l-.185.6H337.8l.9-2.563h.669l.9,2.563Zm-.317-1.055c-.167-.553-.268-.87-.285-.937a1.021,1.021,0,0,0-.051-.167c-.033.151-.151.52-.335,1.106h.671Z" transform="translate(-330.23 -826.268)" fill="#465668"/>
        <path id="Shape_278_" d="M478.838,827.455l.535-1.055h.587l-.854,1.557v.988h-.551v-.955l-.854-1.575h.585Z" transform="translate(-467.666 -826.367)" fill="#465668"/>
        <path id="Shape_277_" d="M617.159,827.276a.671.671,0,0,1-.252.553,1.081,1.081,0,0,1-.687.2,1.631,1.631,0,0,1-.72-.151v-.5a2.451,2.451,0,0,0,.435.167,1.254,1.254,0,0,0,.335.051.4.4,0,0,0,.268-.067.241.241,0,0,0,.1-.2.189.189,0,0,0-.051-.134.746.746,0,0,0-.118-.118,1.989,1.989,0,0,0-.335-.167,1.616,1.616,0,0,1-.352-.218.829.829,0,0,1-.185-.234.631.631,0,0,1-.067-.319.674.674,0,0,1,.234-.535.936.936,0,0,1,.636-.2,1.436,1.436,0,0,1,.386.051c.118.033.252.085.386.134L617,826a2.854,2.854,0,0,0-.335-.118,1.412,1.412,0,0,0-.268-.033.33.33,0,0,0-.234.067.274.274,0,0,0-.085.185.252.252,0,0,0,.033.118.3.3,0,0,0,.1.1,2.875,2.875,0,0,0,.352.185,1.352,1.352,0,0,1,.486.352A.9.9,0,0,1,617.159,827.276Z" transform="translate(-603.039 -825.384)" fill="#465668"/>
        <path id="Shape_276_" d="M736.3,828.961V826.4h.535v2.561Z" transform="translate(-721.711 -826.367)" fill="#465668"/>
        <path id="Shape_275_" d="M786.593,828.863l-.185-.6h-.937l-.185.6H784.7l.9-2.563h.669l.9,2.563Zm-.317-1.055c-.167-.553-.268-.87-.285-.937a1.018,1.018,0,0,0-.051-.167c-.033.151-.151.52-.335,1.106h.671Z" transform="translate(-769.259 -826.268)" fill="#465668"/>
        <path id="Shape_274_" d="M928.169,826.4l.018.034a5.95,5.95,0,0,1-.3.837H927.5c.085-.352.134-.636.167-.87Z" transform="translate(-909.544 -826.367)" fill="#465668"/>
        <path id="Shape_273_" d="M981.259,827.276a.671.671,0,0,1-.252.553,1.081,1.081,0,0,1-.687.2,1.631,1.631,0,0,1-.72-.151v-.5a2.451,2.451,0,0,0,.435.167,1.254,1.254,0,0,0,.335.051.4.4,0,0,0,.268-.067.241.241,0,0,0,.1-.2.189.189,0,0,0-.051-.134.746.746,0,0,0-.118-.118,1.991,1.991,0,0,0-.335-.167,1.616,1.616,0,0,1-.352-.218.828.828,0,0,1-.185-.234.631.631,0,0,1-.067-.319.674.674,0,0,1,.234-.535.936.936,0,0,1,.636-.2,1.436,1.436,0,0,1,.386.051c.118.033.252.085.386.134L981.1,826a2.858,2.858,0,0,0-.335-.118,1.412,1.412,0,0,0-.268-.033.33.33,0,0,0-.234.067.269.269,0,0,0-.085.185.252.252,0,0,0,.033.118.3.3,0,0,0,.1.1,2.875,2.875,0,0,0,.352.185,1.354,1.354,0,0,1,.486.352A.88.88,0,0,1,981.259,827.276Z" transform="translate(-960.726 -825.384)" fill="#465668"/>
        <path id="Shape_272_" d="M1155.863,828.961h-.687l-1.106-1.943h-.018c.018.335.033.586.033.736v1.206h-.486V826.4h.687l1.106,1.909h.018c-.018-.335-.033-.569-.033-.7V826.4h.486Z" transform="translate(-1131.661 -826.367)" fill="#02aaee"/>
        <path id="Shape_271_" d="M1308.345,825.823a1.326,1.326,0,0,1-.319.97,1.165,1.165,0,0,1-.9.335,1.226,1.226,0,0,1-.9-.335,1.374,1.374,0,0,1-.319-.988,1.326,1.326,0,0,1,.319-.97,1.387,1.387,0,0,1,1.807,0A1.374,1.374,0,0,1,1308.345,825.823Zm-1.86,0a1.055,1.055,0,0,0,.167.653.541.541,0,0,0,.486.218c.435,0,.653-.285.653-.87,0-.569-.219-.87-.653-.87a.541.541,0,0,0-.486.218A1.037,1.037,0,0,0,1306.485,825.823Z" transform="translate(-1281.279 -824.5)" fill="#02aaee"/>
        <path id="Shape_270_" d="M1463.7,941.685a.29.29,0,0,1,.084-.218.325.325,0,0,1,.234-.067.309.309,0,0,1,.218.521.317.317,0,0,1-.218.084.359.359,0,0,1-.234-.084A.3.3,0,0,1,1463.7,941.685Z" transform="translate(-1436.3 -939.341)" fill="#02aaee"/>
        <path id="Shape_269_" d="M1518.272,829.747h-.535v-1.726l.018-.268-.185.185-.3.234-.268-.319.821-.653h.453v2.547Z" transform="translate(-1488.661 -827.153)" fill="#02aaee"/>
        <path id="Shape_268_" d="M1681.8,824.951a.545.545,0,0,0-.469.234,1.022,1.022,0,0,0-.167.636c0,.569.218.854.636.854a2.183,2.183,0,0,0,.653-.134v.453a1.932,1.932,0,0,1-.7.134,1.114,1.114,0,0,1-.854-.335,1.408,1.408,0,0,1-.3-.971,1.553,1.553,0,0,1,.151-.7,1,1,0,0,1,.419-.453,1.334,1.334,0,0,1,.636-.167,1.772,1.772,0,0,1,.754.185l-.167.435a1.951,1.951,0,0,0-.285-.118A1.163,1.163,0,0,0,1681.8,824.951Z" transform="translate(-1649.38 -824.5)" fill="#465668"/>
        <path id="Shape_267_" d="M1800.293,828.863l-.185-.6h-.937l-.185.6h-.587l.9-2.563h.669l.9,2.563Zm-.319-1.055c-.167-.553-.268-.87-.285-.937a1.025,1.025,0,0,0-.051-.167c-.033.151-.152.52-.335,1.106h.671Z" transform="translate(-1765.105 -826.268)" fill="#465668"/>
        <path id="Shape_266_" d="M1957.735,828.875v.988h-.535V827.3h.754a1.326,1.326,0,0,1,.77.185.681.681,0,0,1,.252.569.658.658,0,0,1-.118.4.819.819,0,0,1-.352.268c.386.569.636.955.754,1.122h-.6l-.6-.988h-.319Zm0-.453h.167a.769.769,0,0,0,.386-.084.294.294,0,0,0,.118-.268.266.266,0,0,0-.118-.252.767.767,0,0,0-.386-.085h-.167Z" transform="translate(-1921.108 -827.251)" fill="#465668"/>
        <path id="Shape_265_" d="M2137.559,827.276a.671.671,0,0,1-.252.553,1.081,1.081,0,0,1-.687.2,1.631,1.631,0,0,1-.72-.151v-.5a2.455,2.455,0,0,0,.435.167,1.256,1.256,0,0,0,.334.051.4.4,0,0,0,.268-.067.242.242,0,0,0,.1-.2.189.189,0,0,0-.051-.134.746.746,0,0,0-.118-.118,2,2,0,0,0-.335-.167,1.623,1.623,0,0,1-.352-.218.83.83,0,0,1-.185-.234.632.632,0,0,1-.067-.319.674.674,0,0,1,.234-.535.937.937,0,0,1,.636-.2,1.434,1.434,0,0,1,.385.051c.118.033.252.085.386.134l-.167.419a2.849,2.849,0,0,0-.334-.118,1.415,1.415,0,0,0-.268-.033.33.33,0,0,0-.234.067.27.27,0,0,0-.084.185.252.252,0,0,0,.033.118.3.3,0,0,0,.1.1,2.91,2.91,0,0,0,.352.185,1.351,1.351,0,0,1,.486.352A.726.726,0,0,1,2137.559,827.276Z" transform="translate(-2096.66 -825.384)" fill="#465668"/>
        <path id="Shape_264_" d="M2256.7,828.961V826.4h.536v2.561Z" transform="translate(-2215.333 -826.367)" fill="#465668"/>
        <path id="Shape_263_" d="M2312.122,828.961h-.535v-2.11h-.687V826.4h1.927v.451h-.7Z" transform="translate(-2268.578 -826.367)" fill="#465668"/>
        <path id="Shape_262_" d="M2443.574,828.961H2442.1V826.4h1.474v.451h-.937v.571h.87v.451h-.87v.653h.937Z" transform="translate(-2397.467 -826.367)" fill="#465668"/>
      </g>
    </g>
  </g>
</svg>
