<svg xmlns="http://www.w3.org/2000/svg" xmlns:xlink="http://www.w3.org/1999/xlink" width="130" height="32" viewBox="0 0 130 32">
  <defs>
    <clipPath id="clip-logo">
      <rect width="130" height="32"/>
    </clipPath>
  </defs>
  <g id="logo" clip-path="url(#clip-logo)">
    <g id="catchthatbus" transform="translate(-62.7 -137.466)">
      <g id="Group_27" data-name="Group 27" transform="translate(83.7 121.3)">
        <g id="Group_25" data-name="Group 25" transform="translate(0 19.166)">
          <g id="Group_22" data-name="Group 22" transform="translate(0 13.717)">
            <path id="Path_72" data-name="Path 72" d="M86.094,386.3H83.7V385h6.222v1.3H87.528v6.26H86.107V386.3Z" transform="translate(-83.7 -385)" fill="#424143"/>
            <path id="Path_73" data-name="Path 73" d="M143.422,385v2.955a1.974,1.974,0,0,1,1.658-.8c1.509,0,2.182,1.035,2.182,2.594v2.806h-1.309v-2.793c0-.973-.511-1.384-1.21-1.384a1.372,1.372,0,0,0-1.322,1.459v2.718H142.1V385Z" transform="translate(-134.818 -385)" fill="#424143"/>
            <path id="Path_74" data-name="Path 74" d="M196.4,402.024h1.259v5.325h-1.234l-.062-.773a2.023,2.023,0,0,1-1.721.935,2.806,2.806,0,0,1,.025-5.611,1.964,1.964,0,0,1,1.7.86Zm-3.2,2.656a1.526,1.526,0,0,0,1.571,1.621,1.616,1.616,0,0,0,0-3.23A1.515,1.515,0,0,0,193.2,404.68Z" transform="translate(-178.408 -399.792)" fill="#424143"/>
            <path id="Path_75" data-name="Path 75" d="M248.607,390.9v1.509h1.471v1.135h-1.484v2.294a.668.668,0,0,0,.7.761,1.5,1.5,0,0,0,.636-.162l.362,1.122a2.962,2.962,0,0,1-1.085.224,1.717,1.717,0,0,1-1.908-1.945v-2.294h-1v-1.135h1v-1.372Z" transform="translate(-226.024 -390.164)" fill="#424143"/>
          </g>
          <g id="Group_23" data-name="Group 23" transform="translate(8.417)">
            <path id="Path_76" data-name="Path 76" d="M161.574,285.2a6,6,0,0,1-4.327,1.7c-4.24,0-6.023-2.918-6.048-5.886a5.742,5.742,0,0,1,6.048-6.01,5.881,5.881,0,0,1,4.19,1.746L160,278.13a3.9,3.9,0,0,0-2.756-1.072,3.742,3.742,0,0,0-3.928,3.953,3.656,3.656,0,0,0,3.928,3.866,4.2,4.2,0,0,0,2.868-1.16Z" transform="translate(-151.2 -275)" fill="#424143"/>
            <path id="Path_77" data-name="Path 77" d="M244.708,302.486h1.908v8.031h-1.87l-.1-1.172a3.073,3.073,0,0,1-2.606,1.422,4.234,4.234,0,0,1,.05-8.467,2.945,2.945,0,0,1,2.556,1.309Zm-4.826,4.015a2.3,2.3,0,0,0,2.382,2.444c3.13,0,3.13-4.863,0-4.863A2.274,2.274,0,0,0,239.883,306.5Z" transform="translate(-227.089 -298.895)" fill="#424143"/>
            <path id="Path_78" data-name="Path 78" d="M322.379,285.7v2.282h2.22v1.708h-2.232v3.467a.991.991,0,0,0,1.047,1.135,2.368,2.368,0,0,0,.96-.237l.549,1.7a4.465,4.465,0,0,1-1.646.337c-1.746.062-2.88-.923-2.88-2.93V289.69h-1.5v-1.708h1.5v-2.07Z" transform="translate(-297.988 -284.366)" fill="#424143"/>
            <path id="Path_79" data-name="Path 79" d="M382.97,309.232a4.152,4.152,0,0,1-3.092,1.272,4.252,4.252,0,1,1,0-8.5,3.8,3.8,0,0,1,2.893,1.185l-1.247,1.322a2.441,2.441,0,0,0-1.609-.636,2.253,2.253,0,0,0-2.307,2.382,2.182,2.182,0,0,0,2.282,2.344,2.372,2.372,0,0,0,1.758-.673Z" transform="translate(-347.618 -298.633)" fill="#424143"/>
            <path id="Path_80" data-name="Path 80" d="M448.77,276.8v4.464a2.976,2.976,0,0,1,2.506-1.21c2.282,0,3.292,1.546,3.292,3.915v4.24h-1.983v-4.215c0-1.471-.761-2.082-1.821-2.082a2.056,2.056,0,0,0-1.983,2.195v4.1H446.8V276.8Z" transform="translate(-409.939 -276.575)" fill="#424143"/>
          </g>
          <g id="Group_24" data-name="Group 24" transform="translate(26.099 13.667)">
            <path id="Path_81" data-name="Path 81" d="M302.39,387.929a2.319,2.319,0,0,1-1.5,2.207,2.79,2.79,0,0,1,1.833,2.556c0,2.556-1.92,3.367-4.29,3.367H293V384.6h5.437C300.694,384.6,302.39,385.61,302.39,387.929Zm-7.257,1.272h3.3c1.359,0,1.8-.574,1.8-1.222,0-.524-.424-1.409-1.8-1.409h-3.3Zm0,4.851h3.3c.885,0,2.145-.3,2.145-1.372,0-1.035-1.259-1.571-2.145-1.571h-3.3Z" transform="translate(-293 -384.6)" fill="#424143"/>
            <path id="Path_82" data-name="Path 82" d="M386,411.8v4.227a1.926,1.926,0,0,0,1.945,2.157A2.124,2.124,0,0,0,390,415.927V411.8h1.983v8.093H390.2l-.125-1.1a3.585,3.585,0,0,1-2.731,1.21c-1.933,0-3.342-1.459-3.342-3.965V411.8Z" transform="translate(-372.653 -408.408)" fill="#424143"/>
            <path id="Path_83" data-name="Path 83" d="M464.3,412.369a2.731,2.731,0,0,0-2-.723c-.948,0-1.471.3-1.471.8,0,.524.474.823,1.509.885,1.521.1,3.454.449,3.454,2.594,0,1.422-1.16,2.644-3.467,2.644a4.725,4.725,0,0,1-3.728-1.434l.985-1.422a4.077,4.077,0,0,0,2.781,1.135c.748.013,1.459-.3,1.459-.885,0-.561-.461-.86-1.609-.935-1.521-.112-3.342-.673-3.342-2.506,0-1.87,1.933-2.519,3.4-2.519a4.369,4.369,0,0,1,3.142,1.06Z" transform="translate(-437.95 -406.833)" fill="#424143"/>
          </g>
        </g>
        <g id="Group_26" data-name="Group 26" transform="translate(52.716 26)">
          <path id="Path_84" data-name="Path 84" d="M325.6,229.282h5.075a2.552,2.552,0,0,0-5.075,0Z" transform="translate(-304.152 -213.82)" fill="#d51f36"/>
          <path id="Path_85" data-name="Path 85" d="M188.166,131.912l-.723-4.5c-1.072-5.038-2.943-6.11-6.222-6.11H168.377a6.609,6.609,0,0,0-4.888,2.494h-3.417a.668.668,0,0,0-.673.661.66.66,0,0,0,.673.661h6.185a.667.667,0,1,1,0,1.334h-3.728a3.58,3.58,0,0,0-.087.773v.436h-8.18a.667.667,0,0,0,0,1.334h14.727a.66.66,0,0,1,.661.673.668.668,0,0,1-.661.673h-6.547v.486a4.3,4.3,0,0,0,.075.711h-4.377a.679.679,0,0,0-.673.673.671.671,0,0,0,.673.673h8.13a.667.667,0,1,1,0,1.334h-2.594a6.158,6.158,0,0,0,4.7,2.556H173.8a3.787,3.787,0,0,1,7.557,0h1.584C186.907,136.762,188.528,134.967,188.166,131.912Zm-4.975-1.085a2.085,2.085,0,0,1-1.821-1.8v-6.3a4,4,0,0,1,4.14,3.242,44.057,44.057,0,0,1,.9,4.851Z" transform="translate(-153.6 -121.3)" fill="#d51f36"/>
        </g>
      </g>
    </g>
  </g>
</svg>
