<svg xmlns="http://www.w3.org/2000/svg" xmlns:xlink="http://www.w3.org/1999/xlink" width="130" height="32" viewBox="0 0 130 32">
  <defs>
    <clipPath id="clip-Custom_Size_1">
      <rect width="130" height="32"/>
    </clipPath>
  </defs>
  <g id="Custom_Size_1" data-name="Custom Size – 1" clip-path="url(#clip-Custom_Size_1)">
    <g id="covertouch" transform="translate(4.001 5.001)">
      <path id="Path_1" data-name="Path 1" d="M61.48,19.551c0,4.295-1.33,5.551-5.047,5.551S51.4,23.846,51.4,19.551,52.715,14,56.433,14s5.047,1.256,5.047,5.551m-7.35,0c0,2.837.529,3.644,2.3,3.644s2.3-.807,2.3-3.644-.528-3.644-2.3-3.644-2.3.807-2.3,3.644" transform="translate(-26.503 -7.219)" fill="#ed1c24"/>
      <path id="Path_2" data-name="Path 2" d="M81.211,24.465a.907.907,0,0,1-.921.651H77.92A.907.907,0,0,1,77,24.465L73.793,14.417H76.47L78.6,22.138c.1.388.2.807.29,1.195h.426c.068-.388.188-.807.29-1.195l2.115-7.721H84.4Z" transform="translate(-38.048 -7.434)" fill="#ed1c24"/>
      <path id="Path_3" data-name="Path 3" d="M106.24,24.957c-1.6.155-3.633.155-5.457.155-1.568,0-2.575-.838-2.592-2.155V16.476c.017-1.318,1.023-2.155,2.592-2.155,1.824,0,3.854,0,5.457.155l-.12,1.752H101.6c-.563,0-.8.233-.8.791v1.628h4.689v1.706H100.8v2.063c0,.574.239.807.8.807h4.519Z" transform="translate(-50.628 -7.384)" fill="#ed1c24"/>
      <path id="Path_4" data-name="Path 4" d="M125.212,24.966l-.886-3.272a1.117,1.117,0,0,0-1.261-.9h-1.825v4.171h-2.558v-10.7c1.415-.124,2.37-.14,4.485-.14,3.07,0,4.348.714,4.348,3.164,0,1.5-.58,2.466-2.251,2.652v.078a2.076,2.076,0,0,1,1.671,1.613l1.024,3.334h-2.747Zm-2.1-6c1.364,0,1.774-.341,1.774-1.52,0-1.194-.41-1.5-1.774-1.5l-1.876.015v3.008Z" transform="translate(-61.192 -7.285)" fill="#ed1c24"/>
      <path id="Path_5" data-name="Path 5" d="M145.4,16.339v8.776H142.79V16.339h-3.513V14.417h9.635v1.922Z" transform="translate(-71.812 -7.434)" fill="#313032"/>
      <path id="Path_6" data-name="Path 6" d="M171.288,19.551c0,4.295-1.33,5.551-5.047,5.551s-5.031-1.256-5.031-5.551S162.524,14,166.241,14s5.047,1.256,5.047,5.551m-7.35,0c0,2.837.528,3.644,2.3,3.644s2.3-.807,2.3-3.644-.529-3.644-2.3-3.644-2.3.807-2.3,3.644" transform="translate(-83.12 -7.219)" fill="#313032"/>
      <path id="Path_7" data-name="Path 7" d="M195.337,20.852c0,3.272-1.228,4.466-4.587,4.466-3.547,0-4.827-1.194-4.827-4.466V14.417h2.592v6.435c0,1.97.513,2.559,2.115,2.559,1.569,0,2.1-.589,2.1-2.559V14.417h2.609Z" transform="translate(-95.863 -7.434)" fill="#313032"/>
      <path id="Path_8" data-name="Path 8" d="M217.742,14.388l-.221,1.767c-1.108-.062-1.825-.078-3.308-.078-1.706,0-2.218.791-2.218,3.489s.513,3.488,2.218,3.488a28.8,28.8,0,0,0,3.546-.139l.221,1.751a12.608,12.608,0,0,1-3.768.435c-3.632,0-4.946-1.458-4.946-5.535s1.314-5.536,4.946-5.536a13.614,13.614,0,0,1,3.529.357" transform="translate(-107.899 -7.235)" fill="#313032"/>
      <path id="Path_9" data-name="Path 9" d="M240.053,25.115H237.46V20.34H233.3v4.776h-2.592v-10.7H233.3V18.51h4.16V14.417h2.592Z" transform="translate(-118.954 -7.434)" fill="#313032"/>
      <path id="Path_10" data-name="Path 10" d="M14.215,14.209a.282.282,0,0,0-.316.319v.149l0,2.955a.157.157,0,0,1-.138.17L9.985,17.8a.155.155,0,0,1-.138-.169L9.862,6.992A.156.156,0,0,1,10,6.823l3.773.005A.156.156,0,0,1,13.91,7l0,3.115s-.033.3.317.3h8.833c.213-.011.226-.2.212-.3a11.682,11.682,0,1,0-.24,4.414c.027-.1.062-.315-.182-.315H14.215Z" transform="translate(0 0)" fill="#ed1c24"/>
    </g>
  </g>
</svg>
