<svg id="Layer_1" data-name="Layer 1" xmlns="http://www.w3.org/2000/svg" viewBox="0 0 588.53 244.19"><defs><style>.cls-1{fill:none;}.cls-2{fill:#00b84b;}.cls-3{fill:#c47b5b;}.cls-4{fill:#fff;}</style></defs><title>Logo with Bear_Horizontal_RGB</title><rect class="cls-1" x="53.03" y="74.13" width="482.1" height="96.12"/><path class="cls-2" d="M228.34,133.82a12.27,12.27,0,0,1-.28-24.53,12.27,12.27,0,0,1,.28,24.53M254,103.92c0-4.21-2.32-7-5.79-7.54-2.85-.45-5.07.86-6.79,3-14-7.2-26.38-2.14-32.88,5.7a25.58,25.58,0,0,0-1.3,31.37c5.81,8.12,18.34,14.81,33.37,7.7a19.55,19.55,0,0,1-.38,3.76c-2.15,8.88-11.72,12-18.9,8.53-2.15-1-4.06-2.55-6.16-3.73a5.5,5.5,0,0,0-6,.19,5.64,5.64,0,0,0-2.71,5.57,7.55,7.55,0,0,0,3.29,5.42c8.5,6.5,18.78,8.31,28.54,4.07,10.2-4.44,15.06-13.06,15.55-24.07.59-12.94.24-27,.14-39.95m33.11,30.51a12.38,12.38,0,0,1-.05-24.76,12.38,12.38,0,0,1,.05,24.76M287,95.84a26.27,26.27,0,1,0,.11,52.53c14.3,0,26-11.86,26-26.46A26.15,26.15,0,0,0,287,95.84"/><path d="M346.61,135a12.64,12.64,0,1,1,12.73-12.54A12.42,12.42,0,0,1,346.61,135m22.08-27.38c-7.37-11-18.65-13.92-34.59-8.73,0-1.67,0-3.27,0-4.87-.12-4.27.14-10.26-.09-14.65-.19-3.56-3.42-5.36-6.8-5.39-4.36,0-7,2.79-7,7.71,0,10.41,0,22.56,0,33,0,8.55,0,17.09,0,25.64,0,4.3,2.11,7.12,5.76,7.93,3.09.68,5.33-.86,7.19-3,13.86,7.18,26.57,2.66,33.58-5.54a26,26,0,0,0,2-32.07M465.13,135a12.4,12.4,0,0,1-12.78-12.56c.09-8.57,6.78-12.91,12.6-12.73a12.65,12.65,0,0,1,.18,25.29m26.29-31.18c0-3.22-1.14-6-4.5-7.12s-6.05.07-8.26,2.88c-14.32-7.69-27.45-2.21-34.16,6.08a26.18,26.18,0,0,0-.12,33.25c6.51,8.25,19.83,14,34.13,6.41a19.08,19.08,0,0,0,2.88,2.28c4.85,2.52,9.82-.32,9.93-6.05.23-12.57.14-25.15.1-37.73m-96.21,12.81a11.59,11.59,0,0,1,11.45-9c5.58,0,10.21,3.83,10.85,9Zm36.64-.29a25.92,25.92,0,0,0-29.09-20.18,26.6,26.6,0,0,0-22.68,28.45c1.19,17,18.62,27.4,35.18,23.62a26.66,26.66,0,0,0,12.09-6.52c2-1.95,3-5.34,1.58-7.72a5,5,0,0,0-4.66-2.72,11.72,11.72,0,0,0-4.12,1.17c-2.1.76-4.11,2-6.23,2.65-6.95,2.2-16.89-1.22-19-8h3c9.09,0,18.18,0,27.27,0a6.66,6.66,0,0,0,6.94-5.88,14.13,14.13,0,0,0-.27-4.8m82.4-16.09c-.28-.48-.21-.38-.36-.64-1.45-2.53-3.31-3.67-6.14-3.42-3.05.27-5.27,1.82-6,4.93a17.89,17.89,0,0,0-.43,4.13q0,16.89,0,33.77a27.8,27.8,0,0,0,.1,3,9.6,9.6,0,0,0,.41,2,6.34,6.34,0,0,0,6.45,4.67c3.63,0,6.26-2.57,6.69-6.65.16-1.53.24-3.09.25-4.64,0-6.29,0-10.51.13-16.79a14.54,14.54,0,0,1,.24-2.51c1-5.53,5-7.42,10-8.47a19.46,19.46,0,0,1,2.38-.32c3.34-.12,7.46-2.9,7.32-7s-3.18-6.51-7.84-6.19l-.73,0a27.37,27.37,0,0,0-9,2.22,25.41,25.41,0,0,0-2.56,1.27l-.87.5"/><path class="cls-3" d="M85,189.89v0c-6.52-.07-16.48-.28-21.15-2.8-4.4-2.38-9.15-5.7-9.75-15-.56-8.56.65-13.3,5.62-22.09,3.28-5.79,10-11.93,14.36-16a53.54,53.54,0,0,0,4.2-4.09l.65-.79L79,129c2.62-3.13,7-8.35,7.21-16.75.06-2.45.08-5.18.1-8.06.06-8,.12-17.18,1.11-23.16A34.53,34.53,0,0,1,92,68.26l0-.05,0,0a2.35,2.35,0,0,0,0-2.73l-.19-.32c-1.06-1.8-3-5.09-.43-8.53a5.11,5.11,0,0,1,4-2.29h0a5.47,5.47,0,0,1,4.14,2c.45.57.85,1.18,1.23,1.77.64,1,1.44,2.22,2.17,2.22a1,1,0,0,0,.36-.08,35.34,35.34,0,0,1,23.78,0,.93.93,0,0,0,.35.08c.73,0,1.53-1.23,2.17-2.22.39-.59.78-1.2,1.24-1.77a5.39,5.39,0,0,1,4-2h.1a5.13,5.13,0,0,1,4,2.29c2.55,3.44.62,6.73-.42,8.49l-.21.36a2.35,2.35,0,0,0,0,2.73l.07.09A34.74,34.74,0,0,1,143,81.07c1,6,1.05,15.1,1.11,23.16,0,2.75,0,5.59.1,8.06.2,8.4,4.58,13.62,7.2,16.74l.72.88a57.45,57.45,0,0,0,4.2,4.09c4.42,4.06,11.08,10.2,14.36,16,5,8.79,6.19,13.53,5.63,22.09-.61,9.27-5.36,12.59-9.76,15-4.92,2.65-15.7,2.75-22.15,2.81C142,189.88,85,189.89,85,189.89Z"/><circle cx="102.25" cy="92.48" r="2.68"/><circle cx="128.2" cy="92.48" r="2.68"/><path class="cls-4" d="M115.23,119.75c-2.58,0-7.73-1.08-8.8-5.18a15.38,15.38,0,0,1,.44-8.65c.12-.4.22-.77.3-1.12.44-1.75,2-8,2.72-10.67a5.37,5.37,0,0,1,5.24-3.94h.2a5.38,5.38,0,0,1,5.24,3.94c.83,3.27,2.3,9,2.71,10.67.09.36.19.73.3,1.12a15.38,15.38,0,0,1,.44,8.65C123,118.67,117.8,119.75,115.23,119.75Z"/><path d="M124.21,104.57c-.39-1.58-1.69-6.68-2.72-10.68a6.33,6.33,0,0,0-6.15-4.66h-.22A6.35,6.35,0,0,0,109,93.89c-.83,3.26-2.29,9-2.71,10.68-.09.35-.19.71-.3,1.09a16.44,16.44,0,0,0-.44,9.15c1.21,4.65,6.68,5.89,9.72,5.89s8.51-1.24,9.72-5.89a16.43,16.43,0,0,0-.45-9.15C124.4,105.28,124.29,104.92,124.21,104.57Zm-1.15,9.75c-.92,3.5-5.52,4.43-7.83,4.43s-6.92-.93-7.83-4.43a14.38,14.38,0,0,1,.44-8.14q.16-.59.3-1.14c.44-1.75,2-8,2.72-10.66a4.38,4.38,0,0,1,4.28-3.19h.18a4.4,4.4,0,0,1,4.28,3.19c.84,3.27,2.3,9,2.71,10.66.09.37.2.75.31,1.14A14.55,14.55,0,0,1,123.06,114.32Z"/><path d="M115.23,105.09c-4.73,0-4.92,1.39-4.92,2.54h0a2.08,2.08,0,0,0,2.08,2.08h1.31a1.75,1.75,0,0,1,.47,1.32c0,.87-.1,1.78-.15,2.33a11.2,11.2,0,0,1-2-.22,1.08,1.08,0,0,0-.55,2.09,16.4,16.4,0,0,0,3.74.32,16.16,16.16,0,0,0,3.73-.32,1.08,1.08,0,0,0-.54-2.09,11.6,11.6,0,0,1-2,.22c-.06-.55-.14-1.46-.16-2.33a1.71,1.71,0,0,1,.48-1.32h1.3a2.08,2.08,0,0,0,2.08-2.08h0C120.14,106.48,120,105.09,115.23,105.09Z"/><path d="M171.56,149.52c-3.35-5.92-10.09-12.12-14.54-16.23a52.74,52.74,0,0,1-4.1-4l-.74-.88c-2.53-3-6.78-8.09-7-16.16-.06-2.42-.08-5.15-.1-8C145,96.13,145,87,144,80.92a34.71,34.71,0,0,0-4.78-13.26l-.06-.08c0-.06-.48-.65.1-1.66.06-.11.13-.23.21-.35,1.06-1.82,3.29-5.6.35-9.55A6,6,0,0,0,135,53.34a6.4,6.4,0,0,0-4.9,2.32c-.48.61-.91,1.27-1.29,1.85a6.92,6.92,0,0,1-1.38,1.77,36.34,36.34,0,0,0-24.46,0,6.7,6.7,0,0,1-1.39-1.77,20.86,20.86,0,0,0-1.29-1.85,6.39,6.39,0,0,0-4.9-2.32A6,6,0,0,0,90.65,56c-2.94,3.95-.71,7.73.36,9.55l.2.35c.59,1,.16,1.6.13,1.64l-.08.1a34.81,34.81,0,0,0-4.79,13.26c-1,6-1.06,15.21-1.12,23.3,0,2.89,0,5.62-.1,8-.2,8.07-4.44,13.14-7,16.16l-.73.88a52.74,52.74,0,0,1-4.1,4C69,137.4,62.24,143.6,58.89,149.52c-4.48,7.91-6.37,13-5.75,22.62.64,9.76,5.63,13.25,10.26,15.75,5.07,2.74,15.41,2.86,22.36,2.92a1,1,0,0,0,.24,0h22.43l6.8,0c.24,0,9.83,0,18.39,0,4.33,0,8.4,0,10.84,0,7-.06,17.47-.16,22.59-2.92,4.63-2.5,9.63-6,10.26-15.75C177.93,162.57,176,157.43,171.56,149.52Zm3.8,22.49c-.57,8.77-4.88,11.8-9.24,14.16-4.69,2.53-15.32,2.63-21.67,2.69-6.69.06-25.52,0-28.75,0a16.24,16.24,0,0,0,7.06-21c12.57-8,32-9,32.25-9a1.06,1.06,0,1,0-.1-2.11,91.54,91.54,0,0,0-15.63,2.35,57.52,57.52,0,0,0-17.52,6.9,16.27,16.27,0,0,0-13.84-7.72H86.64a1,1,0,0,0,0,2h21.28A14.33,14.33,0,0,1,121,168.74a15.68,15.68,0,0,1-6.66,1.27,1.2,1.2,0,1,0,0,2.39h0A18.53,18.53,0,0,0,121.8,171a14.27,14.27,0,0,1,.44,3.55,14.06,14.06,0,0,1-.33,3.06.84.84,0,0,0-.21.11,15.56,15.56,0,0,1-7.76,2,1.2,1.2,0,1,0,0,2.4h0a19.09,19.09,0,0,0,6.85-1.29,14.35,14.35,0,0,1-12.88,8.06H86v0h0c-6.35-.06-17-.16-21.68-2.69-4.36-2.36-8.67-5.39-9.24-14.16-.54-8.32.64-12.95,5.5-21.53,3.21-5.65,9.8-11.73,14.17-15.75a52.5,52.5,0,0,0,4.3-4.19c.21-.27.45-.55.71-.86,2.7-3.22,7.22-8.62,7.44-17.37.06-2.44.08-5.18.1-8.08.06-8,.12-17.1,1.09-23a33.76,33.76,0,0,1,4.44-12.42,3.36,3.36,0,0,0,.07-3.87l-.22-.36c-1.33-2.27-2.47-4.71-.47-7.39a4.1,4.1,0,0,1,3.24-1.89,4.37,4.37,0,0,1,3.33,1.59A19.66,19.66,0,0,1,100,58.58c1,1.49,2.07,3.18,3.74,2.52a34.34,34.34,0,0,1,23,0c1.67.66,2.76-1,3.73-2.52a19.66,19.66,0,0,1,1.18-1.69A4.39,4.39,0,0,1,135,55.3a4.08,4.08,0,0,1,3.23,1.89c2,2.68.86,5.12-.47,7.39l-.21.36a3.38,3.38,0,0,0,.06,3.87,33.53,33.53,0,0,1,4.44,12.42c1,5.9,1,15,1.1,23,0,2.9,0,5.64.1,8.08.21,8.75,4.73,14.15,7.43,17.37l.72.86a53.66,53.66,0,0,0,4.29,4.19c4.37,4,11,10.1,14.17,15.75C174.72,159.06,175.9,163.69,175.36,172Z"/></svg>