<svg xmlns="http://www.w3.org/2000/svg" xmlns:xlink="http://www.w3.org/1999/xlink" width="130" height="32" viewBox="0 0 130 32">
  <defs>
    <clipPath id="clip-logo">
      <rect width="130" height="32"/>
    </clipPath>
  </defs>
  <g id="logo" clip-path="url(#clip-logo)">
    <rect id="image0" width="140" height="140" transform="translate(-5 -53)" fill="none"/>
    <path id="grab" d="M58.165,207.274V198.4h1.815v7.62A11.159,11.159,0,0,0,58.165,207.274Zm-3.153,2.664a15.372,15.372,0,0,1,1.815-1.923V198.4H55.012v11.538Zm-21.069,7.047a9.049,9.049,0,0,0,8.982,8.982,6.568,6.568,0,0,0,2.759-.573v-1.816a7.55,7.55,0,0,1-2.759.573,7.266,7.266,0,0,1-7.166-7.166v-1.636a7.266,7.266,0,0,1,7.166-7.166,7.121,7.121,0,0,1,7.166,7.071v10.726h1.815V215a9.091,9.091,0,0,0-2.783-6.115,8.994,8.994,0,0,0-15.193,6.462v1.636Zm27.221-4.348a4.235,4.235,0,0,1,2.938-1.29,3.961,3.961,0,0,1,4,3.918v1.72a3.961,3.961,0,0,1-3.918,4H64.1a3.806,3.806,0,0,1-2.962-1.672,6.536,6.536,0,0,1-1.278-3.4L58.4,217.7a6.83,6.83,0,0,0,2.03,3.619,5.5,5.5,0,0,0,3.679,1.481,5.829,5.829,0,0,0,5.829-5.829v-1.636a5.923,5.923,0,0,0-5.829-5.829,6.515,6.515,0,0,0-4.312,1.983l-.012.012c-.49.49-1.636,1.636-2.329,2.449-1.171,1.278-2.879,3.213-4.324,5.136v2.843c1.612-2.066,2.532-3.225,4.049-4.969a54.07,54.07,0,0,1,3.977-4.324ZM18.2,209.209v-2.15a11.755,11.755,0,0,0-5.829-1.278,9.567,9.567,0,0,0-6.5,2.508A8.142,8.142,0,0,0,3.151,214.3v.585a8.465,8.465,0,0,0,8.4,8.516c3.762,0,5.315-1.23,5.709-1.624v-5.458H11.117v1.815h4.443v2.735h-.012a9.861,9.861,0,0,1-3.989.7A6.492,6.492,0,0,1,6.9,219.637a6.722,6.722,0,0,1-1.923-4.754V214.3c0-3.631,3.392-6.7,7.405-6.7C15.154,207.6,16.791,208.051,18.2,209.209Zm13.258,2.138a3.832,3.832,0,0,1,1.744.346,11.77,11.77,0,0,1,.8-1.6,5.278,5.278,0,0,0-2.544-.561,5.7,5.7,0,0,0-5.829,5.829v10.63h1.815v-10.63A3.831,3.831,0,0,1,31.458,211.347ZM0,214.3v.585a11.689,11.689,0,0,0,3.368,8.289,11.39,11.39,0,0,0,8.194,3.38,12.684,12.684,0,0,0,6.581-1.672,7.763,7.763,0,0,0,2.281-1.935v-9.794H11.105v1.815h7.489v7.405l-.012.012c-.872.884-2.962,2.353-7.047,2.353A9.628,9.628,0,0,1,4.6,221.882a9.92,9.92,0,0,1-2.807-7V214.3a9.539,9.539,0,0,1,3.129-6.9,10.817,10.817,0,0,1,7.441-2.95,10.915,10.915,0,0,1,5.829,1.266v-2.042a14.493,14.493,0,0,0-5.829-.932C5.671,202.736,0,208.027,0,214.3Zm48.756,11.669v-10.63a5.823,5.823,0,0,0-11.645,0v1.648a5.907,5.907,0,0,0,5.829,5.829,4.682,4.682,0,0,0,2.759-.8V220.09a4.474,4.474,0,0,1-2.759.908,3.961,3.961,0,0,1-4-3.918v-1.72a4.007,4.007,0,0,1,8.014,0v10.63l1.8-.024Zm-17.3-17.785a6.4,6.4,0,0,1,3.273.812,16.93,16.93,0,0,1,1.254-1.362,7.85,7.85,0,0,0-4.527-1.266,8.7,8.7,0,0,0-8.982,8.982v10.63h1.815v-10.63A6.86,6.86,0,0,1,31.458,208.182Zm38.985.836a8.893,8.893,0,0,0-6.33-2.652,8.693,8.693,0,0,0-4.431,1.278c-1.983,1.314-3.607,2.747-6.545,6.545v2.723a43.177,43.177,0,0,1,6.629-7.2,7.109,7.109,0,0,1,11.514,5.638v1.636a7.188,7.188,0,0,1-7.166,7.166,7,7,0,0,1-6.76-5.184l-1.278,1.553c.932,3.129,4.312,5.447,8.05,5.447a9.049,9.049,0,0,0,8.982-8.982v-1.636a8.955,8.955,0,0,0-2.664-6.33Z" transform="translate(28.003 -196.4)" fill="#00af41"/>
  </g>
</svg>
