<svg xmlns="http://www.w3.org/2000/svg" xmlns:xlink="http://www.w3.org/1999/xlink" width="130" height="32" viewBox="0 0 130 32">
  <defs>
    <clipPath id="clip-logo">
      <rect width="130" height="32"/>
    </clipPath>
  </defs>
  <g id="logo" clip-path="url(#clip-logo)">
    <rect id="image0" width="140" height="140" transform="translate(-5 -53)" fill="none"/>
    <g id="HOM" transform="translate(20.7 -42.9)">
      <path id="Path_111" data-name="Path 111" d="M57.227,71.126c-3.035,0-4.3-1.454-4.3-4.994,0-3.6,1.264-4.994,4.3-4.994s4.362,1.517,4.362,4.994-1.264,4.994-4.362,4.994m0-15.426C49.7,55.7,46.1,59.43,46.1,66s3.477,10.368,11.127,10.368,11.19-3.667,11.19-10.3S64.876,55.7,57.227,55.7" transform="translate(-16.478 -3.604)" fill="#004b73"/>
      <path id="Path_112" data-name="Path 112" d="M113.4,56.4a11.6,11.6,0,0,0-7.144,2.276c-.822-1.517-2.213-2.276-4.868-2.276a11.2,11.2,0,0,0-6.575,2.149l-.19-1.707H88.3V76.628h6.512V63.163a5.494,5.494,0,0,1,3.73-1.77c1.96,0,2.466,1.075,2.466,2.971V76.628h6.259V64.806a8.648,8.648,0,0,0-.126-1.833,4.421,4.421,0,0,1,3.414-1.517c2.086,0,2.908.948,2.908,3.1V76.628H120.1V63.668c.063-4.931-2.023-7.334-6.7-7.27" transform="translate(-31.999 -3.86)" fill="#004b73"/>
      <path id="Path_113" data-name="Path 113" d="M18.5,45.9V57.153l-5.247-2.971L8,57.153V45.9H1.3V72.768H8V64.423l5.247-3.035L18.5,64.423v8.345h6.7V45.9Z" transform="translate(0)" fill="#004b73"/>
    </g>
  </g>
</svg>
