<svg xmlns="http://www.w3.org/2000/svg" xmlns:xlink="http://www.w3.org/1999/xlink" width="130" height="32" viewBox="0 0 130 32">
  <defs>
    <clipPath id="clip-logo">
      <rect width="130" height="32"/>
    </clipPath>
  </defs>
  <g id="logo" clip-path="url(#clip-logo)">
    <rect id="image0" width="140" height="140" transform="translate(-5 -53)" fill="none"/>
    <g id="Smartgenie_outlined" transform="translate(-36.5 -157.9)">
      <g id="XMLID_7_" transform="translate(62.5 159.9)">
        <path id="XMLID_887_" d="M845.381,166.256A2.383,2.383,0,0,1,845.14,165a4.727,4.727,0,0,1,1.9-2.8,14.664,14.664,0,0,0,2.58-2.3,5.77,5.77,0,0,1-.2,3.948,4.37,4.37,0,0,1-2.976,2.5C846.439,166.334,845.493,166.531,845.381,166.256Z" transform="translate(-777.811 -159.9)"/>
        <g id="XMLID_863_" transform="translate(0 5.797)">
          <path id="XMLID_885_" d="M70.181,239.94a2.9,2.9,0,0,1-.791,2.236,4.591,4.591,0,0,1-3.114.834,4.091,4.091,0,0,1-3.045-.989,2.445,2.445,0,0,1-.722-1.8v-3.509h3.045v3.552a.451.451,0,0,0,.189.387.766.766,0,0,0,.464.146.723.723,0,0,0,.473-.129.494.494,0,0,0,.155-.4v-1.823a1.652,1.652,0,0,0-.284-1.015c-.516-.525-1.067-1.11-1.651-1.737q-1.458-1.535-1.626-1.755A3.056,3.056,0,0,1,62.5,232.1v-1.729a2.656,2.656,0,0,1,.834-2.168A4.736,4.736,0,0,1,66.4,227.4a3.948,3.948,0,0,1,2.718.808,2.462,2.462,0,0,1,.765,1.909v2.649H66.844V229.92a.441.441,0,0,0-.146-.344.6.6,0,0,0-.378-.12.638.638,0,0,0-.413.112.419.419,0,0,0-.138.353v1.436a2.125,2.125,0,0,0,.662,1.454c.619.628,1.2,1.221,1.737,1.772a16.6,16.6,0,0,1,1.368,1.531A3.244,3.244,0,0,1,70.172,238v1.944Z" transform="translate(-62.5 -227.391)" fill="#496bb3"/>
          <path id="XMLID_883_" d="M171.233,273.823h-3.045v-9.952c0-.378-.172-.568-.525-.568a.548.548,0,0,0-.4.129.566.566,0,0,0-.129.413v9.969h-3.045v-9.96c0-.378-.172-.568-.525-.568a.548.548,0,0,0-.4.129.565.565,0,0,0-.129.413v9.994H160V261.395h3.045v.43a2.238,2.238,0,0,1,.774-.37,3.845,3.845,0,0,1,1.11-.155,2.516,2.516,0,0,1,1.909.843,3.572,3.572,0,0,1,.886-.533,3.119,3.119,0,0,1,1.325-.3,2.333,2.333,0,0,1,1.565.533,1.633,1.633,0,0,1,.628,1.264v10.717Z" transform="translate(-151.614 -258.376)" fill="#496bb3"/>
          <path id="XMLID_880_" d="M306.739,273.823h-2.692v-.482a1.022,1.022,0,0,1-.671.533,5.413,5.413,0,0,1-1.282.12,3.021,3.021,0,0,1-1.927-.482,1.814,1.814,0,0,1-.568-1.471v-2.494c0-.989.68-1.815,2.047-2.477s2.047-1.118,2.047-1.385v-1.841a.671.671,0,0,0-.129-.456.475.475,0,0,0-.387-.155.468.468,0,0,0-.361.155.62.62,0,0,0-.146.456V266.3h-2.959V263.82a2.138,2.138,0,0,1,1.118-2.013,5.206,5.206,0,0,1,2.52-.507,4.338,4.338,0,0,1,2.434.55,2.3,2.3,0,0,1,.963,2.081v9.891Zm-3.045-2.322v-3.2a1.849,1.849,0,0,0-.834.37.765.765,0,0,0-.215.568v2.254a.51.51,0,0,0,.55.576.493.493,0,0,0,.361-.146A.6.6,0,0,0,303.694,271.5Z" transform="translate(-279.207 -258.376)" fill="#496bb3"/>
          <path id="XMLID_878_" d="M398.739,266.638h-3.045v-2.709c0-.378-.172-.576-.525-.576a.548.548,0,0,0-.4.129.565.565,0,0,0-.129.413v10.012H391.6v-12.42h3.045v.413a2.069,2.069,0,0,1,.757-.361,4.084,4.084,0,0,1,1.127-.138,2.423,2.423,0,0,1,1.591.516,1.592,1.592,0,0,1,.628,1.256v3.466Z" transform="translate(-363.294 -258.467)" fill="#496bb3"/>
          <path id="XMLID_876_" d="M486.058,248.323h-1.927c-1.316,0-2.124-.181-2.425-.533a4.325,4.325,0,0,1-.447-2.46v-7.569H479.9v-1.866h1.359V233.4H484.3v2.494h1.643v1.866H484.3v7.56a.813.813,0,0,0,.37.765,1.638,1.638,0,0,0,.809.155h.568v2.081Z" transform="translate(-443.999 -232.875)" fill="#496bb3"/>
          <path id="XMLID_874_" d="M567.731,242.748h-1.626l-.439-.809a4.686,4.686,0,0,1-.894.654,3.137,3.137,0,0,1-1.445.327,3.41,3.41,0,0,1-2.064-.593,2.35,2.35,0,0,1-.963-2.038V230.276a2.752,2.752,0,0,1,.791-2.167,4.54,4.54,0,0,1,3.028-.809,4.161,4.161,0,0,1,2.787.809,2.393,2.393,0,0,1,.834,1.909v2.847H564.7v-3.131a.34.34,0,0,0-.12-.284.693.693,0,0,0-.4-.086.667.667,0,0,0-.378.086.328.328,0,0,0-.138.284v10.691a.321.321,0,0,0,.146.275.626.626,0,0,0,.37.1.729.729,0,0,0,.361-.095.323.323,0,0,0,.155-.3v-2.9h-.723v-2.322h3.767v7.56Z" transform="translate(-517.484 -227.3)" fill="#496bb3"/>
          <path id="XMLID_871_" d="M660.23,271.658a2.164,2.164,0,0,1-1.092,2.013,5.071,5.071,0,0,1-2.494.508,4.665,4.665,0,0,1-2.494-.55,2.268,2.268,0,0,1-1.049-2.081v-7.423a2.247,2.247,0,0,1,1.032-2.056,4.715,4.715,0,0,1,2.52-.568,5.117,5.117,0,0,1,2.494.508,2.131,2.131,0,0,1,1.092,2.013v4.731h-4.094v2.873a.712.712,0,0,0,.129.464.462.462,0,0,0,.4.163.472.472,0,0,0,.4-.163.745.745,0,0,0,.129-.464v-2.477h3.036Zm-3.045-4.8v-2.83a.687.687,0,0,0-.129-.456.482.482,0,0,0-.4-.155.5.5,0,0,0-.37.155.623.623,0,0,0-.155.456v2.83Z" transform="translate(-602.302 -258.558)" fill="#496bb3"/>
          <path id="XMLID_869_" d="M751.339,273.823h-3.045v-9.994c0-.378-.172-.568-.525-.568a.516.516,0,0,0-.4.138.612.612,0,0,0-.129.43v9.994H744.2V261.395h3.045v.413a2.069,2.069,0,0,1,.757-.361,4.068,4.068,0,0,1,1.127-.146,2.423,2.423,0,0,1,1.591.516,1.592,1.592,0,0,1,.628,1.256v10.751Z" transform="translate(-685.566 -258.376)" fill="#496bb3"/>
          <rect id="XMLID_868_" width="3.045" height="1.11" transform="translate(66.426 0.559)" fill="#496bb3"/>
          <rect id="XMLID_867_" width="3.045" height="12.429" transform="translate(66.426 3.019)" fill="#496bb3"/>
          <path id="XMLID_864_" d="M884.13,271.658a2.164,2.164,0,0,1-1.092,2.013,5.071,5.071,0,0,1-2.494.508,4.665,4.665,0,0,1-2.494-.55A2.268,2.268,0,0,1,877,271.546v-7.423a2.247,2.247,0,0,1,1.032-2.056,4.715,4.715,0,0,1,2.52-.568,5.117,5.117,0,0,1,2.494.508,2.132,2.132,0,0,1,1.092,2.013v4.731h-4.094v2.873a.712.712,0,0,0,.129.464.462.462,0,0,0,.4.163.472.472,0,0,0,.4-.163.745.745,0,0,0,.129-.464v-2.477h3.045v2.512Zm-3.045-4.8v-2.83a.687.687,0,0,0-.129-.456.482.482,0,0,0-.4-.155.5.5,0,0,0-.37.155.622.622,0,0,0-.155.456v2.83Z" transform="translate(-806.944 -258.558)" fill="#496bb3"/>
        </g>
        <g id="XMLID_6_" transform="translate(12.48 25.588)">
          <path id="XMLID_5_" d="M207.6,458h.877v2.838H207.6Z" transform="translate(-207.6 -457.948)" fill="#7c809a"/>
          <path id="XMLID_14_" d="M228,458h.817l1.067,1.574V458h.826v2.838h-.826l-1.067-1.565v1.565H228Z" transform="translate(-226.245 -457.948)" fill="#7c809a"/>
          <path id="XMLID_16_" d="M267.4,459.353l.834-.052a.571.571,0,0,0,.112.31.483.483,0,0,0,.387.172.425.425,0,0,0,.292-.086.256.256,0,0,0,.009-.4,1.125,1.125,0,0,0-.447-.163,1.867,1.867,0,0,1-.826-.344.707.707,0,0,1-.249-.55.732.732,0,0,1,.129-.413.911.911,0,0,1,.378-.31,1.733,1.733,0,0,1,.7-.112,1.44,1.44,0,0,1,.834.206.886.886,0,0,1,.344.645l-.826.052a.384.384,0,0,0-.43-.361.356.356,0,0,0-.232.069.2.2,0,0,0-.077.155.15.15,0,0,0,.06.12.814.814,0,0,0,.292.1,3.71,3.71,0,0,1,.826.249.881.881,0,0,1,.361.318.794.794,0,0,1,.112.422.9.9,0,0,1-.155.507,1,1,0,0,1-.421.353,1.763,1.763,0,0,1-.688.12,1.452,1.452,0,0,1-1.006-.275A1.2,1.2,0,0,1,267.4,459.353Z" transform="translate(-262.257 -457.4)" fill="#7c809a"/>
          <path id="XMLID_18_" d="M307.149,458h.877v1.694a1.4,1.4,0,0,1-.077.473,1.066,1.066,0,0,1-.249.4.965.965,0,0,1-.353.232,1.859,1.859,0,0,1-.611.095,4.421,4.421,0,0,1-.456-.026,1.309,1.309,0,0,1-.413-.112,1.013,1.013,0,0,1-.3-.249.852.852,0,0,1-.189-.327,1.8,1.8,0,0,1-.077-.482V458h.877v1.737a.448.448,0,0,0,.49.49.468.468,0,0,0,.353-.129.489.489,0,0,0,.129-.361Z" transform="translate(-296.897 -457.948)" fill="#7c809a"/>
          <path id="XMLID_21_" d="M346.6,460.838V458h1.462a2.188,2.188,0,0,1,.619.069.607.607,0,0,1,.344.258.8.8,0,0,1,.129.464.763.763,0,0,1-.1.4.842.842,0,0,1-.275.275,1.067,1.067,0,0,1-.31.112,1.011,1.011,0,0,1,.232.1,1.22,1.22,0,0,1,.138.146.913.913,0,0,1,.12.181l.421.826h-.989l-.473-.869a.62.62,0,0,0-.155-.215.377.377,0,0,0-.215-.069h-.077v1.153Zm.886-1.686h.37a1.373,1.373,0,0,0,.232-.043.257.257,0,0,0,.146-.086.283.283,0,0,0,.052-.163.262.262,0,0,0-.086-.215.5.5,0,0,0-.327-.077h-.387Z" transform="translate(-334.644 -457.948)" fill="#7c809a"/>
          <path id="XMLID_25_" d="M383.93,460.374h-1l-.138.473H381.9L382.967,458h.955l1.067,2.847h-.92Zm-.181-.619-.31-1.024-.31,1.024Z" transform="translate(-366.908 -457.948)" fill="#7c809a"/>
          <path id="XMLID_35_" d="M424,458h.817l1.067,1.574V458h.826v2.838h-.826l-1.067-1.565v1.565H424Z" transform="translate(-405.387 -457.948)" fill="#7c809a"/>
          <path id="XMLID_37_" d="M465.987,459.129l.774.232a1.425,1.425,0,0,1-.241.542,1.013,1.013,0,0,1-.413.327,1.491,1.491,0,0,1-.628.112,1.751,1.751,0,0,1-.757-.138,1.2,1.2,0,0,1-.507-.473,1.568,1.568,0,0,1-.215-.869,1.469,1.469,0,0,1,.378-1.084,1.706,1.706,0,0,1,1.9-.163,1.251,1.251,0,0,1,.456.671l-.774.172a.557.557,0,0,0-.086-.189.511.511,0,0,0-.181-.155.523.523,0,0,0-.241-.052.5.5,0,0,0-.456.241,1.059,1.059,0,0,0-.12.559,1.042,1.042,0,0,0,.146.645.482.482,0,0,0,.4.172.476.476,0,0,0,.378-.138A.836.836,0,0,0,465.987,459.129Z" transform="translate(-441.947 -457.4)" fill="#7c809a"/>
          <path id="XMLID_39_" d="M503.709,458h2.357v.611h-1.479v.456h1.368v.576h-1.368v.559H506.1v.645h-2.4V458Z" transform="translate(-478.232 -457.948)" fill="#7c809a"/>
          <path id="XMLID_41_" d="M556.3,459.353l.834-.052a.571.571,0,0,0,.112.31.484.484,0,0,0,.387.172.425.425,0,0,0,.292-.086.256.256,0,0,0,.009-.4,1.126,1.126,0,0,0-.447-.163,1.867,1.867,0,0,1-.826-.344.707.707,0,0,1-.249-.55.731.731,0,0,1,.129-.413.91.91,0,0,1,.378-.31,1.733,1.733,0,0,1,.7-.112,1.44,1.44,0,0,1,.834.206.887.887,0,0,1,.344.645l-.826.052a.384.384,0,0,0-.43-.361.356.356,0,0,0-.232.069.2.2,0,0,0-.077.155.15.15,0,0,0,.06.12.814.814,0,0,0,.292.1,3.711,3.711,0,0,1,.826.249.881.881,0,0,1,.361.318.794.794,0,0,1,.112.422.9.9,0,0,1-.155.507,1,1,0,0,1-.421.353,1.762,1.762,0,0,1-.688.12,1.452,1.452,0,0,1-1.006-.275A1.3,1.3,0,0,1,556.3,459.353Z" transform="translate(-526.308 -457.4)" fill="#7c809a"/>
          <path id="XMLID_43_" d="M594.7,458h.877v2.838H594.7Z" transform="translate(-561.405 -457.948)" fill="#7c809a"/>
          <path id="XMLID_45_" d="M614.809,458h1.153l.447,1.729.439-1.729H618v2.838h-.722v-2.168l-.55,2.168h-.654l-.55-2.168v2.168H614.8V458Z" transform="translate(-579.776 -457.948)" fill="#7c809a"/>
          <path id="XMLID_47_" d="M661.3,458h1.462a1.014,1.014,0,0,1,.714.224.993.993,0,0,1-.017,1.316,1.118,1.118,0,0,1-.791.241h-.482v1.058H661.3Zm.886,1.213h.215a.514.514,0,0,0,.353-.086.29.29,0,0,0,.1-.224.3.3,0,0,0-.086-.224.473.473,0,0,0-.335-.095h-.249Z" transform="translate(-622.277 -457.948)" fill="#7c809a"/>
          <path id="XMLID_59_" d="M697.409,458h.877v2.142h1.368v.7H697.4V458Z" transform="translate(-655.272 -457.948)" fill="#7c809a"/>
          <path id="XMLID_61_" d="M731.5,458h.877v2.838H731.5Z" transform="translate(-686.439 -457.948)" fill="#7c809a"/>
          <path id="XMLID_63_" d="M751.8,458h2.176v.611h-1.29v.5h1.1v.576h-1.1v1.153H751.8Z" transform="translate(-704.993 -457.948)" fill="#7c809a"/>
          <path id="XMLID_65_" d="M785.8,458h.877v2.838H785.8Z" transform="translate(-736.068 -457.948)" fill="#7c809a"/>
          <path id="XMLID_67_" d="M806.1,458h2.357v.611h-1.471v.456h1.368v.576h-1.368v.559H808.5v.645h-2.4Z" transform="translate(-754.622 -457.948)" fill="#7c809a"/>
          <path id="XMLID_69_" d="M842.4,458h1.307a1.622,1.622,0,0,1,.628.1,1.055,1.055,0,0,1,.4.3,1.189,1.189,0,0,1,.224.456,2.3,2.3,0,0,1,.069.55,1.906,1.906,0,0,1-.1.705,1.213,1.213,0,0,1-.284.421.92.92,0,0,1-.4.224,2.037,2.037,0,0,1-.525.077h-1.307V458Zm.877.645V460.2h.215a.9.9,0,0,0,.4-.06.415.415,0,0,0,.181-.215,1.349,1.349,0,0,0,.069-.49.986.986,0,0,0-.146-.619.613.613,0,0,0-.49-.163h-.224Z" transform="translate(-787.8 -457.948)" fill="#7c809a"/>
        </g>
      </g>
    </g>
  </g>
</svg>
