<svg xmlns="http://www.w3.org/2000/svg" width="23.681" height="31.304" viewBox="0 0 23.681 31.304">
  <g id="ISK" transform="translate(-220.776 -126.029)">
    <g id="Group_9" data-name="Group 9" transform="translate(221.376 126.629)">
      <path id="Path_40" data-name="Path 40" d="M245.369,7.676a4.559,4.559,0,0,0-4.557,4.557v.015q-.15-.015-.3-.015a3.039,3.039,0,0,0-3.038,3.038q0,.082,0,.163a4.557,4.557,0,0,0-2.155,7.464,4.559,4.559,0,0,0,4.309,6.044H243.2m2.173-21.266a4.559,4.559,0,0,1,4.557,4.557v.015q.15-.015.3-.015a3.039,3.039,0,0,1,3.038,3.038q0,.082,0,.163a4.562,4.562,0,0,1,3.186,5.6" transform="translate(-234.128 -7.676)" fill="rgba(0,0,0,0)" stroke="#5f2c84" stroke-linecap="round" stroke-linejoin="round" stroke-miterlimit="1.5" stroke-width="1.2" fill-rule="evenodd"/>
      <g id="Group_6" data-name="Group 6" transform="translate(9.906 10.937)">
        <path id="Path_41" data-name="Path 41" d="M163.592,69.92a4.559,4.559,0,0,0,4.557-4.557,3.039,3.039,0,0,0-3.038-3.038,4.559,4.559,0,0,0-4.557,4.557v3.123a5.741,5.741,0,0,0-2.335,2.419V65.971a4.861,4.861,0,0,1,4.861-4.861h2.031a4.559,4.559,0,0,1,4.557,4.557v.505c0,2.462-1.685,5.151-4.115,5.263-.052,0-.442,0-.442,0a5.9,5.9,0,0,0-5.429,4.49c-.471,1.759.805,4.948.805,4.948a6.081,6.081,0,0,1-2.275-6.473A5.916,5.916,0,0,1,163.592,69.92Z" transform="translate(-158.004 -61.11)" fill="#5f2c84" fill-rule="evenodd"/>
      </g>
      <path id="Path_42" data-name="Path 42" d="M266.615,42.847h0a2.92,2.92,0,0,0-2.92-2.92H262.4" transform="translate(-255.375 -31.91)" fill="rgba(0,0,0,0)" stroke="#5f2c84" stroke-linecap="round" stroke-linejoin="round" stroke-miterlimit="1.5" stroke-width="1.2" fill-rule="evenodd"/>
      <g id="Group_7" data-name="Group 7" transform="translate(4.922 15.003)">
        <path id="Path_43" data-name="Path 43" d="M266.615,42.847h0a2.92,2.92,0,0,0-2.92-2.92H262.4" transform="translate(-262.403 -39.926)" fill="rgba(0,0,0,0)" stroke="#5f2c84" stroke-linecap="round" stroke-linejoin="round" stroke-miterlimit="1.5" stroke-width="1.2" fill-rule="evenodd"/>
      </g>
      <g id="Group_8" data-name="Group 8" transform="translate(15.453 10.633) rotate(180)">
        <path id="Path_44" data-name="Path 44" d="M4.212,0h0a2.92,2.92,0,0,1-.855,2.065,2.92,2.92,0,0,1-2.065.855H0" transform="translate(0)" fill="rgba(0,0,0,0)" stroke="#5f2c84" stroke-linecap="round" stroke-linejoin="round" stroke-miterlimit="1.5" stroke-width="1.2" fill-rule="evenodd"/>
      </g>
    </g>
  </g>
</svg>
