<svg xmlns="http://www.w3.org/2000/svg" xmlns:xlink="http://www.w3.org/1999/xlink" width="130" height="32" viewBox="0 0 130 32">
  <defs>
    <clipPath id="clip-logo">
      <rect width="130" height="32"/>
    </clipPath>
  </defs>
  <g id="logo" clip-path="url(#clip-logo)">
    <rect id="image0" width="140" height="140" transform="translate(-5 -53)" fill="none"/>
    <g id="kiple_home" transform="translate(-1.8 -8.8)">
      <g id="Group_31" data-name="Group 31" transform="translate(33.397 17.241)">
        <path id="Path_114" data-name="Path 114" d="M99.5,19.358a1.132,1.132,0,0,1,1.11-1.258,1.167,1.167,0,0,1,1.036,1.258v4.957h5.844V19.358a1.123,1.123,0,0,1,1.036-1.258,1.224,1.224,0,0,1,1.11,1.258V31.712a1.132,1.132,0,0,1-1.11,1.258,1.167,1.167,0,0,1-1.036-1.258V26.682h-5.844v5.031a1.123,1.123,0,0,1-1.036,1.258,1.224,1.224,0,0,1-1.11-1.258Z" transform="translate(-57.258 -18.1)" fill="#00a2e3"/>
        <path id="Path_115" data-name="Path 115" d="M132,25.058a1.109,1.109,0,0,1,1.11-1.184,1.154,1.154,0,0,1,1.11,1.184v.518a3.475,3.475,0,0,1,2.959-1.775,3.033,3.033,0,0,1,2.885,1.849,3.76,3.76,0,0,1,3.255-1.849c2.071,0,3.4,1.406,3.4,3.921v5.548a1.109,1.109,0,0,1-1.11,1.184,1.154,1.154,0,0,1-1.11-1.184V28.461c0-1.628-.74-2.515-1.923-2.515s-2.071.888-2.071,2.589v4.735a1.112,1.112,0,1,1-2.219,0V28.461c0-1.628-.74-2.515-1.923-2.515-1.258,0-2.071.962-2.071,2.589v4.735a1.112,1.112,0,1,1-2.219,0L132,25.058Z" transform="translate(-65.715 -19.583)" fill="#00a2e3"/>
        <path id="Path_116" data-name="Path 116" d="M58.919,19.21a1.11,1.11,0,1,0-1.11,1.11A1.089,1.089,0,0,0,58.919,19.21Z" transform="translate(-46.121 -18.1)" fill="#00a2e3"/>
        <path id="Path_117" data-name="Path 117" d="M89.009,34.353A5.072,5.072,0,0,1,84.2,29.026a4.834,4.834,0,1,1,9.617,0,1.138,1.138,0,0,1-1.11,1.11H86.641a2.64,2.64,0,0,0,2.367,2,3.155,3.155,0,0,0,2.293-.666,1.11,1.11,0,1,1,1.332,1.775A5.152,5.152,0,0,1,89.009,34.353Zm-2.367-6.436h4.735a2.64,2.64,0,0,0-2.367-2A2.757,2.757,0,0,0,86.641,27.917Z" transform="translate(-53.277 -19.557)" fill="#00a2e3"/>
        <path id="Path_118" data-name="Path 118" d="M159.009,34.353a5.072,5.072,0,0,1-4.809-5.326,4.834,4.834,0,1,1,9.617,0,1.138,1.138,0,0,1-1.11,1.11h-6.066a2.64,2.64,0,0,0,2.367,2,3.155,3.155,0,0,0,2.293-.666,1.11,1.11,0,0,1,1.332,1.775A5.049,5.049,0,0,1,159.009,34.353Zm-2.367-6.436h4.735a2.64,2.64,0,0,0-2.367-2A2.845,2.845,0,0,0,156.641,27.917Z" transform="translate(-71.492 -19.557)" fill="#00a2e3"/>
        <path id="Path_119" data-name="Path 119" d="M79.91,32.9a1.138,1.138,0,0,1-1.11-1.11V19.21a1.11,1.11,0,1,1,2.219,0V31.786A1.048,1.048,0,0,1,79.91,32.9Z" transform="translate(-51.872 -18.1)" fill="#00a2e3"/>
        <path id="Path_120" data-name="Path 120" d="M57.81,34.379a1.138,1.138,0,0,1-1.11-1.11V24.91a1.11,1.11,0,1,1,2.219,0v8.434A1.031,1.031,0,0,1,57.81,34.379Z" transform="translate(-46.121 -19.583)" fill="#00a2e3"/>
        <path id="Path_121" data-name="Path 121" d="M51.055,31.12,47.8,26.682l2.515-2.515a1.1,1.1,0,1,0-1.554-1.554l-4.143,4.143V19.21a1.11,1.11,0,1,0-2.219,0V31.786a1.11,1.11,0,0,0,2.219,0V29.863l1.628-1.628,3.033,4.143a1.156,1.156,0,0,0,.888.444,1.193,1.193,0,0,0,.666-.222A1.046,1.046,0,0,0,51.055,31.12Z" transform="translate(-42.4 -18.1)" fill="#00a2e3"/>
        <path id="Path_122" data-name="Path 122" d="M67.426,23.8A5.3,5.3,0,0,0,62.1,29.126v6.806a1.11,1.11,0,1,0,2.219,0V33.417a5.521,5.521,0,0,0,3.107.962,5.29,5.29,0,1,0,0-10.579Zm0,8.36a3.107,3.107,0,1,1,3.107-3.107A3.126,3.126,0,0,1,67.426,32.16Z" transform="translate(-47.526 -19.583)" fill="#00a2e3"/>
        <path id="Path_123" data-name="Path 123" d="M115.6,29.026h0a5.181,5.181,0,0,1,5.178-5.326,5.1,5.1,0,0,1,5.1,5.252v.074a5.145,5.145,0,1,1-10.283,0Zm8.064,0h0A3.11,3.11,0,0,0,120.7,25.7a2.985,2.985,0,0,0-2.885,3.255v.074a3.088,3.088,0,0,0,2.959,3.255A2.985,2.985,0,0,0,123.664,29.026Z" transform="translate(-61.448 -19.557)" fill="#00a2e3"/>
      </g>
      <g id="Group_37" data-name="Group 37" transform="translate(7.8 14.8)">
        <g id="Group_34" data-name="Group 34">
          <g id="Group_33" data-name="Group 33">
            <path id="Path_124" data-name="Path 124" d="M23.509,15.836a3.552,3.552,0,0,1,3.551,3.551v11.1a3.552,3.552,0,0,1-3.551,3.551h-11.1a3.552,3.552,0,0,1-3.551-3.551v-11.1a3.552,3.552,0,0,1,3.551-3.551h11.1m0-1.036h-11.1A4.531,4.531,0,0,0,7.9,19.313v11.1a4.531,4.531,0,0,0,4.513,4.513h11.1a4.531,4.531,0,0,0,4.513-4.513V19.387A4.547,4.547,0,0,0,23.509,14.8Z" transform="translate(-7.826 -14.8)" fill="#fff"/>
            <g id="Group_32" data-name="Group 32">
              <rect id="Rectangle_4" data-name="Rectangle 4" width="20.196" height="20.196" fill="none"/>
            </g>
            <path id="Path_125" data-name="Path 125" d="M23.509,15.836a3.552,3.552,0,0,1,3.551,3.551v11.1a3.552,3.552,0,0,1-3.551,3.551h-11.1a3.552,3.552,0,0,1-3.551-3.551v-11.1a3.552,3.552,0,0,1,3.551-3.551h11.1m0-1.036h-11.1A4.531,4.531,0,0,0,7.9,19.313v11.1a4.531,4.531,0,0,0,4.513,4.513h11.1a4.531,4.531,0,0,0,4.513-4.513V19.387A4.547,4.547,0,0,0,23.509,14.8Z" transform="translate(-7.826 -14.8)" fill="#00a2e3"/>
          </g>
        </g>
        <g id="Group_36" data-name="Group 36" transform="translate(2.878 3.096)">
          <g id="Group_35" data-name="Group 35">
            <path id="Path_126" data-name="Path 126" d="M25.68,28.74a.272.272,0,0,1-.222-.074l-6.584-5.1-6.584,5.1a.37.37,0,0,1-.444-.592L18.874,22.6,25.9,28.074a.366.366,0,0,1,.074.518A.384.384,0,0,1,25.68,28.74Z" transform="translate(-11.691 -19.926)" fill="#00a2e3"/>
            <path id="Path_127" data-name="Path 127" d="M21.976,34.045H17.463A2.652,2.652,0,0,1,14.8,31.382V28.348a.37.37,0,0,1,.74,0v3.033A1.9,1.9,0,0,0,17.389,33.3H21.9a1.849,1.849,0,0,0,1.849-1.923V23.17a.37.37,0,0,1,.74,0v8.286A2.425,2.425,0,0,1,21.976,34.045Z" transform="translate(-12.5 -19.978)" fill="#00a2e3"/>
            <path id="Path_128" data-name="Path 128" d="M28.734,22.177a1.475,1.475,0,0,1,.074-1.554c.518-.888-.074-1.332-.074-1.332-.222-.148.37-.3.444-.3a1.24,1.24,0,0,1,1.332.74c.148.74-.592,1.184-1.11,1.554a2.02,2.02,0,0,0-.666.888" transform="translate(-16.077 -18.985)" fill="#00a2e3"/>
          </g>
          <path id="Path_129" data-name="Path 129" d="M19.77,33.459a.338.338,0,0,1-.37-.3V31.758A1.313,1.313,0,0,1,20.88,30.5a1.313,1.313,0,0,1,1.48,1.258v1.406a.338.338,0,0,1-.37.3Z" transform="translate(-13.697 -21.981)" fill="#00a2e3"/>
        </g>
      </g>
    </g>
  </g>
</svg>
