<svg xmlns="http://www.w3.org/2000/svg" xmlns:xlink="http://www.w3.org/1999/xlink" width="130" height="32" viewBox="0 0 130 32">
  <defs>
    <clipPath id="clip-logo">
      <rect width="130" height="32"/>
    </clipPath>
  </defs>
  <g id="logo" clip-path="url(#clip-logo)">
    <g id="Loanstreet" transform="translate(2 -2.8)">
      <path id="Path_86" data-name="Path 86" d="M19.94,10.4H5.752A2.047,2.047,0,0,0,3.7,12.452V26.64a2.047,2.047,0,0,0,2.052,2.052H19.94a2.047,2.047,0,0,0,2.052-2.052V12.452A2.031,2.031,0,0,0,19.94,10.4Z" transform="translate(-1.28 -1.205)" fill="#fff"/>
      <g id="Group_28" data-name="Group 28" transform="translate(2 8.8)">
        <path id="Path_87" data-name="Path 87" d="M18.981,8.8H4.15A2.152,2.152,0,0,0,2,10.95V25.756a2.152,2.152,0,0,0,2.15,2.15H18.956a2.152,2.152,0,0,0,2.15-2.15V10.95A2.115,2.115,0,0,0,18.981,8.8ZM17.745,22.568a3.908,3.908,0,0,1-.964,1.285,4.1,4.1,0,0,1-1.409.766,5.475,5.475,0,0,1-1.706.247,5.565,5.565,0,0,1-1.137-.1,7.341,7.341,0,0,1-.939-.247.086.086,0,0,1-.049-.025c-.025.025-.025.049-.049.074a.7.7,0,0,1-.321.1H5.955a.784.784,0,0,1-.618-.247,1.03,1.03,0,0,1-.272-.766V12.607a.5.5,0,0,1,.1-.321.691.691,0,0,1,.3-.2,1.406,1.406,0,0,1,.4-.074,4.022,4.022,0,0,1,.593-.025,4.022,4.022,0,0,1,.593.025,3.879,3.879,0,0,1,.4.074.63.63,0,0,1,.3.2.5.5,0,0,1,.1.321v9.566h2.422a1.206,1.206,0,0,1,.074-.346.575.575,0,0,1,.173-.272c.173-.148.4-.148.742.1a5.178,5.178,0,0,0,.569.321,4.314,4.314,0,0,0,.816.321,3.449,3.449,0,0,0,1.063.148,1.949,1.949,0,0,0,.692-.1,1.353,1.353,0,0,0,.494-.272,1.19,1.19,0,0,0,.3-.4,1.33,1.33,0,0,0,.1-.544.867.867,0,0,0-.173-.569,2.256,2.256,0,0,0-.494-.47,5.283,5.283,0,0,0-.742-.42c-.3-.124-.593-.272-.89-.42a6.689,6.689,0,0,1-.915-.519,4.466,4.466,0,0,1-.816-.717,3.422,3.422,0,0,1-.593-1.013,3.966,3.966,0,0,1-.222-1.384,3.771,3.771,0,0,1,.321-1.631,3.569,3.569,0,0,1,.89-1.186,3.407,3.407,0,0,1,1.285-.692,5.181,5.181,0,0,1,2.4-.148,7.429,7.429,0,0,1,.791.173,4.169,4.169,0,0,1,.667.272,1.754,1.754,0,0,1,.42.272.584.584,0,0,1,.148.222,2.333,2.333,0,0,1,.074.222,1.108,1.108,0,0,1,.025.3v.42a2.55,2.55,0,0,1-.025.47,1.288,1.288,0,0,1-.049.346.564.564,0,0,1-.148.3.416.416,0,0,1-.3.124.788.788,0,0,1-.42-.173c-.124-.074-.3-.173-.494-.272a3.673,3.673,0,0,0-.692-.272,2.865,2.865,0,0,0-.84-.124,1.5,1.5,0,0,0-.593.1,1.031,1.031,0,0,0-.4.222.941.941,0,0,0-.222.321,1.155,1.155,0,0,0-.074.42.912.912,0,0,0,.173.569,2.256,2.256,0,0,0,.494.47,4.442,4.442,0,0,0,.766.42c.3.124.593.272.915.42a6.689,6.689,0,0,1,.915.519,3.91,3.91,0,0,1,.84.717,3.421,3.421,0,0,1,.593,1.013,3.824,3.824,0,0,1,.222,1.359A4.843,4.843,0,0,1,17.745,22.568Z" transform="translate(-2 -8.8)" fill="#ff4e00"/>
      </g>
      <g id="Group_29" data-name="Group 29" transform="translate(23.702 9.369)">
        <path id="Path_88" data-name="Path 88" d="M89.8,12h1.458V23.988h5.611V25.4H89.8Z" transform="translate(-89.8 -11.778)" fill="#ff4e00"/>
        <path id="Path_89" data-name="Path 89" d="M130.36,21.3a5.309,5.309,0,0,1,4.128,1.8,5.807,5.807,0,0,1-.1,7.86,5.729,5.729,0,0,1-8.107,0,5.776,5.776,0,0,1-.1-7.836A5.433,5.433,0,0,1,130.36,21.3Zm0,1.359a4,4,0,0,0-2.991,1.285,4.232,4.232,0,0,0-1.236,3.09,4.393,4.393,0,0,0,.569,2.175,4.035,4.035,0,0,0,1.532,1.557,4.427,4.427,0,0,0,4.251,0,4.035,4.035,0,0,0,1.533-1.557,4.463,4.463,0,0,0,.568-2.175,4.215,4.215,0,0,0-1.261-3.09A3.991,3.991,0,0,0,130.36,22.659Z" transform="translate(-116.074 -18.779)" fill="#ff4e00"/>
        <path id="Path_90" data-name="Path 90" d="M190.122,21.647v10.8h-1.359V30.595A6.221,6.221,0,0,1,186.81,32.2a5.4,5.4,0,0,1-2.373.544,5.194,5.194,0,0,1-3.905-1.656,5.556,5.556,0,0,1-1.631-4.054,5.428,5.428,0,0,1,1.631-3.98,5.286,5.286,0,0,1,3.93-1.656,5.123,5.123,0,0,1,2.4.569,5.379,5.379,0,0,1,1.9,1.706V21.7h1.359ZM184.56,22.71a4.37,4.37,0,0,0-2.15.569,4.062,4.062,0,0,0-1.557,1.607,4.363,4.363,0,0,0,.025,4.35,4.361,4.361,0,0,0,1.582,1.631,4.036,4.036,0,0,0,2.126.569,4.37,4.37,0,0,0,2.15-.569,4,4,0,0,0,1.582-1.557,4.65,4.65,0,0,0-.692-5.339A4.159,4.159,0,0,0,184.56,22.71Z" transform="translate(-156.877 -18.854)" fill="#ff4e00"/>
        <path id="Path_91" data-name="Path 91" d="M236.9,21.572h1.384V23.5a5.8,5.8,0,0,1,1.854-1.656,4.466,4.466,0,0,1,2.2-.544,3.724,3.724,0,0,1,2.15.618,3.768,3.768,0,0,1,1.384,1.656,8.779,8.779,0,0,1,.445,3.238v5.561h-1.384V27.232a13.374,13.374,0,0,0-.148-2.5,2.778,2.778,0,0,0-.915-1.607,2.732,2.732,0,0,0-1.78-.544,3.351,3.351,0,0,0-2.249.84,3.806,3.806,0,0,0-1.31,2.076,15.077,15.077,0,0,0-.2,2.941V32.4h-1.384V21.572Z" transform="translate(-200.54 -18.779)" fill="#ff4e00"/>
        <path id="Path_92" data-name="Path 92" d="M289.451,22.758l-.89.915a3.215,3.215,0,0,0-2.175-1.088,1.666,1.666,0,0,0-1.162.445,1.386,1.386,0,0,0-.494,1.038,1.549,1.549,0,0,0,.4,1.013,5.307,5.307,0,0,0,1.681,1.137,6.277,6.277,0,0,1,2.1,1.557,2.756,2.756,0,0,1,.544,1.706,3.061,3.061,0,0,1-.939,2.249,3.168,3.168,0,0,1-2.323.915,4.443,4.443,0,0,1-1.78-.4A3.919,3.919,0,0,1,283,31.138l.865-.989a3.088,3.088,0,0,0,2.249,1.211,2,2,0,0,0,1.434-.544,1.615,1.615,0,0,0,.593-1.261,1.579,1.579,0,0,0-.4-1.063,6.279,6.279,0,0,0-1.755-1.162,5.442,5.442,0,0,1-1.977-1.483,2.825,2.825,0,0,1-.519-1.681,2.722,2.722,0,0,1,.84-2.052,2.928,2.928,0,0,1,2.126-.816A4.482,4.482,0,0,1,289.451,22.758Z" transform="translate(-235.245 -18.779)" fill="#ff4e00"/>
        <path id="Path_93" data-name="Path 93" d="M318.1,11.1h1.384v2.793h2.2V15.1h-2.2v9.59H318.1V15.1h-1.9V13.893h1.9Z" transform="translate(-260.239 -11.1)" fill="#ff4e00"/>
        <path id="Path_94" data-name="Path 94" d="M344.8,21.572h1.409v1.582a4.786,4.786,0,0,1,1.335-1.384A2.75,2.75,0,0,1,349,21.3a2.524,2.524,0,0,1,1.236.371l-.717,1.162a2.076,2.076,0,0,0-.742-.2,2.009,2.009,0,0,0-1.335.569,3.586,3.586,0,0,0-.989,1.78,17.14,17.14,0,0,0-.247,3.732v3.658H344.8Z" transform="translate(-281.77 -18.779)" fill="#ff4e00"/>
        <path id="Path_95" data-name="Path 95" d="M379.115,28.865l1.162.618a6.254,6.254,0,0,1-1.335,1.829,5.087,5.087,0,0,1-1.706,1.063,5.721,5.721,0,0,1-2.126.371,5.131,5.131,0,0,1-4.128-1.73A5.888,5.888,0,0,1,369.5,27.11a5.767,5.767,0,0,1,1.261-3.658,5.17,5.17,0,0,1,4.276-2.052,5.279,5.279,0,0,1,4.4,2.1,5.724,5.724,0,0,1,1.186,3.683h-9.714a4.352,4.352,0,0,0,1.211,3.09,3.863,3.863,0,0,0,2.867,1.211,4.51,4.51,0,0,0,1.607-.3,4.391,4.391,0,0,0,1.335-.766A6.3,6.3,0,0,0,379.115,28.865Zm0-2.892a4.247,4.247,0,0,0-.816-1.78,3.666,3.666,0,0,0-1.409-1.063,4.278,4.278,0,0,0-1.829-.4,4.049,4.049,0,0,0-2.744,1.013,4.408,4.408,0,0,0-1.261,2.225Z" transform="translate(-300.365 -18.854)" fill="#ff4e00"/>
        <path id="Path_96" data-name="Path 96" d="M432.615,28.865l1.162.618a6.735,6.735,0,0,1-1.335,1.829,5.088,5.088,0,0,1-1.706,1.063,5.721,5.721,0,0,1-2.126.371,5.131,5.131,0,0,1-4.128-1.73A5.888,5.888,0,0,1,423,27.11a5.767,5.767,0,0,1,1.261-3.658,5.17,5.17,0,0,1,4.276-2.052,5.279,5.279,0,0,1,4.4,2.1,5.724,5.724,0,0,1,1.186,3.683h-9.714a4.353,4.353,0,0,0,1.211,3.09,3.863,3.863,0,0,0,2.867,1.211,4.51,4.51,0,0,0,1.607-.3,4.392,4.392,0,0,0,1.335-.766A7.8,7.8,0,0,0,432.615,28.865Zm0-2.892a4.246,4.246,0,0,0-.816-1.78,3.666,3.666,0,0,0-1.409-1.063,4.278,4.278,0,0,0-1.829-.4,4.049,4.049,0,0,0-2.744,1.013,4.408,4.408,0,0,0-1.261,2.225Z" transform="translate(-340.641 -18.854)" fill="#ff4e00"/>
        <path id="Path_97" data-name="Path 97" d="M477.6,11.1h1.384v2.793h2.2V15.1h-2.2v9.59H477.6V15.1h-1.9V13.893h1.9Z" transform="translate(-380.314 -11.1)" fill="#ff4e00"/>
      </g>
      <g id="Group_30" data-name="Group 30" transform="translate(23.727 24.051)">
        <path id="Path_98" data-name="Path 98" d="M89.9,74.53V70.6h.519v3.46h1.928v.47Z" transform="translate(-89.9 -70.575)" fill="#ff4e00"/>
        <path id="Path_99" data-name="Path 99" d="M117.4,76.283a1.439,1.439,0,0,1,.445-1.162,1.274,1.274,0,0,1,.89-.321,1.233,1.233,0,0,1,.964.4,1.465,1.465,0,0,1,.371,1.063,1.677,1.677,0,0,1-.173.865,1.285,1.285,0,0,1-.47.494,1.371,1.371,0,0,1-.692.173,1.233,1.233,0,0,1-.964-.4A1.591,1.591,0,0,1,117.4,76.283Zm.494,0a1.113,1.113,0,0,0,.247.816.79.79,0,0,0,.593.272.752.752,0,0,0,.593-.272,1.309,1.309,0,0,0,.247-.84,1.086,1.086,0,0,0-.247-.791.79.79,0,0,0-.593-.272.752.752,0,0,0-.593.272A1.113,1.113,0,0,0,117.894,76.283Z" transform="translate(-110.603 -73.737)" fill="#ff4e00"/>
        <path id="Path_100" data-name="Path 100" d="M147.927,77.2a1.978,1.978,0,0,1-.519.321,1.33,1.33,0,0,1-.544.1,1.037,1.037,0,0,1-.717-.222.733.733,0,0,1-.247-.593.725.725,0,0,1,.1-.4.882.882,0,0,1,.247-.272.866.866,0,0,1,.346-.148c.1-.025.247-.049.42-.074a4.023,4.023,0,0,0,.865-.173v-.124a.509.509,0,0,0-.148-.42.839.839,0,0,0-.544-.173.85.85,0,0,0-.494.124.761.761,0,0,0-.247.42l-.47-.074A1.306,1.306,0,0,1,146.2,75a1.074,1.074,0,0,1,.42-.3,1.756,1.756,0,0,1,.643-.1,1.929,1.929,0,0,1,.593.074.7.7,0,0,1,.346.222.767.767,0,0,1,.148.321,1.9,1.9,0,0,1,.025.445v.643a6.807,6.807,0,0,0,.025.865.975.975,0,0,0,.124.346h-.494A.456.456,0,0,1,147.927,77.2Zm-.049-1.088a3.505,3.505,0,0,1-.791.173,1.15,1.15,0,0,0-.42.1.6.6,0,0,0-.2.148.4.4,0,0,0,.074.544.707.707,0,0,0,.42.124,1.045,1.045,0,0,0,.494-.124.729.729,0,0,0,.321-.346,1.216,1.216,0,0,0,.074-.494v-.124Z" transform="translate(-132.058 -73.587)" fill="#ff4e00"/>
        <path id="Path_101" data-name="Path 101" d="M174.9,77.617V74.774h.445v.4a1.137,1.137,0,0,1,1.384-.371.663.663,0,0,1,.321.247.866.866,0,0,1,.148.346,2.28,2.28,0,0,1,.025.47v1.755h-.494v-1.73a1.841,1.841,0,0,0-.049-.445.436.436,0,0,0-.2-.222.714.714,0,0,0-.346-.1.864.864,0,0,0-.544.2.947.947,0,0,0-.222.742v1.557Z" transform="translate(-153.89 -73.662)" fill="#ff4e00"/>
        <path id="Path_102" data-name="Path 102" d="M202.5,76.927l.47-.074a.644.644,0,0,0,.222.445.811.811,0,0,0,.519.148.85.85,0,0,0,.494-.124.467.467,0,0,0,.173-.321.272.272,0,0,0-.148-.247,2.016,2.016,0,0,0-.494-.173q-.519-.148-.742-.222a.672.672,0,0,1-.42-.643.567.567,0,0,1,.1-.346.855.855,0,0,1,.247-.272,1.646,1.646,0,0,1,.3-.148,1.156,1.156,0,0,1,.42-.049,1.5,1.5,0,0,1,.593.1.73.73,0,0,1,.371.272.93.93,0,0,1,.173.445l-.47.074a.455.455,0,0,0-.2-.346.734.734,0,0,0-.445-.124.781.781,0,0,0-.47.1.3.3,0,0,0-.148.247.357.357,0,0,0,.049.173.443.443,0,0,0,.173.124c.049.025.2.049.42.124.346.1.568.173.717.222a.8.8,0,0,1,.321.247.707.707,0,0,1,.124.42.69.69,0,0,1-.148.445.849.849,0,0,1-.4.321,1.494,1.494,0,0,1-.593.124,1.362,1.362,0,0,1-.84-.222A1.652,1.652,0,0,1,202.5,76.927Z" transform="translate(-174.668 -73.812)" fill="#ff4e00"/>
        <path id="Path_103" data-name="Path 103" d="M252.9,74.53V70.6h.791l.939,2.793c.074.247.148.445.2.593.049-.148.124-.346.2-.643l.939-2.744h.692v3.93h-.494V71.243l-1.137,3.287h-.47l-1.162-3.337v3.362H252.9Z" transform="translate(-212.61 -70.575)" fill="#ff4e00"/>
        <path id="Path_104" data-name="Path 104" d="M288.627,77.2a1.978,1.978,0,0,1-.519.321,1.33,1.33,0,0,1-.544.1,1.037,1.037,0,0,1-.717-.222.733.733,0,0,1-.247-.593.725.725,0,0,1,.1-.4.881.881,0,0,1,.247-.272.867.867,0,0,1,.346-.148c.1-.025.247-.049.42-.074a4.023,4.023,0,0,0,.865-.173v-.124a.509.509,0,0,0-.148-.42.839.839,0,0,0-.544-.173.85.85,0,0,0-.494.124.761.761,0,0,0-.247.42l-.47-.074A1.306,1.306,0,0,1,286.9,75a1.074,1.074,0,0,1,.42-.3,1.756,1.756,0,0,1,.643-.1,1.929,1.929,0,0,1,.593.074.7.7,0,0,1,.346.222.766.766,0,0,1,.148.321,1.9,1.9,0,0,1,.025.445v.643a6.816,6.816,0,0,0,.025.865.975.975,0,0,0,.124.346h-.494A.618.618,0,0,1,288.627,77.2Zm-.049-1.088a3.5,3.5,0,0,1-.791.173,1.15,1.15,0,0,0-.42.1.594.594,0,0,0-.2.148.4.4,0,0,0,.074.544.707.707,0,0,0,.42.124,1.045,1.045,0,0,0,.494-.124.729.729,0,0,0,.321-.346,1.216,1.216,0,0,0,.074-.494v-.124Z" transform="translate(-237.98 -73.587)" fill="#ff4e00"/>
        <path id="Path_105" data-name="Path 105" d="M317,74.455v-.371a.892.892,0,0,1-.791.42,1.082,1.082,0,0,1-.618-.2,1.144,1.144,0,0,1-.445-.519,1.925,1.925,0,0,1-.148-.766,1.842,1.842,0,0,1,.148-.766,1.342,1.342,0,0,1,.42-.544,1.141,1.141,0,0,1,.643-.173,1,1,0,0,1,.47.1,1.171,1.171,0,0,1,.321.272V70.5h.47v3.93H317Zm-1.533-1.409a1.237,1.237,0,0,0,.222.816.729.729,0,0,0,.544.272.749.749,0,0,0,.544-.247A1.207,1.207,0,0,0,317,73.1a1.393,1.393,0,0,0-.222-.865.729.729,0,0,0-.544-.272.691.691,0,0,0-.544.272A1.151,1.151,0,0,0,315.47,73.046Z" transform="translate(-259.36 -70.5)" fill="#ff4e00"/>
        <path id="Path_106" data-name="Path 106" d="M345.426,76.627l.494.049a1.08,1.08,0,0,1-.445.667,1.281,1.281,0,0,1-.816.247,1.251,1.251,0,0,1-.989-.4,1.487,1.487,0,0,1-.371-1.088A1.591,1.591,0,0,1,343.671,75a1.233,1.233,0,0,1,.964-.4,1.216,1.216,0,0,1,.939.4,1.527,1.527,0,0,1,.371,1.088v.124h-2.126a1.053,1.053,0,0,0,.272.717.733.733,0,0,0,.593.247.69.69,0,0,0,.445-.148A.647.647,0,0,0,345.426,76.627Zm-1.582-.791h1.582a1.009,1.009,0,0,0-.173-.544.684.684,0,0,0-.593-.272.783.783,0,0,0-.568.222A.931.931,0,0,0,343.844,75.836Z" transform="translate(-280.665 -73.587)" fill="#ff4e00"/>
        <path id="Path_107" data-name="Path 107" d="M394.9,74.53V70.6h2.843v.47h-2.323v1.211h2.175v.47h-2.175v1.335h2.422v.47H394.9Z" transform="translate(-319.511 -70.575)" fill="#ff4e00"/>
        <path id="Path_108" data-name="Path 108" d="M426.827,77.2a1.977,1.977,0,0,1-.519.321,1.33,1.33,0,0,1-.544.1,1.038,1.038,0,0,1-.717-.222.733.733,0,0,1-.247-.593.725.725,0,0,1,.1-.4.881.881,0,0,1,.247-.272.867.867,0,0,1,.346-.148c.1-.025.247-.049.42-.074a4.023,4.023,0,0,0,.865-.173v-.124a.509.509,0,0,0-.148-.42.839.839,0,0,0-.544-.173.85.85,0,0,0-.494.124.761.761,0,0,0-.247.42l-.47-.074A1.306,1.306,0,0,1,425.1,75a1.073,1.073,0,0,1,.42-.3,1.756,1.756,0,0,1,.643-.1,1.929,1.929,0,0,1,.593.074.7.7,0,0,1,.346.222.765.765,0,0,1,.148.321,1.9,1.9,0,0,1,.025.445v.643a6.816,6.816,0,0,0,.025.865.974.974,0,0,0,.124.346h-.494A.989.989,0,0,1,426.827,77.2Zm-.025-1.088a3.5,3.5,0,0,1-.791.173,1.149,1.149,0,0,0-.42.1.6.6,0,0,0-.2.148.4.4,0,0,0,.074.544.707.707,0,0,0,.42.124,1.045,1.045,0,0,0,.494-.124.729.729,0,0,0,.321-.346,1.215,1.215,0,0,0,.074-.494v-.124Z" transform="translate(-342.02 -73.587)" fill="#ff4e00"/>
        <path id="Path_109" data-name="Path 109" d="M453.1,76.927l.47-.074a.644.644,0,0,0,.222.445.811.811,0,0,0,.519.148.85.85,0,0,0,.494-.124.467.467,0,0,0,.173-.321.272.272,0,0,0-.148-.247,2.017,2.017,0,0,0-.494-.173q-.519-.148-.742-.222a.7.7,0,0,1-.321-.272.7.7,0,0,1-.1-.371.567.567,0,0,1,.1-.346.855.855,0,0,1,.247-.272,1.648,1.648,0,0,1,.3-.148,1.157,1.157,0,0,1,.42-.049,1.5,1.5,0,0,1,.593.1.73.73,0,0,1,.371.272.93.93,0,0,1,.173.445l-.47.074a.454.454,0,0,0-.2-.346.734.734,0,0,0-.445-.124.781.781,0,0,0-.47.1.3.3,0,0,0-.148.247.357.357,0,0,0,.049.173.39.39,0,0,0,.2.124c.049.025.2.049.42.124.346.1.569.173.717.222a.8.8,0,0,1,.321.247.707.707,0,0,1,.124.42.69.69,0,0,1-.148.445.849.849,0,0,1-.4.321,1.494,1.494,0,0,1-.593.124,1.362,1.362,0,0,1-.84-.222A1.159,1.159,0,0,1,453.1,76.927Z" transform="translate(-363.325 -73.812)" fill="#ff4e00"/>
        <path id="Path_110" data-name="Path 110" d="M480.147,78.955l-.049-.445a1.276,1.276,0,0,0,.272.049.621.621,0,0,0,.247-.049.223.223,0,0,0,.148-.148q.037-.074.148-.371a.417.417,0,0,1,.049-.124L479.9,75h.519l.593,1.656a4.28,4.28,0,0,1,.2.667,4.9,4.9,0,0,1,.2-.643l.618-1.656h.494l-1.087,2.892a4.918,4.918,0,0,1-.272.643.823.823,0,0,1-.3.346.674.674,0,0,1-.4.1A1.7,1.7,0,0,1,480.147,78.955Z" transform="translate(-383.501 -73.888)" fill="#ff4e00"/>
      </g>
    </g>
  </g>
</svg>
