<svg xmlns="http://www.w3.org/2000/svg" xmlns:xlink="http://www.w3.org/1999/xlink" width="130" height="32" viewBox="0 0 130 32">
  <defs>
    <clipPath id="clip-logo">
      <rect width="130" height="32"/>
    </clipPath>
  </defs>
  <g id="logo" clip-path="url(#clip-logo)">
    <rect width="130" height="32" fill="#f7e21e"/>
    <rect id="image0" width="140" height="140" transform="translate(-5 -53)" fill="none"/>
    <g id="Moneymatch" transform="translate(44.9 -4.1)">
      <g id="Layer_1" data-name="Layer 1" transform="translate(0.1 0.1)">
        <rect id="Rectangle_5" data-name="Rectangle 5" width="40" height="40" transform="translate(0)" fill="#f7e21e"/>
        <rect id="Rectangle_6" data-name="Rectangle 6" width="39.528" height="39.528" rx="19.764" transform="translate(0.253 0.253)" fill="#f7e21e"/>
        <path id="Path_144" data-name="Path 144" d="M61.947,45.766l1.492-.04,1.148-7.174.844-.436c.287-.161.574-.287.861-.419a1.742,1.742,0,0,1,.54-.181q.1,0,.129.207a1.917,1.917,0,0,1-.043.574l-1.148,7.335H67.29l1.093-6.959c.4-.218.772-.41,1.113-.574.287-.146.574-.287.847-.393a1.8,1.8,0,0,1,.537-.172c.161,0,.2.235.121.7l-1.148,7.4h1.521l1.266-8.09a1.587,1.587,0,0,0-.026-.64,1.323,1.323,0,0,0-.726-.89,1.418,1.418,0,0,0-.614-.129,2.124,2.124,0,0,0-.8.189,7.072,7.072,0,0,0-.861.428c-.321.184-.646.387-.976.614l-.052.034a1.647,1.647,0,0,0-.453-.89,1.231,1.231,0,0,0-.947-.4,1.966,1.966,0,0,0-.795.207,9.38,9.38,0,0,0-.861.445c-.227.138-.453.287-.686.448l1.561-9.3.413-3.421H61.476l.35-.973a10.618,10.618,0,0,1-3.016,1.679,10.693,10.693,0,0,1,3.016,1.687l-.35-.981h3.731Z" transform="translate(-42.004 -16.664)"/>
        <path id="Path_145" data-name="Path 145" d="M43.934,41.961a1.587,1.587,0,0,0-.029-.64,1.386,1.386,0,0,0-.264-.534,1.311,1.311,0,0,0-.459-.359,1.435,1.435,0,0,0-.617-.129,2.1,2.1,0,0,0-.795.189,7.111,7.111,0,0,0-.861.428c-.319.184-.646.387-.976.617l-.052.032a1.61,1.61,0,0,0-.453-.887,1.217,1.217,0,0,0-.913-.379,1.977,1.977,0,0,0-.8.207c-.287.138-.574.287-.861.445a11.341,11.341,0,0,0-.987.651l.169-1.128H34.51L33,50.051h1.541l1.076-6.887c.41-.23.786-.433,1.131-.617.287-.158.574-.287.861-.419a1.7,1.7,0,0,1,.525-.192c.069,0,.112.066.129.2a1.917,1.917,0,0,1-.043.574l-1.148,7.335h1.521l1.1-6.965c.4-.218.769-.41,1.111-.574a8.175,8.175,0,0,1,.861-.393,1.745,1.745,0,0,1,.519-.181c.158,0,.2.232.121.7l-2.37,15.546-.505,3.068h5.656l-.367.973a11.37,11.37,0,0,1,3.157-1.679,11.287,11.287,0,0,1-3.157-1.676l.367.973H41.19l.238-1.435Z" transform="translate(-23.601 -28.805)"/>
      </g>
    </g>
  </g>
</svg>
