<?xml version="1.0" encoding="UTF-8" standalone="no"?>
<svg width="886px" height="170px" viewBox="0 0 886 170" version="1.1" xmlns="http://www.w3.org/2000/svg" xmlns:xlink="http://www.w3.org/1999/xlink">
    <!-- Generator: Sketch 47.1 (45422) - http://www.bohemiancoding.com/sketch -->
    <title>moovby-logo-1</title>
    <desc>Created with Sketch.</desc>
    <defs></defs>
    <g id="All" stroke="none" stroke-width="1" fill="none" fill-rule="evenodd">
        <g id="Moovby-Logo-on-White-bg" transform="translate(-277.000000, -171.000000)">
            <g id="section-1">
                <g id="moovby-logo-1" transform="translate(277.000000, 171.000000)">
                    <g id="moovby-wordmark" transform="translate(222.000000, 0.000000)" fill="#281E41">
                        <path d="M498.538462,44.9290207 C504.305073,42.2340946 510.87208,40.7368421 518,40.7368421 C543.455939,40.7368421 562,60.0868421 562,84.8684211 C562,109.480263 543.455939,129 518,129 C510.87208,129 504.305073,127.489614 498.538462,124.77938 L498.538462,127.302632 L474,127.302632 L474,0 L498.538462,0 L498.538462,44.9290207 Z M518,107.782895 C529.477318,107.782895 537.461538,97.9381579 537.461538,85.3776316 C537.461538,72.8171053 529.477318,62.8026316 518,62.8026316 C506.190007,62.8026316 498.538462,72.8171053 498.538462,85.3776316 C498.538462,97.9381579 506.190007,107.782895 518,107.782895 Z" id="Combined-Shape"></path>
                        <path d="M200,128 C174.375479,128 156,108.538462 156,84 C156,59.2923077 174.375479,40 200,40 C225.455939,40 244,59.2923077 244,84 C244,108.538462 225.455939,128 200,128 Z M200,106.846154 C211.477318,106.846154 219.461538,97.0307692 219.461538,84.5076923 C219.461538,71.9846154 211.477318,62 200,62 C188.190007,62 180.538462,71.9846154 180.538462,84.5076923 C180.538462,97.0307692 188.190007,106.846154 200,106.846154 Z" id="Combined-Shape"></path>
                        <path d="M310,128 C284.375479,128 266,108.538462 266,84 C266,59.2923077 284.375479,40 310,40 C335.455939,40 354,59.2923077 354,84 C354,108.538462 335.455939,128 310,128 Z M310,106.846154 C321.477318,106.846154 329.461538,97.0307692 329.461538,84.5076923 C329.461538,71.9846154 321.477318,62 310,62 C298.190007,62 290.538462,71.9846154 290.538462,84.5076923 C290.538462,97.0307692 298.190007,106.846154 310,106.846154 Z" id="Combined-Shape"></path>
                        <polygon id="Path" points="427.662338 42 408.415584 100.48 389.337662 42 363 42 396.766234 128 420.064935 128 454 42"></polygon>
                        <path d="M663.829918,42 L639.168033,42 L639.168033,91.1914894 C639.168033,100.042553 631.344262,107.021277 621.819672,107.021277 C612.805328,107.021277 605.831967,100.042553 605.831967,91.1914894 L605.831967,42 L581,42 L581,94.2553191 C581,113.489362 595.80723,127.856348 614.67623,128.808511 C624.639175,129.311258 631.484536,127.960829 639.168033,124.649007 L639.168033,127.106383 C639.168033,142.255319 629.983607,149.574468 618.247951,149.574468 C606.852459,149.574468 587.417526,143.298013 581,134.821192 L581,157.284768 C589.128866,164.490066 605.831967,170 617.907787,170 C645.971295,170 664,152.978723 664,127.106383 L663.829918,42 Z" id="Path"></path>
                        <g id="Group" transform="translate(0.000000, 40.000000)">
                            <path d="M39.9232897,0.0123018078 C39.5093234,0.00411508544 39.0926895,-2.58797549e-14 38.6734177,0 C38.2571549,2.57450819e-14 37.8587369,0.0375249435 37.4780311,0.109555504 C14.7068782,1.47953819 0.633921132,15.5594567 0.633921132,34.5230769 L0.633921132,88 L25.3984781,88 L25.3984781,37.5692308 C25.3984781,29.3294761 31.2732479,23.7118731 39.9232897,23.2197775 C48.5733315,23.7118731 54.4481013,29.3294761 54.4481013,37.5692308 L54.4481013,88 L79.2126582,88 L79.2126582,34.5230769 C79.2126582,15.5594567 65.1397012,1.47953819 42.3685482,0.109555504 C41.9878425,0.0375249435 41.5894244,2.57450819e-14 41.1731616,0 C40.7538899,-2.58797549e-14 40.337256,0.00411508544 39.9232897,0.0123018078 Z" id="Combined-Shape"></path>
                            <path d="M94.2017707,0.0123018078 C93.7878044,0.00411508544 93.3711705,-2.58797549e-14 92.9518987,0 C92.5356359,2.57450819e-14 92.1372179,0.0375249435 91.7565121,0.109555504 C68.9853592,1.47953819 54.9124021,15.5594567 54.9124021,34.5230769 L54.9124021,88 L79.6769591,88 L79.6769591,37.5692308 C79.6769591,29.3294761 85.5517289,23.7118731 94.2017707,23.2197775 C102.851813,23.7118731 108.726582,29.3294761 108.726582,37.5692308 L108.726582,88 L133.491139,88 L133.491139,34.5230769 C133.491139,15.5594567 119.418182,1.47953819 96.6470293,0.109555504 C96.2663235,0.0375249435 95.8679055,2.57450819e-14 95.4516427,0 C95.0323709,-2.58797549e-14 94.615737,0.00411508544 94.2017707,0.0123018078 Z" id="Combined-Shape"></path>
                        </g>
                    </g>
                    <g id="moovby-icon" transform="translate(0.000000, 22.000000)" fill="#01DA9B">
                        <g id="shape">
                            <rect id="Rectangle-Copy-7" opacity="0.5" transform="translate(97.016949, 63.000000) rotate(20.000000) translate(-97.016949, -63.000000) " x="81.4576271" y="1.78723404" width="31.1186441" height="122.425532" rx="15.559322"></rect>
                            <path d="M48.5084746,63.2288879 L31.040481,111.221806 L31.040481,111.221806 C28.1014416,119.29675 19.1728437,123.460224 11.0978993,120.521184 L11.0978993,120.521184 C3.02295498,117.582145 -1.14051861,108.653547 1.79852077,100.578603 L33.0273156,14.7781941 L33.0273156,14.7781941 C35.4303777,8.17583521 41.8376236,4.1884015 48.5084746,4.56015337 C55.1793256,4.1884015 61.5865714,8.17583521 63.9896335,14.7781941 L95.2184284,100.578603 L95.2184284,100.578603 C98.1574678,108.653547 93.9939942,117.582145 85.9190498,120.521184 L85.9190498,120.521184 C77.8441055,123.460224 68.9155076,119.29675 65.9764682,111.221806 L48.5084746,63.2288879 Z" id="Combined-Shape"></path>
                            <path d="M108.584857,5.15986929 L108.584857,5.15986929 C116.659801,2.22082991 125.588399,6.3843035 128.527438,14.4592478 L146.002657,62.4720171 C148.941697,70.5469615 144.778223,79.4755594 136.703279,82.4145988 L136.703279,82.4145988 C128.628334,85.3536382 119.699737,81.1901646 116.760697,73.1152202 L99.2854783,25.1024509 L99.2854783,25.1024509 C96.3464389,17.0275066 100.509912,8.09890867 108.584857,5.15986929 L108.584857,5.15986929 Z M146.440678,121.531915 C137.847502,121.531915 130.881356,114.730453 130.881356,106.340426 C130.881356,97.9503976 137.847502,91.1489362 146.440678,91.1489362 C155.033854,91.1489362 162,97.9503976 162,106.340426 C162,114.730453 155.033854,121.531915 146.440678,121.531915 Z" id="Combined-Shape"></path>
                        </g>
                    </g>
                </g>
            </g>
        </g>
    </g>
</svg>