<svg xmlns="http://www.w3.org/2000/svg" xmlns:xlink="http://www.w3.org/1999/xlink" width="130" height="32" viewBox="0 0 130 32">
  <defs>
    <clipPath id="clip-path">
      <path id="Path_39" data-name="Path 39" d="M11.027,4.734,2.238,13.113,0,10.717,11.043.186,11.217,0l.009.01L11.238,0l.173.186,11.043,10.53-2.241,2.4L16.694,9.755V6.8h-3.1L11.427,4.734l-.187-.2-.013.009-.012-.009ZM4.9,17.63v7.279H17.89V17.952L11.227,11.6Zm14.718-3.885-3.577-3.413V7.45H14.238V8.605L11.227,5.737l-8.4,8.008L.292,16.167,2.6,18.633l2.3-2.2L11.227,10.4l6.663,6.353,1.966,1.876,2.308-2.467ZM27.9,4.034v8.96h2.02v-2.56H31.7c2.278,0,3.584-1.2,3.584-3.291,0-1.981-1.306-3.11-3.584-3.11H27.9Zm2.02,1.677H31.6c1.13,0,1.768.5,1.768,1.5,0,1.024-.638,1.535-1.768,1.535H29.925Zm9.729.331a3.407,3.407,0,0,0-3.7,3.507,3.422,3.422,0,0,0,3.7,3.52,3.418,3.418,0,0,0,3.685-3.52A3.4,3.4,0,0,0,39.653,6.042Zm0,1.639a1.726,1.726,0,0,1,1.712,1.9,1.723,1.723,0,1,1-3.429,0A1.719,1.719,0,0,1,39.653,7.681Zm7.026,5.313V3.5H44.706v9.5Zm2.955-9.946a1.039,1.039,0,0,0-1.062,1.1,1.064,1.064,0,1,0,2.126,0A1.041,1.041,0,0,0,49.634,3.048Zm.988,9.946V6.108H48.651v6.886Zm4.837-6.952a3.343,3.343,0,0,0-3.53,3.534,3.319,3.319,0,0,0,3.506,3.494,3.383,3.383,0,0,0,3.057-1.521l-1.359-.924a1.779,1.779,0,0,1-1.6.806A1.683,1.683,0,0,1,53.9,9.564a1.667,1.667,0,0,1,1.637-1.843,1.9,1.9,0,0,1,1.575.728l1.331-.959A3.428,3.428,0,0,0,55.459,6.042Zm10.622.066H64.11l-1.623,4.736L60.68,6.108H58.647L61.5,12.854l-.195.382a.952.952,0,0,1-.907.615,1.33,1.33,0,0,1-.9-.371L58.672,14.9a2.771,2.771,0,0,0,1.868.663,2.552,2.552,0,0,0,2.521-1.805ZM31.617,15.887c-2.017,0-3.372,1-3.372,2.579,0,3.084,4.644,2.126,4.644,3.768,0,.537-.487.836-1.3.836a5.155,5.155,0,0,1-3.087-1.308l-.783,1.606a6.123,6.123,0,0,0,3.849,1.382c1.927,0,3.407-.922,3.407-2.627.013-3.137-4.63-2.239-4.63-3.846,0-.472.448-.709,1.108-.709a6.071,6.071,0,0,1,2.715.9l.756-1.633A6.215,6.215,0,0,0,31.617,15.887Zm8.454,7.021a2.214,2.214,0,0,1-.9.247c-.41.013-.647-.211-.647-.77V19.62h1.816V18.289H38.526V16.446H36.621v1.843h-.932V19.61h.932v3.1a1.932,1.932,0,0,0,2.106,2.064,3.568,3.568,0,0,0,1.743-.461Zm3.473-4.917H41.627v6.7h1.917V21.461c0-1.13.848-1.864,2.217-1.74v-1.8A2.435,2.435,0,0,0,43.544,19.2Zm6.138-.062a3.264,3.264,0,0,0-3.449,3.436,3.242,3.242,0,0,0,3.5,3.4,3.725,3.725,0,0,0,2.864-1.183L51.587,22.56a2.376,2.376,0,0,1-1.694.707,1.711,1.711,0,0,1-1.732-1.342h4.808C53.13,19.486,52.035,17.929,49.683,17.929Zm-1.56,2.863a1.578,1.578,0,0,1,1.572-1.459,1.4,1.4,0,0,1,1.48,1.459Zm8.991-2.863a3.262,3.262,0,0,0-3.448,3.436,3.242,3.242,0,0,0,3.5,3.4,3.726,3.726,0,0,0,2.863-1.183L59.019,22.56a2.379,2.379,0,0,1-1.692.707A1.705,1.705,0,0,1,55.6,21.925h4.8C60.562,19.486,59.466,17.929,57.114,17.929Zm-1.557,2.863a1.571,1.571,0,0,1,1.569-1.459,1.4,1.4,0,0,1,1.481,1.459Zm9.86,2.116a2.208,2.208,0,0,1-.895.247c-.413.013-.649-.211-.649-.77V19.62h1.818V18.289H63.874V16.446h-1.9v1.843h-.933V19.61h.933v3.1a1.93,1.93,0,0,0,2.1,2.064,3.552,3.552,0,0,0,1.742-.461Z"/>
    </clipPath>
    <clipPath id="clip-speedhome">
      <rect width="130" height="32"/>
    </clipPath>
  </defs>
  <g id="speedhome" clip-path="url(#clip-speedhome)">
    <g id="PolicyStreet" transform="translate(31.959 3.546)">
      <path id="Path_38" data-name="Path 38" d="M11.027,4.734,2.238,13.113,0,10.717,11.043.186,11.217,0l.009.01L11.238,0l.173.186,11.043,10.53-2.241,2.4L16.694,9.755V6.8h-3.1L11.427,4.734l-.187-.2-.013.009-.012-.009ZM4.9,17.63v7.279H17.89V17.952L11.227,11.6Zm14.718-3.885-3.577-3.413V7.45H14.238V8.605L11.227,5.737l-8.4,8.008L.292,16.167,2.6,18.633l2.3-2.2L11.227,10.4l6.663,6.353,1.966,1.876,2.308-2.467ZM27.9,4.034v8.96h2.02v-2.56H31.7c2.278,0,3.584-1.2,3.584-3.291,0-1.981-1.306-3.11-3.584-3.11H27.9Zm2.02,1.677H31.6c1.13,0,1.768.5,1.768,1.5,0,1.024-.638,1.535-1.768,1.535H29.925Zm9.729.331a3.407,3.407,0,0,0-3.7,3.507,3.422,3.422,0,0,0,3.7,3.52,3.418,3.418,0,0,0,3.685-3.52A3.4,3.4,0,0,0,39.653,6.042Zm0,1.639a1.726,1.726,0,0,1,1.712,1.9,1.723,1.723,0,1,1-3.429,0A1.719,1.719,0,0,1,39.653,7.681Zm7.026,5.313V3.5H44.706v9.5Zm2.955-9.946a1.039,1.039,0,0,0-1.062,1.1,1.064,1.064,0,1,0,2.126,0A1.041,1.041,0,0,0,49.634,3.048Zm.988,9.946V6.108H48.651v6.886Zm4.837-6.952a3.343,3.343,0,0,0-3.53,3.534,3.319,3.319,0,0,0,3.506,3.494,3.383,3.383,0,0,0,3.057-1.521l-1.359-.924a1.779,1.779,0,0,1-1.6.806A1.683,1.683,0,0,1,53.9,9.564a1.667,1.667,0,0,1,1.637-1.843,1.9,1.9,0,0,1,1.575.728l1.331-.959A3.428,3.428,0,0,0,55.459,6.042Zm10.622.066H64.11l-1.623,4.736L60.68,6.108H58.647L61.5,12.854l-.195.382a.952.952,0,0,1-.907.615,1.33,1.33,0,0,1-.9-.371L58.672,14.9a2.771,2.771,0,0,0,1.868.663,2.552,2.552,0,0,0,2.521-1.805ZM31.617,15.887c-2.017,0-3.372,1-3.372,2.579,0,3.084,4.644,2.126,4.644,3.768,0,.537-.487.836-1.3.836a5.155,5.155,0,0,1-3.087-1.308l-.783,1.606a6.123,6.123,0,0,0,3.849,1.382c1.927,0,3.407-.922,3.407-2.627.013-3.137-4.63-2.239-4.63-3.846,0-.472.448-.709,1.108-.709a6.071,6.071,0,0,1,2.715.9l.756-1.633A6.215,6.215,0,0,0,31.617,15.887Zm8.454,7.021a2.214,2.214,0,0,1-.9.247c-.41.013-.647-.211-.647-.77V19.62h1.816V18.289H38.526V16.446H36.621v1.843h-.932V19.61h.932v3.1a1.932,1.932,0,0,0,2.106,2.064,3.568,3.568,0,0,0,1.743-.461Zm3.473-4.917H41.627v6.7h1.917V21.461c0-1.13.848-1.864,2.217-1.74v-1.8A2.435,2.435,0,0,0,43.544,19.2Zm6.138-.062a3.264,3.264,0,0,0-3.449,3.436,3.242,3.242,0,0,0,3.5,3.4,3.725,3.725,0,0,0,2.864-1.183L51.587,22.56a2.376,2.376,0,0,1-1.694.707,1.711,1.711,0,0,1-1.732-1.342h4.808C53.13,19.486,52.035,17.929,49.683,17.929Zm-1.56,2.863a1.578,1.578,0,0,1,1.572-1.459,1.4,1.4,0,0,1,1.48,1.459Zm8.991-2.863a3.262,3.262,0,0,0-3.448,3.436,3.242,3.242,0,0,0,3.5,3.4,3.726,3.726,0,0,0,2.863-1.183L59.019,22.56a2.379,2.379,0,0,1-1.692.707A1.705,1.705,0,0,1,55.6,21.925h4.8C60.562,19.486,59.466,17.929,57.114,17.929Zm-1.557,2.863a1.571,1.571,0,0,1,1.569-1.459,1.4,1.4,0,0,1,1.481,1.459Zm9.86,2.116a2.208,2.208,0,0,1-.895.247c-.413.013-.649-.211-.649-.77V19.62h1.818V18.289H63.874V16.446h-1.9v1.843h-.933V19.61h.933v3.1a1.93,1.93,0,0,0,2.1,2.064,3.552,3.552,0,0,0,1.742-.461Z" fill="#0095da"/>
      <g id="Group_5" data-name="Group 5" clip-path="url(#clip-path)">
        <rect id="Rectangle_2" data-name="Rectangle 2" width="88.707" height="88.708" transform="translate(-11.313 -31.9)" fill="#0095da"/>
      </g>
    </g>
  </g>
</svg>
