<svg xmlns="http://www.w3.org/2000/svg" xmlns:xlink="http://www.w3.org/1999/xlink" width="130" height="32" viewBox="0 0 130 32">
  <defs>
    <clipPath id="clip-logo">
      <rect width="130" height="32"/>
    </clipPath>
  </defs>
  <g id="logo" clip-path="url(#clip-logo)">
    <g id="qoala" transform="translate(7.955 2.794)">
      <path id="path0" d="M40.81,285.748a4.233,4.233,0,0,0-1.289.3,4.145,4.145,0,0,1-1.006.289,2.064,2.064,0,0,0-.864.3A3.314,3.314,0,0,1,36.9,287a1.6,1.6,0,0,0-.587.318,2.144,2.144,0,0,1-.576.369,1.4,1.4,0,0,0-.467.295,1.211,1.211,0,0,1-.313.276,8.518,8.518,0,0,0-1.911,2.063.866.866,0,0,1-.273.419,1.714,1.714,0,0,0-.38.59,2.065,2.065,0,0,1-.309.571,2.684,2.684,0,0,0-.352.841,4.331,4.331,0,0,1-.334.909c-.2.34-.224.495-.371,2.449a13.56,13.56,0,0,0,.4,4.961,3.589,3.589,0,0,1,.34.9,1.864,1.864,0,0,0,.316.731,1.843,1.843,0,0,1,.324.614,1.7,1.7,0,0,0,.375.635.883.883,0,0,1,.262.363,18.46,18.46,0,0,0,2.335,2.37,2.092,2.092,0,0,1,.442.385.537.537,0,0,0,.324.212,2.2,2.2,0,0,1,.653.32,3.015,3.015,0,0,0,.821.381,2.17,2.17,0,0,1,.657.28,3.955,3.955,0,0,0,1.374.4,9.876,9.876,0,0,1,1.271.279c.429.187,2.511.258,7.647.26,5.524,0,5.765-.01,5.932-.306a11.13,11.13,0,0,0,0-3.628l-.165-.321h-1.97l-.094-.285c-.084-.255-.065-.316.184-.582a1.1,1.1,0,0,0,.278-.412.875.875,0,0,1,.249-.365,1.785,1.785,0,0,0,.369-.718,1.948,1.948,0,0,1,.251-.614,2.119,2.119,0,0,0,.414-1.165,4.932,4.932,0,0,1,.238-1.079,9.234,9.234,0,0,0-.02-4.8,7.111,7.111,0,0,1-.223-1.088,2.3,2.3,0,0,0-.355-1.088,2.422,2.422,0,0,1-.328-.758,1.03,1.03,0,0,0-.224-.5,2.007,2.007,0,0,1-.337-.535,2.876,2.876,0,0,0-.43-.661c-.142-.151-.44-.492-.663-.757a9.337,9.337,0,0,0-.887-.9c-.265-.227-.585-.515-.712-.639a3.091,3.091,0,0,0-.587-.417,2.736,2.736,0,0,1-.484-.318,1.312,1.312,0,0,0-.469-.219,2.367,2.367,0,0,1-.656-.324,2.192,2.192,0,0,0-1.238-.413,1.405,1.405,0,0,1-.55-.148,13.682,13.682,0,0,0-5.287-.4M89.5,287.186c-.289.212-.31.935-.312,10.981l0,10.173.212.2a5.378,5.378,0,0,0,3.161-.013l.2-.212V298.108c0-10.206-.019-10.835-.314-10.949a13.772,13.772,0,0,0-2.944.026m-44.893,2.759a4.469,4.469,0,0,0,.9.293,1.821,1.821,0,0,1,1.039.47.644.644,0,0,0,.356.171,1.349,1.349,0,0,1,.555.368,9.536,9.536,0,0,1,1.252,1.27,4.37,4.37,0,0,0,.366.6,2.317,2.317,0,0,1,.366.712,2.841,2.841,0,0,0,.3.743l.3.57v4.316l-.3.568a2.655,2.655,0,0,0-.3.79,1.424,1.424,0,0,1-.366.645,1.942,1.942,0,0,0-.366.526,7.439,7.439,0,0,1-1.5,1.443.789.789,0,0,0-.337.259,1.81,1.81,0,0,1-.753.425,1.409,1.409,0,0,0-.525.233c0,.555-4.951.591-5.77.043a4.818,4.818,0,0,0-.812-.4,1.675,1.675,0,0,1-.623-.372.423.423,0,0,0-.264-.188c-.114,0-.425-.3-1.437-1.374a2.038,2.038,0,0,1-.341-.549,3.849,3.849,0,0,0-.384-.682,1.37,1.37,0,0,1-.259-.615,4.574,4.574,0,0,0-.248-.967,6.853,6.853,0,0,1-.043-3.686,5.846,5.846,0,0,0,.265-1.037,1.771,1.771,0,0,1,.267-.736,4.257,4.257,0,0,0,.362-.608,7.435,7.435,0,0,1,1.07-1.456,4.6,4.6,0,0,0,.481-.382,2.594,2.594,0,0,1,.612-.416A2.255,2.255,0,0,0,39,290.6a1.87,1.87,0,0,1,.73-.319,4.067,4.067,0,0,0,.824-.249,4.2,4.2,0,0,1,2.294-.313,3.687,3.687,0,0,1,1.763.226m34.275,4.377c-.151.022-.543.1-.87.17a19.069,19.069,0,0,1-2.155.378c-.9.094-1.087.483-.641,1.313a2.707,2.707,0,0,1,.324,1.245c0,.723.368.834,1.518.459,1.423-.464,3.569-.541,4.18-.149a6.481,6.481,0,0,0,.576.324c.784.373,1.042.945,1.049,2.323.005,1.078-.164,1.134-1,.327a2.091,2.091,0,0,0-.921-.64,3.509,3.509,0,0,1-.781-.3,6.138,6.138,0,0,0-3.526-.021,5.614,5.614,0,0,1-.833.343,2.026,2.026,0,0,0-.687.377,2.565,2.565,0,0,1-.449.345,1.029,1.029,0,0,0-.335.4,2.7,2.7,0,0,1-.287.457c-.737.841-.786,5.237-.058,5.237a1.149,1.149,0,0,1,.257.41,1.6,1.6,0,0,0,.445.571,1.656,1.656,0,0,1,.368.317,1.916,1.916,0,0,0,.641.349,4.029,4.029,0,0,1,.8.4A7.8,7.8,0,0,0,80,309a2.744,2.744,0,0,1,.652-.325,4.026,4.026,0,0,0,1.578-1.271c0-.16.194-.218.389-.117.12.062.16.2.16.54,0,.859.088.909,1.573.909,1.369,0,2-.1,2.141-.35a92.268,92.268,0,0,0-.17-10.073,2.557,2.557,0,0,1-.218-.779,1.743,1.743,0,0,0-.407-.953,2.522,2.522,0,0,1-.354-.569,5.309,5.309,0,0,0-2.053-1.2,8.234,8.234,0,0,1-1.036-.281,12.471,12.471,0,0,0-3.368-.207m21.591.037a3.638,3.638,0,0,0-.655.132,9.477,9.477,0,0,1-1.887.327c-.37,0-1.01.306-.925.442a8.311,8.311,0,0,1,.143,1.029c.188,1.841.453,2.074,1.819,1.6,1.569-.548,3.583-.553,4.413-.01a2.358,2.358,0,0,0,.576.273.522.522,0,0,1,.354.313c.055.137.179.4.276.589.544,1.051.346,3.077-.208,2.137a.938.938,0,0,0-.348-.368,1.926,1.926,0,0,1-.47-.327,2.266,2.266,0,0,0-.725-.4,5.576,5.576,0,0,1-.828-.341,6.194,6.194,0,0,0-3.589.035,2.618,2.618,0,0,1-.707.252,4.46,4.46,0,0,0-1.409,1.122,5.49,5.49,0,0,0-.69,1.1l-.4.8.03,1.4c.028,1.324.042,1.419.266,1.766a3.792,3.792,0,0,1,.338.661,6.075,6.075,0,0,0,1.76,1.737,5.127,5.127,0,0,1,.755.317,5.775,5.775,0,0,0,3.5.045,4.462,4.462,0,0,1,.7-.323,3.323,3.323,0,0,0,1.189-.883,2.152,2.152,0,0,1,.458-.35.985.985,0,0,0,.359-.383l.137-.272.03.412a2.345,2.345,0,0,1-.082.753c-.217.659.231.826,2.111.786,1.76-.037,1.576.632,1.537-5.614l-.033-5.129-.237-.412a4.772,4.772,0,0,1-.348-.76c-.122-.386-1-1.346-1.23-1.346-.08,0-.145-.04-.145-.089,0-.169-.423-.366-1.2-.556-.426-.1-.959-.254-1.186-.332a13.184,13.184,0,0,0-3.457-.121m-37.8.471a2.84,2.84,0,0,0-1.465.445,1.31,1.31,0,0,1-.532.223,1.639,1.639,0,0,0-.687.365,2.548,2.548,0,0,1-.442.338,4.489,4.489,0,0,0-.949.889,1.8,1.8,0,0,1-.366.418,1.447,1.447,0,0,0-.368.454,1.9,1.9,0,0,1-.273.506,2.355,2.355,0,0,0-.329.733,6.114,6.114,0,0,1-.3.928,7.246,7.246,0,0,0-.038,3.755c.112.277.266.738.344,1.024a2.505,2.505,0,0,0,.357.779,1.735,1.735,0,0,1,.285.487,1.352,1.352,0,0,0,.379.487.91.91,0,0,1,.309.379c0,.066.1.183.215.261a4.985,4.985,0,0,1,.5.4,3.48,3.48,0,0,0,1.371.911,2.8,2.8,0,0,1,.71.331c.754.554,5.378.55,6.146-.005a4.126,4.126,0,0,1,.792-.385,1.487,1.487,0,0,0,.621-.37.325.325,0,0,1,.236-.177,9.166,9.166,0,0,0,1.776-1.794,2.22,2.22,0,0,1,.309-.57,2.67,2.67,0,0,0,.371-.811,10.289,10.289,0,0,1,.308-1.084,5.955,5.955,0,0,0,0-3.389,9.762,9.762,0,0,1-.308-1.1,1.777,1.777,0,0,0-.271-.647,3.412,3.412,0,0,1-.344-.6,1.5,1.5,0,0,0-.375-.511c-.132-.1-.24-.219-.24-.254a5.386,5.386,0,0,0-1.094-1.053,1.1,1.1,0,0,1-.367-.271,2.088,2.088,0,0,0-.731-.406,2.826,2.826,0,0,1-.724-.334c-.51-.377-3.118-.566-4.823-.35m3.574,3.674a2.988,2.988,0,0,0,.664.343.1.1,0,0,1,.113.088,1.524,1.524,0,0,0,.366.427,1.2,1.2,0,0,1,.366.49,1.175,1.175,0,0,0,.23.462,3.828,3.828,0,0,1,.067,3.379,2.313,2.313,0,0,0-.269.512,3.189,3.189,0,0,1-1.167,1.2c-.155.074-.446.226-.647.338a5.523,5.523,0,0,1-3.053.019c-.168-.1-.425-.25-.572-.332a4.172,4.172,0,0,1-1.24-1.2,5.012,5.012,0,0,0-.346-.558c-.174-.236-.192-.383-.192-1.615V300.7l.3-.415a1.931,1.931,0,0,0,.3-.518,3.918,3.918,0,0,1,1.179-1.065,1.441,1.441,0,0,0,.384-.239c.27-.27.68-.342,1.826-.322l1.145.02.551.343m14.625,3.681a1.392,1.392,0,0,1,.442.284.945.945,0,0,0,.332.23c.45.171.715,1.221.541,2.147a2.119,2.119,0,0,1-1.122,1.2,1.871,1.871,0,0,0-.472.194,2.009,2.009,0,0,1-1.607.056c-1.374-.67-1.264-.582-1.487-1.173-.33-.873-.125-2.24.357-2.386a1.391,1.391,0,0,0,.433-.275,3.186,3.186,0,0,1,2.583-.275m22.168.213a1.223,1.223,0,0,0,.4.3,3.2,3.2,0,0,1,.815,1.324,2.266,2.266,0,0,1-1.157,1.953,4.732,4.732,0,0,0-.744.3,1.8,1.8,0,0,1-1.52.01,3.4,3.4,0,0,0-.577-.227,2.029,2.029,0,0,1-.656-.5c-.966-1.033-.611-2.388.869-3.317a3.137,3.137,0,0,1,2.567.167" transform="translate(4.369 -283.133)" fill="#1251a3" fill-rule="evenodd"/>
      <path id="path1" d="M77.915,12a.661.661,0,0,0-.329.12.639.639,0,0,1-.346.117c-.356.045-.478.082-.478.142s-.231.161-.453.2c-.088.016-.152.055-.163.1s-.118.107-.265.162-.256.122-.27.166a.2.2,0,0,1-.144.1.415.415,0,0,0-.206.142.586.586,0,0,1-.211.166.484.484,0,0,0-.178.124c-.065.09-.122.092-.216.006a1.214,1.214,0,0,0-.456-.12,1.232,1.232,0,0,1-.542-.158c-.148-.1-.216-.11-.939-.164-.429-.032-.871-.075-.982-.1a3.578,3.578,0,0,0-1.043,0c-.127.023-.583.066-1.013.095-.716.048-.8.062-.99.161a1.619,1.619,0,0,1-.558.151c-.244.03-.369.064-.413.114-.061.069-.118.093-.545.223a1.171,1.171,0,0,1-.987-.217.633.633,0,0,0-.294-.118,1.028,1.028,0,0,1-.371-.15,1.024,1.024,0,0,0-.446-.158.86.86,0,0,1-.4-.139c-.073-.069-.192-.1-.612-.148a1.865,1.865,0,0,1-.663-.149,8,8,0,0,0-2.5,0,1.582,1.582,0,0,1-.461.13c-.377.054-.391.063-.463.306-.136.46,0,.756.363.8a.869.869,0,0,1,.315.1.786.786,0,0,0,.272.1c.221.037.29.121.3.366a1.358,1.358,0,0,1-.207.744.309.309,0,0,0-.011.451c.15.182.16.188.416.239a1.063,1.063,0,0,1,.325.117.8.8,0,0,0,.273.1c.275.047.29.079.29.657V17.3l.179.171c.218.209.478.253,1.1.184,1.055-.116,1.017-.141.99.66a11.176,11.176,0,0,0,.129,2.236,1.15,1.15,0,0,1,.2.56c.021.16.052.229.123.275a.456.456,0,0,1,.146.264.463.463,0,0,0,.164.283.257.257,0,0,1,.113.16.358.358,0,0,0,.113.189,3.747,3.747,0,0,1,.258.29,6.865,6.865,0,0,0,.665.676.364.364,0,0,0,.135.091.638.638,0,0,1,.181.144,1.092,1.092,0,0,0,.282.2.414.414,0,0,1,.177.13.579.579,0,0,0,.261.143c.145.046.231.1.247.148s.088.09.264.125a.737.737,0,0,1,.379.173c.077.069.205.175.285.234l.146.108-.112.073a.91.91,0,0,1-.777-.013.434.434,0,0,0-.289-.116c-.27-.036-.475-.117-.507-.2a.49.49,0,0,0-.244-.126.493.493,0,0,1-.244-.126.6.6,0,0,0-.237-.156.671.671,0,0,1-.257-.177.154.154,0,0,0-.114-.082.76.76,0,0,1-.265-.161.842.842,0,0,0-.249-.161c-.03,0-.1-.062-.159-.137a.488.488,0,0,0-.2-.162.272.272,0,0,1-.15-.135.22.22,0,0,0-.147-.124.269.269,0,0,1-.161-.131c-.037-.065-.091-.118-.12-.118a.8.8,0,0,1-.24-.182.725.725,0,0,0-.251-.182c-.09,0-.318.254-.37.412a.571.571,0,0,1-.144.219.6.6,0,0,0-.155.32.571.571,0,0,1-.119.271c-.084.047-.13.173-.182.5a.587.587,0,0,1-.121.332c-.058.048-.09.153-.121.389a3.784,3.784,0,0,1-.2,1.049,17.931,17.931,0,0,0,0,3.289,2.282,2.282,0,0,1,.179.841.672.672,0,0,0,.12.406.878.878,0,0,1,.14.382.716.716,0,0,0,.159.394.564.564,0,0,1,.139.33.445.445,0,0,0,.144.315.64.64,0,0,1,.164.294.426.426,0,0,0,.116.224.545.545,0,0,1,.142.231.943.943,0,0,0,.188.3.356.356,0,0,1,.116.187.334.334,0,0,0,.136.182.487.487,0,0,1,.161.2.187.187,0,0,0,.1.125.17.17,0,0,1,.1.1,1.505,1.505,0,0,0,.224.291,1.538,1.538,0,0,1,.224.29c.013.039.045.071.073.071a.566.566,0,0,1,.195.151,4.544,4.544,0,0,0,.375.333c.126.1.279.229.338.287a1.229,1.229,0,0,0,.243.175.33.33,0,0,1,.155.143c.012.045.071.083.152.1a.7.7,0,0,1,.278.162.723.723,0,0,0,.261.162.423.423,0,0,1,.195.116.89.89,0,0,0,.328.166c.16.048.258.1.272.148s.081.081.213.1a.933.933,0,0,1,.529.216.29.29,0,0,0,.155.086,1.678,1.678,0,0,1,.71.151c.128.115.189.129.769.174a2.231,2.231,0,0,1,.692.12,2.288,2.288,0,0,0,1.236,0,1.548,1.548,0,0,1,.424-.121c.348-.053.482-.108.509-.21a.107.107,0,0,1,.107-.076c.118,0,.243-.071.243-.138,0-.03.064-.1.141-.162a.347.347,0,0,0,.141-.185.414.414,0,0,1,.121-.2,1,1,0,0,0,.121-.137c0-.007.018-.109.04-.226.057-.3.03-.322-.419-.323a1.128,1.128,0,0,1-.578-.1,2.84,2.84,0,0,0-.544-.161.782.782,0,0,1-.4-.14.5.5,0,0,0-.2-.121,1.042,1.042,0,0,1-.3-.186.578.578,0,0,0-.225-.141c-.037,0-.125-.073-.2-.161s-.155-.161-.186-.161-.067-.036-.081-.08a.593.593,0,0,0-.157-.192.772.772,0,0,1-.187-.253.828.828,0,0,0-.169-.248.353.353,0,0,1-.113-.194.4.4,0,0,0-.147-.3.336.336,0,0,1-.08-.191c-.045-.284-.257-.316-.526-.08a.433.433,0,0,1-.627-.008.974.974,0,0,0-.208-.172c-.066-.033-.092-.091-.108-.244-.031-.3-.038-.3-.439-.3-.348,0-.488-.052-.488-.181a.609.609,0,0,0-.1-.166c-.1-.131-.1-.134-.031-.28l.07-.147-.113-.1c-.1-.085-.138-.094-.328-.072s-.221.015-.259-.056a.255.255,0,0,0-.145-.107c-.227-.057-.316-.579-.118-.689a1.25,1.25,0,0,0,.2-.173.486.486,0,0,1,.319-.158.6.6,0,0,0,.326-.146c.121-.106.184-.125.549-.168a2.184,2.184,0,0,0,.55-.12,5.085,5.085,0,0,1,1.53-.063c.353.019.488-.048.491-.246,0-.035.045-.084.1-.109a.412.412,0,0,0,.16-.163.293.293,0,0,1,.141-.139.307.307,0,0,0,.141-.167.362.362,0,0,1,.123-.17.466.466,0,0,0,.145-.159.419.419,0,0,1,.16-.159.173.173,0,0,0,.1-.1.242.242,0,0,1,.141-.116.721.721,0,0,0,.237-.175l.12-.134h2.083l.053-.111a.452.452,0,0,1,.172-.173c.065-.034.119-.089.119-.122s.061-.1.135-.14a.513.513,0,0,0,.181-.18c.025-.055.076-.1.113-.1a.523.523,0,0,0,.216-.161.631.631,0,0,1,.275-.186.207.207,0,0,0,.148-.1.368.368,0,0,1,.283-.163.54.54,0,0,0,.2-.127c.188-.165.688-.221.8-.089.036.042.129.146.207.233.168.186.173.224.047.374a.763.763,0,0,0-.123.2.533.533,0,0,1-.147.189c-.232.2-.229.345.008.4a.661.661,0,0,1,.218,1.1.488.488,0,0,0-.143.216c0,.138.087.324.164.348a.4.4,0,0,1,.137.346,1.526,1.526,0,0,0,.21,1.166.58.58,0,0,1,.135.182c0,.023.037-.018.081-.091a.439.439,0,0,1,.151-.159.311.311,0,0,0,.12-.095c.1-.142.414-.125.414.021a.469.469,0,0,0,.131.187.746.746,0,0,1,.046.81.845.845,0,0,0-.13.328.5.5,0,0,1-.163.333.448.448,0,0,0-.145.247.41.41,0,0,1-.13.228.772.772,0,0,0-.177.256c-.041.1-.1.175-.133.175s-.078.057-.1.127a.861.861,0,0,1-.186.264.517.517,0,0,0-.141.188.5.5,0,0,1-.138.184.6.6,0,0,0-.163.269.338.338,0,0,1-.1.188.668.668,0,0,0-.145.267.617.617,0,0,1-.144.26.584.584,0,0,0-.14.254.434.434,0,0,1-.163.26.368.368,0,0,0-.144.209.461.461,0,0,1-.116.206.783.783,0,0,0-.159.22.791.791,0,0,1-.159.221.6.6,0,0,0-.138.18.606.606,0,0,1-.167.2c-.055.036-.1.088-.1.115a7.158,7.158,0,0,1-1.331,1.279.242.242,0,0,0-.142.116.388.388,0,0,1-.154.152.32.32,0,0,0-.12.478,16.421,16.421,0,0,0,3.078.055c.7-.115.77-.131.808-.2a.362.362,0,0,1,.18-.119,5.093,5.093,0,0,0,1.054-1.017c.032-.062.083-.113.113-.113s.087-.05.127-.11a3.287,3.287,0,0,1,.327-.359,1.424,1.424,0,0,0,.255-.292c0-.024.056-.072.124-.107a.383.383,0,0,0,.165-.181.241.241,0,0,1,.115-.14.425.425,0,0,0,.159-.167.393.393,0,0,1,.164-.164.108.108,0,0,0,.08-.1.574.574,0,0,1,.159-.239.794.794,0,0,0,.185-.285.243.243,0,0,1,.124-.166.288.288,0,0,0,.138-.2.5.5,0,0,1,.132-.225A.607.607,0,0,0,81.48,34a.723.723,0,0,1,.166-.269.458.458,0,0,0,.139-.263.343.343,0,0,1,.141-.245.437.437,0,0,0,.161-.278.631.631,0,0,1,.139-.277.593.593,0,0,0,.14-.327c.034-.173.075-.266.137-.309s.1-.127.135-.426a1.045,1.045,0,0,1,.155-.522c.1-.138.114-.218.149-.634a2.548,2.548,0,0,1,.1-.578c.129-.236.146-.336.183-1.079a8.208,8.208,0,0,1,.166-1.65,4.735,4.735,0,0,0,.071-.848c.025-.809.055-.9.288-.9.341,0,.459.172.493.717a4.078,4.078,0,0,0,.11.7,9.667,9.667,0,0,1,.06,2.522,6.527,6.527,0,0,0-.18,1.3,2.243,2.243,0,0,1-.164,1,1.106,1.106,0,0,0-.12.522c-.046.435-.085.569-.188.648a1.084,1.084,0,0,0-.135.549.468.468,0,0,1-.118.293.863.863,0,0,0-.161.4.734.734,0,0,1-.139.353.843.843,0,0,0-.145.337c-.035.164-.077.251-.143.294a.325.325,0,0,0-.121.248.513.513,0,0,1-.146.3.755.755,0,0,0-.163.3.428.428,0,0,1-.139.242.585.585,0,0,0-.159.26.668.668,0,0,1-.133.249.49.49,0,0,0-.168.283c0,.029-.051.083-.114.12a.391.391,0,0,0-.163.23.4.4,0,0,1-.118.2.552.552,0,0,0-.148.192.928.928,0,0,1-.173.235.689.689,0,0,0-.144.182.334.334,0,0,1-.136.139.4.4,0,0,0-.111.391c.032.052.406,0,.52-.066a2.705,2.705,0,0,1,.525-.124c.334-.056.463-.095.525-.159a1.211,1.211,0,0,1,.262-.178.813.813,0,0,0,.232-.166.32.32,0,0,1,.17-.1.465.465,0,0,0,.22-.16.477.477,0,0,1,.2-.158.249.249,0,0,0,.142-.126c.026-.056.07-.1.1-.1.055,0,.106-.046.649-.591.566-.568.673-.685.673-.733,0-.025.044-.075.1-.11a.725.725,0,0,0,.18-.2c.045-.076.109-.138.143-.138s.073-.045.086-.1a.47.47,0,0,1,.138-.2,1,1,0,0,0,.2-.252,1.1,1.1,0,0,1,.182-.249.477.477,0,0,0,.125-.206.244.244,0,0,1,.119-.157.235.235,0,0,0,.121-.186.591.591,0,0,1,.143-.259.732.732,0,0,0,.159-.277.632.632,0,0,1,.142-.253.686.686,0,0,0,.145-.288.8.8,0,0,1,.144-.3c.1-.1.111-.144.158-.439a.536.536,0,0,1,.12-.251.689.689,0,0,0,.143-.409c.049-.321.093-.444.185-.516a1.926,1.926,0,0,0,.136-.787,1,1,0,0,1,.106-.444,16.684,16.684,0,0,0,.042-4.593,2.049,2.049,0,0,1-.183-.892,1.025,1.025,0,0,0-.091-.424c-.1-.083-.153-.219-.193-.54-.032-.254-.061-.343-.138-.42a.527.527,0,0,1-.125-.276c-.052-.342-.07-.4-.139-.45-.1-.072-.121-.119-.166-.352a.6.6,0,0,0-.159-.327.512.512,0,0,1-.146-.3c-.018-.122-.05-.187-.1-.2a.652.652,0,0,1-.2-.405c0-.033-.044-.081-.1-.105s-.119-.11-.164-.248a.883.883,0,0,0-.184-.314.368.368,0,0,1-.118-.172c0-.034-.052-.1-.116-.144a.566.566,0,0,1-.166-.2c-.028-.067-.075-.122-.105-.122s-.083-.054-.117-.121a2.176,2.176,0,0,0-.243-.324,1.106,1.106,0,0,1-.181-.24c0-.02-.05-.061-.111-.09a.222.222,0,0,1-.124-.146.242.242,0,0,0-.153-.159.308.308,0,0,1-.163-.159c-.013-.051-.048-.093-.078-.093s-.105-.064-.167-.141-.131-.141-.153-.141a1.192,1.192,0,0,1-.259-.2,1.082,1.082,0,0,0-.265-.2c-.025,0-.086-.054-.135-.12a.417.417,0,0,0-.179-.143.31.31,0,0,1-.155-.136.287.287,0,0,0-.188-.138.6.6,0,0,1-.245-.144.614.614,0,0,0-.237-.144.317.317,0,0,1-.185-.143c-.055-.092-.108-.123-.252-.145a.322.322,0,0,1-.244-.121.576.576,0,0,0-.27-.161.879.879,0,0,1-.3-.162.52.52,0,0,0-.242-.122c-.19-.034-.357-.117-.385-.192-.013-.035-.114-.068-.257-.086a.731.731,0,0,1-.417-.138c-.078-.093-.2-.137-.521-.185-.585-.088-.826-.463-.42-.655a.472.472,0,0,0-.014-.777.415.415,0,0,1,.017-.706c.094-.044.171-.1.171-.131s.059-.076.132-.106c.259-.108.428-.427.272-.511a.157.157,0,0,1-.081-.121c0-.159-.665-.216-1.348-.117m-2.388,4.888c.077.072.19.169.251.216.1.078.111.108.112.363,0,.415-.025.477-.24.559a.578.578,0,0,0-.232.147c-.063.1-.334.1-.443.006a1.293,1.293,0,0,0-.245-.151c-.111-.054-.172-.111-.18-.172a.2.2,0,0,0-.09-.132c-.223-.119-.18-.388.11-.691.317-.331.7-.388.957-.145m-3.515-.01a.349.349,0,0,0,.194.107.671.671,0,0,1,.409.213.463.463,0,0,0,.16.126.484.484,0,0,1,.18.186.641.641,0,0,0,.164.2.473.473,0,0,1,.138.23.872.872,0,0,0,.168.3c.1.11.124.173.152.452a.919.919,0,0,0,.116.437c.16.218.147.918-.019,1.012a.542.542,0,0,0-.092.253,1.326,1.326,0,0,1-.792.823.485.485,0,0,0-.237.12c-.08.208-1.236.2-1.383-.012a.476.476,0,0,0-.212-.12.3.3,0,0,1-.185-.122.242.242,0,0,0-.12-.118.243.243,0,0,1-.123-.166.2.2,0,0,0-.1-.147c-.1-.033-.143-.115-.2-.424a.784.784,0,0,0-.135-.355,2.765,2.765,0,0,1,0-1.5.99.99,0,0,0,.132-.336c.06-.317.077-.355.182-.395a.219.219,0,0,0,.123-.149c.035-.145.09-.213.172-.213.036,0,.09-.054.119-.12a.224.224,0,0,1,.189-.145.789.789,0,0,0,.267-.122c.179-.132.644-.143.732-.016m-4.07.6a.435.435,0,0,0,.208.1.3.3,0,0,1,.207.135,1.378,1.378,0,0,0,.181.218c.17.163.144.719-.034.719a.051.051,0,0,0-.054.048c0,.06-.161.235-.217.235-.023,0-.082.05-.13.111-.086.108-.1.111-.5.111H67.2l-.1-.131c-.056-.072-.128-.131-.159-.131-.088,0-.143-.143-.168-.439a.738.738,0,0,1,.525-.886.359.359,0,0,0,.2-.106c.036-.093.358-.082.446.016" transform="translate(-57.884 -11.748)" fill="#f48425" fill-rule="evenodd"/>
    </g>
  </g>
</svg>
