<svg xmlns="http://www.w3.org/2000/svg" xmlns:xlink="http://www.w3.org/1999/xlink" width="130" height="32" viewBox="0 0 130 32">
  <defs>
    <clipPath id="clip-logo">
      <rect width="130" height="32"/>
    </clipPath>
  </defs>
  <g id="logo" clip-path="url(#clip-logo)">
    <rect id="image0" width="140" height="140" transform="translate(-5 -53)" fill="none"/>
    <g id="QUILL" transform="translate(15 -1.5)">
      <g id="Group_40" data-name="Group 40" transform="translate(0 5.5)">
        <path id="Path_146" data-name="Path 146" d="M12.383,5.5A12.383,12.383,0,1,0,24.767,17.883,12.4,12.4,0,0,0,12.383,5.5Zm11.58,12.383A11.58,11.58,0,1,1,12.383,6.3,11.541,11.541,0,0,1,23.963,17.883Z" transform="translate(0 -5.5)" fill="#6f6f6f"/>
        <path id="Path_147" data-name="Path 147" d="M14.863,13v.4h0a7,7,0,0,1,6.961,6.961h.4A7.342,7.342,0,0,0,14.863,13h0m0,14.325A7,7,0,0,1,7.9,20.363H7.5a7.342,7.342,0,0,0,7.363,7.363" transform="translate(-2.48 -7.98)" fill="#6f6f6f"/>
        <g id="Group_39" data-name="Group 39" transform="translate(3.481 1.473)">
          <path id="W_61_" d="M26.74,14.282a4.69,4.69,0,0,1,.535.669l2.477-1.606a4.72,4.72,0,0,1-.469-.6l-1.606,1.071-.134.067.067-.134.669-1.406-.469-.469-1.406.669-.134.067.067-.134,1.071-1.606a4.719,4.719,0,0,0-.6-.469L25.2,12.877c.2.134.469.4.669.535l1.473-.8.067-.067-.067.067Z" transform="translate(-11.813 -8.593)" fill="#6f6f6f"/>
          <path id="M_61_" d="M17.975,10.177l.669-1.54.067-.134v.134l.067,2.075c.268,0,.469.067.736.067l-.134-3.012a5.066,5.066,0,0,0-1-.067l-.669,1.673v0L17.038,7.7c-.335,0-.669.067-1,.067L15.9,10.779a2.746,2.746,0,0,1,.736-.067V8.637l.669,1.54Z" transform="translate(-8.738 -7.7)" fill="#6f6f6f"/>
          <path id="B_x5F_22d_61_" d="M8.882,13.8c.4-.4.6-.87.2-1.339a.73.73,0,0,0-.87-.2h0a.648.648,0,0,0-.268-.736.521.521,0,0,0-.535-.134c-.4.067-.669.268-1.406,1.138a9.994,9.994,0,0,0-.8.937L7.342,15.47C8.011,14.667,8.346,14.4,8.882,13.8ZM6.07,13.328a11.62,11.62,0,0,1,1.071-1.2c.067-.067.134-.134.2-.134.134-.067.268.067.335.2a.951.951,0,0,1-.134.4c-.2.268-1.071,1.138-1.071,1.138Zm.87.8s.8-.87,1.071-1.138c.134-.134.2-.2.268-.2a.2.2,0,0,1,.268,0,.348.348,0,0,1,.134.268.569.569,0,0,1-.2.335c-.134.134-1.071,1.138-1.071,1.138Z" transform="translate(-5.2 -8.91)" fill="#6f6f6f"/>
        </g>
        <path id="Path_148" data-name="Path 148" d="M14.863,13v7.363H7.5A7.342,7.342,0,0,1,14.863,13Z" transform="translate(-2.48 -7.98)" fill="#0066b1"/>
        <path id="Path_149" data-name="Path 149" d="M25.863,24A7.342,7.342,0,0,1,18.5,31.363V24Z" transform="translate(-6.117 -11.617)" fill="#0066b1"/>
      </g>
      <g id="Group_41" data-name="Group 41" transform="translate(35.878 7.709)">
        <path id="Path_150" data-name="Path 150" d="M55.706,16.7a8.933,8.933,0,0,0,1.74.736l3.815.937V16.9l-1.406-.335a2.229,2.229,0,0,0,.736-.6,4.563,4.563,0,0,0,.736-2.945A5.25,5.25,0,0,0,60.593,10a3.172,3.172,0,0,0-2.878-1.2c-1.807,0-2.477.535-3.012,1.406a5.424,5.424,0,0,0-.6,2.878C54.234,14.155,54.368,15.828,55.706,16.7Zm3.548-1.673a1.535,1.535,0,0,1-1.406.535,1.7,1.7,0,0,1-1.54-.6,3.722,3.722,0,0,1-.335-2.008,4.511,4.511,0,0,1,.335-2.008c.335-.535.8-.6,1.54-.6a1.508,1.508,0,0,1,1.473.669,3.756,3.756,0,0,1,.4,1.941A3.787,3.787,0,0,1,59.254,15.025Z" transform="translate(-53.765 -8.8)" fill="#6f6f6f"/>
        <path id="Path_151" data-name="Path 151" d="M70.081,16.617a4.2,4.2,0,0,1-1.071.134.818.818,0,0,1-.6-.2c-.134-.134-.134-.469-.134-.87V12.4H66.6v3.347a2.6,2.6,0,0,0,.535,1.941,2.188,2.188,0,0,0,1.673.6,12.814,12.814,0,0,0,2.878-.469h.067V12.4H70.081Z" transform="translate(-57.898 -9.99)" fill="#6f6f6f"/>
        <rect id="Rectangle_7" data-name="Rectangle 7" width="1.673" height="1.74" transform="translate(15.128 0)" fill="#6f6f6f"/>
        <rect id="Rectangle_8" data-name="Rectangle 8" width="1.673" height="5.757" transform="translate(15.128 2.41)" fill="#6f6f6f"/>
        <rect id="Rectangle_9" data-name="Rectangle 9" width="1.673" height="8.099" transform="translate(18.073 0)" fill="#6f6f6f"/>
        <rect id="Rectangle_10" data-name="Rectangle 10" width="1.673" height="8.099" transform="translate(20.951 0)" fill="#6f6f6f"/>
        <path id="Path_152" data-name="Path 152" d="M56.545,27.1,53.6,35.2h1.807l.535-1.473H59.29l.535,1.473H61.7l-2.945-8.1Zm2.142,5.087H56.411l1.138-3.213Z" transform="translate(-53.6 -14.851)" fill="#6f6f6f"/>
        <path id="Path_153" data-name="Path 153" d="M69.781,34.817a4.2,4.2,0,0,1-1.071.134.818.818,0,0,1-.6-.2c-.134-.134-.134-.469-.134-.87V30.6H66.3v3.347a2.6,2.6,0,0,0,.535,1.941,2.188,2.188,0,0,0,1.673.6,12.814,12.814,0,0,0,2.878-.469h.067V30.6H69.781Z" transform="translate(-57.799 -16.008)" fill="#6f6f6f"/>
        <path id="Path_154" data-name="Path 154" d="M77.573,28.5H75.9v4.753a4.183,4.183,0,0,0,.134,1.54,1.234,1.234,0,0,0,.87.736,15.789,15.789,0,0,0,2.075.268h.067v-1.54h-.067a4.554,4.554,0,0,1-1-.134c-.268-.067-.335-.2-.335-.335a2.064,2.064,0,0,1-.067-.669v-1.54h1.74V30.04h-1.74Z" transform="translate(-60.973 -15.313)" fill="#6f6f6f"/>
        <path id="Path_155" data-name="Path 155" d="M84.611,30.4a2.5,2.5,0,0,0-2.343,1.071,3.573,3.573,0,0,0-.469,2.008,3.415,3.415,0,0,0,.535,2.008,2.684,2.684,0,0,0,2.343,1,2.64,2.64,0,0,0,2.343-1.071,3.433,3.433,0,0,0,.469-2.008,3.806,3.806,0,0,0-.535-2.075A2.925,2.925,0,0,0,84.611,30.4Zm.87,4.15a.994.994,0,0,1-.87.4,1.042,1.042,0,0,1-.937-.4,2.956,2.956,0,0,1,0-2.142c.134-.268.469-.4.937-.4a1.156,1.156,0,0,1,.87.335,1.79,1.79,0,0,1,.268,1.138A1.583,1.583,0,0,1,85.482,34.55Z" transform="translate(-62.924 -15.942)" fill="#6f6f6f"/>
        <path id="Path_156" data-name="Path 156" d="M98.159,30.4a3.863,3.863,0,0,0-1.807.6.523.523,0,0,0-.268-.268,1.766,1.766,0,0,0-1-.335,4.306,4.306,0,0,0-1.606.469V30.6H91.8v5.757h1.673V32.408a3.61,3.61,0,0,1,1.071-.335c.2,0,.335,0,.4.134a2.529,2.529,0,0,1,.067.8v3.347h1.673V32.408a2.961,2.961,0,0,1,1-.335c.2,0,.335,0,.4.134.134.134.134.469.134.8v3.347H99.9V32.944c0-1.071-.134-1.606-.535-2.008A1.471,1.471,0,0,0,98.159,30.4Z" transform="translate(-66.23 -15.942)" fill="#6f6f6f"/>
        <path id="Path_157" data-name="Path 157" d="M108.311,30.4a2.5,2.5,0,0,0-2.343,1.071,3.573,3.573,0,0,0-.469,2.008,3.415,3.415,0,0,0,.535,2.008,2.684,2.684,0,0,0,2.343,1,2.64,2.64,0,0,0,2.343-1.071,3.433,3.433,0,0,0,.469-2.008,3.806,3.806,0,0,0-.535-2.075A2.925,2.925,0,0,0,108.311,30.4Zm.87,4.15a.994.994,0,0,1-.87.4,1.042,1.042,0,0,1-.937-.4,2.956,2.956,0,0,1,0-2.142c.134-.268.469-.4.937-.4a1.156,1.156,0,0,1,.87.335,1.79,1.79,0,0,1,.268,1.138A1.582,1.582,0,0,1,109.182,34.55Z" transform="translate(-70.76 -15.942)" fill="#6f6f6f"/>
        <path id="Path_158" data-name="Path 158" d="M118.78,29.309a2.365,2.365,0,0,0-1.138.268c-.134.067-.335.2-.469.268V27.1H115.5V35h.067c.2.067.669.134,1.406.268a10.06,10.06,0,0,0,1.339.134,2.2,2.2,0,0,0,2.075-.87,4.138,4.138,0,0,0,.535-2.209,3.976,3.976,0,0,0-.535-2.209A1.828,1.828,0,0,0,118.78,29.309Zm.469,3.079a2.469,2.469,0,0,1-.2,1.138c-.134.268-.4.335-.8.335a2.064,2.064,0,0,1-.669-.067,2.9,2.9,0,0,1-.335-.067v-2.41a1.4,1.4,0,0,0,.4-.268,2.258,2.258,0,0,1,.8-.268.652.652,0,0,1,.6.268A3.517,3.517,0,0,1,119.248,32.388Z" transform="translate(-74.066 -14.851)" fill="#6f6f6f"/>
        <rect id="Rectangle_11" data-name="Rectangle 11" width="1.673" height="5.757" transform="translate(47.927 14.659)" fill="#6f6f6f"/>
        <rect id="Rectangle_12" data-name="Rectangle 12" width="1.673" height="1.74" transform="translate(47.927 12.249)" fill="#6f6f6f"/>
        <rect id="Rectangle_13" data-name="Rectangle 13" width="1.673" height="8.099" transform="translate(50.872 12.249)" fill="#6f6f6f"/>
        <path id="Path_159" data-name="Path 159" d="M136.377,30.4a2.481,2.481,0,0,0-2.276,1,4.211,4.211,0,0,0-.4,2.075,3.53,3.53,0,0,0,.469,2.075,2.5,2.5,0,0,0,2.343.937,15.576,15.576,0,0,0,2.142-.2h.067V34.885h-.067a15.615,15.615,0,0,1-2.008.2c-.669,0-1-.134-1.2-.4a.722.722,0,0,1-.134-.469h3.615v-.067a6.6,6.6,0,0,0,.134-1.138,2.833,2.833,0,0,0-.469-1.74A2.608,2.608,0,0,0,136.377,30.4Zm0,1.406a.969.969,0,0,1,.87.335,1,1,0,0,1,.134.6v.2h-2.075a1.349,1.349,0,0,1,.2-.736C135.641,31.94,135.909,31.806,136.377,31.806Z" transform="translate(-80.084 -15.942)" fill="#6f6f6f"/>
        <path id="Path_160" data-name="Path 160" d="M147.218,33.446a2.989,2.989,0,0,0-1.138-.6l-.937-.268a4.267,4.267,0,0,1-.469-.134c-.134-.067-.134-.134-.134-.268s0-.2.134-.268c.067-.067.2-.067.6-.067a14.486,14.486,0,0,1,2.142.335h.067v-1.54h-.067a9.052,9.052,0,0,0-2.209-.335,2.864,2.864,0,0,0-1.874.469,1.76,1.76,0,0,0-.535,1.339,1.618,1.618,0,0,0,1.406,1.673l1,.268a1.464,1.464,0,0,1,.6.2.335.335,0,0,1,0,.535,1.321,1.321,0,0,1-.6.067,9.243,9.243,0,0,1-2.343-.335H142.8v1.54h.067a11.258,11.258,0,0,0,2.209.268,3.136,3.136,0,0,0,2.008-.535,1.5,1.5,0,0,0,.535-1.272A1.641,1.641,0,0,0,147.218,33.446Z" transform="translate(-83.092 -15.909)" fill="#6f6f6f"/>
      </g>
    </g>
  </g>
</svg>
