<svg xmlns="http://www.w3.org/2000/svg" xmlns:xlink="http://www.w3.org/1999/xlink" xmlns:serif="http://www.serif.com/" width="4985.666665607028" height="1546.3333359824283" version="1.1" xml:space="preserve" style="fill-rule: evenodd; clip-rule: evenodd; stroke-linejoin: round; stroke-miterlimit: 1.41421;"><rect id="backgroundrect" width="100%" height="100%" x="0" y="0" fill="none" stroke="none"/>
    
    
<g class="currentLayer" style=""><title>Layer 1</title><g id="svg_1" class="">
        <g id="Shape" stroke-width="0">
            <path d="M738.7186523074391,228.55859404862713 C726.1999008301332,228.55859404862713 716.0706127637561,218.419876371315 716.0706127637561,205.88980936088706 L716.0706127637561,115.21278468774017 C716.0706127637561,102.68271767731198 726.1999008301332,92.5440000000001 738.7186523074391,92.5440000000001 C751.2374037847451,92.5440000000001 761.3666918511221,102.68271767731198 761.3666918511221,115.21278468774017 L761.3666918511221,205.88980936088706 C761.3666918511221,218.419876371315 751.2374037847451,228.55859404862713 738.7186523074391,228.55859404862713 z" style="fill:rgb(255,120,141);fill-rule:nonzero;" stroke-width="0" id="svg_2"/>
        </g>
        <g id="Shape1" serif:id="Shape" stroke-width="0">
            <path d="M919.90485457909,319.235618721774 L851.9607359480411,319.235618721774 L851.9607359480411,205.88980936088706 C851.9607359480411,193.3597423504591 841.8314478816641,183.22102467314699 829.3126964043581,183.22102467314699 L648.1264941327072,183.22102467314699 C635.6077426554011,183.22102467314699 625.476568666837,193.3597423504591 625.476568666837,205.88980936088706 L625.476568666837,319.235618721774 L557.5324500357881,319.235618721774 C545.0136985584821,319.235618721774 534.8844104921052,329.37433639908613 534.8844104921052,341.9044034095141 L534.8844104921052,1112.656284247983 C534.8844104921052,1125.186351258411 545.0136985584821,1135.3250689357228 557.5324500357881,1135.3250689357228 L919.90485457909,1135.3250689357228 C932.4236060563961,1135.3250689357228 942.55478004496,1125.186351258411 942.55478004496,1112.656284247983 L942.55478004496,341.9044034095141 C942.55478004496,329.37433639908613 932.4236060563961,319.235618721774 919.90485457909,319.235618721774 z" style="fill:rgb(175,184,187);fill-rule:nonzero;" stroke-width="0" id="svg_3"/>
        </g>
        <g id="Shape2" serif:id="Shape" stroke-width="0">
            <path d="M648.1264941327072,681.941831492175 L285.75220366721817,681.941831492175 C273.23345218991216,681.941831492175 263.10416412353516,692.0805491694871 263.10416412353516,704.610616179915 L263.10416412353516,1112.656284247983 C263.10416412353516,1125.186351258411 273.23345218991216,1135.3250689357228 285.75220366721817,1135.3250689357228 L648.1264941327072,1135.3250689357228 C660.6433596878262,1135.3250689357228 670.7745336763901,1125.186351258411 670.7745336763901,1112.656284247983 L670.7745336763901,704.610616179915 C670.7745336763901,692.0805491694871 660.6433596878262,681.941831492175 648.1264941327072,681.941831492175 z" style="fill:rgb(117,136,140);fill-rule:nonzero;" stroke-width="0" id="svg_4"/>
        </g>
        <g id="Shape3" serif:id="Shape" stroke-width="0">
            <path d="M1191.68510094766,545.9272374435482 L829.3126964043581,545.9272374435482 C816.7939449270522,545.9272374435482 806.6646568606751,556.06595512086 806.6646568606751,568.596022131288 L806.6646568606751,1112.656284247983 C806.6646568606751,1125.186351258411 816.7939449270522,1135.3250689357228 829.3126964043581,1135.3250689357228 L1191.68510094766,1135.3250689357228 C1204.203852424966,1135.3250689357228 1214.333140491343,1125.186351258411 1214.333140491343,1112.656284247983 L1214.333140491343,568.596022131288 C1214.333140491343,556.06595512086 1204.203852424966,545.9272374435482 1191.68510094766,545.9272374435482 z" style="fill:rgb(35,53,57);fill-rule:nonzero;" stroke-width="0" id="svg_5"/>
        </g>
        <g id="Shape4" serif:id="Shape" stroke-width="0">
            <path d="M1033.146938219692,976.6416901993562 L987.8508591323261,976.6416901993562 C975.3415372659551,976.6416901993562 965.202819588643,986.7917234097899 965.202819588643,999.310474887096 L965.202819588643,1135.3250689357228 L1055.794977763375,1135.3250689357228 L1055.794977763375,999.310474887096 C1055.794977763375,986.7917234097899 1045.656260086063,976.6416901993562 1033.146938219692,976.6416901993562 z" style="fill:rgb(175,184,187);fill-rule:nonzero;" stroke-width="0" id="svg_6"/>
        </g>
        <g id="Shape5" serif:id="Shape" stroke-width="0">
            <path d="M489.58833140473917,999.310474887096 L444.2903663951861,999.310474887096 C431.78293045100213,999.310474887096 421.6423268515031,1009.4605080975298 421.6423268515031,1021.9792595748359 L421.6423268515031,1135.3250689357228 L512.2363709484221,1135.3250689357228 L512.2363709484221,1021.9792595748359 C512.2363709484221,1009.4605080975298 502.0957673489231,999.310474887096 489.58833140473917,999.310474887096 z" style="fill:rgb(175,184,187);fill-rule:nonzero;" stroke-width="0" id="svg_7"/>
        </g>
        <g id="Shape6" serif:id="Shape" stroke-width="0">
            <path d="M965.202819588643,727.2812867898419 L919.90485457909,727.2812867898419 C907.3974186349061,727.2812867898419 897.256815035407,717.1312535794082 897.256815035407,704.610616179915 L897.256815035407,659.2730468044351 C897.256815035407,646.752409404942 907.3974186349061,636.604262116695 919.90485457909,636.604262116695 L965.202819588643,636.604262116695 C977.7102555328271,636.604262116695 987.8508591323261,646.752409404942 987.8508591323261,659.2730468044351 L987.8508591323261,704.610616179915 C987.8508591323261,717.1312535794082 977.7102555328271,727.2812867898419 965.202819588643,727.2812867898419 z" style="fill:rgb(97,207,233);fill-rule:nonzero;" stroke-width="0" id="svg_8"/>
        </g>
        <g id="Shape7" serif:id="Shape" stroke-width="0">
            <path d="M1101.092942772928,727.2812867898419 L1055.794977763375,727.2812867898419 C1043.2875418191911,727.2812867898419 1033.146938219692,717.1312535794082 1033.146938219692,704.610616179915 L1033.146938219692,659.2730468044351 C1033.146938219692,646.752409404942 1043.2875418191911,636.604262116695 1055.794977763375,636.604262116695 L1101.092942772928,636.604262116695 C1113.600378717112,636.604262116695 1123.740982316611,646.752409404942 1123.740982316611,659.2730468044351 L1123.740982316611,704.610616179915 C1123.740982316611,717.1312535794082 1113.600378717112,727.2812867898419 1101.092942772928,727.2812867898419 z" style="fill:rgb(97,207,233);fill-rule:nonzero;" stroke-width="0" id="svg_9"/>
        </g>
        <g id="Shape8" serif:id="Shape" stroke-width="0">
            <path d="M965.202819588643,863.2958808384692 L919.90485457909,863.2958808384692 C907.3974186349061,863.2958808384692 897.256815035407,853.145847628035 897.256815035407,840.6270961507289 L897.256815035407,795.2876408530619 C897.256815035407,782.7688893757559 907.3974186349061,772.6188561653221 919.90485457909,772.6188561653221 L965.202819588643,772.6188561653221 C977.7102555328271,772.6188561653221 987.8508591323261,782.7688893757559 987.8508591323261,795.2876408530619 L987.8508591323261,840.6270961507289 C987.8508591323261,853.145847628035 977.7102555328271,863.2958808384692 965.202819588643,863.2958808384692 z" style="fill:rgb(97,207,233);fill-rule:nonzero;" stroke-width="0" id="svg_10"/>
        </g>
        <g id="Shape9" serif:id="Shape" stroke-width="0">
            <path d="M1101.092942772928,863.2958808384692 L1055.794977763375,863.2958808384692 C1043.2875418191911,863.2958808384692 1033.146938219692,853.145847628035 1033.146938219692,840.6270961507289 L1033.146938219692,795.2876408530619 C1033.146938219692,782.7688893757559 1043.2875418191911,772.6188561653221 1055.794977763375,772.6188561653221 L1101.092942772928,772.6188561653221 C1113.600378717112,772.6188561653221 1123.740982316611,782.7688893757559 1123.740982316611,795.2876408530619 L1123.740982316611,840.6270961507289 C1123.740982316611,853.145847628035 1113.600378717112,863.2958808384692 1101.092942772928,863.2958808384692 z" style="fill:rgb(97,207,233);fill-rule:nonzero;" stroke-width="0" id="svg_11"/>
        </g>
        <g id="Shape10" serif:id="Shape" stroke-width="0">
            <path d="M421.6423268515031,885.964665526209 L376.34624776413716,885.964665526209 C363.83692589776615,885.964665526209 353.69820822045415,875.814632315775 353.69820822045415,863.2958808384692 L353.69820822045415,817.956425540802 C353.69820822045415,805.4376740634959 363.83692589776615,795.2876408530619 376.34624776413716,795.2876408530619 L421.6423268515031,795.2876408530619 C434.15164871787414,795.2876408530619 444.2903663951861,805.4376740634959 444.2903663951861,817.956425540802 L444.2903663951861,863.2958808384692 C444.2903663951861,875.814632315775 434.15164871787414,885.964665526209 421.6423268515031,885.964665526209 z" style="fill:rgb(97,207,233);fill-rule:nonzero;" stroke-width="0" id="svg_12"/>
        </g>
        <g id="Shape11" serif:id="Shape" stroke-width="0">
            <path d="M557.5324500357881,885.964665526209 L512.2363709484221,885.964665526209 C499.72704908205117,885.964665526209 489.58833140473917,875.814632315775 489.58833140473917,863.2958808384692 L489.58833140473917,817.956425540802 C489.58833140473917,805.4376740634959 499.72704908205117,795.2876408530619 512.2363709484221,795.2876408530619 L557.5324500357881,795.2876408530619 C570.0398859799722,795.2876408530619 580.1804895794711,805.4376740634959 580.1804895794711,817.956425540802 L580.1804895794711,863.2958808384692 C580.1804895794711,875.814632315775 570.0398859799722,885.964665526209 557.5324500357881,885.964665526209 z" style="fill:rgb(97,207,233);fill-rule:nonzero;" stroke-width="0" id="svg_13"/>
        </g>
        <g id="Shape12" serif:id="Shape" stroke-width="0">
            <path d="M830.7788341473372,359.87360250000006 L786.6275098274803,404.0664171079711 L742.4742995854363,359.87360250000006 L698.3229752655792,404.0664171079711 L654.1697650235352,359.87360250000006 L654.1697650235352,481.4043141524671 C654.1697650235352,487.50715834959897 659.1108811534752,492.452046323913 665.2080675840461,492.452046323913 L819.7424175090132,492.452046323913 C825.8377180173972,492.452046323913 830.7788341473372,487.50715834959897 830.7788341473372,481.4043141524671 L830.7788341473372,359.87360250000006 z" style="fill:rgb(255,221,125);fill-rule:nonzero;" stroke-width="0" id="svg_14"/>
        </g>
    </g><g id="svg_15" class="selected">
        <text x="1076.3046626930236" y="-594.1163234786987" style="font-family:'ArialMT', 'Arial', sans-serif;font-size:600px;" transform="matrix(1,0,0,1,217.396,1723.76) " stroke-width="0" id="svg_16">Royal <tspan x="2766.1466626930237" y="-594.1163234786987" id="svg_17">Ten</tspan>ant</text>
    </g></g></svg>