<svg width="32" height="32" xmlns="http://www.w3.org/2000/svg" xmlns:xlink="http://www.w3.org/1999/xlink" xml:space="preserve" overflow="hidden"><defs><clipPath id="clip0"><rect x="0" y="0" width="32" height="32"/></clipPath></defs><g clip-path="url(#clip0)"><path d="M0 16.0016 0 32.0032 16.0571 31.9445 32.1143 31.8857 32.173 15.9429 32.2318 0 16.1159 0 0 0 0 16.0016M0.108114 16.1143C0.108343 24.9143 0.136686 28.4811 0.171429 24.0405 0.206171 19.5998 0.205943 12.3998 0.1712 8.04046 0.136686 3.68114 0.108114 7.31429 0.108114 16.1143M12.1637 0.918629C9.4496 1.62971 7.45554 2.80914 5.23429 5.01737 2.08731 8.14583 0.685714 11.4875 0.685714 15.8619 0.685714 18.4583 1.10743 20.4747 2.08457 22.552 4.63406 27.9707 10.0366 31.3641 16.1143 31.3641 22.1728 31.3641 27.3163 28.1579 30.0489 22.6782 32.1808 18.4032 32.0736 13.0302 29.7671 8.57509 28.6224 6.36411 25.6167 3.36777 23.3829 2.21097 20.0258 0.472229 15.7477-0.0205714 12.1637 0.918629M12.8 1.224C7.62994 2.46171 3.5888 6.1232 1.7904 11.2 1.3312 12.496 1.26514 13.109 1.27269 16 1.28046 18.995 1.33806 19.4626 1.8688 20.8553 3.60731 25.416 7.13874 28.8405 11.5429 30.2359 13.8434 30.9648 18.3851 30.9648 20.6857 30.2359 25.157 28.8192 28.9831 25.0288 30.4409 20.5714 31.1088 18.5294 31.2617 14.635 30.7589 12.48 29.5886 7.46629 25.8281 3.3648 20.8 1.61806 18.9381 0.9712 14.7232 0.763657 12.8 1.224M12.8496 2.61691C8.19657 3.74354 4.07794 7.80709 2.86354 12.469 2.41417 14.195 2.41577 17.5831 2.86697 19.3154 3.5056 21.7673 4.53486 23.515 6.50949 25.501 9.2736 28.2809 12.2809 29.5481 16.1143 29.5481 19.9303 29.5481 22.9193 28.2848 25.7191 25.4882 28.5339 22.6768 29.7143 19.8523 29.7143 15.9278 29.7143 12.0944 28.4366 8.99954 25.7237 6.26171 24.4775 5.00411 23.6759 4.42857 22.1714 3.71086 21.1029 3.20114 19.6834 2.672 19.0174 2.53486 17.4309 2.20846 14.3682 2.24937 12.8496 2.61691M10.3376 7.93897C9.35269 8.02743 9.18834 8.45714 10.1392 8.45714 10.9358 8.45714 11.2 8.90171 11.2 10.2421L11.2 11.4786 10.4053 11.3858C9.61783 11.2939 9.6064 11.3051 9.15314 12.6478 8.90149 13.3929 8.75497 14.0985 8.82743 14.216 8.90011 14.3335 9.31726 14.0114 9.75474 13.5003 11.1481 11.8727 11.261 12.0777 11.163 16.0571 11.0917 18.9561 11.0009 19.6967 10.6242 20.4571 10.1001 21.5154 9.43383 21.7289 8.80914 21.0386 8.04114 20.1899 6.85714 20.5611 6.85714 21.6505 6.85714 22.3353 7.70994 22.7339 8.75543 22.5376 10.0398 22.2969 11.304 21.2137 12.0322 19.731 12.6551 18.4622 12.6857 18.2528 12.6857 15.2494 12.6857 12.2293 12.7047 12.1013 13.1429 12.1637 13.5801 12.2258 13.6027 12.4267 13.6622 16.7707 13.7278 21.5829 13.675 21.859 12.6619 21.9865 12.3529 22.0254 12.1029 22.16 12.1063 22.2857 12.1099 22.4199 13.1518 22.541 14.6277 22.579 16.763 22.6338 17.1429 22.5906 17.1429 22.2933 17.1429 22.0768 16.9353 21.9429 16.5993 21.9429 15.5954 21.9429 15.5291 21.6007 15.595 16.7707L15.6571 12.2286 16.3387 12.1511C16.7136 12.1086 17.4101 12.1904 17.8866 12.3333L18.7527 12.5927 17.9518 13.3481C15.1851 15.9575 15.9392 20.7803 19.3157 22.0697 20.6953 22.5968 24.832 22.4487 25.2647 21.8569 25.5591 21.4544 25.9168 19.6693 25.739 19.4914 25.6814 19.4338 25.3607 19.7998 25.0265 20.3049 24.3001 21.4025 23.1893 21.981 21.8075 21.981 20.5218 21.981 19.5152 21.3977 18.6318 20.1408 18.0007 19.243 17.9429 19.0025 17.9429 17.2779 17.9429 15.5815 18.0087 15.2958 18.6082 14.3897 19.2464 13.4251 19.283 13.4048 19.5003 13.8921 19.8583 14.6944 20.1703 14.4848 20.077 13.5049 20.0299 13.0126 20.0546 12.6489 20.1314 12.6965 20.2085 12.744 20.6615 12.6752 21.1381 12.5435 22.4123 12.1918 23.8427 12.7886 24.5998 13.9879 24.9166 14.4898 25.2224 14.8537 25.2795 14.7968 25.3365 14.7399 25.3159 14.1211 25.2336 13.4217L25.0841 12.1504 23.2279 12.0064C22.2069 11.9271 21.0459 11.9607 20.648 12.0809 20.0055 12.2754 19.9106 12.2446 19.8011 11.8071 19.6807 11.3255 19.5986 11.3159 16.1817 11.3822L12.6857 11.4501 12.7664 10.2393C12.8615 8.8128 13.0213 8.56823 14.005 8.34423 14.736 8.17783 14.7376 8.17463 14.1714 7.99657 13.5792 7.81051 12.0283 7.7872 10.3376 7.93897" fill="#F9F9FA" fill-rule="evenodd"/><path d="M12.1637 0.918629C9.4496 1.62971 7.45554 2.80914 5.23429 5.01737 2.08731 8.14583 0.685714 11.4875 0.685714 15.8619 0.685714 18.4583 1.10743 20.4747 2.08457 22.552 4.63406 27.9707 10.0366 31.3641 16.1143 31.3641 22.1728 31.3641 27.3163 28.1579 30.0489 22.6782 32.1808 18.4032 32.0736 13.0302 29.7671 8.57509 28.6224 6.36411 25.6167 3.36777 23.3829 2.21097 20.0258 0.472229 15.7477-0.0205714 12.1637 0.918629M12.8 1.224C7.62994 2.46171 3.5888 6.1232 1.7904 11.2 1.3312 12.496 1.26514 13.109 1.27269 16 1.28046 18.995 1.33806 19.4626 1.8688 20.8553 3.60731 25.416 7.13874 28.8405 11.5429 30.2359 13.8434 30.9648 18.3851 30.9648 20.6857 30.2359 25.157 28.8192 28.9831 25.0288 30.4409 20.5714 31.1088 18.5294 31.2617 14.635 30.7589 12.48 29.5886 7.46629 25.8281 3.3648 20.8 1.61806 18.9381 0.9712 14.7232 0.763657 12.8 1.224M12.8496 2.61691C8.19657 3.74354 4.07794 7.80709 2.86354 12.469 2.41417 14.195 2.41577 17.5831 2.86697 19.3154 3.5056 21.7673 4.53486 23.515 6.50949 25.501 9.2736 28.2809 12.2809 29.5481 16.1143 29.5481 19.9303 29.5481 22.9193 28.2848 25.7191 25.4882 28.5339 22.6768 29.7143 19.8523 29.7143 15.9278 29.7143 12.0944 28.4366 8.99954 25.7237 6.26171 24.4775 5.00411 23.6759 4.42857 22.1714 3.71086 21.1029 3.20114 19.6834 2.672 19.0174 2.53486 17.4309 2.20846 14.3682 2.24937 12.8496 2.61691M10.3376 7.93897C9.35269 8.02743 9.18834 8.45714 10.1392 8.45714 10.9358 8.45714 11.2 8.90171 11.2 10.2421L11.2 11.4786 10.4053 11.3858C9.61783 11.2939 9.6064 11.3051 9.15314 12.6478 8.90149 13.3929 8.75497 14.0985 8.82743 14.216 8.90011 14.3335 9.31726 14.0114 9.75474 13.5003 11.1481 11.8727 11.261 12.0777 11.163 16.0571 11.0917 18.9561 11.0009 19.6967 10.6242 20.4571 10.1001 21.5154 9.43383 21.7289 8.80914 21.0386 8.04114 20.1899 6.85714 20.5611 6.85714 21.6505 6.85714 22.3353 7.70994 22.7339 8.75543 22.5376 10.0398 22.2969 11.304 21.2137 12.0322 19.731 12.6551 18.4622 12.6857 18.2528 12.6857 15.2494 12.6857 12.2293 12.7047 12.1013 13.1429 12.1637 13.5801 12.2258 13.6027 12.4267 13.6622 16.7707 13.7278 21.5829 13.675 21.859 12.6619 21.9865 12.3529 22.0254 12.1029 22.16 12.1063 22.2857 12.1099 22.4199 13.1518 22.541 14.6277 22.579 16.763 22.6338 17.1429 22.5906 17.1429 22.2933 17.1429 22.0768 16.9353 21.9429 16.5993 21.9429 15.5954 21.9429 15.5291 21.6007 15.595 16.7707L15.6571 12.2286 16.3387 12.1511C16.7136 12.1086 17.4101 12.1904 17.8866 12.3333L18.7527 12.5927 17.9518 13.3481C15.1851 15.9575 15.9392 20.7803 19.3157 22.0697 20.6953 22.5968 24.832 22.4487 25.2647 21.8569 25.5591 21.4544 25.9168 19.6693 25.739 19.4914 25.6814 19.4338 25.3607 19.7998 25.0265 20.3049 24.3001 21.4025 23.1893 21.981 21.8075 21.981 20.5218 21.981 19.5152 21.3977 18.6318 20.1408 18.0007 19.243 17.9429 19.0025 17.9429 17.2779 17.9429 15.5815 18.0087 15.2958 18.6082 14.3897 19.2464 13.4251 19.283 13.4048 19.5003 13.8921 19.8583 14.6944 20.1703 14.4848 20.077 13.5049 20.0299 13.0126 20.0546 12.6489 20.1314 12.6965 20.2085 12.744 20.6615 12.6752 21.1381 12.5435 22.4123 12.1918 23.8427 12.7886 24.5998 13.9879 24.9166 14.4898 25.2224 14.8537 25.2795 14.7968 25.3365 14.7399 25.3159 14.1211 25.2336 13.4217L25.0841 12.1504 23.2279 12.0064C22.2069 11.9271 21.0459 11.9607 20.648 12.0809 20.0055 12.2754 19.9106 12.2446 19.8011 11.8071 19.6807 11.3255 19.5986 11.3159 16.1817 11.3822L12.6857 11.4501 12.7664 10.2393C12.8615 8.8128 13.0213 8.56823 14.005 8.34423 14.736 8.17783 14.7376 8.17463 14.1714 7.99657 13.5792 7.81051 12.0283 7.7872 10.3376 7.93897" fill="#114766" fill-rule="evenodd"/></g></svg>