<svg xmlns="http://www.w3.org/2000/svg" viewBox="410 410 3920 1200.36"><defs><style>.cls-1{fill:#38d200;}.cls-2{fill:#0473ea;}.cls-3{fill:#525355;}.cls-4{fill:none;}</style></defs><title>sc_lock-up_grey_rgb</title><g id="Trustmark"><path class="cls-1" d="M989.8,1574.11,498.49,1254.25s-61.62-35.42-75.73-101.42c-19.81-92.66,45.51-172.1,45.51-172.1L1105.92,1396c49.19,32.06,62.62,97.64,31,147.11C1104.44,1593.93,1037.69,1605.14,989.8,1574.11Z"/><path class="cls-2" d="M524.43,912.18s-75.26-45.44-75.26-150.55C449.17,656.88,524.4,612,524.4,612L793,436.21A106.31,106.31,0,0,1,908.88,614.48L682.5,761.89l385.72,251.21s69.43,39.78,83.11,106.93c19.09,93.68-45.39,170.86-45.39,170.86Z"/><path class="cls-1" d="M1030,657.14c-25.22,0-43.17,8-60.68,19.35l-131.13,85.4,131.13,85.4c17.68,11.39,36.23,19.36,60.68,19.36a104.76,104.76,0,1,0,0-209.51"/><path class="cls-2" d="M523,1591.06c25.22,0,43.17-8,60.67-19.35l131.13-85.41-131.13-85.39c-17.67-11.39-36.22-19.36-60.67-19.36a104.76,104.76,0,1,0,0,209.51"/><path class="cls-3" d="M1575.51,1258.55c27.73,0,53.58-7.52,73.78-24.91v39c-22.56,15.51-49.35,22.09-77.55,22.09-71,0-120.31-49.35-120.31-120.32,0-70.5,50.75-119.84,121.25-119.84,27.73,0,53.58,8,74.26,23.5v42.76c-18.33-19.73-43.7-30.07-71.91-30.07-49.35,0-84.13,34.31-84.13,83.65S1526.16,1258.55,1575.51,1258.55Z"/><path class="cls-3" d="M1729.66,1290.51h-38.07V985.36l38.07,23.53v89.4c17.39-26.79,45.12-43.71,80.37-43.71,58.28,0,89.3,42.76,89.3,99.63v136.3h-38.54V1160.79c0-45.12-19.74-69.08-60.16-69.08-42.77,0-71,36.65-71,82.71Z"/><path class="cls-3" d="M2135.73,1251c-19.26,27.26-48.87,43.71-85.06,43.71-67.68,0-116.09-50.29-116.09-118.91,0-70,48.41-121.25,116.09-121.25,36.19,0,65.8,16.92,85.06,44.65v-40.42h38.54v231.7h-38.54Zm-161.67-75.67c0,47.94,33.37,83.19,80.37,83.19,47.47,0,81.3-35.25,81.3-83.19,0-48.88-33.83-84.59-81.3-84.59C2007.43,1090.77,1974.06,1126.48,1974.06,1175.36Z"/><path class="cls-3" d="M2271.56,1290.51h-38.07v-231.7h38.07v49.34c18.33-34.31,47.94-53.57,84.6-53.57v43.71c-46.06-6.58-84.6,24.44-84.6,81.77Z"/><path class="cls-3" d="M2746.25,1189.46H2563.42c5.64,41.83,38.54,69.56,84.6,69.56,29.61,0,58.28-8.46,82.72-25.85v36.66c-24.91,16.92-53.11,24.91-82.72,24.91-72.85,0-125-47-125-118,0-69.56,44.18-122.19,114.21-122.19,66.74,0,110.45,49.34,110.45,115.61A128.2,128.2,0,0,1,2746.25,1189.46Zm-182.36-31h143.35c-3.76-39.48-28.67-68.61-69.56-68.61C2595.38,1089.83,2570,1119.44,2563.89,1158.44Z"/><path class="cls-3" d="M2827.56,1290.51h-38.08v-231.7h38.08v49.34c18.32-34.31,47.93-53.57,84.59-53.57v43.71c-46.05-6.58-84.59,24.44-84.59,81.77Z"/><path class="cls-3" d="M3138.22,1189.46H2955.4c5.63,41.83,38.54,69.56,84.59,69.56,29.61,0,58.28-8.46,82.72-25.85v36.66c-24.91,16.92-53.11,24.91-82.72,24.91-72.85,0-125-47-125-118,0-69.56,44.17-122.19,114.2-122.19,66.74,0,110.45,49.34,110.45,115.61A128.2,128.2,0,0,1,3138.22,1189.46Zm-182.35-31h143.34c-3.76-39.48-28.67-68.61-69.56-68.61C2987.36,1089.83,2962,1119.44,2955.87,1158.44Z"/><path class="cls-3" d="M3366.75,1250.72c-18.79,27.73-48.87,44.65-85.06,44.65-67.68,0-116.09-50.29-116.09-118.91,0-70,48.41-121.26,116.09-121.26,36.19,0,66.27,17.4,85.06,45.59V985.42l38.54,23.54V1290.5h-38.54ZM3205.08,1176c0,47.94,33.37,83.19,80.37,83.19,47.47,0,81.3-35.25,81.3-83.19,0-48.88-33.83-84.6-81.3-84.6C3238.45,1091.39,3205.08,1127.11,3205.08,1176Z"/><path class="cls-3" d="M2422.68,1213.49c0,32.43,19.74,45.12,44.65,45.12a91.94,91.94,0,0,0,54.05-16.92v37.13c-16,11.75-38.07,16.45-57.34,16.45-49.35,0-79.43-22.09-79.43-84.6V985.31l38.07,23.53Z"/><path class="cls-3" d="M2484.22,1055.78a29.4,29.4,0,1,0-32,49.33l.81.51a29.38,29.38,0,0,0,31.68,0l37.86-24.28Z"/><path class="cls-3" d="M1530.86,924.42c27.25,0,47-11.75,47-32.9,0-12.69-6.58-22.56-24-29.61l-55-22.09c-28.2-12.22-43.71-28.2-43.71-58.28,0-40.42,32.43-65.8,79.43-65.8,27.25,0,52.63,7.52,70.49,21.15v40c-21.14-18.8-47-29.61-70-29.61-24.45,0-41.84,11.28-41.84,30.08,0,14.1,6.58,22.56,24.92,29.61l55,22.09c29.6,12.69,43.24,30.55,43.24,55.46,0,44.18-35.73,71.44-86,71.44-30.56,0-58.29-8.46-78.49-23.5V891.05C1476.33,914.08,1503.59,924.42,1530.86,924.42Z"/><path class="cls-3" d="M1688.78,874.13c0,32.43,19.73,45.12,44.65,45.12a92,92,0,0,0,54-16.92v37.13c-16,11.75-38.08,16.45-57.35,16.45-49.35,0-79.42-22.09-79.42-84.6v-202l38.07-23.56Z"/><path class="cls-3" d="M2000.38,912.2c-19.27,27.26-48.88,43.71-85.07,43.71-67.68,0-116.09-50.29-116.09-118.91,0-70,48.41-121.26,116.09-121.26,36.19,0,65.8,16.92,85.07,44.65V720h38.54V951.68h-38.54ZM1838.7,836.53c0,47.94,33.37,83.19,80.37,83.19,47.47,0,81.31-35.25,81.31-83.19,0-48.88-33.84-84.6-81.31-84.6C1872.07,751.93,1838.7,787.65,1838.7,836.53Z"/><path class="cls-3" d="M2136.2,951.68h-38.07V720h38.07v39.48c17.39-26.79,45.12-43.71,80.37-43.71,58.28,0,89.3,42.77,89.3,99.64v136.3h-38.54V822c0-45.12-19.74-69.09-60.16-69.09-42.77,0-71,36.66-71,82.72Z"/><path class="cls-3" d="M2542.28,911.26c-18.8,27.73-48.88,44.65-85.07,44.65-67.68,0-116.09-50.29-116.09-118.91,0-70,48.41-121.26,116.09-121.26,36.19,0,66.27,17.39,85.07,45.59V669.28l38.54-23.53V951.68h-38.54ZM2380.6,836.53c0,47.94,33.37,83.19,80.37,83.19,47.47,0,81.31-35.25,81.31-83.19,0-48.88-33.84-84.6-81.31-84.6C2414,751.93,2380.6,787.65,2380.6,836.53Z"/><path class="cls-3" d="M3247.28,911.26c-18.8,27.73-48.88,44.65-85.07,44.65-67.68,0-116.09-50.29-116.09-118.91,0-70,48.41-121.26,116.09-121.26,36.19,0,66.27,17.39,85.07,45.59V669.28l38.54-23.53V951.68h-38.54ZM3085.6,836.53c0,47.94,33.37,83.19,80.37,83.19,47.47,0,81.31-35.25,81.31-83.19,0-48.88-33.84-84.6-81.31-84.6C3119,751.93,3085.6,787.65,3085.6,836.53Z"/><path class="cls-3" d="M2823.34,912.2c-19.27,27.26-48.88,43.71-85.07,43.71-67.68,0-116.09-50.29-116.09-118.91,0-70,48.41-121.26,116.09-121.26,36.19,0,65.8,16.92,85.07,44.65V720h38.54V951.68h-38.54Zm-161.68-75.67c0,47.94,33.37,83.19,80.37,83.19,47.47,0,81.31-35.25,81.31-83.19,0-48.88-33.84-84.6-81.31-84.6C2695,751.93,2661.66,787.65,2661.66,836.53Z"/><path class="cls-3" d="M2959.16,951.68h-38.07V720h38.07v49.35c18.33-34.31,47.94-53.58,84.6-53.58v43.71c-46.06-6.58-84.6,24.44-84.6,81.78Z"/><path class="cls-3" d="M1742.44,769.35a29.4,29.4,0,1,0,31.89-49.4l-.81-.51a29.4,29.4,0,0,0-31.68.11L1704,743.92Z"/></g><g id="guide"><path class="cls-4" d="M523,1800.85c25.22,0,43.17-8,60.67-19.35l131.13-85.41-131.13-85.4c-17.67-11.38-36.22-19.35-60.67-19.35a104.76,104.76,0,1,0,0,209.51"/><path class="cls-4" d="M523,2010.36c25.22,0,43.17-8,60.67-19.36l131.13-85.4-131.13-85.4c-17.67-11.38-36.22-19.35-60.67-19.35a104.76,104.76,0,1,0,0,209.51"/><path class="cls-4" d="M209.51,523.05c0,25.23,8,43.18,19.35,60.68l85.41,131.13,85.39-131.13C411.05,566.05,419,547.5,419,523.05a104.76,104.76,0,0,0-209.51,0"/><path class="cls-4" d="M0,523.05c0,25.23,8,43.18,19.35,60.68l85.41,131.13,85.4-131.13c11.38-17.68,19.35-36.23,19.35-60.68A104.76,104.76,0,0,0,0,523.05"/><path class="cls-4" d="M3618.33,1487.18c0-25.22-7.95-43.17-19.35-60.68l-85.41-131.13-85.39,131.13c-11.39,17.68-19.36,36.23-19.36,60.68a104.76,104.76,0,1,0,209.51,0"/><path class="cls-4" d="M3827.84,1487.18c0-25.22-8-43.17-19.35-60.68l-85.41-131.13-85.39,131.13c-11.39,17.68-19.36,36.23-19.36,60.68a104.76,104.76,0,1,0,209.51,0"/><path class="cls-4" d="M3301.42,209.51c-25.22,0-43.17,8-60.68,19.35l-131.13,85.41,131.13,85.39C3258.42,411.05,3277,419,3301.42,419a104.76,104.76,0,1,0,0-209.51"/><path class="cls-4" d="M3301.42,0c-25.22,0-43.17,8-60.68,19.35l-131.13,85.41,131.13,85.4c17.68,11.38,36.23,19.35,60.68,19.35a104.76,104.76,0,1,0,0-209.51"/></g></svg>