<?xml version="1.0" encoding="UTF-8"?>
<svg width="600px" height="141px" viewBox="0 0 600 141" version="1.1" xmlns="http://www.w3.org/2000/svg" xmlns:xlink="http://www.w3.org/1999/xlink">
    <!-- Generator: Sketch 40.3 (33839) - http://www.bohemiancoding.com/sketch -->
    <title>sh_logo</title>
    <desc>Created with Sketch.</desc>
    <defs></defs>
    <g id="Page-1" stroke="none" stroke-width="1" fill="none" fill-rule="evenodd">
        <g id="sh_logo">
            <path d="M135.203,43.242 C132.082,35.862 127.772,29.145 122.375,23.233 L122.061,24.753 L119.583,36.768 C126.218,46.393 130.104,58.059 130.104,70.633 C130.104,103.625 103.359,130.37 70.367,130.37 C63.811,130.37 57.503,129.313 51.601,127.362 C51.443,127.751 51.275,128.134 51.097,128.51 C50.916,128.892 50.725,129.266 50.525,129.634 C49.574,131.378 48.4,132.965 47.01,134.381 C46.737,134.659 46.458,134.933 46.168,135.198 C46.116,135.246 46.062,135.292 46.01,135.339 C45.657,135.655 45.295,135.962 44.921,136.257 C53.025,139.405 61.575,141 70.367,141 C79.866,141 89.081,139.14 97.758,135.47 C106.137,131.925 113.663,126.852 120.124,120.39 C126.586,113.929 131.659,106.404 135.203,98.024 C138.873,89.347 140.734,80.132 140.734,70.633 C140.734,61.135 138.873,51.919 135.203,43.242" id="Fill-1" fill="#F9C825"></path>
            <path d="M70.367,10.897 C76.79,10.897 82.976,11.911 88.775,13.787 C88.879,13.38 88.992,12.979 89.115,12.584 C89.24,12.185 89.374,11.792 89.518,11.404 C90.195,9.574 91.082,7.882 92.171,6.338 C92.423,5.98 92.686,5.631 92.96,5.29 C93.191,5.002 93.427,4.719 93.672,4.443 C93.724,4.385 93.777,4.329 93.829,4.272 C86.317,1.613 78.445,0.266 70.367,0.266 C60.869,0.266 51.653,2.127 42.976,5.797 C34.597,9.341 27.072,14.415 20.61,20.876 C14.148,27.338 9.075,34.863 5.531,43.242 C1.861,51.919 0,61.135 0,70.633 C0,80.132 1.861,89.347 5.531,98.024 C8.588,105.252 12.785,111.842 18.027,117.664 L20.972,104.236 C14.446,94.662 10.63,83.093 10.63,70.633 C10.63,37.642 37.375,10.897 70.367,10.897" id="Fill-2" fill="#F9C825"></path>
            <path d="M45.811,123.86 L55.423,80.417 L81.853,80.404 L74.595,114.354 L83.536,114.35 C83.681,114.344 83.815,114.329 83.967,114.329 C93.548,114.325 97.557,107.329 98.956,103.861 L114.184,30.031 L114.491,28.538 L116.437,19.107 L119.711,3.233 L111.368,3.237 C111.368,3.237 105.393,3.268 100.564,7.06 C100.211,7.336 99.865,7.634 99.528,7.952 C99.213,8.248 98.906,8.563 98.61,8.898 C97.453,10.204 96.448,11.812 95.725,13.79 C95.586,14.173 95.457,14.571 95.339,14.982 C95.226,15.378 95.124,15.788 95.033,16.211 C95.011,16.311 94.989,16.409 94.969,16.511 L95.001,16.208 L86.086,60.155 L59.656,60.168 L66.188,29.491 L57.084,29.496 C44.358,29.502 41.461,41.843 41.456,41.867 L21.023,135.041 L29.386,135.037 C29.386,135.037 33.476,135.014 37.694,132.968 C38.136,132.753 38.58,132.516 39.021,132.255 C39.428,132.013 39.832,131.75 40.229,131.466 C41.737,130.385 43.154,128.979 44.285,127.145 C44.499,126.798 44.702,126.433 44.894,126.054 C45.079,125.692 45.253,125.316 45.415,124.924 C45.556,124.581 45.689,124.227 45.811,123.86" id="Fill-3" fill="#353533"></path>
            <path d="M209.874,44.25 C209.297,44.989 208.735,45.542 208.189,45.911 C207.643,46.28 206.986,46.465 206.215,46.465 C205.477,46.465 204.739,46.224 204.001,45.742 C203.262,45.261 202.437,44.731 201.522,44.154 C200.607,43.576 199.556,43.046 198.369,42.565 C197.181,42.084 195.785,41.843 194.181,41.843 C192.704,41.843 191.412,42.052 190.305,42.469 C189.198,42.886 188.275,43.464 187.537,44.202 C186.799,44.941 186.245,45.807 185.876,46.801 C185.507,47.797 185.323,48.888 185.323,50.075 C185.323,51.359 185.684,52.434 186.406,53.3 C187.128,54.167 188.091,54.929 189.294,55.587 C190.498,56.245 191.854,56.847 193.362,57.392 C194.87,57.939 196.419,58.532 198.008,59.174 C199.597,59.816 201.152,60.554 202.677,61.388 C204.201,62.223 205.566,63.266 206.77,64.517 C207.973,65.769 208.936,67.278 209.657,69.042 C210.38,70.807 210.741,72.926 210.741,75.397 C210.741,78.928 210.131,82.249 208.911,85.362 C207.691,88.475 205.942,91.195 203.664,93.522 C201.385,95.849 198.617,97.694 195.36,99.058 C192.102,100.422 188.435,101.104 184.36,101.104 C182.338,101.104 180.308,100.879 178.27,100.43 C176.232,99.98 174.275,99.346 172.397,98.528 C170.519,97.71 168.778,96.739 167.174,95.616 C165.569,94.492 164.205,93.241 163.082,91.861 L168.666,84.543 C169.115,83.998 169.669,83.549 170.327,83.195 C170.985,82.843 171.651,82.666 172.325,82.666 C173.223,82.666 174.098,82.979 174.948,83.605 C175.798,84.23 176.737,84.921 177.765,85.675 C178.792,86.429 179.987,87.119 181.351,87.745 C182.715,88.37 184.392,88.684 186.382,88.684 C189.302,88.684 191.557,87.889 193.145,86.301 C194.734,84.712 195.529,82.361 195.529,79.248 C195.529,77.804 195.168,76.617 194.445,75.686 C193.723,74.755 192.776,73.969 191.605,73.326 C190.433,72.685 189.093,72.116 187.586,71.618 C186.077,71.121 184.536,70.582 182.964,70.005 C181.391,69.427 179.851,68.746 178.342,67.959 C176.833,67.173 175.494,66.146 174.322,64.878 C173.151,63.611 172.204,62.054 171.483,60.208 C170.76,58.363 170.399,56.093 170.399,53.397 C170.399,50.284 170.985,47.291 172.156,44.418 C173.327,41.547 175.004,39.003 177.187,36.788 C179.369,34.574 182.017,32.809 185.13,31.493 C188.243,30.177 191.741,29.519 195.625,29.519 C197.614,29.519 199.548,29.728 201.426,30.145 C203.303,30.562 205.06,31.14 206.697,31.878 C208.334,32.617 209.826,33.49 211.174,34.502 C212.522,35.513 213.661,36.612 214.592,37.799 L209.874,44.25" id="Fill-4" fill="#353533"></path>
            <path d="M240.058,59.799 C237.586,59.799 235.42,60.786 233.559,62.76 C231.697,64.734 230.301,67.438 229.371,70.871 C232.483,70.39 235.003,69.884 236.929,69.355 C238.854,68.825 240.347,68.248 241.406,67.622 C242.465,66.996 243.179,66.322 243.548,65.6 C243.917,64.878 244.101,64.1 244.101,63.266 C244.101,62.431 243.78,61.645 243.139,60.906 C242.496,60.169 241.47,59.799 240.058,59.799 L240.058,59.799 Z M257.581,62.688 C257.581,64.967 257.131,67.053 256.233,68.946 C255.334,70.84 253.77,72.517 251.54,73.976 C249.308,75.438 246.308,76.681 242.537,77.707 C238.765,78.735 234.024,79.537 228.311,80.115 C228.375,83.516 229.122,86.004 230.55,87.576 C231.978,89.149 234.088,89.935 236.88,89.935 C238.196,89.935 239.336,89.823 240.299,89.598 C241.261,89.374 242.104,89.085 242.826,88.731 C243.548,88.379 244.198,88.009 244.776,87.624 C245.353,87.239 245.907,86.871 246.436,86.517 C246.966,86.164 247.52,85.876 248.098,85.651 C248.675,85.426 249.332,85.314 250.071,85.314 C250.553,85.314 251.017,85.434 251.467,85.675 C251.916,85.915 252.317,86.228 252.671,86.613 L256.522,91.091 C254.757,92.824 253.031,94.324 251.347,95.591 C249.662,96.86 247.929,97.902 246.147,98.721 C244.367,99.539 242.472,100.141 240.467,100.526 C238.461,100.911 236.271,101.104 233.896,101.104 C230.943,101.104 228.231,100.598 225.76,99.587 C223.289,98.576 221.163,97.149 219.381,95.303 C217.601,93.458 216.22,91.235 215.241,88.635 C214.262,86.035 213.773,83.147 213.773,79.97 C213.773,77.307 214.07,74.707 214.664,72.171 C215.257,69.636 216.108,67.253 217.215,65.023 C218.322,62.792 219.678,60.738 221.283,58.86 C222.887,56.983 224.693,55.37 226.699,54.022 C228.704,52.674 230.903,51.623 233.294,50.869 C235.685,50.116 238.228,49.738 240.925,49.738 C243.588,49.738 245.955,50.123 248.025,50.893 C250.095,51.664 251.836,52.667 253.248,53.902 C254.66,55.138 255.735,56.525 256.473,58.066 C257.212,59.607 257.581,61.147 257.581,62.688 L257.581,62.688 Z" id="Fill-5" fill="#353533"></path>
            <path d="M259.168,100.333 L265.234,50.412 L272.936,50.412 C274.477,50.412 275.68,50.773 276.547,51.495 C277.414,52.217 277.847,53.397 277.847,55.033 L277.847,60.714 C279.066,58.564 280.366,56.718 281.746,55.178 C283.126,53.637 284.546,52.442 286.007,51.591 C287.466,50.741 288.959,50.26 290.484,50.147 C292.008,50.035 293.541,50.332 295.081,51.038 L292.386,64.854 C290.556,64.084 288.847,63.731 287.258,63.795 C285.67,63.859 284.209,64.405 282.878,65.432 C281.546,66.459 280.342,67.999 279.267,70.053 C278.191,72.107 277.27,74.722 276.499,77.9 L273.803,100.333 L259.168,100.333" id="Fill-6" fill="#353533"></path>
            <path d="M297.247,50.412 L309.571,50.412 C310.598,50.412 311.408,50.661 312.002,51.158 C312.596,51.656 312.973,52.273 313.134,53.011 L316.407,75.397 C316.696,77.291 316.937,79.144 317.129,80.957 C317.322,82.77 317.482,84.591 317.611,86.421 C318.188,84.624 318.806,82.818 319.464,81.005 C320.121,79.192 320.867,77.322 321.703,75.397 L330.464,53.011 C330.817,52.273 331.346,51.656 332.052,51.158 C332.758,50.661 333.545,50.412 334.412,50.412 L346.254,50.412 L321.992,100.333 L309.378,100.333 L297.247,50.412" id="Fill-7" fill="#353533"></path>
            <path d="M366.569,36.74 C366.569,37.928 366.312,39.043 365.799,40.085 C365.285,41.129 364.611,42.044 363.777,42.83 C362.942,43.616 361.987,44.242 360.912,44.707 C359.837,45.173 358.738,45.405 357.615,45.405 C356.491,45.405 355.416,45.173 354.389,44.707 C353.362,44.242 352.455,43.616 351.67,42.83 C350.883,42.044 350.249,41.129 349.768,40.085 C349.287,39.043 349.046,37.928 349.046,36.74 C349.046,35.553 349.287,34.429 349.768,33.37 C350.249,32.311 350.899,31.38 351.718,30.578 C352.536,29.776 353.458,29.142 354.486,28.677 C355.513,28.212 356.588,27.979 357.711,27.979 C358.866,27.979 359.974,28.204 361.033,28.652 C362.092,29.102 363.031,29.728 363.849,30.53 C364.668,31.332 365.325,32.263 365.823,33.322 C366.32,34.381 366.569,35.521 366.569,36.74 L366.569,36.74 Z M363.777,50.412 L357.807,100.333 L343.076,100.333 L349.046,50.412 L363.777,50.412 L363.777,50.412 Z" id="Fill-8" fill="#353533"></path>
            <path d="M399.928,60.906 C399.479,61.484 399.062,61.902 398.677,62.158 C398.292,62.415 397.778,62.543 397.137,62.543 C396.494,62.543 395.861,62.399 395.235,62.11 C394.609,61.821 393.935,61.492 393.213,61.123 C392.491,60.754 391.673,60.425 390.758,60.136 C389.843,59.847 388.792,59.703 387.605,59.703 C385.39,59.703 383.809,60.128 382.863,60.979 C381.916,61.829 381.443,62.928 381.443,64.276 C381.443,65.143 381.708,65.882 382.237,66.491 C382.767,67.101 383.465,67.646 384.331,68.127 C385.198,68.609 386.185,69.05 387.292,69.452 C388.399,69.853 389.53,70.302 390.686,70.799 C391.841,71.297 392.972,71.866 394.08,72.508 C395.187,73.151 396.174,73.937 397.041,74.867 C397.907,75.798 398.605,76.906 399.135,78.189 C399.664,79.473 399.928,80.997 399.928,82.762 C399.928,85.265 399.431,87.633 398.437,89.863 C397.441,92.094 396.013,94.035 394.152,95.688 C392.29,97.341 390.036,98.657 387.388,99.635 C384.741,100.614 381.763,101.104 378.458,101.104 C376.885,101.104 375.329,100.942 373.788,100.622 C372.248,100.302 370.796,99.869 369.432,99.322 C368.068,98.777 366.824,98.127 365.701,97.373 C364.577,96.619 363.664,95.808 362.957,94.942 L366.616,89.454 C367.065,88.812 367.586,88.306 368.18,87.937 C368.774,87.569 369.504,87.383 370.371,87.383 C371.172,87.383 371.863,87.576 372.441,87.961 C373.018,88.347 373.644,88.764 374.318,89.213 C374.992,89.663 375.794,90.079 376.725,90.464 C377.655,90.85 378.875,91.042 380.384,91.042 C382.502,91.042 384.074,90.569 385.101,89.622 C386.128,88.676 386.642,87.56 386.642,86.276 C386.642,85.282 386.377,84.464 385.848,83.821 C385.318,83.179 384.62,82.626 383.754,82.161 C382.887,81.695 381.908,81.278 380.817,80.908 C379.726,80.54 378.603,80.131 377.447,79.681 C376.292,79.232 375.168,78.711 374.077,78.116 C372.986,77.523 372.007,76.777 371.141,75.878 C370.274,74.98 369.576,73.873 369.047,72.556 C368.517,71.241 368.252,69.652 368.252,67.79 C368.252,65.48 368.677,63.234 369.528,61.051 C370.378,58.869 371.646,56.935 373.331,55.25 C375.016,53.565 377.11,52.21 379.614,51.182 C382.117,50.155 385.037,49.641 388.375,49.641 C391.712,49.641 394.689,50.219 397.305,51.375 C399.92,52.53 402.079,53.942 403.78,55.611 L399.928,60.906" id="Fill-9" fill="#353533"></path>
            <path d="M497.22,59.799 C494.748,59.799 492.582,60.786 490.721,62.76 C488.859,64.734 487.463,67.438 486.533,70.871 C489.646,70.39 492.165,69.884 494.091,69.355 C496.016,68.825 497.509,68.248 498.568,67.622 C499.627,66.996 500.341,66.322 500.71,65.6 C501.079,64.878 501.263,64.1 501.263,63.266 C501.263,62.431 500.943,61.645 500.301,60.906 C499.658,60.169 498.632,59.799 497.22,59.799 L497.22,59.799 Z M514.743,62.688 C514.743,64.967 514.293,67.053 513.395,68.946 C512.496,70.84 510.932,72.517 508.702,73.976 C506.47,75.438 503.47,76.681 499.699,77.707 C495.927,78.735 491.186,79.537 485.474,80.115 C485.537,83.516 486.284,86.004 487.712,87.576 C489.14,89.149 491.251,89.935 494.043,89.935 C495.358,89.935 496.498,89.823 497.461,89.598 C498.423,89.374 499.266,89.085 499.988,88.731 C500.71,88.379 501.36,88.009 501.938,87.624 C502.516,87.239 503.069,86.871 503.598,86.517 C504.128,86.164 504.682,85.876 505.26,85.651 C505.837,85.426 506.495,85.314 507.233,85.314 C507.715,85.314 508.179,85.434 508.629,85.675 C509.078,85.915 509.479,86.228 509.833,86.613 L513.684,91.091 C511.919,92.824 510.193,94.324 508.509,95.591 C506.824,96.86 505.091,97.902 503.309,98.721 C501.529,99.539 499.634,100.141 497.629,100.526 C495.623,100.911 493.433,101.104 491.058,101.104 C488.105,101.104 485.393,100.598 482.923,99.587 C480.451,98.576 478.325,97.149 476.543,95.303 C474.763,93.458 473.382,91.235 472.403,88.635 C471.424,86.035 470.935,83.147 470.935,79.97 C470.935,77.307 471.232,74.707 471.826,72.171 C472.419,69.636 473.27,67.253 474.377,65.023 C475.484,62.792 476.84,60.738 478.445,58.86 C480.049,56.983 481.855,55.37 483.861,54.022 C485.866,52.674 488.065,51.623 490.456,50.869 C492.847,50.116 495.391,49.738 498.087,49.738 C500.75,49.738 503.117,50.123 505.187,50.893 C507.257,51.664 508.998,52.667 510.41,53.902 C511.822,55.138 512.897,56.525 513.635,58.066 C514.374,59.607 514.743,61.147 514.743,62.688 L514.743,62.688 Z" id="Fill-10" fill="#353533"></path>
            <path d="M518.256,100.333 L524.322,50.412 L532.024,50.412 C533.565,50.412 534.768,50.773 535.635,51.495 C536.502,52.217 536.935,53.397 536.935,55.033 L536.935,60.714 C538.154,58.564 539.454,56.718 540.834,55.178 C542.214,53.637 543.634,52.442 545.094,51.591 C546.554,50.741 548.047,50.26 549.572,50.147 C551.096,50.035 552.629,50.332 554.169,51.038 L551.474,64.854 C549.644,64.084 547.935,63.731 546.346,63.795 C544.758,63.859 543.297,64.405 541.966,65.432 C540.634,66.459 539.43,67.999 538.355,70.053 C537.279,72.107 536.357,74.722 535.587,77.9 L532.891,100.333 L518.256,100.333" id="Fill-11" fill="#353533"></path>
            <path d="M574.149,90.032 C575.817,90.032 577.309,89.526 578.625,88.515 C579.941,87.504 581.057,86.124 581.972,84.375 C582.886,82.626 583.591,80.588 584.09,78.261 C584.587,75.934 584.836,73.455 584.836,70.823 C584.836,67.197 584.346,64.606 583.368,63.049 C582.388,61.492 580.792,60.714 578.578,60.714 C576.909,60.714 575.416,61.22 574.101,62.23 C572.784,63.241 571.669,64.613 570.755,66.346 C569.84,68.079 569.134,70.118 568.636,72.46 C568.138,74.803 567.89,77.291 567.89,79.922 C567.89,83.484 568.379,86.06 569.359,87.649 C570.337,89.237 571.934,90.032 574.149,90.032 L574.149,90.032 Z M572.801,101.104 C570.009,101.104 567.401,100.638 564.978,99.708 C562.554,98.777 560.453,97.421 558.671,95.64 C556.891,93.858 555.494,91.661 554.483,89.045 C553.472,86.429 552.967,83.42 552.967,80.018 C552.967,75.589 553.697,71.521 555.157,67.815 C556.617,64.108 558.583,60.906 561.054,58.21 C563.525,55.515 566.39,53.413 569.647,51.904 C572.905,50.396 576.331,49.641 579.926,49.641 C582.718,49.641 585.317,50.107 587.724,51.038 C590.131,51.969 592.225,53.324 594.006,55.106 C595.788,56.887 597.191,59.085 598.219,61.701 C599.246,64.317 599.759,67.326 599.759,70.727 C599.759,75.092 599.029,79.128 597.569,82.834 C596.108,86.541 594.142,89.751 591.672,92.462 C589.2,95.175 586.335,97.293 583.079,98.817 C579.821,100.341 576.395,101.104 572.801,101.104 L572.801,101.104 Z" id="Fill-12" fill="#353533"></path>
            <path d="M463.706,30.193 C463.706,30.193 455.622,30.238 454.675,37.902 L452.22,57.767 L426.898,57.767 L430.305,30.193 L422.583,30.193 C422.583,30.193 414.642,30.246 413.585,37.721 L405.85,100.333 L414.448,100.333 C416.391,100.101 421.18,99.004 422.433,93.859 L425.074,72.317 L450.396,72.317 L446.962,100.333 L455.571,100.333 C457.505,100.102 462.262,99.018 463.542,93.935 L471.417,30.193 L463.706,30.193" id="Fill-13" fill="#353533"></path>
        </g>
    </g>
</svg>