<svg xmlns="http://www.w3.org/2000/svg" xmlns:xlink="http://www.w3.org/1999/xlink" width="130" height="32" viewBox="0 0 130 32">
  <defs>
    <clipPath id="clip-Custom_Size_1">
      <rect width="130" height="32"/>
    </clipPath>
  </defs>
  <g id="Custom_Size_1" data-name="Custom Size – 1" clip-path="url(#clip-Custom_Size_1)">
    <rect width="130" height="32" fill="#ffe100"/>
    <g id="logo-speedhome" transform="translate(4.2 -3.933)">
      <rect id="Rectangle_1" data-name="Rectangle 1" width="124" height="41" transform="translate(-0.2 -0.067)" fill="#ffe100"/>
      <g id="Group_4" data-name="Group 4" transform="translate(11.375 9.064)">
        <path id="Path_28" data-name="Path 28" d="M48.275,53.855a.625.625,0,0,1-.634-.617l-.094-7.616a.626.626,0,0,1,.367-.578l3.324-1.5a.632.632,0,0,1,.6.041.626.626,0,0,1,.291.52l.065,5.285a.627.627,0,1,1-1.254.015l-.053-4.328-2.079.94.076,6.245,7.872-3.579L56.643,40.1l-5.379-3.462-4.947,6.809.12,9.7a.626.626,0,0,1-1,.514L39.17,49.1a.631.631,0,0,1-.258-.5L38.8,39.313a.612.612,0,0,1,.147-.408l5.411-6.48a.626.626,0,0,1,.769-.156l3.479,1.794-.015-1.286a.624.624,0,0,1,.326-.555L51.2,30.965a.633.633,0,0,1,.593-.006l1.051.552a.621.621,0,0,1,.335.546l.032,2.713a.627.627,0,1,1-1.254.015l-.029-2.337-.423-.22-1.659.913.023,1.953a.621.621,0,0,1-.3.54.632.632,0,0,1-.617.023l-3.961-2.046L40.056,39.53l.109,8.741,5.006,3.644-.109-8.662a.617.617,0,0,1,.12-.376L50.6,35.422a.626.626,0,0,1,.846-.159l6.163,3.964a.63.63,0,0,1,.288.52l.117,9.328a.629.629,0,0,1-.367.578L48.527,53.8a.643.643,0,0,1-.253.056" transform="translate(-38.8 -30.889)"/>
        <g id="Group_3" data-name="Group 3" transform="translate(25.048 8.729)">
          <path id="Path_29" data-name="Path 29" d="M129.463,62.314a.463.463,0,0,1-.153.188.4.4,0,0,1-.208.056.552.552,0,0,1-.273-.094c-.1-.062-.22-.132-.358-.208a2.853,2.853,0,0,0-.482-.208,2.038,2.038,0,0,0-.652-.094,1.873,1.873,0,0,0-.59.082,1.262,1.262,0,0,0-.423.226.9.9,0,0,0-.255.346,1.158,1.158,0,0,0-.085.443.777.777,0,0,0,.173.514,1.418,1.418,0,0,0,.458.352,4.517,4.517,0,0,0,.649.261c.241.076.487.159.74.244a7.377,7.377,0,0,1,.74.3,2.67,2.67,0,0,1,.649.435,2,2,0,0,1,.458.646,2.251,2.251,0,0,1,.173.925,3.006,3.006,0,0,1-.2,1.11,2.551,2.551,0,0,1-.593.9,2.807,2.807,0,0,1-.954.6,3.52,3.52,0,0,1-1.289.22,4.045,4.045,0,0,1-.822-.082,4.328,4.328,0,0,1-.778-.232,3.907,3.907,0,0,1-.7-.364,3.527,3.527,0,0,1-.578-.473l.473-.781a.576.576,0,0,1,.161-.141.392.392,0,0,1,.208-.059.574.574,0,0,1,.326.123c.117.082.255.176.414.276a3.151,3.151,0,0,0,.564.276,2.185,2.185,0,0,0,.778.123,1.6,1.6,0,0,0,1.078-.329,1.18,1.18,0,0,0,.382-.948.89.89,0,0,0-.173-.564,1.411,1.411,0,0,0-.458-.367,3.526,3.526,0,0,0-.646-.253c-.241-.068-.487-.144-.74-.223a5.816,5.816,0,0,1-.737-.291,2.532,2.532,0,0,1-.649-.44,2.03,2.03,0,0,1-.458-.681,2.549,2.549,0,0,1-.173-1.007,2.4,2.4,0,0,1,.749-1.735,2.723,2.723,0,0,1,.9-.564,3.276,3.276,0,0,1,1.216-.211,4.094,4.094,0,0,1,1.43.241,3.22,3.22,0,0,1,1.113.678Z" transform="translate(-124.11 -60.62)"/>
          <path id="Path_30" data-name="Path 30" d="M151.337,66.64v3.08H149.71V60.97h2.851a4.957,4.957,0,0,1,1.518.206,2.929,2.929,0,0,1,1.06.575,2.235,2.235,0,0,1,.617.884,3.293,3.293,0,0,1-.012,2.29,2.407,2.407,0,0,1-.634.91,2.916,2.916,0,0,1-1.06.593,4.716,4.716,0,0,1-1.489.211Zm0-1.271h1.221a2.492,2.492,0,0,0,.781-.112,1.456,1.456,0,0,0,.552-.32,1.328,1.328,0,0,0,.326-.508,1.93,1.93,0,0,0,.109-.669,1.732,1.732,0,0,0-.109-.634,1.262,1.262,0,0,0-.326-.484,1.473,1.473,0,0,0-.552-.305,2.591,2.591,0,0,0-.781-.106h-1.221Z" transform="translate(-142.193 -60.867)"/>
          <path id="Path_31" data-name="Path 31" d="M181.83,60.97v1.295h-3.879V64.69h3.057v1.254h-3.057v2.475h3.879v1.3h-5.52V60.97Z" transform="translate(-160.983 -60.867)"/>
          <path id="Path_32" data-name="Path 32" d="M206.46,60.97v1.295h-3.879V64.69h3.056v1.254h-3.056v2.475h3.879v1.3h-5.52V60.97Z" transform="translate(-178.382 -60.867)"/>
          <path id="Path_33" data-name="Path 33" d="M233.339,65.345a4.721,4.721,0,0,1-.32,1.768,3.965,3.965,0,0,1-2.3,2.287,4.9,4.9,0,0,1-1.809.32H225.57V60.97h3.341a4.9,4.9,0,0,1,1.809.323,4.094,4.094,0,0,1,1.4.9,4.017,4.017,0,0,1,.9,1.383A4.721,4.721,0,0,1,233.339,65.345Zm-1.665,0a4.022,4.022,0,0,0-.194-1.292,2.742,2.742,0,0,0-.552-.969,2.373,2.373,0,0,0-.869-.608,2.993,2.993,0,0,0-1.154-.211h-1.7v6.16h1.7a3,3,0,0,0,1.154-.211,2.373,2.373,0,0,0,.869-.608,2.742,2.742,0,0,0,.552-.969A3.929,3.929,0,0,0,231.674,65.345Z" transform="translate(-195.78 -60.867)"/>
          <path id="Path_34" data-name="Path 34" d="M265.022,69.91h-1.18V65.964H259.17V69.91h-1.18V61.24h1.18v3.867h4.671V61.24h1.18Z" transform="translate(-218.681 -61.058)"/>
          <path id="Path_35" data-name="Path 35" d="M297.026,65.344a5.015,5.015,0,0,1-.308,1.788,4.069,4.069,0,0,1-.872,1.4,3.875,3.875,0,0,1-1.354.91,4.878,4.878,0,0,1-3.491,0,3.931,3.931,0,0,1-1.351-.91,4.068,4.068,0,0,1-.872-1.4,5.34,5.34,0,0,1,0-3.576,4.109,4.109,0,0,1,.872-1.4A3.9,3.9,0,0,1,291,61.236a4.837,4.837,0,0,1,3.491,0,3.916,3.916,0,0,1,1.354.916,4.11,4.11,0,0,1,.872,1.4A5.015,5.015,0,0,1,297.026,65.344Zm-1.2,0a4.438,4.438,0,0,0-.217-1.433,3.061,3.061,0,0,0-.617-1.075,2.7,2.7,0,0,0-.969-.675,3.269,3.269,0,0,0-1.271-.235,3.3,3.3,0,0,0-1.265.235,2.732,2.732,0,0,0-.972.675,3.022,3.022,0,0,0-.62,1.075,4.358,4.358,0,0,0-.217,1.433,4.406,4.406,0,0,0,.217,1.43,3.009,3.009,0,0,0,.62,1.072,2.663,2.663,0,0,0,.972.672,3.584,3.584,0,0,0,2.537,0,2.652,2.652,0,0,0,.969-.672,3,3,0,0,0,.617-1.072A4.316,4.316,0,0,0,295.822,65.344Z" transform="translate(-240.212 -60.825)"/>
          <path id="Path_36" data-name="Path 36" d="M328.523,67.083c.041.106.085.214.123.323.041-.112.082-.22.126-.323a3.363,3.363,0,0,1,.153-.311l2.936-5.332a.341.341,0,0,1,.164-.17.742.742,0,0,1,.241-.029h.866v8.67h-1.028V63.539c0-.085,0-.176.006-.273s.009-.2.018-.3l-2.971,5.423a.464.464,0,0,1-.423.273h-.17a.464.464,0,0,1-.423-.273L325.1,62.952q.018.159.026.308c.006.1.009.194.009.279V69.91H324.11V61.24h.866a.731.731,0,0,1,.241.029.353.353,0,0,1,.164.17l2.995,5.338A1.95,1.95,0,0,1,328.523,67.083Z" transform="translate(-265.388 -61.058)"/>
          <path id="Path_37" data-name="Path 37" d="M368.4,61.24V62.2H364.24v2.88h3.371V66H364.24v2.96H368.4v.957H363.06V61.24Z" transform="translate(-292.901 -61.058)"/>
        </g>
      </g>
    </g>
  </g>
</svg>
