<svg xmlns="http://www.w3.org/2000/svg" version="1.0" width="152" height="35" preserveAspectRatio="xMidYMid meet" style=""><rect id="backgroundrect" width="100%" height="100%" x="0" y="0" fill="none" stroke="none" class="" style=""/>



<g class="currentLayer" style=""><title>Layer 1</title><g id="layer101" fill="#ea262a" stroke="none" class="">
 <path d="M3.1023399037931916,17.54148146200335 l0,-16.372809346825253 l74.12491850569444,0 l74.12491850569444,0 l0,16.372809346825253 l0,16.372809346825253 l-74.12491850569444,0 l-74.12491850569444,0 l0,-16.372809346825253 z" id="svg_1"/>
 </g><g id="layer102" fill="#ffffff" stroke="none" class="">
 <path d="M5.082197683525802e-21,17.66119182096051 l0,-17.661192231887462 l75.90192463523283,0 l75.90192463523283,0 l0,17.661192231887462 l0,17.661192231887462 l-75.90192463523283,0 l-75.90192463523283,0 l0,-17.661192231887462 zm11.2933659491869,10.81642395062964 c2.853982402662739,-0.7098278217600746 5.5854011438614295,-2.619602675543117 6.6009286245635055,-4.613880841440455 c0.5252728348459087,-1.0309404077943956 0.577800118330501,-1.2506490192915571 0.577800118330501,-2.737907312503136 c0,-1.504158955634433 -0.03501818898972755,-1.6900662422858865 -0.49025464585617906,-2.349192076777382 c-0.5427819293407716,-0.7943311338743675 -1.7158912604966194,-1.639364255017309 -4.062109922808308,-2.9745165864231518 c-1.7509094494863446,-0.9802384205258157 -2.188636811857929,-1.4872582932115788 -1.9260003944349733,-2.2139867773945063 c0.350181889897271,-0.929536433257244 0.9630001972174906,-1.1661457071772623 3.0290733476113716,-1.1661457071772623 c1.033036575196946,0 2.2761822843322443,0.06760264969143663 2.7664369301884215,0.13520529938287248 l0.9104729137329011,0.1521059618057314 l0.5427819293407716,-2.2139867773945063 c0.7178728742894068,-2.906913936731721 0.7178728742894068,-2.8224106246174245 -0.26263641742295435,-2.957615924000293 c-1.7859276384760694,-0.236609273920026 -6.075655789717598,-0.1014039745371542 -7.739019766729619,0.21970861149716864 c-4.3772736237158565,0.8788344459886633 -7.126201459409401,3.430834471840343 -7.3538196878426305,6.861668943680675 c-0.15758185045377268,2.349192076777382 0.6653455908048159,3.413933809417482 3.922037166849401,5.154702038971939 c2.0835822448887455,1.0985430574858286 2.521309607260336,1.4872582932115788 2.521309607260336,2.197086114971646 c0,1.5717616053258747 -2.486291418270607,2.0618808155887773 -6.303274018150829,1.2675496817144172 c-0.6303274018150896,-0.11830463696001385 -1.1556002366609923,-0.20280794907430671 -1.1906184256507202,-0.185907286651449 c-0.12256366146404593,0.13520529938287248 -1.4532548430736674,5.3913113128919585 -1.365709370599351,5.458913962583397 c0.4377273623715898,0.4394172229943344 8.071692562132013,0.4056158981486148 9.82260201161837,-0.03380132484571824 zm20.258022330556948,0.2535099363428858 c5.025110120025795,-0.4563178854171923 8.737038152936833,-3.2449271851888946 9.840111106113232,-7.368688816366441 c0.14007275595890917,-0.5408211975314877 0.7879092522688619,-3.7012450706060793 1.418236654083941,-6.9968742430635436 c0.6303274018150896,-3.295629172457469 1.1906184256507202,-6.13494045949775 1.2431457091353046,-6.287046421303477 c0.08754547247431847,-0.2873112611886024 -0.14007275595890917,-0.3042119236114637 -3.046582442106237,-0.3042119236114637 l-3.1516370090754178,0 l-0.2976546064126808,1.5548609429030142 c-0.7353819687842725,3.97165566937182 -2.188636811857929,10.765721963361074 -2.451273229280877,11.458649122698272 c-0.7003637797945415,1.926675516205909 -1.7684185439812075,2.7041059876574103 -3.8695098833648096,2.83931128704028 c-1.4707639375685302,0.08450331211429556 -2.3637277568065636,-0.1521059618057314 -2.871491497157601,-0.7605298090286546 c-0.6653455908048159,-0.8281324587200849 -0.5427819293407716,-2.0280794907430595 1.1556002366609923,-10.765721963361074 c0.5953092128253636,-3.1604238730746 0.7178728742894068,-4.089960306331834 0.5602910238356371,-4.191364280868987 c-0.21010913393836245,-0.11830463696001385 -6.093164884212472,-0.20280794907430671 -6.093164884212472,-0.06760264969143663 c0,0.03380132484571824 -0.5953092128253636,3.0928212233831687 -1.3131820871147624,6.7940662939892436 c-1.383218465094218,7.0982782176006936 -1.5232912210531189,8.450331211429406 -1.0505456696918098,9.988291491909555 c0.7003637797945415,2.2984900895088036 3.0290733476113716,3.802649045143238 6.373310396130279,4.106860968754694 c0.7353819687842725,0.06760264969143663 1.418236654083941,0.13520529938287248 1.5057821265582583,0.1521059618057314 c0.10505456696918197,0 1.0155274807020809,-0.06760264969143663 2.048564055899022,-0.1521059618057314 zm19.38256760581378,-4.596980179017595 c0.49025464585617906,-2.450596051314529 1.0155274807020809,-5.1885033638176505 1.1906184256507202,-6.084238472229181 l0.2801455119178171,-1.639364255017309 l1.1205820476712636,3.1604238730746 c0.5953092128253636,1.7407682295544578 1.5933275990325755,4.4617748796347225 2.2061459063527904,6.033536484960598 l1.1205820476712636,2.8731126118859986 l3.659400749426452,0.03380132484571824 c2.0135458669092947,0.03380132484571824 3.7644553163956362,-0.01690066242285908 3.8695098833648096,-0.08450331211429556 c0.22761822843322588,-0.13520529938287248 0.9104729137329011,-3.2449271851888946 2.678891457714103,-12.117774957189768 c1.680873071506893,-8.517933861120836 1.6283457880222998,-8.230622599932234 1.365709370599351,-8.382728561737967 c-0.12256366146404593,-0.08450331211429556 -1.4532548430736674,-0.1521059618057314 -2.95903696963192,-0.1521059618057314 l-2.7314187411986937,0 l-0.8054183467637206,4.5293775293261636 c-0.45523645686645176,2.4843973761602482 -0.9104729137329011,5.137801376549079 -1.0155274807020809,5.91523184800058 c-0.12256366146404593,0.7605298090286546 -0.26263641742295435,1.3858543186744274 -0.3151637009075456,1.3858543186744274 c-0.07003637797945494,0 -0.45523645686645176,-0.9633377581029562 -0.8579456302483156,-2.1463841277030706 c-0.40270917338186185,-1.1999470320229781 -1.400727559589071,-3.8364503699889507 -2.188636811857929,-5.881430523154867 l-1.4357457485788034,-3.7181457330289414 l-3.974564450333999,-0.050701987268577144 l-3.974564450333999,-0.03380132484571824 l-0.1750909449486356,0.8788344459886633 c-0.5252728348459087,2.5181987010059648 -3.694418938416179,19.317457149327627 -3.694418938416179,19.587867748093355 c0,0.3042119236114637 0.1750909449486356,0.32111258603432047 2.871491497157601,0.32111258603432047 l2.871491497157601,0 l0.8929638192380353,-4.427973554789013 zm28.66238768809139,4.106860968754694 c0.3151637009075456,-0.3549139108800383 3.816982599880225,-7.757404052092192 5.007601025530936,-10.596715339132471 c0.40270917338186185,-0.9633377581029562 0.7879092522688619,-1.7576688919773176 0.8404365357534499,-1.7576688919773176 c0.07003637797945494,0 0.1750909449486356,1.0816423950629699 0.22761822843322588,2.399894064045953 c0.07003637797945494,1.3182516689829882 0.21010913393836245,3.3970331469946244 0.2976546064126808,4.613880841440455 c0.10505456696918197,1.1999470320229781 0.24512732292809133,2.9238145991545723 0.3151637009075456,3.802649045143238 l0.12256366146404593,1.6055629301715886 l0.7003637797945415,0.11830463696001385 c0.8929638192380353,0.1521059618057314 5.6379284273460195,0.16900662422858986 6.198219451181646,0.01690066242285908 c0.5077637403510422,-0.11830463696001385 1.680873071506893,-2.4336953888916697 6.846055947491593,-13.317721989212755 c1.855964016455524,-3.9040530196803847 3.3967643320035026,-7.148980204869284 3.4492916154880926,-7.233483516983569 c0.03501818898972755,-0.06760264969143663 -1.365709370599351,-0.1014039745371542 -3.1166188200856917,-0.08450331211429556 l-3.2041642925600056,0.050701987268577144 l-1.1030729531764034,2.3660927392002344 c-2.031054961404157,4.25896693056042 -3.6769098439213153,7.926410676320781 -4.079619017303177,9.041854396229462 c-0.5602910238356371,1.504158955634433 -0.7003637797945415,1.5886622677487254 -0.7003637797945415,0.4056158981486148 c0,-0.9802384205258157 -0.752891063279135,-9.700980230720948 -0.9630001972174906,-11.171337861509668 l-0.10505456696918197,-0.7267284841829336 l-3.2041642925600056,0 l-3.2041642925600056,0 l-2.5388187017551975,5.526516612274831 c-1.400727559589071,3.059019898537446 -2.6438732687243753,5.813827873463435 -2.7664369301884215,6.13494045949775 c-0.40270917338186185,1.0140397453715333 -0.49025464585617906,0.929536433257244 -0.6128183073202249,-0.6084238472229225 c-0.05252728348459129,-0.8281324587200849 -0.2976546064126808,-3.599841096068927 -0.5427819293407716,-6.168741784343467 c-0.22761822843322588,-2.568900688274542 -0.420218267876726,-4.715284815977607 -0.420218267876726,-4.782887465669043 c0,-0.050701987268577144 -1.488273032063394,-0.1014039745371542 -3.3092188595291905,-0.1014039745371542 l-3.3267279540240486,0 l0.08754547247431847,0.5408211975314877 c0.12256366146404593,0.8112317962972275 1.9960367724144308,19.080847875407592 1.9960367724144308,19.41886112386476 c0,0.7436291466057945 0.36769098439213677,0.8281324587200849 3.694418938416179,0.8281324587200849 c2.871491497157601,0 3.16914610357028,-0.03380132484571824 3.4142734264983683,-0.32111258603432047 zm25.195586978108455,-1.3182516689829882 l0.8754547247431751,-1.5717616053258747 l3.4142734264983683,0 c1.8734731109503868,0 3.501818898972689,0.06760264969143663 3.624382560436728,0.13520529938287248 c0.12256366146404593,0.06760264969143663 0.3151637009075456,0.7774304714515111 0.4377273623715898,1.5548609429030142 l0.22761822843322588,1.4365563059430044 l3.239182481549735,0 l3.239182481549735,0 l-0.05252728348459129,-0.8450331211429454 c-0.01750909449486377,-0.4563178854171923 -0.5953092128253636,-4.106860968754694 -1.2606548036301686,-8.112317962972222 c-0.6828546852996791,-3.988556331794683 -1.400727559589071,-8.281324587200817 -1.5933275990325755,-9.498172281646648 l-0.38520007888699886,-2.2477881022402264 l-3.781964410890497,0 l-3.781964410890497,0 l-5.200201064974438,9.26156300772663 c-6.005619411738144,10.715019976092485 -6.145692167697055,10.968529912435361 -6.023128506233011,11.289642498469684 c0.08754547247431847,0.20280794907430671 0.6303274018150896,0.236609273920026 3.1166188200856917,0.20280794907430671 l3.0290733476113716,-0.050701987268577144 l0.8754547247431751,-1.5548609429030142 zm25.300641545077617,-1.6562649174401651 l0.6303274018150896,-3.228026522766037 l5.13016468699498,-7.081377555177839 l5.112655592500119,-7.0982782176006936 l-3.3792552375086404,-0.050701987268577144 c-2.8014551191781463,-0.03380132484571824 -3.4142734264983683,0 -3.554346182457272,0.20280794907430671 c-0.08754547247431847,0.13520529938287248 -1.3482002761044862,1.9773775034744814 -2.8014551191781463,4.106860968754694 l-2.6088550797346475,3.8533510324118128 l-0.15758185045377268,-0.6760264969143552 c-0.14007275595890917,-0.642225172068641 -1.4707639375685302,-5.4927152874291165 -1.8734731109503868,-6.89547026852639 l-0.19260003944350002,-0.6253245096457835 l-3.2216733870548695,0 c-1.7684185439812075,0 -3.2566915760445965,0.050701987268577144 -3.291709765034324,0.11830463696001385 c-0.03501818898972755,0.08450331211429556 0.7178728742894068,2.5350993634288264 1.6633639770120314,5.458913962583397 c0.9454911027226275,2.9238145991545723 1.9610185834247031,6.13494045949775 2.2586731898373813,7.1320795424464185 l0.5252728348459087,1.8083708792458943 l-0.5602910238356371,2.8731126118859986 c-0.2976546064126808,1.5717616053258747 -0.5077637403510422,2.991417248846009 -0.45523645686645176,3.143523210651738 c0.10505456696918197,0.21970861149716864 0.5077637403510422,0.2535099363428858 3.1166188200856917,0.21970861149716864 l3.011564253116505,-0.050701987268577144 l0.6478364963099533,-3.2111258603431763 zm18.40205831410144,-11.255841173623969 c0.33267279540240924,-0.11830463696001385 0.8754547247431751,-0.4563178854171923 1.2256366146404454,-0.7774304714515111 c1.6633639770120314,-1.5210596180573015 1.0855638586815375,-4.039258319063254 -1.1030729531764034,-4.95189408989763 c-2.451273229280877,-1.0140397453715333 -5.025110120025795,1.1830463696001234 -4.2547099622518045,3.6505430833375088 c0.5252728348459087,1.7238675671316013 2.3637277568065636,2.6365033379659764 4.132146300787768,2.078781478011636 z" id="svg_2"/>
 <path d="M109.53689515986555,18.13441036880053 c1.5933275990325755,-2.957615924000293 1.9960367724144308,-3.6336424209146476 1.9960367724144308,-3.3294304973031896 c0,0.1014039745371542 0.15758185045377268,1.3182516689829882 0.350181889897271,2.6872053252345527 c0.19260003944350002,1.3689536562515694 0.350181889897271,2.721006650080271 0.350181889897271,2.9745165864231518 l0,0.49011921026290967 l-2.118600433878476,0 l-2.101091339383611,0 l1.5232912210531189,-2.8224106246174245 z" id="svg_3"/>
 <path d="M146.63866639448108,13.48672820251438 c-2.118600433878476,-0.7098278217600746 -2.3987459457962927,-3.6336424209146476 -0.4377273623715898,-4.613880841440455 c1.3482002761044862,-0.6760264969143552 2.9765460641267785,-0.08450331211429556 3.5718552769521374,1.3013510065601306 c0.5602910238356371,1.3182516689829882 -0.05252728348459129,2.737907312503136 -1.418236654083941,3.2787285100346075 c-0.6478364963099533,0.2704105987657443 -0.9805092917123521,0.2704105987657443 -1.7158912604966194,0.03380132484571824 zm0.14007275595890917,-1.335152331405851 c0.05252728348459129,-0.37181457330289797 0.14007275595890917,-0.7436291466057945 0.21010913393836245,-0.7943311338743675 c0.05252728348459129,-0.06760264969143663 0.4377273623715898,0.2535099363428858 0.8579456302483156,0.7098278217600746 c0.8579456302483156,0.9633377581029562 1.400727559589071,1.0309404077943956 0.7353819687842725,0.1014039745371542 l-0.420218267876726,-0.6084238472229225 l0.420218267876726,-0.49011921026290967 c0.5427819293407716,-0.6591258344914998 0.5252728348459087,-0.9971390829486746 -0.03501818898972755,-1.4196556435201428 c-0.350181889897271,-0.2535099363428858 -0.7178728742894068,-0.3549139108800383 -1.400727559589071,-0.3549139108800383 l-0.9454911027226275,0 l0,1.7407682295544578 c0,0.9633377581029562 0.05252728348459129,1.8083708792458943 0.10505456696918197,1.8590728665144738 c0.21010913393836245,0.20280794907430671 0.36769098439213677,-0.050701987268577144 0.47274555136131724,-0.7436291466057945 z" id="svg_4"/>
 <path d="M146.9013028119039,10.32630432943978 c0,-0.4394172229943344 0.07003637797945494,-0.523920535108628 0.40270917338186185,-0.523920535108628 c0.9980183862072206,0.01690066242285908 1.1556002366609923,0.8957351084115229 0.15758185045377268,0.9802384205258157 c-0.5252728348459087,0.050701987268577144 -0.5602910238356371,0.01690066242285908 -0.5602910238356371,-0.4563178854171923 z" id="svg_5"/>
 </g></g></svg>