<?xml version="1.0" encoding="UTF-8"?>
<!DOCTYPE svg PUBLIC "-//W3C//DTD SVG 1.1//EN" "http://www.w3.org/Graphics/SVG/1.1/DTD/svg11.dtd">
<svg xmlns="http://www.w3.org/2000/svg" version="1.1" width="170px" height="68px" style="shape-rendering:geometricPrecision; text-rendering:geometricPrecision; image-rendering:optimizeQuality; fill-rule:evenodd; clip-rule:evenodd" xmlns:xlink="http://www.w3.org/1999/xlink">
<g><path style="opacity:0.987" fill="#a3d0d3" d="M 93.5,-0.5 C 120.833,-0.5 148.167,-0.5 175.5,-0.5C 177.139,16.4719 186.472,25.8052 203.5,27.5C 203.667,51.169 203.5,74.8357 203,98.5C 198.713,115.783 189.88,130.283 176.5,142C 164.46,152.017 151.46,160.517 137.5,167.5C 135.5,167.5 133.5,167.5 131.5,167.5C 109.975,157.48 91.8081,143.147 77,124.5C 71.685,116.536 68.0184,107.869 66,98.5C 65.5,74.8357 65.3334,51.169 65.5,27.5C 82.5084,25.825 91.8417,16.4916 93.5,-0.5 Z"/></g>
<g><path style="opacity:1" fill="#e2eef3" d="M 126.5,42.5 C 148.897,40.599 163.397,50.2657 170,71.5C 170.328,101.504 155.495,115.337 125.5,113C 106.206,105.925 97.373,92.0914 99,71.5C 102.765,56.5863 111.931,46.9196 126.5,42.5 Z"/></g>
<g><path style="opacity:1" fill="#bf323e" d="M 139.5,72.5 C 145.31,73.4896 151.31,73.8229 157.5,73.5C 157.5,76.8333 157.5,80.1667 157.5,83.5C 151.5,83.5 145.5,83.5 139.5,83.5C 139.5,89.5 139.5,95.5 139.5,101.5C 136.167,101.5 132.833,101.5 129.5,101.5C 129.5,95.5 129.5,89.5 129.5,83.5C 123.5,83.5 117.5,83.5 111.5,83.5C 111.5,80.1667 111.5,76.8333 111.5,73.5C 117.69,73.8229 123.69,73.4896 129.5,72.5C 129.5,66.5 129.5,60.5 129.5,54.5C 132.833,54.5 136.167,54.5 139.5,54.5C 139.5,60.5 139.5,66.5 139.5,72.5 Z"/></g>
<g><path style="opacity:1" fill="#cf858d" d="M 129.5,72.5 C 123.69,73.4896 117.69,73.8229 111.5,73.5C 111.5,76.8333 111.5,80.1667 111.5,83.5C 110.518,80.0381 110.185,76.3714 110.5,72.5C 116.833,72.5 123.167,72.5 129.5,72.5 Z"/></g>
<g><path style="opacity:1" fill="#cf858d" d="M 139.5,72.5 C 145.833,72.5 152.167,72.5 158.5,72.5C 158.815,76.3714 158.482,80.0381 157.5,83.5C 157.5,80.1667 157.5,76.8333 157.5,73.5C 151.31,73.8229 145.31,73.4896 139.5,72.5 Z"/></g>
</svg>
