<svg width="12" height="16" viewBox="0 0 12 16" fill="none" xmlns="http://www.w3.org/2000/svg">
<rect width="12" height="16" fill="#F5F5F5"/>
<g clip-path="url(#clip0_0_1)">
<path d="M5.56522 0C4.08975 0.00172737 2.67518 0.607373 1.63186 1.68407C0.588545 2.76077 0.00167382 4.22058 0 5.74326C0 10.6577 5.34957 15.8173 5.56522 15.9727C5.46136 15.9727 5.65028 16.0342 5.56522 15.9727C5.48015 16.0342 5.66908 15.9727 5.56522 15.9727C5.78087 15.8173 11.1304 10.6577 11.1304 5.74326C11.1288 4.22058 10.5419 2.76077 9.49857 1.68407C8.45523 0.607373 7.0407 0.00172737 5.56522 0ZM5.56522 3.6548C5.96547 3.6548 6.35674 3.77729 6.68953 4.00677C7.02233 4.23625 7.28174 4.56242 7.43485 4.94404C7.58804 5.32566 7.6281 5.74557 7.55005 6.15069C7.47193 6.55581 7.27923 6.92794 6.99617 7.22004C6.71318 7.51207 6.35258 7.71103 5.96003 7.79158C5.56746 7.87214 5.16056 7.83082 4.79078 7.67277C4.42099 7.51464 4.10493 7.24696 3.88256 6.90354C3.66019 6.5601 3.5415 6.15631 3.5415 5.74326C3.5415 5.18936 3.75471 4.65816 4.13423 4.2665C4.51375 3.87483 5.02849 3.6548 5.56522 3.6548Z" fill="#007AB3"/>
</g>
<defs>
<clipPath id="clip0_0_1">
<rect width="11.1304" height="16" fill="white"/>
</clipPath>
</defs>
</svg>
