<?xml version="1.0" encoding="UTF-8"?>
<svg width="218px" height="194px" viewBox="0 0 218 194" version="1.1" xmlns="http://www.w3.org/2000/svg" xmlns:xlink="http://www.w3.org/1999/xlink">
    <title>B8EB618A-13AC-4D1D-A6CF-BACB4A40A174</title>
    <defs>
        <path d="M0.999,75 C0.999,116.421 34.579,150.001 76,150.001 L76,150.001 C117.422,150.001 151,116.421 151,75 L151,75 C151,33.578 117.422,0 76,0 L76,0 C34.579,0 0.999,33.578 0.999,75 L0.999,75 Z" id="path-1"></path>
        <path d="M101.865,4.845 L52.148,88.609 L8.964,140.888 L4.523,153.819 L0.44,185.003 C0.44,185.003 26.35,193.432 35.973,193.576 L35.973,193.576 C58.443,193.909 65.988,173.001 65.988,173.001 L65.988,173.001 L76.84,167.557 L119.32,128.052 L173.94,109.794 C173.94,109.794 203.078,64.474 202.443,61.937 L202.443,61.937 C201.809,59.4 186.584,19.435 186.584,19.435 L186.584,19.435 C186.584,19.435 173.897,1.673 170.725,1.039 L170.725,1.039 C170.514,0.996 170.024,0.976999806 169.295,0.976999806 L169.295,0.976999806 C159.088,0.976999806 101.865,4.845 101.865,4.845" id="path-3"></path>
        <path d="M101.865,4.845 L52.148,88.609 L8.964,140.888 L4.523,153.819 L0.44,185.003 C0.44,185.003 26.35,193.432 35.973,193.576 L35.973,193.576 C58.443,193.909 65.988,173.001 65.988,173.001 L65.988,173.001 L76.84,167.557 L119.32,128.052 L173.94,109.794 C173.94,109.794 203.078,64.474 202.443,61.937 L202.443,61.937 C201.809,59.4 186.584,19.435 186.584,19.435 L186.584,19.435 C186.584,19.435 173.897,1.673 170.725,1.039 L170.725,1.039 C170.514,0.996 170.024,0.976999806 169.295,0.976999806 L169.295,0.976999806 C159.088,0.976999806 101.865,4.845 101.865,4.845" id="path-5"></path>
        <path d="M101.865,4.845 L52.148,88.609 L8.964,140.888 L4.523,153.819 L0.44,185.003 C0.44,185.003 26.35,193.432 35.973,193.576 L35.973,193.576 C58.443,193.909 65.988,173.001 65.988,173.001 L65.988,173.001 L76.84,167.557 L119.32,128.052 L173.94,109.794 C173.94,109.794 203.078,64.474 202.443,61.937 L202.443,61.937 C201.809,59.4 186.584,19.435 186.584,19.435 L186.584,19.435 C186.584,19.435 173.897,1.673 170.725,1.039 L170.725,1.039 C170.514,0.996 170.024,0.976999806 169.295,0.976999806 L169.295,0.976999806 C159.088,0.976999806 101.865,4.845 101.865,4.845" id="path-7"></path>
        <path d="M101.865,4.845 L52.148,88.609 L8.964,140.888 L4.523,153.819 L0.44,185.003 C0.44,185.003 26.35,193.432 35.973,193.576 L35.973,193.576 C58.443,193.909 65.988,173.001 65.988,173.001 L65.988,173.001 L76.84,167.557 L119.32,128.052 L173.94,109.794 C173.94,109.794 203.078,64.474 202.443,61.937 L202.443,61.937 C201.809,59.4 186.584,19.435 186.584,19.435 L186.584,19.435 C186.584,19.435 173.897,1.673 170.725,1.039 L170.725,1.039 C170.514,0.996 170.024,0.976999806 169.295,0.976999806 L169.295,0.976999806 C159.088,0.976999806 101.865,4.845 101.865,4.845" id="path-9"></path>
        <path d="M101.865,4.845 L52.148,88.609 L8.964,140.888 L4.523,153.819 L0.44,185.003 C0.44,185.003 26.35,193.432 35.973,193.576 L35.973,193.576 C58.443,193.909 65.988,173.001 65.988,173.001 L65.988,173.001 L76.84,167.557 L119.32,128.052 L173.94,109.794 C173.94,109.794 203.078,64.474 202.443,61.937 L202.443,61.937 C201.809,59.4 186.584,19.435 186.584,19.435 L186.584,19.435 C186.584,19.435 173.897,1.673 170.725,1.039 L170.725,1.039 C170.514,0.996 170.024,0.976999806 169.295,0.976999806 L169.295,0.976999806 C159.088,0.976999806 101.865,4.845 101.865,4.845" id="path-11"></path>
        <path d="M101.865,4.845 L52.148,88.609 L8.964,140.888 L4.523,153.819 L0.44,185.003 C0.44,185.003 26.35,193.432 35.973,193.576 L35.973,193.576 C58.443,193.909 65.988,173.001 65.988,173.001 L65.988,173.001 L76.84,167.557 L119.32,128.052 L173.94,109.794 C173.94,109.794 203.078,64.474 202.443,61.937 L202.443,61.937 C201.809,59.4 186.584,19.435 186.584,19.435 L186.584,19.435 C186.584,19.435 173.897,1.673 170.725,1.039 L170.725,1.039 C170.514,0.996 170.024,0.976999806 169.295,0.976999806 L169.295,0.976999806 C159.088,0.976999806 101.865,4.845 101.865,4.845" id="path-13"></path>
        <path d="M101.865,4.845 L52.148,88.609 L8.964,140.888 L4.523,153.819 L0.44,185.003 C0.44,185.003 26.35,193.432 35.973,193.576 L35.973,193.576 C58.443,193.909 65.988,173.001 65.988,173.001 L65.988,173.001 L76.84,167.557 L119.32,128.052 L173.94,109.794 C173.94,109.794 203.078,64.474 202.443,61.937 L202.443,61.937 C201.809,59.4 186.584,19.435 186.584,19.435 L186.584,19.435 C186.584,19.435 173.897,1.673 170.725,1.039 L170.725,1.039 C170.514,0.996 170.024,0.976999806 169.295,0.976999806 L169.295,0.976999806 C159.088,0.976999806 101.865,4.845 101.865,4.845" id="path-15"></path>
        <path d="M101.865,4.845 L52.148,88.609 L8.964,140.888 L4.523,153.819 L0.44,185.003 C0.44,185.003 26.35,193.432 35.973,193.576 L35.973,193.576 C58.443,193.909 65.988,173.001 65.988,173.001 L65.988,173.001 L76.84,167.557 L119.32,128.052 L173.94,109.794 C173.94,109.794 203.078,64.474 202.443,61.937 L202.443,61.937 C201.809,59.4 186.584,19.435 186.584,19.435 L186.584,19.435 C186.584,19.435 173.897,1.673 170.725,1.039 L170.725,1.039 C170.514,0.996 170.024,0.976999806 169.295,0.976999806 L169.295,0.976999806 C159.088,0.976999806 101.865,4.845 101.865,4.845" id="path-17"></path>
        <path d="M101.865,4.845 L52.148,88.609 L8.964,140.888 L4.523,153.819 L0.44,185.003 C0.44,185.003 26.35,193.432 35.973,193.576 L35.973,193.576 C58.443,193.909 65.988,173.001 65.988,173.001 L65.988,173.001 L76.84,167.557 L119.32,128.052 L173.94,109.794 C173.94,109.794 203.078,64.474 202.443,61.937 L202.443,61.937 C201.809,59.4 186.584,19.435 186.584,19.435 L186.584,19.435 C186.584,19.435 173.897,1.673 170.725,1.039 L170.725,1.039 C170.514,0.996 170.024,0.976999806 169.295,0.976999806 L169.295,0.976999806 C159.088,0.976999806 101.865,4.845 101.865,4.845" id="path-19"></path>
        <path d="M101.865,4.845 L52.148,88.609 L8.964,140.888 L4.523,153.819 L0.44,185.003 C0.44,185.003 26.35,193.432 35.973,193.576 L35.973,193.576 C58.443,193.909 65.988,173.001 65.988,173.001 L65.988,173.001 L76.84,167.557 L119.32,128.052 L173.94,109.794 C173.94,109.794 203.078,64.474 202.443,61.937 L202.443,61.937 C201.809,59.4 186.584,19.435 186.584,19.435 L186.584,19.435 C186.584,19.435 173.897,1.673 170.725,1.039 L170.725,1.039 C170.514,0.996 170.024,0.976999806 169.295,0.976999806 L169.295,0.976999806 C159.088,0.976999806 101.865,4.845 101.865,4.845" id="path-21"></path>
        <path d="M101.865,4.845 L52.148,88.609 L8.964,140.888 L4.523,153.819 L0.44,185.003 C0.44,185.003 26.35,193.432 35.973,193.576 L35.973,193.576 C58.443,193.909 65.988,173.001 65.988,173.001 L65.988,173.001 L76.84,167.557 L119.32,128.052 L173.94,109.794 C173.94,109.794 203.078,64.474 202.443,61.937 L202.443,61.937 C201.809,59.4 186.584,19.435 186.584,19.435 L186.584,19.435 C186.584,19.435 173.897,1.673 170.725,1.039 L170.725,1.039 C170.514,0.996 170.024,0.976999806 169.295,0.976999806 L169.295,0.976999806 C159.088,0.976999806 101.865,4.845 101.865,4.845" id="path-23"></path>
        <path d="M101.865,4.845 L52.148,88.609 L8.964,140.888 L4.523,153.819 L0.44,185.003 C0.44,185.003 26.35,193.432 35.973,193.576 L35.973,193.576 C58.443,193.909 65.988,173.001 65.988,173.001 L65.988,173.001 L76.84,167.557 L119.32,128.052 L173.94,109.794 C173.94,109.794 203.078,64.474 202.443,61.937 L202.443,61.937 C201.809,59.4 186.584,19.435 186.584,19.435 L186.584,19.435 C186.584,19.435 173.897,1.673 170.725,1.039 L170.725,1.039 C170.514,0.996 170.024,0.976999806 169.295,0.976999806 L169.295,0.976999806 C159.088,0.976999806 101.865,4.845 101.865,4.845" id="path-25"></path>
        <path d="M101.865,4.845 L52.148,88.609 L8.964,140.888 L4.523,153.819 L0.44,185.003 C0.44,185.003 26.35,193.432 35.973,193.576 L35.973,193.576 C58.443,193.909 65.988,173.001 65.988,173.001 L65.988,173.001 L76.84,167.557 L119.32,128.052 L173.94,109.794 C173.94,109.794 203.078,64.474 202.443,61.937 L202.443,61.937 C201.809,59.4 186.584,19.435 186.584,19.435 L186.584,19.435 C186.584,19.435 173.897,1.673 170.725,1.039 L170.725,1.039 C170.514,0.996 170.024,0.976999806 169.295,0.976999806 L169.295,0.976999806 C159.088,0.976999806 101.865,4.845 101.865,4.845" id="path-27"></path>
    </defs>
    <g id="SHC---New-Biz" stroke="none" stroke-width="1" fill="none" fill-rule="evenodd">
        <g id="Smarthome_HO_Back" transform="translate(-586.000000, -258.000000)">
            <g id="WavingGuy" transform="translate(695.000000, 355.000000) scale(-1, 1) translate(-695.000000, -355.000000) translate(586.000000, 258.000000)">
                <g id="Group-16" transform="translate(0.000000, 23.000000)">
                    <mask id="mask-2" fill="white">
                        <use xlink:href="#path-1"></use>
                    </mask>
                    <g id="Clip-2"></g>
                    <polygon id="Fill-1" fill="#E0CEEA" mask="url(#mask-2)" points="-4 155 156 155 156 -5 -4 -5"></polygon>
                    <path d="M179.4451,13.3021 C177.6261,12.5411 176.2421,10.8191 175.8891,8.8791 C175.5381,6.9391 176.2281,4.8401 177.6631,3.4881 C175.5751,-0.4149 175.8261,-6.0569 178.7961,-9.3399 C180.3831,-11.0959 183.0081,-12.3259 185.1141,-11.2439 C186.6381,-10.4619 187.4021,-8.7349 187.9141,-7.0999 C190.3821,0.7801 189.5471,9.6391 185.6511,16.9201 C183.0691,16.7661 181.8311,14.3011 179.4451,13.3021" id="Fill-3" fill="#FFAC99" mask="url(#mask-2)"></path>
                    <path d="M100.9754,143.5198 C131.5484,141.2958 163.7194,139.3528 191.4054,152.5108 C208.4394,160.6078 222.5374,173.9708 233.9594,188.9778 C245.3834,203.9848 254.3404,220.6898 263.2464,237.3148 C263.4774,237.7468 263.3944,237.3188 263.7544,237.6518 C259.4574,241.0178 254.3934,243.3988 249.0604,244.5588 C228.2734,229.9078 207.8274,203.7878 192.6874,183.3528 C155.6414,173.1508 120.4014,186.4318 85.1624,171.1088 C84.4724,157.4018 92.9884,154.6798 100.9754,143.5198" id="Fill-4" fill="#97679F" mask="url(#mask-2)"></path>
                    <path d="M106.1727,152.0472 C120.8097,221.9272 120.4127,294.9172 105.0177,364.6332 C98.8607,365.3622 92.1467,365.0162 86.2497,363.0992 C81.5797,336.4422 84.1357,308.7292 91.9757,282.8282 C101.7357,250.5882 79.2927,219.2972 72.7717,186.2492 C70.8917,176.7242 75.5277,168.9542 81.6237,161.3982 C87.7217,153.8402 96.4917,152.8062 106.1727,152.0472" id="Fill-5" fill="#97679F" mask="url(#mask-2)"></path>
                    <path d="M77.2176,205.8391 C62.5806,199.1811 55.7466,182.4071 51.7056,166.8431 C47.1486,149.2891 44.3986,131.2671 43.5106,113.1521 C42.9886,102.4621 43.4126,90.8321 50.0876,82.4651 C55.0196,76.2851 62.7376,72.8581 70.5196,71.4631 C76.9736,70.3071 84.2476,70.6131 89.2376,74.8681 C96.1156,80.7351 95.8756,91.1461 96.6366,100.1541 C97.9126,115.2751 103.7006,129.9851 113.0696,141.9201 C108.1566,168.6411 98.3116,188.7161 77.2176,205.8391" id="Fill-6" fill="#007E8E" mask="url(#mask-2)"></path>
                    <path d="M84.5838,123.0735 C83.8038,120.8575 81.9268,118.9195 79.5988,118.5945 C77.4618,118.2975 75.1998,119.5025 74.2548,121.4415 C73.3098,123.3815 73.7108,126.2165 75.2618,127.7155 C73.5648,128.9195 72.7678,131.1035 72.9748,133.1575 C72.5048,133.1265 72.0298,133.1115 71.5478,133.1335 C70.3308,138.0315 68.3018,143.7535 65.5028,147.9545 C64.5868,149.3295 63.3218,150.7925 61.6708,150.7325 C59.5148,150.6555 58.4098,148.1375 57.9928,146.0205 C56.7958,139.9465 57.0678,133.5895 58.7798,127.6395 C60.9008,120.2695 65.2358,113.0015 63.7748,105.4725 C62.4278,98.5195 53.1198,91.2015 47.5768,86.7935 C46.9598,87.9325 46.4228,89.1135 45.8458,90.2745 C43.2908,97.3565 43.1358,105.4865 43.5108,113.1515 C44.3978,131.2665 47.1488,149.2895 51.7058,166.8435 C52.3948,169.4945 53.1718,172.1785 54.0468,174.845344 C60.8148,174.9055 67.8798,171.6555 72.5288,166.5265 C79.5468,158.7865 82.1128,148.0075 83.1408,137.6095 C82.8258,137.3655 82.5038,137.1325 82.1818,136.8995 C83.3358,134.7385 84.2178,132.4305 84.7218,130.0335 C85.2058,127.7335 85.3648,125.2905 84.5838,123.0735" id="Fill-7" fill="#005862" mask="url(#mask-2)"></path>
                    <path d="M72.7137,134.8421 C70.9707,132.1781 71.9877,128.1191 74.7827,126.5931 C73.4177,124.9231 73.3507,122.0611 74.5167,120.2451 C75.6817,118.4301 78.0687,117.4971 80.1567,118.0431 C82.4307,118.6371 84.0677,120.7811 84.5837,123.0731 C85.1007,125.3661 84.6557,127.7751 83.9067,130.0011 C82.7067,133.5711 80.7167,136.8721 78.1207,139.6021 C75.9187,139.1341 73.9457,136.7261 72.7137,134.8421" id="Fill-8" fill="#FFAC99" mask="url(#mask-2)"></path>
                    <path d="M52.0721,82.7151 C40.0741,99.7631 32.8291,120.1181 31.3581,140.9121 C30.6961,150.2681 31.7121,160.8601 38.8531,166.9381 C46.8101,173.7091 59.6581,171.6871 67.5321,164.8191 C75.4061,157.9521 79.2151,147.5471 81.4511,137.3421 C78.3721,134.3021 74.7761,131.8541 70.4621,131.5391 C68.6791,136.2631 65.9961,141.7081 62.7251,145.5531 C61.6551,146.8111 60.2271,148.1161 58.5941,147.8641 C56.4621,147.5351 55.6591,144.9051 55.4921,142.7541 C55.0131,136.5821 56.0281,130.3001 58.4241,124.5921 C61.3911,117.5211 66.5461,110.8091 65.9761,103.1601 C65.4491,96.0981 57.0611,87.7411 52.0721,82.7151" id="Fill-9" fill="#007E8E" mask="url(#mask-2)"></path>
                    <path d="M79.7,72.3235 C94.283,74.6505 109.246,75.6435 123.788,73.0755 C138.33,70.5075 152.499,64.1505 162.666,53.4415 C172.833,42.7315 178.546,27.3835 175.893,12.8565 C179.031,10.5715 183.761,11.1725 187.59,11.8145 C192.895,37.6165 182.201,65.5235 162.042,82.4805 C141.884,99.4365 114.507,106.3655 88.208,104.8495 C83.57,96.4445 81.742,81.7025 79.7,72.3235" id="Fill-10" fill="#007E8E" mask="url(#mask-2)"></path>
                    <path d="M64.9588,49.8992 C73.8408,51.1072 83.0938,51.1912 91.5348,48.1762 C99.9768,45.1612 107.5168,38.6362 109.9998,30.0232 C111.4898,24.8552 110.5778,18.3312 105.9368,15.6122 C101.1678,12.8202 95.0168,15.3462 90.6898,18.7832 C86.3628,22.2202 82.5488,26.6702 77.2698,28.3022 C67.9118,31.1942 57.7298,24.1632 48.2638,26.6742 C40.8458,28.6422 35.8098,37.0562 37.5798,44.5232 C35.4918,45.9702 34.3268,48.9882 34.0888,51.5172 C33.8508,54.0462 34.4798,56.5912 35.4628,58.9352 C37.6798,64.2212 41.7538,68.7062 46.8038,71.4202 C51.8528,74.1342 57.8418,75.0562 63.4738,73.9882 C61.6378,71.4292 59.4628,68.1922 58.3348,65.2512 C57.2058,62.3112 56.8038,58.9872 57.8228,56.0072 C58.8428,53.0272 61.8378,49.4742 64.9588,49.8992" id="Fill-11" fill="#363436" mask="url(#mask-2)"></path>
                    <path d="M67.1483,65.6087 C68.7733,70.1597 70.3983,74.7107 72.0223,79.2607 C67.4903,81.3907 63.2363,81.5367 58.2373,81.8237 C57.2203,77.8797 56.6883,73.3397 55.6713,69.3967 C60.0203,68.1577 62.7993,66.8467 67.1483,65.6087" id="Fill-12" fill="#FFAC99" mask="url(#mask-2)"></path>
                    <path d="M71.659,78.2415 C66.468,77.3665 61.39,75.8385 56.59,73.6785 C56.313,72.2145 56.025,70.7655 55.672,69.3965 C60.02,68.1575 62.8,66.8465 67.148,65.6085 C68.651,69.8195 70.155,74.0305 71.659,78.2415" id="Fill-13" fill="#EC9A91" mask="url(#mask-2)"></path>
                    <path d="M66.7088,41.2776 C73.5638,49.0696 77.0018,59.7666 75.9688,70.0926 C69.4868,71.8936 62.2528,73.6896 55.7118,72.1176 C50.3638,70.8316 45.6108,67.2446 42.9078,62.4546 C40.2058,57.6636 39.5938,51.7396 41.2598,46.4976 C42.4248,42.8316 44.7568,39.4356 48.1048,37.5396 C53.6998,34.3716 62.4618,36.4506 66.7088,41.2776" id="Fill-14" fill="#FFAC99" mask="url(#mask-2)"></path>
                    <path d="M79.9031,45.2318 C73.4271,48.3278 66.1101,49.6388 58.9621,48.9848 C57.4311,51.6208 55.6771,53.6688 53.3121,55.5908 C54.6231,58.1938 56.0111,60.9708 57.3221,63.5748 C56.6181,63.7778 55.7431,64.2468 55.0391,64.4498 C54.4501,61.9098 53.4111,58.8468 51.7021,56.8778 C51.1331,56.2218 50.4101,55.5688 49.5431,55.5838 C48.6601,55.5968 47.9141,56.3468 47.6651,57.1938 C47.4151,58.0408 47.5691,58.9558 47.8281,59.7998 C48.7681,62.8748 51.1321,65.4828 54.0991,66.7208 C55.2631,68.5128 56.4121,71.2558 55.8991,73.3318 C48.8181,72.5898 42.6451,67.9838 39.6431,61.5278 C36.6421,55.0708 37.2891,47.0608 41.2861,41.1688 C45.2841,35.2768 52.4891,31.7158 59.5971,32.1198 C67.9831,32.5948 75.2701,38.2258 79.9031,45.2318" id="Fill-15" fill="#363436" mask="url(#mask-2)"></path>
                </g>
                <g id="Group-56" transform="translate(15.000000, 0.000000)">
                    <g id="Group-19">
                        <mask id="mask-4" fill="white">
                            <use xlink:href="#path-3"></use>
                        </mask>
                        <g id="Clip-18"></g>
                        <path d="M164.4451,36.3021 C162.6261,35.5411 161.2421,33.8191 160.8891,31.8791 C160.5381,29.9391 161.2281,27.8401 162.6631,26.4881 C160.5751,22.5851 160.8261,16.9431 163.7961,13.6601 C165.3831,11.9041 168.0081,10.6741 170.1141,11.7561 C171.6381,12.5381 172.4021,14.2651 172.9141,15.9001 C175.3821,23.7801 174.5471,32.6391 170.6511,39.9201 C168.0691,39.7661 166.8311,37.3011 164.4451,36.3021" id="Fill-17" fill="#FFAC99" mask="url(#mask-4)"></path>
                    </g>
                    <g id="Group-22">
                        <mask id="mask-6" fill="white">
                            <use xlink:href="#path-5"></use>
                        </mask>
                        <g id="Clip-21"></g>
                        <path d="M85.9754,166.5198 C116.5484,164.2958 148.7194,162.3528 176.4054,175.5108 C193.4394,183.6078 207.5374,196.9708 218.9594,211.9778 C230.3834,226.9848 239.3404,243.6898 248.2464,260.3148 C248.4774,260.7468 248.3944,260.3188 248.7544,260.6518 C244.4574,264.0178 239.3934,266.3988 234.0604,267.5588 C213.2734,252.9078 192.8274,226.7878 177.6874,206.3528 C140.6414,196.1508 105.4014,209.4318 70.1624,194.1088 C69.4724,180.4018 77.9884,177.6798 85.9754,166.5198" id="Fill-20" fill="#97679F" mask="url(#mask-6)"></path>
                    </g>
                    <g id="Group-25">
                        <mask id="mask-8" fill="white">
                            <use xlink:href="#path-7"></use>
                        </mask>
                        <g id="Clip-24"></g>
                        <path d="M91.1727,175.0472 C105.8097,244.9272 105.4127,317.9172 90.0177,387.6332 C83.8607,388.3622 77.1467,388.0162 71.2497,386.0992 C66.5797,359.4422 69.1357,331.7292 76.9757,305.8282 C86.7357,273.5882 64.2927,242.2972 57.7717,209.2492 C55.8917,199.7242 60.5277,191.9542 66.6237,184.3982 C72.7217,176.8402 81.4917,175.8062 91.1727,175.0472" id="Fill-23" fill="#97679F" mask="url(#mask-8)"></path>
                    </g>
                    <g id="Group-28">
                        <mask id="mask-10" fill="white">
                            <use xlink:href="#path-9"></use>
                        </mask>
                        <g id="Clip-27"></g>
                        <path d="M62.2176,228.8391 C47.5806,222.1811 40.7466,205.4071 36.7056,189.8431 C32.1486,172.2891 29.3986,154.2671 28.5106,136.1521 C27.9886,125.4621 28.4126,113.8321 35.0876,105.4651 C40.0196,99.2851 47.7376,95.8581 55.5196,94.4631 C61.9736,93.3071 69.2476,93.6131 74.2376,97.8681 C81.1156,103.7351 80.8756,114.1461 81.6366,123.1541 C82.9126,138.2751 88.7006,152.9851 98.0696,164.9201 C93.1566,191.6411 83.3116,211.7161 62.2176,228.8391" id="Fill-26" fill="#007E8E" mask="url(#mask-10)"></path>
                    </g>
                    <g id="Group-31">
                        <mask id="mask-12" fill="white">
                            <use xlink:href="#path-11"></use>
                        </mask>
                        <g id="Clip-30"></g>
                        <path d="M69.5838,146.0735 C68.8038,143.8575 66.9268,141.9195 64.5988,141.5945 C62.4618,141.2975 60.1998,142.5025 59.2548,144.4415 C58.3098,146.3815 58.7108,149.2165 60.2618,150.7155 C58.5648,151.9195 57.7678,154.1035 57.9748,156.1575 C57.5048,156.1265 57.0298,156.1115 56.5478,156.1335 C55.3308,161.0315 53.3018,166.7535 50.5028,170.9545 C49.5868,172.3295 48.3218,173.7925 46.6708,173.7325 C44.5148,173.6555 43.4098,171.1375 42.9928,169.0205 C41.7958,162.9465 42.0678,156.5895 43.7798,150.6395 C45.9008,143.2695 50.2358,136.0015 48.7748,128.4725 C47.4278,121.5195 38.1198,114.2015 32.5768,109.7935 C31.9598,110.9325 31.4228,112.1135 30.8458,113.2745 C28.2908,120.3565 28.1358,128.4865 28.5108,136.1515 C29.3978,154.2665 32.1488,172.2895 36.7058,189.8435 C37.3948,192.4945 38.1718,195.1785 39.0468,197.845344 C45.8148,197.9055 52.8798,194.6555 57.5288,189.5265 C64.5468,181.7865 67.1128,171.0075 68.1408,160.6095 C67.8258,160.3655 67.5038,160.1325 67.1818,159.8995 C68.3358,157.7385 69.2178,155.4305 69.7218,153.0335 C70.2058,150.7335 70.3648,148.2905 69.5838,146.0735" id="Fill-29" fill="#005862" mask="url(#mask-12)"></path>
                    </g>
                    <g id="Group-34">
                        <mask id="mask-14" fill="white">
                            <use xlink:href="#path-13"></use>
                        </mask>
                        <g id="Clip-33"></g>
                        <path d="M57.7137,157.8421 C55.9707,155.1781 56.9877,151.1191 59.7827,149.5931 C58.4177,147.9231 58.3507,145.0611 59.5167,143.2451 C60.6817,141.4301 63.0687,140.4971 65.1567,141.0431 C67.4307,141.6371 69.0677,143.7811 69.5837,146.0731 C70.1007,148.3661 69.6557,150.7751 68.9067,153.0011 C67.7067,156.5711 65.7167,159.8721 63.1207,162.6021 C60.9187,162.1341 58.9457,159.7261 57.7137,157.8421" id="Fill-32" fill="#FFAC99" mask="url(#mask-14)"></path>
                    </g>
                    <g id="Group-37">
                        <mask id="mask-16" fill="white">
                            <use xlink:href="#path-15"></use>
                        </mask>
                        <g id="Clip-36"></g>
                        <path d="M37.0721,105.7151 C29.5671,116.3791 23.9221,128.3371 20.3851,140.8881 C18.2691,148.4011 16.9091,156.1261 16.3581,163.9121 C15.6961,173.2681 16.7121,183.8601 23.8531,189.9381 C31.8101,196.7091 44.6581,194.6871 52.5321,187.8191 C60.4061,180.9521 64.2151,170.5471 66.4511,160.3421 C63.3721,157.3021 59.7761,154.8541 55.4621,154.5391 C53.6791,159.2631 50.9961,164.7081 47.7251,168.5531 C46.6551,169.8111 45.2271,171.1161 43.5941,170.8641 C41.4621,170.5351 40.6591,167.9051 40.4921,165.7541 C40.0131,159.5821 41.0281,153.3001 43.4241,147.5921 C46.3911,140.5211 51.5461,133.8091 50.9761,126.1601 C50.4491,119.0981 42.0611,110.7411 37.0721,105.7151" id="Fill-35" fill="#007E8E" mask="url(#mask-16)"></path>
                    </g>
                    <g id="Group-40">
                        <mask id="mask-18" fill="white">
                            <use xlink:href="#path-17"></use>
                        </mask>
                        <g id="Clip-39"></g>
                        <path d="M64.7,95.3235 C79.283,97.6505 94.246,98.6435 108.788,96.0755 C123.33,93.5075 137.499,87.1505 147.666,76.4415 C157.833,65.7315 163.546,50.3835 160.893,35.8565 C164.031,33.5715 168.761,34.1725 172.59,34.8145 C177.895,60.6165 167.201,88.5235 147.042,105.4805 C126.884,122.4365 99.507,129.3655 73.208,127.8495 C68.57,119.4445 66.742,104.7025 64.7,95.3235" id="Fill-38" fill="#007E8E" mask="url(#mask-18)"></path>
                    </g>
                    <g id="Group-43">
                        <mask id="mask-20" fill="white">
                            <use xlink:href="#path-19"></use>
                        </mask>
                        <g id="Clip-42"></g>
                        <path d="M49.9588,72.8992 C58.8408,74.1072 68.0938,74.1912 76.5348,71.1762 C84.9768,68.1612 92.5168,61.6362 94.9998,53.0232 C96.4898,47.8552 95.5778,41.3312 90.9368,38.6122 C86.1678,35.8202 80.0168,38.3462 75.6898,41.7832 C71.3628,45.2202 67.5488,49.6702 62.2698,51.3022 C52.9118,54.1942 42.7298,47.1632 33.2638,49.6742 C25.8458,51.6422 20.8098,60.0562 22.5798,67.5232 C20.4918,68.9702 19.3268,71.9882 19.0888,74.5172 C18.8508,77.0462 19.4798,79.5912 20.4628,81.9352 C22.6798,87.2212 26.7538,91.7062 31.8038,94.4202 C36.8528,97.1342 42.8418,98.0562 48.4738,96.9882 C46.6378,94.4292 44.4628,91.1922 43.3348,88.2512 C42.2058,85.3112 41.8038,81.9872 42.8228,79.0072 C43.8428,76.0272 46.8378,72.4742 49.9588,72.8992" id="Fill-41" fill="#363436" mask="url(#mask-20)"></path>
                    </g>
                    <g id="Group-46">
                        <mask id="mask-22" fill="white">
                            <use xlink:href="#path-21"></use>
                        </mask>
                        <g id="Clip-45"></g>
                        <path d="M52.1483,88.6087 C53.7733,93.1597 55.3983,97.7107 57.0223,102.2607 C52.4903,104.3907 48.2363,104.5367 43.2373,104.8237 C42.2203,100.8797 41.6883,96.3397 40.6713,92.3967 C45.0203,91.1577 47.7993,89.8467 52.1483,88.6087" id="Fill-44" fill="#FFAC99" mask="url(#mask-22)"></path>
                    </g>
                    <g id="Group-49">
                        <mask id="mask-24" fill="white">
                            <use xlink:href="#path-23"></use>
                        </mask>
                        <g id="Clip-48"></g>
                        <path d="M56.659,101.2415 C51.468,100.3665 46.39,98.8385 41.59,96.6785 C41.313,95.2145 41.025,93.7655 40.672,92.3965 C45.02,91.1575 47.8,89.8465 52.148,88.6085 C53.651,92.8195 55.155,97.0305 56.659,101.2415" id="Fill-47" fill="#EC9A91" mask="url(#mask-24)"></path>
                    </g>
                    <g id="Group-52">
                        <mask id="mask-26" fill="white">
                            <use xlink:href="#path-25"></use>
                        </mask>
                        <g id="Clip-51"></g>
                        <path d="M51.7088,64.2776 C58.5638,72.0696 62.0018,82.7666 60.9688,93.0926 C54.4868,94.8936 47.2528,96.6896 40.7118,95.1176 C35.3638,93.8316 30.6108,90.2446 27.9078,85.4546 C25.2058,80.6636 24.5938,74.7396 26.2598,69.4976 C27.4248,65.8316 29.7568,62.4356 33.1048,60.5396 C38.6998,57.3716 47.4618,59.4506 51.7088,64.2776" id="Fill-50" fill="#FFAC99" mask="url(#mask-26)"></path>
                    </g>
                    <g id="Group-55">
                        <mask id="mask-28" fill="white">
                            <use xlink:href="#path-27"></use>
                        </mask>
                        <g id="Clip-54"></g>
                        <path d="M64.9031,68.2318 C58.4271,71.3278 51.1101,72.6388 43.9621,71.9848 C42.4311,74.6208 40.6771,76.6688 38.3121,78.5908 C39.6231,81.1938 41.0111,83.9708 42.3221,86.5748 C41.6181,86.7778 40.7431,87.2468 40.0391,87.4498 C39.4501,84.9098 38.4111,81.8468 36.7021,79.8778 C36.1331,79.2218 35.4101,78.5688 34.5431,78.5838 C33.6601,78.5968 32.9141,79.3468 32.6651,80.1938 C32.4151,81.0408 32.5691,81.9558 32.8281,82.7998 C33.7681,85.8748 36.1321,88.4828 39.0991,89.7208 C40.2631,91.5128 41.4121,94.2558 40.8991,96.3318 C33.8181,95.5898 27.6451,90.9838 24.6431,84.5278 C21.6421,78.0708 22.2891,70.0608 26.2861,64.1688 C30.2841,58.2768 37.4891,54.7158 44.5971,55.1198 C52.9831,55.5948 60.2701,61.2258 64.9031,68.2318" id="Fill-53" fill="#363436" mask="url(#mask-28)"></path>
                    </g>
                </g>
            </g>
        </g>
    </g>
</svg>